%TF.GenerationSoftware,KiCad,Pcbnew,8.0.4*%
%TF.CreationDate,2026-09-30T11:27:11-07:00*%
%TF.ProjectId,kamioka_short_pcb,6b616d69-6f6b-4615-9f73-686f72745f70,rev?*%
%TF.SameCoordinates,Original*%
%TF.FileFunction,Legend,Bot*%
%TF.FilePolarity,Positive*%
%FSLAX46Y46*%
G04 Gerber Fmt 4.6, Leading zero omitted, Abs format (unit mm)*
G04 Created by KiCad (PCBNEW 8.0.4) date 2026-09-30 11:27:11*
%MOMM*%
%LPD*%
G01*
G04 APERTURE LIST*
%ADD10C,0.254000*%
%ADD11C,0.200000*%
%ADD12C,0.100000*%
%ADD13C,0.010000*%
%ADD14C,2.600000*%
%ADD15C,6.400000*%
%ADD16C,0.500000*%
%ADD17C,1.190000*%
%ADD18R,1.219000X1.219000*%
%ADD19C,1.219000*%
%ADD20C,3.960000*%
G04 APERTURE END LIST*
D10*
X308923332Y-67254318D02*
X308923332Y-68161461D01*
X308923332Y-68161461D02*
X308983809Y-68342889D01*
X308983809Y-68342889D02*
X309104761Y-68463842D01*
X309104761Y-68463842D02*
X309286190Y-68524318D01*
X309286190Y-68524318D02*
X309407142Y-68524318D01*
X307653332Y-68524318D02*
X308379047Y-68524318D01*
X308016190Y-68524318D02*
X308016190Y-67254318D01*
X308016190Y-67254318D02*
X308137142Y-67435746D01*
X308137142Y-67435746D02*
X308258094Y-67556699D01*
X308258094Y-67556699D02*
X308379047Y-67617175D01*
X308923332Y-51344318D02*
X308923332Y-52251461D01*
X308923332Y-52251461D02*
X308983809Y-52432889D01*
X308983809Y-52432889D02*
X309104761Y-52553842D01*
X309104761Y-52553842D02*
X309286190Y-52614318D01*
X309286190Y-52614318D02*
X309407142Y-52614318D01*
X308379047Y-51465270D02*
X308318571Y-51404794D01*
X308318571Y-51404794D02*
X308197618Y-51344318D01*
X308197618Y-51344318D02*
X307895237Y-51344318D01*
X307895237Y-51344318D02*
X307774285Y-51404794D01*
X307774285Y-51404794D02*
X307713809Y-51465270D01*
X307713809Y-51465270D02*
X307653332Y-51586222D01*
X307653332Y-51586222D02*
X307653332Y-51707175D01*
X307653332Y-51707175D02*
X307713809Y-51888603D01*
X307713809Y-51888603D02*
X308439523Y-52614318D01*
X308439523Y-52614318D02*
X307653332Y-52614318D01*
D11*
%TO.C,J1*%
X286400000Y-64040000D02*
X286400000Y-71860000D01*
X286400000Y-71860000D02*
X330600000Y-71860000D01*
D12*
X323740000Y-63480000D02*
X323740000Y-63480000D01*
X323740000Y-63580000D02*
X323740000Y-63580000D01*
D11*
X330600000Y-64040000D02*
X286400000Y-64040000D01*
X330600000Y-71860000D02*
X330600000Y-64040000D01*
D12*
X323740000Y-63480000D02*
G75*
G02*
X323740000Y-63580000I0J-50000D01*
G01*
X323740000Y-63580000D02*
G75*
G02*
X323740000Y-63480000I0J50000D01*
G01*
D11*
%TO.C,J2*%
X286400000Y-48130000D02*
X286400000Y-55950000D01*
X286400000Y-55950000D02*
X330600000Y-55950000D01*
D12*
X293260000Y-56410000D02*
X293260000Y-56410000D01*
X293260000Y-56510000D02*
X293260000Y-56510000D01*
D11*
X330600000Y-48130000D02*
X286400000Y-48130000D01*
X330600000Y-55950000D02*
X330600000Y-48130000D01*
D12*
X293260000Y-56410000D02*
G75*
G02*
X293260000Y-56510000I0J-50000D01*
G01*
X293260000Y-56510000D02*
G75*
G02*
X293260000Y-56410000I0J50000D01*
G01*
%TD*%
%LPC*%
D13*
%TO.C,J3*%
X92417000Y-51430000D02*
X92466000Y-51434000D01*
X92516000Y-51441000D01*
X92565000Y-51450000D01*
X92613000Y-51461000D01*
X92661000Y-51476000D01*
X92708000Y-51492000D01*
X92754000Y-51511000D01*
X92799000Y-51533000D01*
X92842000Y-51556000D01*
X92885000Y-51582000D01*
X92926000Y-51611000D01*
X92965000Y-51641000D01*
X93003000Y-51673000D01*
X93039000Y-51708000D01*
X93074000Y-51744000D01*
X93106000Y-51782000D01*
X93136000Y-51821000D01*
X93165000Y-51862000D01*
X93191000Y-51905000D01*
X93214000Y-51948000D01*
X93236000Y-51993000D01*
X93255000Y-52039000D01*
X93271000Y-52086000D01*
X93286000Y-52134000D01*
X93297000Y-52182000D01*
X93306000Y-52231000D01*
X93313000Y-52281000D01*
X93317000Y-52330000D01*
X93318000Y-52380000D01*
X93317000Y-52430000D01*
X93313000Y-52479000D01*
X93306000Y-52529000D01*
X93297000Y-52578000D01*
X93286000Y-52626000D01*
X93271000Y-52674000D01*
X93255000Y-52721000D01*
X93236000Y-52767000D01*
X93214000Y-52812000D01*
X93191000Y-52856000D01*
X93165000Y-52898000D01*
X93136000Y-52939000D01*
X93106000Y-52978000D01*
X93074000Y-53016000D01*
X93039000Y-53052000D01*
X93003000Y-53087000D01*
X92965000Y-53119000D01*
X92926000Y-53149000D01*
X92885000Y-53178000D01*
X92842000Y-53204000D01*
X92799000Y-53227000D01*
X92754000Y-53249000D01*
X92708000Y-53268000D01*
X92661000Y-53284000D01*
X92613000Y-53299000D01*
X92565000Y-53310000D01*
X92516000Y-53319000D01*
X92466000Y-53326000D01*
X92417000Y-53330000D01*
X92367000Y-53331000D01*
X92317000Y-53330000D01*
X92268000Y-53326000D01*
X92218000Y-53319000D01*
X92169000Y-53310000D01*
X92121000Y-53299000D01*
X92073000Y-53284000D01*
X92026000Y-53268000D01*
X91980000Y-53249000D01*
X91935000Y-53227000D01*
X91892000Y-53204000D01*
X91849000Y-53178000D01*
X91808000Y-53149000D01*
X91769000Y-53119000D01*
X91731000Y-53087000D01*
X91695000Y-53052000D01*
X91660000Y-53016000D01*
X91628000Y-52978000D01*
X91598000Y-52939000D01*
X91569000Y-52898000D01*
X91543000Y-52856000D01*
X91520000Y-52812000D01*
X91498000Y-52767000D01*
X91479000Y-52721000D01*
X91463000Y-52674000D01*
X91448000Y-52626000D01*
X91437000Y-52578000D01*
X91428000Y-52529000D01*
X91421000Y-52479000D01*
X91417000Y-52430000D01*
X91416000Y-52380000D01*
X91417000Y-52330000D01*
X91421000Y-52281000D01*
X91428000Y-52231000D01*
X91437000Y-52182000D01*
X91448000Y-52134000D01*
X91463000Y-52086000D01*
X91479000Y-52039000D01*
X91498000Y-51993000D01*
X91520000Y-51948000D01*
X91543000Y-51905000D01*
X91569000Y-51862000D01*
X91598000Y-51821000D01*
X91628000Y-51782000D01*
X91660000Y-51744000D01*
X91695000Y-51708000D01*
X91731000Y-51673000D01*
X91769000Y-51641000D01*
X91808000Y-51611000D01*
X91849000Y-51582000D01*
X91891000Y-51556000D01*
X91935000Y-51533000D01*
X91980000Y-51511000D01*
X92026000Y-51492000D01*
X92073000Y-51476000D01*
X92121000Y-51461000D01*
X92169000Y-51450000D01*
X92218000Y-51441000D01*
X92268000Y-51434000D01*
X92317000Y-51430000D01*
X92367000Y-51429000D01*
X92417000Y-51430000D01*
G36*
X92417000Y-51430000D02*
G01*
X92466000Y-51434000D01*
X92516000Y-51441000D01*
X92565000Y-51450000D01*
X92613000Y-51461000D01*
X92661000Y-51476000D01*
X92708000Y-51492000D01*
X92754000Y-51511000D01*
X92799000Y-51533000D01*
X92842000Y-51556000D01*
X92885000Y-51582000D01*
X92926000Y-51611000D01*
X92965000Y-51641000D01*
X93003000Y-51673000D01*
X93039000Y-51708000D01*
X93074000Y-51744000D01*
X93106000Y-51782000D01*
X93136000Y-51821000D01*
X93165000Y-51862000D01*
X93191000Y-51905000D01*
X93214000Y-51948000D01*
X93236000Y-51993000D01*
X93255000Y-52039000D01*
X93271000Y-52086000D01*
X93286000Y-52134000D01*
X93297000Y-52182000D01*
X93306000Y-52231000D01*
X93313000Y-52281000D01*
X93317000Y-52330000D01*
X93318000Y-52380000D01*
X93317000Y-52430000D01*
X93313000Y-52479000D01*
X93306000Y-52529000D01*
X93297000Y-52578000D01*
X93286000Y-52626000D01*
X93271000Y-52674000D01*
X93255000Y-52721000D01*
X93236000Y-52767000D01*
X93214000Y-52812000D01*
X93191000Y-52856000D01*
X93165000Y-52898000D01*
X93136000Y-52939000D01*
X93106000Y-52978000D01*
X93074000Y-53016000D01*
X93039000Y-53052000D01*
X93003000Y-53087000D01*
X92965000Y-53119000D01*
X92926000Y-53149000D01*
X92885000Y-53178000D01*
X92842000Y-53204000D01*
X92799000Y-53227000D01*
X92754000Y-53249000D01*
X92708000Y-53268000D01*
X92661000Y-53284000D01*
X92613000Y-53299000D01*
X92565000Y-53310000D01*
X92516000Y-53319000D01*
X92466000Y-53326000D01*
X92417000Y-53330000D01*
X92367000Y-53331000D01*
X92317000Y-53330000D01*
X92268000Y-53326000D01*
X92218000Y-53319000D01*
X92169000Y-53310000D01*
X92121000Y-53299000D01*
X92073000Y-53284000D01*
X92026000Y-53268000D01*
X91980000Y-53249000D01*
X91935000Y-53227000D01*
X91892000Y-53204000D01*
X91849000Y-53178000D01*
X91808000Y-53149000D01*
X91769000Y-53119000D01*
X91731000Y-53087000D01*
X91695000Y-53052000D01*
X91660000Y-53016000D01*
X91628000Y-52978000D01*
X91598000Y-52939000D01*
X91569000Y-52898000D01*
X91543000Y-52856000D01*
X91520000Y-52812000D01*
X91498000Y-52767000D01*
X91479000Y-52721000D01*
X91463000Y-52674000D01*
X91448000Y-52626000D01*
X91437000Y-52578000D01*
X91428000Y-52529000D01*
X91421000Y-52479000D01*
X91417000Y-52430000D01*
X91416000Y-52380000D01*
X91417000Y-52330000D01*
X91421000Y-52281000D01*
X91428000Y-52231000D01*
X91437000Y-52182000D01*
X91448000Y-52134000D01*
X91463000Y-52086000D01*
X91479000Y-52039000D01*
X91498000Y-51993000D01*
X91520000Y-51948000D01*
X91543000Y-51905000D01*
X91569000Y-51862000D01*
X91598000Y-51821000D01*
X91628000Y-51782000D01*
X91660000Y-51744000D01*
X91695000Y-51708000D01*
X91731000Y-51673000D01*
X91769000Y-51641000D01*
X91808000Y-51611000D01*
X91849000Y-51582000D01*
X91891000Y-51556000D01*
X91935000Y-51533000D01*
X91980000Y-51511000D01*
X92026000Y-51492000D01*
X92073000Y-51476000D01*
X92121000Y-51461000D01*
X92169000Y-51450000D01*
X92218000Y-51441000D01*
X92268000Y-51434000D01*
X92317000Y-51430000D01*
X92367000Y-51429000D01*
X92417000Y-51430000D01*
G37*
X92417000Y-66670000D02*
X92466000Y-66674000D01*
X92516000Y-66681000D01*
X92565000Y-66690000D01*
X92613000Y-66701000D01*
X92661000Y-66716000D01*
X92708000Y-66732000D01*
X92754000Y-66751000D01*
X92799000Y-66773000D01*
X92842000Y-66796000D01*
X92885000Y-66822000D01*
X92926000Y-66851000D01*
X92965000Y-66881000D01*
X93003000Y-66913000D01*
X93039000Y-66948000D01*
X93074000Y-66984000D01*
X93106000Y-67022000D01*
X93136000Y-67061000D01*
X93165000Y-67102000D01*
X93191000Y-67144000D01*
X93214000Y-67188000D01*
X93236000Y-67233000D01*
X93255000Y-67279000D01*
X93271000Y-67326000D01*
X93286000Y-67374000D01*
X93297000Y-67422000D01*
X93306000Y-67471000D01*
X93313000Y-67521000D01*
X93317000Y-67570000D01*
X93318000Y-67620000D01*
X93317000Y-67670000D01*
X93313000Y-67719000D01*
X93306000Y-67769000D01*
X93297000Y-67818000D01*
X93286000Y-67866000D01*
X93271000Y-67914000D01*
X93255000Y-67961000D01*
X93236000Y-68007000D01*
X93214000Y-68052000D01*
X93191000Y-68095000D01*
X93165000Y-68138000D01*
X93136000Y-68179000D01*
X93106000Y-68218000D01*
X93074000Y-68256000D01*
X93039000Y-68292000D01*
X93003000Y-68327000D01*
X92965000Y-68359000D01*
X92926000Y-68389000D01*
X92885000Y-68418000D01*
X92842000Y-68444000D01*
X92799000Y-68467000D01*
X92754000Y-68489000D01*
X92708000Y-68508000D01*
X92661000Y-68524000D01*
X92613000Y-68539000D01*
X92565000Y-68550000D01*
X92516000Y-68559000D01*
X92466000Y-68566000D01*
X92417000Y-68570000D01*
X92367000Y-68571000D01*
X92317000Y-68570000D01*
X92268000Y-68566000D01*
X92218000Y-68559000D01*
X92169000Y-68550000D01*
X92121000Y-68539000D01*
X92073000Y-68524000D01*
X92026000Y-68508000D01*
X91980000Y-68489000D01*
X91935000Y-68467000D01*
X91892000Y-68444000D01*
X91849000Y-68418000D01*
X91808000Y-68389000D01*
X91769000Y-68359000D01*
X91731000Y-68327000D01*
X91695000Y-68292000D01*
X91660000Y-68256000D01*
X91628000Y-68218000D01*
X91598000Y-68179000D01*
X91569000Y-68138000D01*
X91543000Y-68095000D01*
X91520000Y-68052000D01*
X91498000Y-68007000D01*
X91479000Y-67961000D01*
X91463000Y-67914000D01*
X91448000Y-67866000D01*
X91437000Y-67818000D01*
X91428000Y-67769000D01*
X91421000Y-67719000D01*
X91417000Y-67670000D01*
X91416000Y-67620000D01*
X91417000Y-67570000D01*
X91421000Y-67521000D01*
X91428000Y-67471000D01*
X91437000Y-67422000D01*
X91448000Y-67374000D01*
X91463000Y-67326000D01*
X91479000Y-67279000D01*
X91498000Y-67233000D01*
X91520000Y-67188000D01*
X91543000Y-67144000D01*
X91569000Y-67102000D01*
X91598000Y-67061000D01*
X91628000Y-67022000D01*
X91660000Y-66984000D01*
X91695000Y-66948000D01*
X91731000Y-66913000D01*
X91769000Y-66881000D01*
X91808000Y-66851000D01*
X91849000Y-66822000D01*
X91892000Y-66796000D01*
X91935000Y-66773000D01*
X91980000Y-66751000D01*
X92026000Y-66732000D01*
X92073000Y-66716000D01*
X92121000Y-66701000D01*
X92169000Y-66690000D01*
X92218000Y-66681000D01*
X92268000Y-66674000D01*
X92317000Y-66670000D01*
X92367000Y-66669000D01*
X92417000Y-66670000D01*
G36*
X92417000Y-66670000D02*
G01*
X92466000Y-66674000D01*
X92516000Y-66681000D01*
X92565000Y-66690000D01*
X92613000Y-66701000D01*
X92661000Y-66716000D01*
X92708000Y-66732000D01*
X92754000Y-66751000D01*
X92799000Y-66773000D01*
X92842000Y-66796000D01*
X92885000Y-66822000D01*
X92926000Y-66851000D01*
X92965000Y-66881000D01*
X93003000Y-66913000D01*
X93039000Y-66948000D01*
X93074000Y-66984000D01*
X93106000Y-67022000D01*
X93136000Y-67061000D01*
X93165000Y-67102000D01*
X93191000Y-67144000D01*
X93214000Y-67188000D01*
X93236000Y-67233000D01*
X93255000Y-67279000D01*
X93271000Y-67326000D01*
X93286000Y-67374000D01*
X93297000Y-67422000D01*
X93306000Y-67471000D01*
X93313000Y-67521000D01*
X93317000Y-67570000D01*
X93318000Y-67620000D01*
X93317000Y-67670000D01*
X93313000Y-67719000D01*
X93306000Y-67769000D01*
X93297000Y-67818000D01*
X93286000Y-67866000D01*
X93271000Y-67914000D01*
X93255000Y-67961000D01*
X93236000Y-68007000D01*
X93214000Y-68052000D01*
X93191000Y-68095000D01*
X93165000Y-68138000D01*
X93136000Y-68179000D01*
X93106000Y-68218000D01*
X93074000Y-68256000D01*
X93039000Y-68292000D01*
X93003000Y-68327000D01*
X92965000Y-68359000D01*
X92926000Y-68389000D01*
X92885000Y-68418000D01*
X92842000Y-68444000D01*
X92799000Y-68467000D01*
X92754000Y-68489000D01*
X92708000Y-68508000D01*
X92661000Y-68524000D01*
X92613000Y-68539000D01*
X92565000Y-68550000D01*
X92516000Y-68559000D01*
X92466000Y-68566000D01*
X92417000Y-68570000D01*
X92367000Y-68571000D01*
X92317000Y-68570000D01*
X92268000Y-68566000D01*
X92218000Y-68559000D01*
X92169000Y-68550000D01*
X92121000Y-68539000D01*
X92073000Y-68524000D01*
X92026000Y-68508000D01*
X91980000Y-68489000D01*
X91935000Y-68467000D01*
X91892000Y-68444000D01*
X91849000Y-68418000D01*
X91808000Y-68389000D01*
X91769000Y-68359000D01*
X91731000Y-68327000D01*
X91695000Y-68292000D01*
X91660000Y-68256000D01*
X91628000Y-68218000D01*
X91598000Y-68179000D01*
X91569000Y-68138000D01*
X91543000Y-68095000D01*
X91520000Y-68052000D01*
X91498000Y-68007000D01*
X91479000Y-67961000D01*
X91463000Y-67914000D01*
X91448000Y-67866000D01*
X91437000Y-67818000D01*
X91428000Y-67769000D01*
X91421000Y-67719000D01*
X91417000Y-67670000D01*
X91416000Y-67620000D01*
X91417000Y-67570000D01*
X91421000Y-67521000D01*
X91428000Y-67471000D01*
X91437000Y-67422000D01*
X91448000Y-67374000D01*
X91463000Y-67326000D01*
X91479000Y-67279000D01*
X91498000Y-67233000D01*
X91520000Y-67188000D01*
X91543000Y-67144000D01*
X91569000Y-67102000D01*
X91598000Y-67061000D01*
X91628000Y-67022000D01*
X91660000Y-66984000D01*
X91695000Y-66948000D01*
X91731000Y-66913000D01*
X91769000Y-66881000D01*
X91808000Y-66851000D01*
X91849000Y-66822000D01*
X91892000Y-66796000D01*
X91935000Y-66773000D01*
X91980000Y-66751000D01*
X92026000Y-66732000D01*
X92073000Y-66716000D01*
X92121000Y-66701000D01*
X92169000Y-66690000D01*
X92218000Y-66681000D01*
X92268000Y-66674000D01*
X92317000Y-66670000D01*
X92367000Y-66669000D01*
X92417000Y-66670000D01*
G37*
%TD*%
D14*
%TO.C,H7*%
X145025000Y-52000000D03*
%TD*%
D15*
%TO.C,H10*%
X205000000Y-70000000D03*
%TD*%
D14*
%TO.C,H1*%
X70725000Y-53000000D03*
%TD*%
%TO.C,H4*%
X70725000Y-67000000D03*
%TD*%
%TO.C,H3*%
X49250000Y-67000000D03*
%TD*%
%TO.C,H6*%
X245025000Y-68000000D03*
%TD*%
D15*
%TO.C,H9*%
X125000000Y-50000000D03*
%TD*%
D14*
%TO.C,H5*%
X145025000Y-68000000D03*
%TD*%
D16*
%TO.C,mouse-bite-1mm-3mm*%
X90200000Y-48460000D03*
X90800000Y-48460000D03*
X90200000Y-47750000D03*
X90800000Y-47750000D03*
X90800000Y-47050000D03*
X90200000Y-47040000D03*
%TD*%
%TO.C,mouse-bite-1mm-3mm*%
X90200000Y-72960000D03*
X90800000Y-72960000D03*
X90200000Y-72250000D03*
X90800000Y-72250000D03*
X90800000Y-71550000D03*
X90200000Y-71540000D03*
%TD*%
D17*
%TO.C,J4*%
X87955000Y-67175500D03*
X87955000Y-52824500D03*
%TD*%
D14*
%TO.C,H8*%
X245025000Y-52000000D03*
%TD*%
%TO.C,H2*%
X49250000Y-53000000D03*
%TD*%
D18*
%TO.C,J1*%
X323740000Y-66680000D03*
D19*
X321200000Y-66680000D03*
X318660000Y-66680000D03*
X316120000Y-66680000D03*
X313580000Y-66680000D03*
X311040000Y-66680000D03*
X308500000Y-66680000D03*
X305960000Y-66680000D03*
X303420000Y-66680000D03*
X300880000Y-66680000D03*
X298340000Y-66680000D03*
X295800000Y-66680000D03*
X293260000Y-66680000D03*
X322470000Y-69220000D03*
X319930000Y-69220000D03*
X317390000Y-69220000D03*
X314850000Y-69220000D03*
X312310000Y-69220000D03*
X309770000Y-69220000D03*
X307230000Y-69220000D03*
X304690000Y-69220000D03*
X302150000Y-69220000D03*
X299610000Y-69220000D03*
X297070000Y-69220000D03*
X294530000Y-69220000D03*
D20*
X327550000Y-67950000D03*
X289450000Y-67950000D03*
%TD*%
D18*
%TO.C,J2*%
X293260000Y-53310000D03*
D19*
X295800000Y-53310000D03*
X298340000Y-53310000D03*
X300880000Y-53310000D03*
X303420000Y-53310000D03*
X305960000Y-53310000D03*
X308500000Y-53310000D03*
X311040000Y-53310000D03*
X313580000Y-53310000D03*
X316120000Y-53310000D03*
X318660000Y-53310000D03*
X321200000Y-53310000D03*
X323740000Y-53310000D03*
X294530000Y-50770000D03*
X297070000Y-50770000D03*
X299610000Y-50770000D03*
X302150000Y-50770000D03*
X304690000Y-50770000D03*
X307230000Y-50770000D03*
X309770000Y-50770000D03*
X312310000Y-50770000D03*
X314850000Y-50770000D03*
X317390000Y-50770000D03*
X319930000Y-50770000D03*
X322470000Y-50770000D03*
D20*
X289450000Y-52040000D03*
X327550000Y-52040000D03*
%TD*%
%LPD*%
M02*
