%TF.GenerationSoftware,KiCad,Pcbnew,8.0.4*%
%TF.CreationDate,2026-09-30T11:27:11-07:00*%
%TF.ProjectId,kamioka_short_pcb,6b616d69-6f6b-4615-9f73-686f72745f70,rev?*%
%TF.SameCoordinates,Original*%
%TF.FileFunction,Copper,L2,Bot*%
%TF.FilePolarity,Positive*%
%FSLAX46Y46*%
G04 Gerber Fmt 4.6, Leading zero omitted, Abs format (unit mm)*
G04 Created by KiCad (PCBNEW 8.0.4) date 2026-09-30 11:27:11*
%MOMM*%
%LPD*%
G01*
G04 APERTURE LIST*
G04 Aperture macros list*
%AMFreePoly0*
4,1,255,0.045111,0.854999,0.045453,0.854979,0.089453,0.850979,0.089565,0.850968,0.133565,0.845968,0.134002,0.845899,0.178002,0.836899,0.178133,0.836870,0.221133,0.826870,0.221447,0.826786,0.264447,0.813786,0.264682,0.813709,0.306682,0.798709,0.306915,0.798619,0.347915,0.781619,0.348145,0.781516,0.388145,0.762516,0.388324,0.762427,0.428324,0.741427,0.428640,0.741246,
0.465640,0.718246,0.465875,0.718091,0.502875,0.692091,0.503000,0.692000,0.539000,0.665000,0.539301,0.664756,0.572301,0.635756,0.572363,0.635700,0.605363,0.605700,0.605700,0.605363,0.635700,0.572363,0.635756,0.572301,0.664756,0.539301,0.665000,0.539000,0.692000,0.503000,0.692091,0.502875,0.718091,0.465875,0.718246,0.465640,0.741246,0.428640,0.741427,0.428324,
0.762427,0.388324,0.762516,0.388145,0.781516,0.348145,0.781619,0.347915,0.798619,0.306915,0.798709,0.306682,0.813709,0.264682,0.813786,0.264447,0.826786,0.221447,0.826870,0.221133,0.836870,0.178133,0.836899,0.178002,0.845899,0.134002,0.845968,0.133565,0.850968,0.089565,0.850979,0.089453,0.854979,0.045453,0.854999,0.045111,0.855890,0.005000,2.400000,0.005000,
2.403536,0.003536,2.405000,0.000000,2.405000,-0.130000,2.403536,-0.133536,2.400000,-0.135000,1.011831,-0.135000,0.941961,-0.394100,2.109955,-0.890398,2.112637,-0.893129,2.112602,-0.896955,2.112596,-0.896970,2.061596,-1.015970,2.058857,-1.018642,2.055049,-1.018604,0.878545,-0.520085,0.711642,-0.729684,1.200598,-1.236529,1.201999,-1.240090,1.200471,-1.243598,1.197000,-1.245000,
1.016000,-1.245000,1.012464,-1.243536,1.012397,-1.243467,0.606331,-0.821516,0.590823,-0.832127,0.573883,-0.844085,0.573607,-0.844266,0.555607,-0.855266,0.555505,-0.855327,0.536546,-0.866303,0.518607,-0.877266,0.518329,-0.877425,0.499363,-0.887407,0.481428,-0.897371,0.481329,-0.897425,0.462329,-0.907425,0.462052,-0.907560,0.442080,-0.916547,0.423140,-0.925519,0.422857,-0.925642,
0.402902,-0.933624,0.383940,-0.941608,0.383857,-0.941642,0.363857,-0.949642,0.363652,-0.949719,0.303652,-0.970719,0.303374,-0.970808,0.282374,-0.976808,0.262437,-0.982789,0.262158,-0.982864,0.241158,-0.987864,0.220212,-0.992850,0.220213,-0.992851,0.200213,-0.997851,0.199936,-0.997912,0.157936,-1.005912,0.157707,-1.005950,0.115707,-1.011950,0.115474,-1.011977,0.094584,-1.013966,
0.072676,-1.016954,0.072238,-1.016994,0.051353,-1.017988,0.030474,-1.019977,0.030167,-1.019997,0.000167,-1.020997,-0.000167,-1.020997,-0.030167,-1.019997,-0.030474,-1.019977,-0.051353,-1.017988,-0.072238,-1.016994,-0.072676,-1.016954,-0.094584,-1.013966,-0.115474,-1.011977,-0.115707,-1.011950,-0.157707,-1.005950,-0.157936,-1.005912,-0.199936,-0.997912,-0.200213,-0.997851,-0.220213,-0.992851,
-0.220212,-0.992850,-0.241158,-0.987864,-0.262158,-0.982864,-0.262437,-0.982789,-0.282374,-0.976808,-0.303374,-0.970808,-0.303652,-0.970719,-0.363652,-0.949719,-0.363857,-0.949642,-0.383857,-0.941642,-0.383940,-0.941608,-0.402902,-0.933624,-0.422857,-0.925642,-0.423140,-0.925519,-0.442080,-0.916547,-0.462052,-0.907560,-0.462329,-0.907425,-0.481329,-0.897425,-0.481428,-0.897371,-0.499363,-0.887407,
-0.518329,-0.877425,-0.518607,-0.877266,-0.536546,-0.866303,-0.555505,-0.855327,-0.555607,-0.855266,-0.573607,-0.844266,-0.573883,-0.844085,-0.590823,-0.832127,-0.606331,-0.821516,-1.012397,-1.243467,-1.015904,-1.244999,-1.016000,-1.245000,-1.198000,-1.245000,-1.201536,-1.243536,-1.203000,-1.240000,-1.201595,-1.236525,-0.711645,-0.729680,-0.878545,-0.520085,-2.055049,-1.018604,-2.058876,-1.018635,
-2.061596,-1.015970,-2.112596,-0.896970,-2.112642,-0.893143,-2.109970,-0.890404,-2.109955,-0.890398,-0.941961,-0.394100,-1.011831,-0.135000,-2.290000,-0.135000,-2.293536,-0.133536,-2.295000,-0.130000,-2.295000,0.000000,-2.293536,0.003536,-2.290000,0.005000,-0.855890,0.005000,-0.854999,0.045111,-0.854979,0.045453,-0.850979,0.089453,-0.850968,0.089565,-0.845968,0.133565,-0.845899,0.134002,
-0.836899,0.178002,-0.836870,0.178133,-0.826870,0.221133,-0.826786,0.221447,-0.813786,0.264447,-0.813709,0.264682,-0.798709,0.306682,-0.798619,0.306915,-0.781619,0.347915,-0.781516,0.348145,-0.762516,0.388145,-0.762427,0.388324,-0.741427,0.428324,-0.741246,0.428640,-0.718246,0.465640,-0.718091,0.465875,-0.692091,0.502875,-0.692000,0.503000,-0.665000,0.539000,-0.664756,0.539301,
-0.635756,0.572301,-0.635700,0.572363,-0.605700,0.605363,-0.605363,0.605700,-0.572363,0.635700,-0.572301,0.635756,-0.539301,0.664756,-0.539000,0.665000,-0.503000,0.692000,-0.502875,0.692091,-0.465875,0.718091,-0.465640,0.718246,-0.428640,0.741246,-0.428324,0.741427,-0.388324,0.762427,-0.388145,0.762516,-0.348145,0.781516,-0.347915,0.781619,-0.306915,0.798619,-0.306682,0.798709,
-0.264682,0.813709,-0.264447,0.813786,-0.221447,0.826786,-0.221133,0.826870,-0.178133,0.836870,-0.178002,0.836899,-0.134002,0.845899,-0.133565,0.845968,-0.089565,0.850968,-0.089453,0.850979,-0.045453,0.854979,-0.045111,0.854999,-0.000111,0.855999,0.000111,0.855999,0.045111,0.854999,0.045111,0.854999,$1*%
%AMFreePoly1*
4,1,255,0.045111,0.854999,0.045453,0.854979,0.089453,0.850979,0.089565,0.850968,0.133565,0.845968,0.134002,0.845899,0.178002,0.836899,0.178133,0.836870,0.221133,0.826870,0.221447,0.826786,0.264447,0.813786,0.264682,0.813709,0.306682,0.798709,0.306915,0.798619,0.347915,0.781619,0.348145,0.781516,0.388145,0.762516,0.388324,0.762427,0.428324,0.741427,0.428640,0.741246,
0.465640,0.718246,0.465875,0.718091,0.502875,0.692091,0.503000,0.692000,0.539000,0.665000,0.539301,0.664756,0.572301,0.635756,0.572363,0.635700,0.605363,0.605700,0.605700,0.605363,0.635700,0.572363,0.635756,0.572301,0.664756,0.539301,0.665000,0.539000,0.692000,0.503000,0.692091,0.502875,0.718091,0.465875,0.718246,0.465640,0.741246,0.428640,0.741427,0.428324,
0.762427,0.388324,0.762516,0.388145,0.781516,0.348145,0.781619,0.347915,0.798619,0.306915,0.798709,0.306682,0.813709,0.264682,0.813786,0.264447,0.826786,0.221447,0.826870,0.221133,0.836870,0.178133,0.836899,0.178002,0.845899,0.134002,0.845968,0.133565,0.850968,0.089565,0.850979,0.089453,0.854979,0.045453,0.854999,0.045111,0.855890,0.005000,2.400000,0.005000,
2.403536,0.003536,2.405000,0.000000,2.405000,-0.130000,2.403536,-0.133536,2.400000,-0.135000,1.011831,-0.135000,0.941961,-0.394100,2.109955,-0.890398,2.112637,-0.893129,2.112602,-0.896955,2.112596,-0.896970,2.061596,-1.015970,2.058857,-1.018642,2.055049,-1.018604,0.878545,-0.520085,0.711645,-0.729680,1.201595,-1.236525,1.202999,-1.240085,1.201475,-1.243595,1.198000,-1.245000,
1.016000,-1.245000,1.012464,-1.243536,1.012397,-1.243467,0.606331,-0.821516,0.590823,-0.832127,0.573883,-0.844085,0.573607,-0.844266,0.555607,-0.855266,0.555505,-0.855327,0.536546,-0.866303,0.518607,-0.877266,0.518329,-0.877425,0.499363,-0.887407,0.481428,-0.897371,0.481329,-0.897425,0.462329,-0.907425,0.462052,-0.907560,0.442080,-0.916547,0.423140,-0.925519,0.422857,-0.925642,
0.402902,-0.933624,0.383940,-0.941608,0.383857,-0.941642,0.363857,-0.949642,0.363652,-0.949719,0.303652,-0.970719,0.303374,-0.970808,0.282374,-0.976808,0.262437,-0.982789,0.262158,-0.982864,0.241158,-0.987864,0.220212,-0.992850,0.220213,-0.992851,0.200213,-0.997851,0.199936,-0.997912,0.157936,-1.005912,0.157707,-1.005950,0.115707,-1.011950,0.115474,-1.011977,0.094584,-1.013966,
0.072676,-1.016954,0.072238,-1.016994,0.051353,-1.017988,0.030474,-1.019977,0.030167,-1.019997,0.000167,-1.020997,-0.000167,-1.020997,-0.030167,-1.019997,-0.030474,-1.019977,-0.051353,-1.017988,-0.072238,-1.016994,-0.072676,-1.016954,-0.094584,-1.013966,-0.115474,-1.011977,-0.115707,-1.011950,-0.157707,-1.005950,-0.157936,-1.005912,-0.199936,-0.997912,-0.200213,-0.997851,-0.220213,-0.992851,
-0.220212,-0.992850,-0.241158,-0.987864,-0.262158,-0.982864,-0.262437,-0.982789,-0.282374,-0.976808,-0.303374,-0.970808,-0.303652,-0.970719,-0.363652,-0.949719,-0.363857,-0.949642,-0.383857,-0.941642,-0.383940,-0.941608,-0.402902,-0.933624,-0.422857,-0.925642,-0.423140,-0.925519,-0.442080,-0.916547,-0.462052,-0.907560,-0.462329,-0.907425,-0.481329,-0.897425,-0.481428,-0.897371,-0.499363,-0.887407,
-0.518329,-0.877425,-0.518607,-0.877266,-0.536546,-0.866303,-0.555505,-0.855327,-0.555607,-0.855266,-0.573607,-0.844266,-0.573883,-0.844085,-0.590823,-0.832127,-0.606331,-0.821516,-1.012397,-1.243467,-1.015904,-1.244999,-1.016000,-1.245000,-1.197000,-1.245000,-1.200536,-1.243536,-1.202000,-1.240000,-1.200598,-1.236529,-0.711642,-0.729684,-0.878545,-0.520085,-2.055049,-1.018604,-2.058876,-1.018635,
-2.061596,-1.015970,-2.112596,-0.896970,-2.112642,-0.893143,-2.109970,-0.890404,-2.109955,-0.890398,-0.941961,-0.394100,-1.011831,-0.135000,-2.290000,-0.135000,-2.293536,-0.133536,-2.295000,-0.130000,-2.295000,0.000000,-2.293536,0.003536,-2.290000,0.005000,-0.855890,0.005000,-0.854999,0.045111,-0.854979,0.045453,-0.850979,0.089453,-0.850968,0.089565,-0.845968,0.133565,-0.845899,0.134002,
-0.836899,0.178002,-0.836870,0.178133,-0.826870,0.221133,-0.826786,0.221447,-0.813786,0.264447,-0.813709,0.264682,-0.798709,0.306682,-0.798619,0.306915,-0.781619,0.347915,-0.781516,0.348145,-0.762516,0.388145,-0.762427,0.388324,-0.741427,0.428324,-0.741246,0.428640,-0.718246,0.465640,-0.718091,0.465875,-0.692091,0.502875,-0.692000,0.503000,-0.665000,0.539000,-0.664756,0.539301,
-0.635756,0.572301,-0.635700,0.572363,-0.605700,0.605363,-0.605363,0.605700,-0.572363,0.635700,-0.572301,0.635756,-0.539301,0.664756,-0.539000,0.665000,-0.503000,0.692000,-0.502875,0.692091,-0.465875,0.718091,-0.465589,0.718278,-0.427589,0.741278,-0.427370,0.741402,-0.388370,0.762402,-0.388145,0.762516,-0.348145,0.781516,-0.347915,0.781619,-0.306915,0.798619,-0.306682,0.798709,
-0.264682,0.813709,-0.264447,0.813786,-0.221447,0.826786,-0.221133,0.826870,-0.178133,0.836870,-0.178002,0.836899,-0.134002,0.845899,-0.133565,0.845968,-0.089565,0.850968,-0.089453,0.850979,-0.045453,0.854979,-0.045111,0.854999,-0.000111,0.855999,0.000111,0.855999,0.045111,0.854999,0.045111,0.854999,$1*%
G04 Aperture macros list end*
%TA.AperFunction,ComponentPad*%
%ADD10C,2.600000*%
%TD*%
%TA.AperFunction,ComponentPad*%
%ADD11FreePoly0,270.000000*%
%TD*%
%TA.AperFunction,ComponentPad*%
%ADD12FreePoly1,270.000000*%
%TD*%
%TA.AperFunction,ComponentPad*%
%ADD13R,1.219000X1.219000*%
%TD*%
%TA.AperFunction,ComponentPad*%
%ADD14C,1.219000*%
%TD*%
%TA.AperFunction,ComponentPad*%
%ADD15C,3.960000*%
%TD*%
%TA.AperFunction,ViaPad*%
%ADD16C,0.600000*%
%TD*%
%TA.AperFunction,Conductor*%
%ADD17C,0.200000*%
%TD*%
G04 APERTURE END LIST*
D10*
%TO.P,H7,1,1*%
%TO.N,GND*%
X145025000Y-52000000D03*
%TD*%
%TO.P,H1,1,1*%
%TO.N,GND*%
X70725000Y-53000000D03*
%TD*%
%TO.P,H4,1,1*%
%TO.N,GND*%
X70725000Y-67000000D03*
%TD*%
%TO.P,H3,1,1*%
%TO.N,GND*%
X49250000Y-67000000D03*
%TD*%
%TO.P,H6,1,1*%
%TO.N,GND*%
X245025000Y-68000000D03*
%TD*%
%TO.P,H5,1,1*%
%TO.N,GND*%
X145025000Y-68000000D03*
%TD*%
D11*
%TO.P,J3,S1*%
%TO.N,N/C*%
X92367000Y-52380000D03*
D12*
%TO.P,J3,S2*%
X92367000Y-67620000D03*
%TD*%
D10*
%TO.P,H8,1,1*%
%TO.N,GND*%
X245025000Y-52000000D03*
%TD*%
%TO.P,H2,1,1*%
%TO.N,GND*%
X49250000Y-53000000D03*
%TD*%
D13*
%TO.P,J1,1,1*%
%TO.N,/Bias1_R*%
X323740000Y-66680000D03*
D14*
%TO.P,J1,2,2*%
X321200000Y-66680000D03*
%TO.P,J1,3,3*%
%TO.N,/Bias2_R*%
X318660000Y-66680000D03*
%TO.P,J1,4,4*%
X316120000Y-66680000D03*
%TO.P,J1,5,5*%
%TO.N,/Rtn2_R*%
X313580000Y-66680000D03*
%TO.P,J1,6,6*%
X311040000Y-66680000D03*
%TO.P,J1,7,7*%
%TO.N,/Bias3_R*%
X308500000Y-66680000D03*
%TO.P,J1,8,8*%
X305960000Y-66680000D03*
%TO.P,J1,9,9*%
%TO.N,/Rtn3_R*%
X303420000Y-66680000D03*
%TO.P,J1,10,10*%
X300880000Y-66680000D03*
%TO.P,J1,11,11*%
%TO.N,/Bias4_R*%
X298340000Y-66680000D03*
%TO.P,J1,12,12*%
X295800000Y-66680000D03*
%TO.P,J1,13,13*%
%TO.N,/Rtn4_R*%
X293260000Y-66680000D03*
%TO.P,J1,14,14*%
%TO.N,/Rtn1_R*%
X322470000Y-69220000D03*
%TO.P,J1,15,15*%
X319930000Y-69220000D03*
%TO.P,J1,16,16*%
%TO.N,/Rtn2_R*%
X317390000Y-69220000D03*
%TO.P,J1,17,17*%
%TO.N,unconnected-(J1-Pad17)*%
X314850000Y-69220000D03*
%TO.P,J1,18,18*%
%TO.N,unconnected-(J1-Pad18)*%
X312310000Y-69220000D03*
%TO.P,J1,19,19*%
%TO.N,unconnected-(J1-Pad19)*%
X309770000Y-69220000D03*
%TO.P,J1,20,20*%
%TO.N,/Rtn3_R*%
X307230000Y-69220000D03*
%TO.P,J1,21,21*%
%TO.N,unconnected-(J1-Pad21)*%
X304690000Y-69220000D03*
%TO.P,J1,22,22*%
%TO.N,unconnected-(J1-Pad22)*%
X302150000Y-69220000D03*
%TO.P,J1,23,23*%
%TO.N,unconnected-(J1-Pad23)*%
X299610000Y-69220000D03*
%TO.P,J1,24,24*%
%TO.N,/Rtn4_R*%
X297070000Y-69220000D03*
%TO.P,J1,25,25*%
%TO.N,unconnected-(J1-Pad25)*%
X294530000Y-69220000D03*
D15*
%TO.P,J1,MH1,MH1*%
%TO.N,GND*%
X327550000Y-67950000D03*
%TO.P,J1,MH2,MH2*%
X289450000Y-67950000D03*
%TD*%
D13*
%TO.P,J2,1,1*%
%TO.N,/Bias5_R*%
X293260000Y-53310000D03*
D14*
%TO.P,J2,2,2*%
X295800000Y-53310000D03*
%TO.P,J2,3,3*%
%TO.N,/Bias6_R*%
X298340000Y-53310000D03*
%TO.P,J2,4,4*%
X300880000Y-53310000D03*
%TO.P,J2,5,5*%
%TO.N,/Rtn6_R*%
X303420000Y-53310000D03*
%TO.P,J2,6,6*%
X305960000Y-53310000D03*
%TO.P,J2,7,7*%
%TO.N,/Bias7_R*%
X308500000Y-53310000D03*
%TO.P,J2,8,8*%
X311040000Y-53310000D03*
%TO.P,J2,9,9*%
%TO.N,/Rtn7_R*%
X313580000Y-53310000D03*
%TO.P,J2,10,10*%
X316120000Y-53310000D03*
%TO.P,J2,11,11*%
%TO.N,/Bias8_R*%
X318660000Y-53310000D03*
%TO.P,J2,12,12*%
X321200000Y-53310000D03*
%TO.P,J2,13,13*%
%TO.N,/Rtn8_R*%
X323740000Y-53310000D03*
%TO.P,J2,14,14*%
%TO.N,/Rtn5_R*%
X294530000Y-50770000D03*
%TO.P,J2,15,15*%
X297070000Y-50770000D03*
%TO.P,J2,16,16*%
%TO.N,/Rtn6_R*%
X299610000Y-50770000D03*
%TO.P,J2,17,17*%
%TO.N,unconnected-(J2-Pad17)*%
X302150000Y-50770000D03*
%TO.P,J2,18,18*%
%TO.N,unconnected-(J2-Pad18)*%
X304690000Y-50770000D03*
%TO.P,J2,19,19*%
%TO.N,unconnected-(J2-Pad19)*%
X307230000Y-50770000D03*
%TO.P,J2,20,20*%
%TO.N,/Rtn7_R*%
X309770000Y-50770000D03*
%TO.P,J2,21,21*%
%TO.N,unconnected-(J2-Pad21)*%
X312310000Y-50770000D03*
%TO.P,J2,22,22*%
%TO.N,unconnected-(J2-Pad22)*%
X314850000Y-50770000D03*
%TO.P,J2,23,23*%
%TO.N,unconnected-(J2-Pad23)*%
X317390000Y-50770000D03*
%TO.P,J2,24,24*%
%TO.N,/Rtn8_R*%
X319930000Y-50770000D03*
%TO.P,J2,25,25*%
%TO.N,unconnected-(J2-Pad25)*%
X322470000Y-50770000D03*
D15*
%TO.P,J2,MH1,MH1*%
%TO.N,GND*%
X289450000Y-52040000D03*
%TO.P,J2,MH2,MH2*%
X327550000Y-52040000D03*
%TD*%
D16*
%TO.N,/Bias5_R*%
X102125000Y-55525000D03*
X96875000Y-55525000D03*
%TO.N,/Rtn8_R*%
X96875000Y-58025000D03*
X100625000Y-58025000D03*
%TO.N,/Rtn7_R*%
X96875000Y-56775000D03*
X101181215Y-57450000D03*
%TO.N,/Bias1_R*%
X100625000Y-62000000D03*
X96875000Y-62000000D03*
%TO.N,/Rtn4_R*%
X102125000Y-64500000D03*
X96875000Y-64500000D03*
%TO.N,/Bias2_R*%
X101181215Y-62575000D03*
X96875000Y-63250000D03*
%TD*%
D17*
%TO.N,/Bias5_R*%
X295800000Y-53310000D02*
X293260000Y-53310000D01*
X102125000Y-55525000D02*
X96875000Y-55525000D01*
%TO.N,/Bias6_R*%
X298340000Y-53310000D02*
X300880000Y-53310000D01*
%TO.N,/Bias7_R*%
X308500000Y-53310000D02*
X311040000Y-53310000D01*
%TO.N,/Bias8_R*%
X318660000Y-53310000D02*
X321200000Y-53310000D01*
%TO.N,/Rtn6_R*%
X303420000Y-53310000D02*
X305960000Y-53310000D01*
X301789500Y-51679500D02*
X303420000Y-53310000D01*
X300519500Y-51679500D02*
X301789500Y-51679500D01*
X299610000Y-50770000D02*
X300519500Y-51679500D01*
%TO.N,/Rtn5_R*%
X297070000Y-50770000D02*
X294530000Y-50770000D01*
%TO.N,/Rtn8_R*%
X322109500Y-51679500D02*
X323740000Y-53310000D01*
X319930000Y-50770000D02*
X320839500Y-51679500D01*
X100625000Y-58025000D02*
X96875000Y-58025000D01*
X320839500Y-51679500D02*
X322109500Y-51679500D01*
%TO.N,/Rtn7_R*%
X311000000Y-52000000D02*
X312270000Y-52000000D01*
X313580000Y-53310000D02*
X316120000Y-53310000D01*
X100506215Y-56775000D02*
X96875000Y-56775000D01*
X312270000Y-52000000D02*
X313580000Y-53310000D01*
X309770000Y-50770000D02*
X311000000Y-52000000D01*
X101181215Y-57450000D02*
X100506215Y-56775000D01*
%TO.N,/Bias1_R*%
X321200000Y-66680000D02*
X323740000Y-66680000D01*
X100625000Y-62000000D02*
X96875000Y-62000000D01*
%TO.N,/Rtn3_R*%
X303420000Y-66680000D02*
X304329500Y-67589500D01*
X305599500Y-67589500D02*
X307230000Y-69220000D01*
X304329500Y-67589500D02*
X305599500Y-67589500D01*
X303420000Y-66680000D02*
X300880000Y-66680000D01*
%TO.N,/Rtn4_R*%
X293260000Y-66680000D02*
X294169500Y-67589500D01*
X295439500Y-67589500D02*
X297070000Y-69220000D01*
X102125000Y-64500000D02*
X96875000Y-64500000D01*
X294169500Y-67589500D02*
X295439500Y-67589500D01*
%TO.N,/Bias2_R*%
X101181215Y-62575000D02*
X100506215Y-63250000D01*
X100506215Y-63250000D02*
X96875000Y-63250000D01*
X316120000Y-66680000D02*
X318660000Y-66680000D01*
%TO.N,/Rtn2_R*%
X313580000Y-66680000D02*
X311040000Y-66680000D01*
X317390000Y-69220000D02*
X316480500Y-68310500D01*
X316480500Y-68310500D02*
X315210500Y-68310500D01*
X315210500Y-68310500D02*
X313580000Y-66680000D01*
%TO.N,/Bias3_R*%
X305960000Y-66680000D02*
X308500000Y-66680000D01*
%TO.N,/Bias4_R*%
X295800000Y-66680000D02*
X298340000Y-66680000D01*
%TO.N,/Rtn1_R*%
X319930000Y-69220000D02*
X322470000Y-69220000D01*
%TD*%
%TA.AperFunction,Conductor*%
%TO.N,GND*%
G36*
X89442539Y-45769685D02*
G01*
X89488294Y-45822489D01*
X89499500Y-45874000D01*
X89499500Y-46184108D01*
X89499500Y-46250000D01*
X89499500Y-46342710D01*
X89533571Y-46524973D01*
X89533572Y-46524975D01*
X89600551Y-46697869D01*
X89600553Y-46697875D01*
X89693049Y-46847261D01*
X89711604Y-46914621D01*
X89707398Y-46944629D01*
X89699500Y-46974108D01*
X89699500Y-47105892D01*
X89731465Y-47225190D01*
X89733609Y-47233188D01*
X89733609Y-47233189D01*
X89791235Y-47333000D01*
X89807708Y-47400900D01*
X89791235Y-47457000D01*
X89733609Y-47556810D01*
X89733609Y-47556811D01*
X89699500Y-47684108D01*
X89699500Y-47815891D01*
X89733609Y-47943188D01*
X89733609Y-47943189D01*
X89791235Y-48043000D01*
X89807708Y-48110900D01*
X89791235Y-48167000D01*
X89733609Y-48266810D01*
X89733609Y-48266811D01*
X89699500Y-48394108D01*
X89699500Y-48525895D01*
X89707398Y-48555370D01*
X89705734Y-48625220D01*
X89693050Y-48652738D01*
X89600553Y-48802124D01*
X89600551Y-48802130D01*
X89533571Y-48975027D01*
X89499500Y-49157290D01*
X89499500Y-49184108D01*
X89499500Y-70684108D01*
X89499500Y-70750000D01*
X89499500Y-70842710D01*
X89533571Y-71024973D01*
X89600551Y-71197869D01*
X89600553Y-71197875D01*
X89693049Y-71347261D01*
X89711604Y-71414621D01*
X89707398Y-71444629D01*
X89699500Y-71474108D01*
X89699500Y-71605892D01*
X89702179Y-71615892D01*
X89733609Y-71733188D01*
X89733609Y-71733189D01*
X89791235Y-71833000D01*
X89807708Y-71900900D01*
X89791235Y-71957000D01*
X89733609Y-72056810D01*
X89733609Y-72056811D01*
X89733609Y-72056812D01*
X89733608Y-72056814D01*
X89699500Y-72184108D01*
X89699500Y-72315892D01*
X89700604Y-72320014D01*
X89733609Y-72443188D01*
X89733609Y-72443189D01*
X89791235Y-72543000D01*
X89807708Y-72610900D01*
X89791235Y-72667000D01*
X89733609Y-72766810D01*
X89733609Y-72766811D01*
X89733609Y-72766812D01*
X89733608Y-72766814D01*
X89731464Y-72774815D01*
X89699500Y-72894108D01*
X89699500Y-73025895D01*
X89707398Y-73055370D01*
X89705734Y-73125220D01*
X89693050Y-73152738D01*
X89600553Y-73302124D01*
X89600551Y-73302130D01*
X89533572Y-73475024D01*
X89499500Y-73657292D01*
X89499500Y-74126000D01*
X89479815Y-74193039D01*
X89427011Y-74238794D01*
X89375500Y-74250000D01*
X45874000Y-74250000D01*
X45806961Y-74230315D01*
X45761206Y-74177511D01*
X45750000Y-74126000D01*
X45750000Y-66999995D01*
X47444953Y-66999995D01*
X47444953Y-67000004D01*
X47465113Y-67269026D01*
X47465113Y-67269028D01*
X47525142Y-67532033D01*
X47525148Y-67532052D01*
X47623709Y-67783181D01*
X47623708Y-67783181D01*
X47758602Y-68016822D01*
X47812294Y-68084151D01*
X47812295Y-68084151D01*
X48313709Y-67582737D01*
X48410967Y-67716602D01*
X48533398Y-67839033D01*
X48667261Y-67936289D01*
X48164848Y-68438702D01*
X48347483Y-68563220D01*
X48347485Y-68563221D01*
X48590539Y-68680269D01*
X48590537Y-68680269D01*
X48848337Y-68759790D01*
X48848343Y-68759792D01*
X49115101Y-68799999D01*
X49115110Y-68800000D01*
X49384890Y-68800000D01*
X49384898Y-68799999D01*
X49651656Y-68759792D01*
X49651662Y-68759790D01*
X49909461Y-68680269D01*
X50152521Y-68563218D01*
X50335150Y-68438702D01*
X49832737Y-67936290D01*
X49966602Y-67839033D01*
X50089033Y-67716602D01*
X50186290Y-67582737D01*
X50687703Y-68084151D01*
X50687704Y-68084150D01*
X50741393Y-68016828D01*
X50741400Y-68016817D01*
X50876290Y-67783181D01*
X50974851Y-67532052D01*
X50974857Y-67532033D01*
X51034886Y-67269028D01*
X51034886Y-67269026D01*
X51055047Y-67000004D01*
X51055047Y-66999995D01*
X68919953Y-66999995D01*
X68919953Y-67000004D01*
X68940113Y-67269026D01*
X68940113Y-67269028D01*
X69000142Y-67532033D01*
X69000148Y-67532052D01*
X69098709Y-67783181D01*
X69098708Y-67783181D01*
X69233602Y-68016822D01*
X69287294Y-68084151D01*
X69788708Y-67582736D01*
X69885967Y-67716602D01*
X70008398Y-67839033D01*
X70142261Y-67936289D01*
X69639848Y-68438702D01*
X69822483Y-68563220D01*
X69822485Y-68563221D01*
X70065539Y-68680269D01*
X70065537Y-68680269D01*
X70323337Y-68759790D01*
X70323343Y-68759792D01*
X70590101Y-68799999D01*
X70590110Y-68800000D01*
X70859890Y-68800000D01*
X70859898Y-68799999D01*
X71126656Y-68759792D01*
X71126662Y-68759790D01*
X71384461Y-68680269D01*
X71627521Y-68563218D01*
X71810150Y-68438702D01*
X71307737Y-67936290D01*
X71441602Y-67839033D01*
X71564033Y-67716602D01*
X71661290Y-67582737D01*
X72162703Y-68084151D01*
X72162704Y-68084150D01*
X72216393Y-68016828D01*
X72216400Y-68016817D01*
X72351290Y-67783181D01*
X72449851Y-67532052D01*
X72449857Y-67532033D01*
X72509886Y-67269028D01*
X72509886Y-67269026D01*
X72523136Y-67092221D01*
X87109500Y-67092221D01*
X87109500Y-67258778D01*
X87141990Y-67422115D01*
X87141992Y-67422123D01*
X87205728Y-67575995D01*
X87205728Y-67575996D01*
X87298255Y-67714473D01*
X87298261Y-67714480D01*
X87416019Y-67832238D01*
X87416026Y-67832244D01*
X87554504Y-67924771D01*
X87554505Y-67924771D01*
X87554506Y-67924772D01*
X87708377Y-67988508D01*
X87871721Y-68020999D01*
X87871725Y-68021000D01*
X87871726Y-68021000D01*
X88038275Y-68021000D01*
X88038276Y-68020999D01*
X88201623Y-67988508D01*
X88355494Y-67924772D01*
X88355495Y-67924771D01*
X88355496Y-67924771D01*
X88457965Y-67856304D01*
X88493975Y-67832243D01*
X88611743Y-67714475D01*
X88690606Y-67596447D01*
X88704271Y-67575996D01*
X88704271Y-67575995D01*
X88704272Y-67575994D01*
X88768008Y-67422123D01*
X88800500Y-67258774D01*
X88800500Y-67092226D01*
X88768008Y-66928877D01*
X88704272Y-66775006D01*
X88704271Y-66775004D01*
X88704271Y-66775003D01*
X88611744Y-66636526D01*
X88611738Y-66636519D01*
X88493980Y-66518761D01*
X88493973Y-66518755D01*
X88355495Y-66426228D01*
X88201623Y-66362492D01*
X88201615Y-66362490D01*
X88038278Y-66330000D01*
X88038274Y-66330000D01*
X87871726Y-66330000D01*
X87871721Y-66330000D01*
X87708384Y-66362490D01*
X87708376Y-66362492D01*
X87554504Y-66426228D01*
X87554503Y-66426228D01*
X87416026Y-66518755D01*
X87416019Y-66518761D01*
X87298261Y-66636519D01*
X87298255Y-66636526D01*
X87205728Y-66775003D01*
X87205728Y-66775004D01*
X87141992Y-66928876D01*
X87141990Y-66928884D01*
X87109500Y-67092221D01*
X72523136Y-67092221D01*
X72530047Y-67000004D01*
X72530047Y-66999995D01*
X72509886Y-66730973D01*
X72509886Y-66730971D01*
X72449857Y-66467966D01*
X72449851Y-66467947D01*
X72351290Y-66216818D01*
X72351291Y-66216818D01*
X72216397Y-65983177D01*
X72162704Y-65915847D01*
X71661289Y-66417261D01*
X71564033Y-66283398D01*
X71441602Y-66160967D01*
X71307737Y-66063709D01*
X71810150Y-65561296D01*
X71627517Y-65436779D01*
X71627516Y-65436778D01*
X71384460Y-65319730D01*
X71384462Y-65319730D01*
X71126662Y-65240209D01*
X71126656Y-65240207D01*
X70859898Y-65200000D01*
X70590101Y-65200000D01*
X70323343Y-65240207D01*
X70323337Y-65240209D01*
X70065538Y-65319730D01*
X69822485Y-65436778D01*
X69822476Y-65436783D01*
X69639848Y-65561296D01*
X70142262Y-66063709D01*
X70008398Y-66160967D01*
X69885967Y-66283398D01*
X69788709Y-66417262D01*
X69287295Y-65915848D01*
X69233600Y-65983180D01*
X69098709Y-66216818D01*
X69000148Y-66467947D01*
X69000142Y-66467966D01*
X68940113Y-66730971D01*
X68940113Y-66730973D01*
X68919953Y-66999995D01*
X51055047Y-66999995D01*
X51034886Y-66730973D01*
X51034886Y-66730971D01*
X50974857Y-66467966D01*
X50974851Y-66467947D01*
X50876290Y-66216818D01*
X50876291Y-66216818D01*
X50741397Y-65983177D01*
X50687704Y-65915847D01*
X50186289Y-66417261D01*
X50089033Y-66283398D01*
X49966602Y-66160967D01*
X49832737Y-66063709D01*
X50335150Y-65561296D01*
X50152517Y-65436779D01*
X50152516Y-65436778D01*
X49909460Y-65319730D01*
X49909462Y-65319730D01*
X49651662Y-65240209D01*
X49651656Y-65240207D01*
X49384898Y-65200000D01*
X49115101Y-65200000D01*
X48848343Y-65240207D01*
X48848337Y-65240209D01*
X48590538Y-65319730D01*
X48347485Y-65436778D01*
X48347476Y-65436783D01*
X48164848Y-65561296D01*
X48667262Y-66063709D01*
X48533398Y-66160967D01*
X48410967Y-66283398D01*
X48313709Y-66417262D01*
X47812295Y-65915848D01*
X47758600Y-65983180D01*
X47623709Y-66216818D01*
X47525148Y-66467947D01*
X47525142Y-66467966D01*
X47465113Y-66730971D01*
X47465113Y-66730973D01*
X47444953Y-66999995D01*
X45750000Y-66999995D01*
X45750000Y-52999995D01*
X47444953Y-52999995D01*
X47444953Y-53000004D01*
X47465113Y-53269026D01*
X47465113Y-53269028D01*
X47525142Y-53532033D01*
X47525148Y-53532052D01*
X47623709Y-53783181D01*
X47623708Y-53783181D01*
X47758602Y-54016822D01*
X47812294Y-54084151D01*
X47812295Y-54084151D01*
X48313709Y-53582737D01*
X48410967Y-53716602D01*
X48533398Y-53839033D01*
X48667261Y-53936289D01*
X48164848Y-54438702D01*
X48347483Y-54563220D01*
X48347485Y-54563221D01*
X48590539Y-54680269D01*
X48590537Y-54680269D01*
X48848337Y-54759790D01*
X48848343Y-54759792D01*
X49115101Y-54799999D01*
X49115110Y-54800000D01*
X49384890Y-54800000D01*
X49384898Y-54799999D01*
X49651656Y-54759792D01*
X49651662Y-54759790D01*
X49909461Y-54680269D01*
X50152521Y-54563218D01*
X50335150Y-54438702D01*
X49832737Y-53936290D01*
X49966602Y-53839033D01*
X50089033Y-53716602D01*
X50186290Y-53582737D01*
X50687703Y-54084151D01*
X50687704Y-54084150D01*
X50741393Y-54016828D01*
X50741400Y-54016817D01*
X50789152Y-53934108D01*
X53499500Y-53934108D01*
X53499500Y-66065891D01*
X53533608Y-66193187D01*
X53537542Y-66200000D01*
X53599500Y-66307314D01*
X53692686Y-66400500D01*
X53806814Y-66466392D01*
X53934108Y-66500500D01*
X53934110Y-66500500D01*
X66065890Y-66500500D01*
X66065892Y-66500500D01*
X66193186Y-66466392D01*
X66307314Y-66400500D01*
X66400500Y-66307314D01*
X66466392Y-66193186D01*
X66500500Y-66065892D01*
X66500500Y-53934108D01*
X66466392Y-53806814D01*
X66400500Y-53692686D01*
X66307314Y-53599500D01*
X66246904Y-53564622D01*
X66193187Y-53533608D01*
X66123127Y-53514836D01*
X66065892Y-53499500D01*
X54065892Y-53499500D01*
X53934108Y-53499500D01*
X53806812Y-53533608D01*
X53692686Y-53599500D01*
X53692683Y-53599502D01*
X53599502Y-53692683D01*
X53599500Y-53692686D01*
X53533608Y-53806812D01*
X53499500Y-53934108D01*
X50789152Y-53934108D01*
X50876290Y-53783181D01*
X50974851Y-53532052D01*
X50974857Y-53532033D01*
X51034886Y-53269028D01*
X51034886Y-53269026D01*
X51055047Y-53000004D01*
X51055047Y-52999995D01*
X68919953Y-52999995D01*
X68919953Y-53000004D01*
X68940113Y-53269026D01*
X68940113Y-53269028D01*
X69000142Y-53532033D01*
X69000148Y-53532052D01*
X69098709Y-53783181D01*
X69098708Y-53783181D01*
X69233602Y-54016822D01*
X69287294Y-54084151D01*
X69788708Y-53582736D01*
X69885967Y-53716602D01*
X70008398Y-53839033D01*
X70142261Y-53936289D01*
X69639848Y-54438702D01*
X69822483Y-54563220D01*
X69822485Y-54563221D01*
X70065539Y-54680269D01*
X70065537Y-54680269D01*
X70323337Y-54759790D01*
X70323343Y-54759792D01*
X70590101Y-54799999D01*
X70590110Y-54800000D01*
X70859890Y-54800000D01*
X70859898Y-54799999D01*
X71126656Y-54759792D01*
X71126662Y-54759790D01*
X71384461Y-54680269D01*
X71627521Y-54563218D01*
X71810150Y-54438702D01*
X71307737Y-53936290D01*
X71441602Y-53839033D01*
X71564033Y-53716602D01*
X71661290Y-53582737D01*
X72162703Y-54084151D01*
X72162704Y-54084150D01*
X72216393Y-54016828D01*
X72216400Y-54016817D01*
X72351290Y-53783181D01*
X72449851Y-53532052D01*
X72449857Y-53532033D01*
X72509886Y-53269028D01*
X72509886Y-53269026D01*
X72530047Y-53000004D01*
X72530047Y-52999995D01*
X72510654Y-52741221D01*
X87109500Y-52741221D01*
X87109500Y-52907778D01*
X87141990Y-53071115D01*
X87141992Y-53071123D01*
X87205728Y-53224995D01*
X87205728Y-53224996D01*
X87298255Y-53363473D01*
X87298261Y-53363480D01*
X87416019Y-53481238D01*
X87416026Y-53481244D01*
X87554504Y-53573771D01*
X87554505Y-53573771D01*
X87554506Y-53573772D01*
X87708377Y-53637508D01*
X87871721Y-53669999D01*
X87871725Y-53670000D01*
X87871726Y-53670000D01*
X88038275Y-53670000D01*
X88038276Y-53669999D01*
X88201623Y-53637508D01*
X88355494Y-53573772D01*
X88355495Y-53573771D01*
X88355496Y-53573771D01*
X88487855Y-53485332D01*
X88493975Y-53481243D01*
X88611743Y-53363475D01*
X88674851Y-53269026D01*
X88704271Y-53224996D01*
X88704271Y-53224995D01*
X88704272Y-53224994D01*
X88768008Y-53071123D01*
X88800500Y-52907774D01*
X88800500Y-52741226D01*
X88768008Y-52577877D01*
X88704272Y-52424006D01*
X88704271Y-52424004D01*
X88704271Y-52424003D01*
X88611744Y-52285526D01*
X88611738Y-52285519D01*
X88493980Y-52167761D01*
X88493973Y-52167755D01*
X88355495Y-52075228D01*
X88201623Y-52011492D01*
X88201615Y-52011490D01*
X88038278Y-51979000D01*
X88038274Y-51979000D01*
X87871726Y-51979000D01*
X87871721Y-51979000D01*
X87708384Y-52011490D01*
X87708376Y-52011492D01*
X87554504Y-52075228D01*
X87554503Y-52075228D01*
X87416026Y-52167755D01*
X87416019Y-52167761D01*
X87298261Y-52285519D01*
X87298255Y-52285526D01*
X87205728Y-52424003D01*
X87205728Y-52424004D01*
X87141992Y-52577876D01*
X87141990Y-52577884D01*
X87109500Y-52741221D01*
X72510654Y-52741221D01*
X72509886Y-52730973D01*
X72509886Y-52730971D01*
X72449857Y-52467966D01*
X72449851Y-52467947D01*
X72351290Y-52216818D01*
X72351291Y-52216818D01*
X72216397Y-51983177D01*
X72162704Y-51915847D01*
X71661289Y-52417261D01*
X71564033Y-52283398D01*
X71441602Y-52160967D01*
X71307737Y-52063709D01*
X71810150Y-51561296D01*
X71627517Y-51436779D01*
X71627516Y-51436778D01*
X71384460Y-51319730D01*
X71384462Y-51319730D01*
X71126662Y-51240209D01*
X71126656Y-51240207D01*
X70859898Y-51200000D01*
X70590101Y-51200000D01*
X70323343Y-51240207D01*
X70323337Y-51240209D01*
X70065538Y-51319730D01*
X69822485Y-51436778D01*
X69822476Y-51436783D01*
X69639848Y-51561296D01*
X70142262Y-52063709D01*
X70008398Y-52160967D01*
X69885967Y-52283398D01*
X69788709Y-52417262D01*
X69287295Y-51915848D01*
X69233600Y-51983180D01*
X69098709Y-52216818D01*
X69000148Y-52467947D01*
X69000142Y-52467966D01*
X68940113Y-52730971D01*
X68940113Y-52730973D01*
X68919953Y-52999995D01*
X51055047Y-52999995D01*
X51034886Y-52730973D01*
X51034886Y-52730971D01*
X50974857Y-52467966D01*
X50974851Y-52467947D01*
X50876290Y-52216818D01*
X50876291Y-52216818D01*
X50741397Y-51983177D01*
X50687704Y-51915847D01*
X50186289Y-52417261D01*
X50089033Y-52283398D01*
X49966602Y-52160967D01*
X49832737Y-52063709D01*
X50335150Y-51561296D01*
X50152517Y-51436779D01*
X50152516Y-51436778D01*
X49909460Y-51319730D01*
X49909462Y-51319730D01*
X49651662Y-51240209D01*
X49651656Y-51240207D01*
X49384898Y-51200000D01*
X49115101Y-51200000D01*
X48848343Y-51240207D01*
X48848337Y-51240209D01*
X48590538Y-51319730D01*
X48347485Y-51436778D01*
X48347476Y-51436783D01*
X48164848Y-51561296D01*
X48667262Y-52063709D01*
X48533398Y-52160967D01*
X48410967Y-52283398D01*
X48313709Y-52417262D01*
X47812295Y-51915848D01*
X47758600Y-51983180D01*
X47623709Y-52216818D01*
X47525148Y-52467947D01*
X47525142Y-52467966D01*
X47465113Y-52730971D01*
X47465113Y-52730973D01*
X47444953Y-52999995D01*
X45750000Y-52999995D01*
X45750000Y-45874000D01*
X45769685Y-45806961D01*
X45822489Y-45761206D01*
X45874000Y-45750000D01*
X89375500Y-45750000D01*
X89442539Y-45769685D01*
G37*
%TD.AperFunction*%
%TA.AperFunction,Conductor*%
G36*
X332193039Y-45769685D02*
G01*
X332238794Y-45822489D01*
X332250000Y-45874000D01*
X332250000Y-74126000D01*
X332230315Y-74193039D01*
X332177511Y-74238794D01*
X332126000Y-74250000D01*
X91624500Y-74250000D01*
X91557461Y-74230315D01*
X91511706Y-74177511D01*
X91500500Y-74126000D01*
X91500500Y-73657292D01*
X91500500Y-73657290D01*
X91466429Y-73475027D01*
X91399448Y-73302128D01*
X91306948Y-73152736D01*
X91288393Y-73085377D01*
X91292601Y-73055370D01*
X91300500Y-73025892D01*
X91300500Y-72894108D01*
X91266392Y-72766814D01*
X91208763Y-72666998D01*
X91192291Y-72599101D01*
X91208764Y-72543000D01*
X91266392Y-72443186D01*
X91300500Y-72315892D01*
X91300500Y-72184108D01*
X91266392Y-72056814D01*
X91211650Y-71961999D01*
X91195178Y-71894100D01*
X91211650Y-71838000D01*
X91266392Y-71743186D01*
X91300500Y-71615892D01*
X91300500Y-71484108D01*
X91290731Y-71447649D01*
X91292394Y-71377803D01*
X91305075Y-71350288D01*
X91399448Y-71197872D01*
X91466429Y-71024973D01*
X91500500Y-70842710D01*
X91500500Y-70750000D01*
X91500500Y-70684108D01*
X91500500Y-70347465D01*
X91520185Y-70280426D01*
X91572989Y-70234671D01*
X91582232Y-70230892D01*
X91637694Y-70210782D01*
X91707428Y-70206435D01*
X91768442Y-70240480D01*
X91788794Y-70267927D01*
X91814696Y-70315363D01*
X91912740Y-70420672D01*
X91912740Y-70420673D01*
X92036474Y-70494089D01*
X92038545Y-70494947D01*
X92043548Y-70497019D01*
X92094584Y-70515024D01*
X92237000Y-70535500D01*
X92237003Y-70535500D01*
X92367002Y-70535500D01*
X92372796Y-70535189D01*
X92421041Y-70532603D01*
X92560452Y-70497019D01*
X92567523Y-70494090D01*
X92662364Y-70442303D01*
X92767671Y-70344261D01*
X92767672Y-70344259D01*
X92767673Y-70344259D01*
X92841089Y-70220525D01*
X92842182Y-70217886D01*
X92844019Y-70213452D01*
X92862024Y-70162416D01*
X92882500Y-70020000D01*
X92882500Y-69830488D01*
X201549500Y-69830488D01*
X201549500Y-70169512D01*
X201555673Y-70232183D01*
X201582729Y-70506901D01*
X201648870Y-70839410D01*
X201747284Y-71163841D01*
X201823259Y-71347261D01*
X201863590Y-71444629D01*
X201877024Y-71477060D01*
X201877026Y-71477065D01*
X202036831Y-71776039D01*
X202036842Y-71776057D01*
X202225184Y-72057930D01*
X202225194Y-72057944D01*
X202440269Y-72320014D01*
X202679985Y-72559730D01*
X202679990Y-72559734D01*
X202679991Y-72559735D01*
X202942061Y-72774810D01*
X203223949Y-72963162D01*
X203223958Y-72963167D01*
X203223960Y-72963168D01*
X203522934Y-73122973D01*
X203522936Y-73122973D01*
X203522942Y-73122977D01*
X203836160Y-73252716D01*
X204160586Y-73351129D01*
X204493096Y-73417270D01*
X204830488Y-73450500D01*
X204830491Y-73450500D01*
X205169509Y-73450500D01*
X205169512Y-73450500D01*
X205506904Y-73417270D01*
X205839414Y-73351129D01*
X206163840Y-73252716D01*
X206477058Y-73122977D01*
X206776051Y-72963162D01*
X207057939Y-72774810D01*
X207320009Y-72559735D01*
X207559735Y-72320009D01*
X207774810Y-72057939D01*
X207963162Y-71776051D01*
X208122977Y-71477058D01*
X208252716Y-71163840D01*
X208351129Y-70839414D01*
X208417270Y-70506904D01*
X208450500Y-70169512D01*
X208450500Y-69830488D01*
X208417270Y-69493096D01*
X208351129Y-69160586D01*
X208252716Y-68836160D01*
X208122977Y-68522942D01*
X208100688Y-68481243D01*
X207963168Y-68223960D01*
X207963167Y-68223958D01*
X207963162Y-68223949D01*
X207813520Y-67999995D01*
X243219953Y-67999995D01*
X243219953Y-68000004D01*
X243240113Y-68269026D01*
X243240113Y-68269028D01*
X243300142Y-68532033D01*
X243300148Y-68532052D01*
X243398709Y-68783181D01*
X243398708Y-68783181D01*
X243533602Y-69016822D01*
X243587294Y-69084151D01*
X244088708Y-68582736D01*
X244185967Y-68716602D01*
X244308398Y-68839033D01*
X244442261Y-68936289D01*
X243939848Y-69438702D01*
X244122483Y-69563220D01*
X244122485Y-69563221D01*
X244365539Y-69680269D01*
X244365537Y-69680269D01*
X244623337Y-69759790D01*
X244623343Y-69759792D01*
X244890101Y-69799999D01*
X244890110Y-69800000D01*
X245159890Y-69800000D01*
X245159898Y-69799999D01*
X245426656Y-69759792D01*
X245426662Y-69759790D01*
X245684461Y-69680269D01*
X245927521Y-69563218D01*
X246110150Y-69438702D01*
X245607737Y-68936290D01*
X245741602Y-68839033D01*
X245864033Y-68716602D01*
X245961290Y-68582737D01*
X246462703Y-69084151D01*
X246462704Y-69084150D01*
X246516393Y-69016828D01*
X246516400Y-69016817D01*
X246651290Y-68783181D01*
X246749851Y-68532052D01*
X246749857Y-68532033D01*
X246809886Y-68269028D01*
X246809886Y-68269026D01*
X246830047Y-68000004D01*
X246830047Y-67999995D01*
X246826300Y-67949994D01*
X286965097Y-67949994D01*
X286965097Y-67950005D01*
X286984689Y-68261433D01*
X287043167Y-68567975D01*
X287139596Y-68864755D01*
X287139598Y-68864760D01*
X287272461Y-69147107D01*
X287272464Y-69147113D01*
X287439667Y-69410584D01*
X287528492Y-69517954D01*
X288356206Y-68690240D01*
X288443160Y-68809922D01*
X288590078Y-68956840D01*
X288709758Y-69043792D01*
X287879290Y-69874260D01*
X288118518Y-70048070D01*
X288118528Y-70048076D01*
X288391986Y-70198410D01*
X288391989Y-70198411D01*
X288682119Y-70313281D01*
X288984376Y-70390888D01*
X288984385Y-70390890D01*
X289293960Y-70429999D01*
X289293974Y-70430000D01*
X289606026Y-70430000D01*
X289606039Y-70429999D01*
X289915614Y-70390890D01*
X289915623Y-70390888D01*
X290217880Y-70313281D01*
X290508010Y-70198411D01*
X290508013Y-70198410D01*
X290781466Y-70048079D01*
X290781476Y-70048073D01*
X291020707Y-69874260D01*
X291020708Y-69874260D01*
X290190240Y-69043793D01*
X290309922Y-68956840D01*
X290456840Y-68809922D01*
X290543793Y-68690240D01*
X291371506Y-69517953D01*
X291460325Y-69410592D01*
X291627539Y-69147106D01*
X291760401Y-68864760D01*
X291760403Y-68864755D01*
X291856832Y-68567975D01*
X291915310Y-68261433D01*
X291934903Y-67950005D01*
X291934903Y-67949994D01*
X291915310Y-67638566D01*
X291856832Y-67332024D01*
X291760403Y-67035244D01*
X291760401Y-67035239D01*
X291627538Y-66752892D01*
X291627535Y-66752886D01*
X291581280Y-66679999D01*
X292145245Y-66679999D01*
X292145245Y-66680000D01*
X292164225Y-66884835D01*
X292164226Y-66884838D01*
X292220519Y-67082691D01*
X292220522Y-67082697D01*
X292312216Y-67266843D01*
X292436187Y-67431008D01*
X292588209Y-67569593D01*
X292588211Y-67569595D01*
X292763107Y-67677886D01*
X292763113Y-67677889D01*
X292768539Y-67679991D01*
X292954933Y-67752200D01*
X293157143Y-67790000D01*
X293157145Y-67790000D01*
X293362856Y-67790000D01*
X293362857Y-67790000D01*
X293399334Y-67783181D01*
X293431646Y-67777141D01*
X293501161Y-67784171D01*
X293542113Y-67811348D01*
X293684639Y-67953874D01*
X293684649Y-67953885D01*
X293688979Y-67958215D01*
X293688980Y-67958216D01*
X293800784Y-68070020D01*
X293868562Y-68109151D01*
X293916778Y-68159718D01*
X293930002Y-68228325D01*
X293904034Y-68293190D01*
X293871841Y-68321965D01*
X293858214Y-68330402D01*
X293858209Y-68330406D01*
X293706187Y-68468991D01*
X293582216Y-68633156D01*
X293490522Y-68817302D01*
X293490519Y-68817308D01*
X293434226Y-69015161D01*
X293434225Y-69015164D01*
X293415245Y-69219999D01*
X293415245Y-69220000D01*
X293434225Y-69424835D01*
X293434226Y-69424838D01*
X293490519Y-69622691D01*
X293490522Y-69622697D01*
X293582216Y-69806843D01*
X293706187Y-69971008D01*
X293858209Y-70109593D01*
X293858211Y-70109595D01*
X294033107Y-70217886D01*
X294033113Y-70217889D01*
X294066678Y-70230892D01*
X294224933Y-70292200D01*
X294427143Y-70330000D01*
X294427145Y-70330000D01*
X294632855Y-70330000D01*
X294632857Y-70330000D01*
X294835067Y-70292200D01*
X295026889Y-70217888D01*
X295201790Y-70109594D01*
X295353814Y-69971006D01*
X295477784Y-69806843D01*
X295569478Y-69622696D01*
X295569478Y-69622693D01*
X295569480Y-69622691D01*
X295606352Y-69493096D01*
X295625774Y-69424836D01*
X295644755Y-69220000D01*
X295639249Y-69160586D01*
X295625774Y-69015164D01*
X295616762Y-68983489D01*
X295601280Y-68929076D01*
X295601866Y-68859210D01*
X295640133Y-68800751D01*
X295703930Y-68772261D01*
X295773003Y-68782785D01*
X295808227Y-68807462D01*
X295936601Y-68935836D01*
X295970086Y-68997159D01*
X295972391Y-69034958D01*
X295955245Y-69219998D01*
X295955245Y-69220000D01*
X295974225Y-69424835D01*
X295974226Y-69424838D01*
X296030519Y-69622691D01*
X296030522Y-69622697D01*
X296122216Y-69806843D01*
X296246187Y-69971008D01*
X296398209Y-70109593D01*
X296398211Y-70109595D01*
X296573107Y-70217886D01*
X296573113Y-70217889D01*
X296606678Y-70230892D01*
X296764933Y-70292200D01*
X296967143Y-70330000D01*
X296967145Y-70330000D01*
X297172855Y-70330000D01*
X297172857Y-70330000D01*
X297375067Y-70292200D01*
X297566889Y-70217888D01*
X297741790Y-70109594D01*
X297893814Y-69971006D01*
X298017784Y-69806843D01*
X298109478Y-69622696D01*
X298109478Y-69622693D01*
X298109480Y-69622691D01*
X298146352Y-69493096D01*
X298165774Y-69424836D01*
X298184755Y-69220000D01*
X298184755Y-69219999D01*
X298495245Y-69219999D01*
X298495245Y-69220000D01*
X298514225Y-69424835D01*
X298514226Y-69424838D01*
X298570519Y-69622691D01*
X298570522Y-69622697D01*
X298662216Y-69806843D01*
X298786187Y-69971008D01*
X298938209Y-70109593D01*
X298938211Y-70109595D01*
X299113107Y-70217886D01*
X299113113Y-70217889D01*
X299146678Y-70230892D01*
X299304933Y-70292200D01*
X299507143Y-70330000D01*
X299507145Y-70330000D01*
X299712855Y-70330000D01*
X299712857Y-70330000D01*
X299915067Y-70292200D01*
X300106889Y-70217888D01*
X300281790Y-70109594D01*
X300433814Y-69971006D01*
X300557784Y-69806843D01*
X300649478Y-69622696D01*
X300649478Y-69622693D01*
X300649480Y-69622691D01*
X300686352Y-69493096D01*
X300705774Y-69424836D01*
X300724755Y-69220000D01*
X300724755Y-69219999D01*
X301035245Y-69219999D01*
X301035245Y-69220000D01*
X301054225Y-69424835D01*
X301054226Y-69424838D01*
X301110519Y-69622691D01*
X301110522Y-69622697D01*
X301202216Y-69806843D01*
X301326187Y-69971008D01*
X301478209Y-70109593D01*
X301478211Y-70109595D01*
X301653107Y-70217886D01*
X301653113Y-70217889D01*
X301686678Y-70230892D01*
X301844933Y-70292200D01*
X302047143Y-70330000D01*
X302047145Y-70330000D01*
X302252855Y-70330000D01*
X302252857Y-70330000D01*
X302455067Y-70292200D01*
X302646889Y-70217888D01*
X302821790Y-70109594D01*
X302973814Y-69971006D01*
X303097784Y-69806843D01*
X303189478Y-69622696D01*
X303189478Y-69622693D01*
X303189480Y-69622691D01*
X303226352Y-69493096D01*
X303245774Y-69424836D01*
X303264755Y-69220000D01*
X303259249Y-69160586D01*
X303245774Y-69015164D01*
X303245773Y-69015161D01*
X303189480Y-68817308D01*
X303189477Y-68817302D01*
X303162810Y-68763747D01*
X303097784Y-68633157D01*
X302983064Y-68481243D01*
X302973812Y-68468991D01*
X302821790Y-68330406D01*
X302821788Y-68330404D01*
X302646892Y-68222113D01*
X302646886Y-68222110D01*
X302458363Y-68149077D01*
X302455067Y-68147800D01*
X302252857Y-68110000D01*
X302047143Y-68110000D01*
X301844933Y-68147800D01*
X301844930Y-68147800D01*
X301844930Y-68147801D01*
X301653113Y-68222110D01*
X301653107Y-68222113D01*
X301478211Y-68330404D01*
X301478209Y-68330406D01*
X301326187Y-68468991D01*
X301202216Y-68633156D01*
X301110522Y-68817302D01*
X301110519Y-68817308D01*
X301054226Y-69015161D01*
X301054225Y-69015164D01*
X301035245Y-69219999D01*
X300724755Y-69219999D01*
X300719249Y-69160586D01*
X300705774Y-69015164D01*
X300705773Y-69015161D01*
X300649480Y-68817308D01*
X300649477Y-68817302D01*
X300622810Y-68763747D01*
X300557784Y-68633157D01*
X300443064Y-68481243D01*
X300433812Y-68468991D01*
X300281790Y-68330406D01*
X300281788Y-68330404D01*
X300106892Y-68222113D01*
X300106886Y-68222110D01*
X299918363Y-68149077D01*
X299915067Y-68147800D01*
X299712857Y-68110000D01*
X299507143Y-68110000D01*
X299304933Y-68147800D01*
X299304930Y-68147800D01*
X299304930Y-68147801D01*
X299113113Y-68222110D01*
X299113107Y-68222113D01*
X298938211Y-68330404D01*
X298938209Y-68330406D01*
X298786187Y-68468991D01*
X298662216Y-68633156D01*
X298570522Y-68817302D01*
X298570519Y-68817308D01*
X298514226Y-69015161D01*
X298514225Y-69015164D01*
X298495245Y-69219999D01*
X298184755Y-69219999D01*
X298179249Y-69160586D01*
X298165774Y-69015164D01*
X298165773Y-69015161D01*
X298109480Y-68817308D01*
X298109477Y-68817302D01*
X298082810Y-68763747D01*
X298017784Y-68633157D01*
X297903064Y-68481243D01*
X297893812Y-68468991D01*
X297741790Y-68330406D01*
X297741788Y-68330404D01*
X297566892Y-68222113D01*
X297566886Y-68222110D01*
X297378363Y-68149077D01*
X297375067Y-68147800D01*
X297172857Y-68110000D01*
X296967143Y-68110000D01*
X296935971Y-68115827D01*
X296898351Y-68122859D01*
X296828836Y-68115827D01*
X296787886Y-68088651D01*
X296456914Y-67757679D01*
X296423429Y-67696356D01*
X296428413Y-67626664D01*
X296467839Y-67573769D01*
X296467553Y-67573456D01*
X296469175Y-67571976D01*
X296469874Y-67571040D01*
X296471780Y-67569599D01*
X296471790Y-67569594D01*
X296623814Y-67431006D01*
X296694515Y-67337383D01*
X296700262Y-67329773D01*
X296756371Y-67288137D01*
X296799216Y-67280500D01*
X297340784Y-67280500D01*
X297407823Y-67300185D01*
X297439738Y-67329773D01*
X297447232Y-67339696D01*
X297514525Y-67428807D01*
X297516187Y-67431007D01*
X297556708Y-67467947D01*
X297641535Y-67545277D01*
X297668209Y-67569593D01*
X297668211Y-67569595D01*
X297843107Y-67677886D01*
X297843113Y-67677889D01*
X297848539Y-67679991D01*
X298034933Y-67752200D01*
X298237143Y-67790000D01*
X298237145Y-67790000D01*
X298442855Y-67790000D01*
X298442857Y-67790000D01*
X298645067Y-67752200D01*
X298836889Y-67677888D01*
X299011790Y-67569594D01*
X299140976Y-67451824D01*
X299163812Y-67431008D01*
X299163814Y-67431006D01*
X299287784Y-67266843D01*
X299379478Y-67082696D01*
X299379478Y-67082693D01*
X299379480Y-67082691D01*
X299420415Y-66938818D01*
X299435774Y-66884836D01*
X299454755Y-66680000D01*
X299454755Y-66679999D01*
X299765245Y-66679999D01*
X299765245Y-66680000D01*
X299784225Y-66884835D01*
X299784226Y-66884838D01*
X299840519Y-67082691D01*
X299840522Y-67082697D01*
X299932216Y-67266843D01*
X300056187Y-67431008D01*
X300208209Y-67569593D01*
X300208211Y-67569595D01*
X300383107Y-67677886D01*
X300383113Y-67677889D01*
X300388539Y-67679991D01*
X300574933Y-67752200D01*
X300777143Y-67790000D01*
X300777145Y-67790000D01*
X300982855Y-67790000D01*
X300982857Y-67790000D01*
X301185067Y-67752200D01*
X301376889Y-67677888D01*
X301551790Y-67569594D01*
X301703814Y-67431006D01*
X301774515Y-67337383D01*
X301780262Y-67329773D01*
X301836371Y-67288137D01*
X301879216Y-67280500D01*
X302420784Y-67280500D01*
X302487823Y-67300185D01*
X302519738Y-67329773D01*
X302527232Y-67339696D01*
X302594525Y-67428807D01*
X302596187Y-67431007D01*
X302636708Y-67467947D01*
X302721535Y-67545277D01*
X302748209Y-67569593D01*
X302748211Y-67569595D01*
X302923107Y-67677886D01*
X302923113Y-67677889D01*
X302928539Y-67679991D01*
X303114933Y-67752200D01*
X303317143Y-67790000D01*
X303317145Y-67790000D01*
X303522856Y-67790000D01*
X303522857Y-67790000D01*
X303559334Y-67783181D01*
X303591646Y-67777141D01*
X303661161Y-67784171D01*
X303702113Y-67811348D01*
X303844639Y-67953874D01*
X303844649Y-67953885D01*
X303848979Y-67958215D01*
X303848980Y-67958216D01*
X303960784Y-68070020D01*
X304028562Y-68109151D01*
X304076778Y-68159718D01*
X304090002Y-68228325D01*
X304064034Y-68293190D01*
X304031841Y-68321965D01*
X304018214Y-68330402D01*
X304018209Y-68330406D01*
X303866187Y-68468991D01*
X303742216Y-68633156D01*
X303650522Y-68817302D01*
X303650519Y-68817308D01*
X303594226Y-69015161D01*
X303594225Y-69015164D01*
X303575245Y-69219999D01*
X303575245Y-69220000D01*
X303594225Y-69424835D01*
X303594226Y-69424838D01*
X303650519Y-69622691D01*
X303650522Y-69622697D01*
X303742216Y-69806843D01*
X303866187Y-69971008D01*
X304018209Y-70109593D01*
X304018211Y-70109595D01*
X304193107Y-70217886D01*
X304193113Y-70217889D01*
X304226678Y-70230892D01*
X304384933Y-70292200D01*
X304587143Y-70330000D01*
X304587145Y-70330000D01*
X304792855Y-70330000D01*
X304792857Y-70330000D01*
X304995067Y-70292200D01*
X305186889Y-70217888D01*
X305361790Y-70109594D01*
X305513814Y-69971006D01*
X305637784Y-69806843D01*
X305729478Y-69622696D01*
X305729478Y-69622693D01*
X305729480Y-69622691D01*
X305766352Y-69493096D01*
X305785774Y-69424836D01*
X305804755Y-69220000D01*
X305799249Y-69160586D01*
X305785774Y-69015164D01*
X305776762Y-68983489D01*
X305761280Y-68929076D01*
X305761866Y-68859210D01*
X305800133Y-68800751D01*
X305863930Y-68772261D01*
X305933003Y-68782785D01*
X305968227Y-68807462D01*
X306096601Y-68935836D01*
X306130086Y-68997159D01*
X306132391Y-69034958D01*
X306115245Y-69219998D01*
X306115245Y-69220000D01*
X306134225Y-69424835D01*
X306134226Y-69424838D01*
X306190519Y-69622691D01*
X306190522Y-69622697D01*
X306282216Y-69806843D01*
X306406187Y-69971008D01*
X306558209Y-70109593D01*
X306558211Y-70109595D01*
X306733107Y-70217886D01*
X306733113Y-70217889D01*
X306766678Y-70230892D01*
X306924933Y-70292200D01*
X307127143Y-70330000D01*
X307127145Y-70330000D01*
X307332855Y-70330000D01*
X307332857Y-70330000D01*
X307535067Y-70292200D01*
X307726889Y-70217888D01*
X307901790Y-70109594D01*
X308053814Y-69971006D01*
X308177784Y-69806843D01*
X308269478Y-69622696D01*
X308269478Y-69622693D01*
X308269480Y-69622691D01*
X308306352Y-69493096D01*
X308325774Y-69424836D01*
X308344755Y-69220000D01*
X308344755Y-69219999D01*
X308655245Y-69219999D01*
X308655245Y-69220000D01*
X308674225Y-69424835D01*
X308674226Y-69424838D01*
X308730519Y-69622691D01*
X308730522Y-69622697D01*
X308822216Y-69806843D01*
X308946187Y-69971008D01*
X309098209Y-70109593D01*
X309098211Y-70109595D01*
X309273107Y-70217886D01*
X309273113Y-70217889D01*
X309306678Y-70230892D01*
X309464933Y-70292200D01*
X309667143Y-70330000D01*
X309667145Y-70330000D01*
X309872855Y-70330000D01*
X309872857Y-70330000D01*
X310075067Y-70292200D01*
X310266889Y-70217888D01*
X310441790Y-70109594D01*
X310593814Y-69971006D01*
X310717784Y-69806843D01*
X310809478Y-69622696D01*
X310809478Y-69622693D01*
X310809480Y-69622691D01*
X310846352Y-69493096D01*
X310865774Y-69424836D01*
X310884755Y-69220000D01*
X310884755Y-69219999D01*
X311195245Y-69219999D01*
X311195245Y-69220000D01*
X311214225Y-69424835D01*
X311214226Y-69424838D01*
X311270519Y-69622691D01*
X311270522Y-69622697D01*
X311362216Y-69806843D01*
X311486187Y-69971008D01*
X311638209Y-70109593D01*
X311638211Y-70109595D01*
X311813107Y-70217886D01*
X311813113Y-70217889D01*
X311846678Y-70230892D01*
X312004933Y-70292200D01*
X312207143Y-70330000D01*
X312207145Y-70330000D01*
X312412855Y-70330000D01*
X312412857Y-70330000D01*
X312615067Y-70292200D01*
X312806889Y-70217888D01*
X312981790Y-70109594D01*
X313133814Y-69971006D01*
X313257784Y-69806843D01*
X313349478Y-69622696D01*
X313349478Y-69622693D01*
X313349480Y-69622691D01*
X313386352Y-69493096D01*
X313405774Y-69424836D01*
X313424755Y-69220000D01*
X313419249Y-69160586D01*
X313405774Y-69015164D01*
X313405773Y-69015161D01*
X313349480Y-68817308D01*
X313349477Y-68817302D01*
X313322810Y-68763747D01*
X313257784Y-68633157D01*
X313143064Y-68481243D01*
X313133812Y-68468991D01*
X312981790Y-68330406D01*
X312981788Y-68330404D01*
X312806892Y-68222113D01*
X312806886Y-68222110D01*
X312618363Y-68149077D01*
X312615067Y-68147800D01*
X312412857Y-68110000D01*
X312207143Y-68110000D01*
X312004933Y-68147800D01*
X312004930Y-68147800D01*
X312004930Y-68147801D01*
X311813113Y-68222110D01*
X311813107Y-68222113D01*
X311638211Y-68330404D01*
X311638209Y-68330406D01*
X311486187Y-68468991D01*
X311362216Y-68633156D01*
X311270522Y-68817302D01*
X311270519Y-68817308D01*
X311214226Y-69015161D01*
X311214225Y-69015164D01*
X311195245Y-69219999D01*
X310884755Y-69219999D01*
X310879249Y-69160586D01*
X310865774Y-69015164D01*
X310865773Y-69015161D01*
X310809480Y-68817308D01*
X310809477Y-68817302D01*
X310782810Y-68763747D01*
X310717784Y-68633157D01*
X310603064Y-68481243D01*
X310593812Y-68468991D01*
X310441790Y-68330406D01*
X310441788Y-68330404D01*
X310266892Y-68222113D01*
X310266886Y-68222110D01*
X310078363Y-68149077D01*
X310075067Y-68147800D01*
X309872857Y-68110000D01*
X309667143Y-68110000D01*
X309464933Y-68147800D01*
X309464930Y-68147800D01*
X309464930Y-68147801D01*
X309273113Y-68222110D01*
X309273107Y-68222113D01*
X309098211Y-68330404D01*
X309098209Y-68330406D01*
X308946187Y-68468991D01*
X308822216Y-68633156D01*
X308730522Y-68817302D01*
X308730519Y-68817308D01*
X308674226Y-69015161D01*
X308674225Y-69015164D01*
X308655245Y-69219999D01*
X308344755Y-69219999D01*
X308339249Y-69160586D01*
X308325774Y-69015164D01*
X308325773Y-69015161D01*
X308269480Y-68817308D01*
X308269477Y-68817302D01*
X308242810Y-68763747D01*
X308177784Y-68633157D01*
X308063064Y-68481243D01*
X308053812Y-68468991D01*
X307901790Y-68330406D01*
X307901788Y-68330404D01*
X307726892Y-68222113D01*
X307726886Y-68222110D01*
X307538363Y-68149077D01*
X307535067Y-68147800D01*
X307332857Y-68110000D01*
X307127143Y-68110000D01*
X307095971Y-68115827D01*
X307058351Y-68122859D01*
X306988836Y-68115827D01*
X306947886Y-68088651D01*
X306616914Y-67757679D01*
X306583429Y-67696356D01*
X306588413Y-67626664D01*
X306627839Y-67573769D01*
X306627553Y-67573456D01*
X306629175Y-67571976D01*
X306629874Y-67571040D01*
X306631780Y-67569599D01*
X306631790Y-67569594D01*
X306783814Y-67431006D01*
X306854515Y-67337383D01*
X306860262Y-67329773D01*
X306916371Y-67288137D01*
X306959216Y-67280500D01*
X307500784Y-67280500D01*
X307567823Y-67300185D01*
X307599738Y-67329773D01*
X307607232Y-67339696D01*
X307674525Y-67428807D01*
X307676187Y-67431007D01*
X307716708Y-67467947D01*
X307801535Y-67545277D01*
X307828209Y-67569593D01*
X307828211Y-67569595D01*
X308003107Y-67677886D01*
X308003113Y-67677889D01*
X308008539Y-67679991D01*
X308194933Y-67752200D01*
X308397143Y-67790000D01*
X308397145Y-67790000D01*
X308602855Y-67790000D01*
X308602857Y-67790000D01*
X308805067Y-67752200D01*
X308996889Y-67677888D01*
X309171790Y-67569594D01*
X309300976Y-67451824D01*
X309323812Y-67431008D01*
X309323814Y-67431006D01*
X309447784Y-67266843D01*
X309539478Y-67082696D01*
X309539478Y-67082693D01*
X309539480Y-67082691D01*
X309580415Y-66938818D01*
X309595774Y-66884836D01*
X309614755Y-66680000D01*
X309614755Y-66679999D01*
X309925245Y-66679999D01*
X309925245Y-66680000D01*
X309944225Y-66884835D01*
X309944226Y-66884838D01*
X310000519Y-67082691D01*
X310000522Y-67082697D01*
X310092216Y-67266843D01*
X310216187Y-67431008D01*
X310368209Y-67569593D01*
X310368211Y-67569595D01*
X310543107Y-67677886D01*
X310543113Y-67677889D01*
X310548539Y-67679991D01*
X310734933Y-67752200D01*
X310937143Y-67790000D01*
X310937145Y-67790000D01*
X311142855Y-67790000D01*
X311142857Y-67790000D01*
X311345067Y-67752200D01*
X311536889Y-67677888D01*
X311711790Y-67569594D01*
X311863814Y-67431006D01*
X311934515Y-67337383D01*
X311940262Y-67329773D01*
X311996371Y-67288137D01*
X312039216Y-67280500D01*
X312580784Y-67280500D01*
X312647823Y-67300185D01*
X312679738Y-67329773D01*
X312687232Y-67339696D01*
X312754525Y-67428807D01*
X312756187Y-67431007D01*
X312796708Y-67467947D01*
X312881535Y-67545277D01*
X312908209Y-67569593D01*
X312908211Y-67569595D01*
X313083107Y-67677886D01*
X313083113Y-67677889D01*
X313088539Y-67679991D01*
X313274933Y-67752200D01*
X313477143Y-67790000D01*
X313477145Y-67790000D01*
X313682856Y-67790000D01*
X313682857Y-67790000D01*
X313719334Y-67783181D01*
X313751646Y-67777141D01*
X313821161Y-67784171D01*
X313862113Y-67811348D01*
X314193085Y-68142320D01*
X314226570Y-68203643D01*
X314221586Y-68273335D01*
X314182161Y-68326232D01*
X314182446Y-68326544D01*
X314180835Y-68328012D01*
X314180135Y-68328952D01*
X314178208Y-68330406D01*
X314026187Y-68468991D01*
X313902216Y-68633156D01*
X313810522Y-68817302D01*
X313810519Y-68817308D01*
X313754226Y-69015161D01*
X313754225Y-69015164D01*
X313735245Y-69219999D01*
X313735245Y-69220000D01*
X313754225Y-69424835D01*
X313754226Y-69424838D01*
X313810519Y-69622691D01*
X313810522Y-69622697D01*
X313902216Y-69806843D01*
X314026187Y-69971008D01*
X314178209Y-70109593D01*
X314178211Y-70109595D01*
X314353107Y-70217886D01*
X314353113Y-70217889D01*
X314386678Y-70230892D01*
X314544933Y-70292200D01*
X314747143Y-70330000D01*
X314747145Y-70330000D01*
X314952855Y-70330000D01*
X314952857Y-70330000D01*
X315155067Y-70292200D01*
X315346889Y-70217888D01*
X315521790Y-70109594D01*
X315673814Y-69971006D01*
X315797784Y-69806843D01*
X315889478Y-69622696D01*
X315889478Y-69622693D01*
X315889480Y-69622691D01*
X315926352Y-69493096D01*
X315945774Y-69424836D01*
X315964755Y-69220000D01*
X315948672Y-69046440D01*
X315962087Y-68977872D01*
X316010444Y-68927440D01*
X316072143Y-68911000D01*
X316167857Y-68911000D01*
X316234896Y-68930685D01*
X316280651Y-68983489D01*
X316291327Y-69046440D01*
X316287833Y-69084151D01*
X316275244Y-69220000D01*
X316294225Y-69424835D01*
X316294226Y-69424838D01*
X316350519Y-69622691D01*
X316350522Y-69622697D01*
X316442216Y-69806843D01*
X316566187Y-69971008D01*
X316718209Y-70109593D01*
X316718211Y-70109595D01*
X316893107Y-70217886D01*
X316893113Y-70217889D01*
X316926678Y-70230892D01*
X317084933Y-70292200D01*
X317287143Y-70330000D01*
X317287145Y-70330000D01*
X317492855Y-70330000D01*
X317492857Y-70330000D01*
X317695067Y-70292200D01*
X317886889Y-70217888D01*
X318061790Y-70109594D01*
X318213814Y-69971006D01*
X318337784Y-69806843D01*
X318429478Y-69622696D01*
X318429478Y-69622693D01*
X318429480Y-69622691D01*
X318466352Y-69493096D01*
X318485774Y-69424836D01*
X318504755Y-69220000D01*
X318504755Y-69219999D01*
X318815245Y-69219999D01*
X318815245Y-69220000D01*
X318834225Y-69424835D01*
X318834226Y-69424838D01*
X318890519Y-69622691D01*
X318890522Y-69622697D01*
X318982216Y-69806843D01*
X319106187Y-69971008D01*
X319258209Y-70109593D01*
X319258211Y-70109595D01*
X319433107Y-70217886D01*
X319433113Y-70217889D01*
X319466678Y-70230892D01*
X319624933Y-70292200D01*
X319827143Y-70330000D01*
X319827145Y-70330000D01*
X320032855Y-70330000D01*
X320032857Y-70330000D01*
X320235067Y-70292200D01*
X320426889Y-70217888D01*
X320601790Y-70109594D01*
X320753814Y-69971006D01*
X320815827Y-69888886D01*
X320830262Y-69869773D01*
X320886371Y-69828137D01*
X320929216Y-69820500D01*
X321470784Y-69820500D01*
X321537823Y-69840185D01*
X321569738Y-69869773D01*
X321646187Y-69971007D01*
X321798209Y-70109593D01*
X321798211Y-70109595D01*
X321973107Y-70217886D01*
X321973113Y-70217889D01*
X322006678Y-70230892D01*
X322164933Y-70292200D01*
X322367143Y-70330000D01*
X322367145Y-70330000D01*
X322572855Y-70330000D01*
X322572857Y-70330000D01*
X322775067Y-70292200D01*
X322966889Y-70217888D01*
X323141790Y-70109594D01*
X323293814Y-69971006D01*
X323417784Y-69806843D01*
X323509478Y-69622696D01*
X323509478Y-69622693D01*
X323509480Y-69622691D01*
X323546352Y-69493096D01*
X323565774Y-69424836D01*
X323584755Y-69220000D01*
X323579249Y-69160586D01*
X323565774Y-69015164D01*
X323565773Y-69015161D01*
X323509480Y-68817308D01*
X323509477Y-68817302D01*
X323482810Y-68763747D01*
X323417784Y-68633157D01*
X323303064Y-68481243D01*
X323293812Y-68468991D01*
X323141790Y-68330406D01*
X323141788Y-68330404D01*
X322966892Y-68222113D01*
X322966886Y-68222110D01*
X322778363Y-68149077D01*
X322775067Y-68147800D01*
X322572857Y-68110000D01*
X322367143Y-68110000D01*
X322164933Y-68147800D01*
X322164930Y-68147800D01*
X322164930Y-68147801D01*
X321973113Y-68222110D01*
X321973107Y-68222113D01*
X321798211Y-68330404D01*
X321798209Y-68330406D01*
X321646187Y-68468992D01*
X321569738Y-68570227D01*
X321513629Y-68611863D01*
X321470784Y-68619500D01*
X320929216Y-68619500D01*
X320862177Y-68599815D01*
X320830262Y-68570227D01*
X320774426Y-68496289D01*
X320753814Y-68468994D01*
X320740332Y-68456704D01*
X320601790Y-68330406D01*
X320601788Y-68330404D01*
X320426892Y-68222113D01*
X320426886Y-68222110D01*
X320238363Y-68149077D01*
X320235067Y-68147800D01*
X320032857Y-68110000D01*
X319827143Y-68110000D01*
X319624933Y-68147800D01*
X319624930Y-68147800D01*
X319624930Y-68147801D01*
X319433113Y-68222110D01*
X319433107Y-68222113D01*
X319258211Y-68330404D01*
X319258209Y-68330406D01*
X319106187Y-68468991D01*
X318982216Y-68633156D01*
X318890522Y-68817302D01*
X318890519Y-68817308D01*
X318834226Y-69015161D01*
X318834225Y-69015164D01*
X318815245Y-69219999D01*
X318504755Y-69219999D01*
X318499249Y-69160586D01*
X318485774Y-69015164D01*
X318485773Y-69015161D01*
X318429480Y-68817308D01*
X318429477Y-68817302D01*
X318402810Y-68763747D01*
X318337784Y-68633157D01*
X318223064Y-68481243D01*
X318213812Y-68468991D01*
X318061790Y-68330406D01*
X318061788Y-68330404D01*
X317886892Y-68222113D01*
X317886886Y-68222110D01*
X317698363Y-68149077D01*
X317695067Y-68147800D01*
X317492857Y-68110000D01*
X317287143Y-68110000D01*
X317255971Y-68115827D01*
X317218351Y-68122859D01*
X317148836Y-68115827D01*
X317107886Y-68088651D01*
X316969229Y-67949994D01*
X325065097Y-67949994D01*
X325065097Y-67950005D01*
X325084689Y-68261433D01*
X325143167Y-68567975D01*
X325239596Y-68864755D01*
X325239598Y-68864760D01*
X325372461Y-69147107D01*
X325372464Y-69147113D01*
X325539667Y-69410584D01*
X325628492Y-69517954D01*
X326456206Y-68690240D01*
X326543160Y-68809922D01*
X326690078Y-68956840D01*
X326809758Y-69043792D01*
X325979290Y-69874260D01*
X326218518Y-70048070D01*
X326218528Y-70048076D01*
X326491986Y-70198410D01*
X326491989Y-70198411D01*
X326782119Y-70313281D01*
X327084376Y-70390888D01*
X327084385Y-70390890D01*
X327393960Y-70429999D01*
X327393974Y-70430000D01*
X327706026Y-70430000D01*
X327706039Y-70429999D01*
X328015614Y-70390890D01*
X328015623Y-70390888D01*
X328317880Y-70313281D01*
X328608010Y-70198411D01*
X328608013Y-70198410D01*
X328881466Y-70048079D01*
X328881476Y-70048073D01*
X329120707Y-69874260D01*
X329120708Y-69874260D01*
X328290240Y-69043793D01*
X328409922Y-68956840D01*
X328556840Y-68809922D01*
X328643793Y-68690240D01*
X329471506Y-69517953D01*
X329560325Y-69410592D01*
X329727539Y-69147106D01*
X329860401Y-68864760D01*
X329860403Y-68864755D01*
X329956832Y-68567975D01*
X330015310Y-68261433D01*
X330034903Y-67950005D01*
X330034903Y-67949994D01*
X330015310Y-67638566D01*
X329956832Y-67332024D01*
X329860403Y-67035244D01*
X329860401Y-67035239D01*
X329727538Y-66752892D01*
X329727535Y-66752886D01*
X329560332Y-66489415D01*
X329471506Y-66382044D01*
X328643792Y-67209758D01*
X328556840Y-67090078D01*
X328409922Y-66943160D01*
X328290240Y-66856206D01*
X329120708Y-66025738D01*
X328881481Y-65851929D01*
X328881471Y-65851923D01*
X328608013Y-65701589D01*
X328608010Y-65701588D01*
X328317880Y-65586718D01*
X328015623Y-65509111D01*
X328015614Y-65509109D01*
X327706039Y-65470000D01*
X327393960Y-65470000D01*
X327084385Y-65509109D01*
X327084376Y-65509111D01*
X326782119Y-65586718D01*
X326491989Y-65701588D01*
X326491986Y-65701589D01*
X326218528Y-65851923D01*
X326218510Y-65851934D01*
X325979291Y-66025736D01*
X325979290Y-66025738D01*
X326809759Y-66856206D01*
X326690078Y-66943160D01*
X326543160Y-67090078D01*
X326456206Y-67209758D01*
X325628492Y-66382044D01*
X325539672Y-66489408D01*
X325539669Y-66489412D01*
X325372464Y-66752886D01*
X325372461Y-66752892D01*
X325239598Y-67035239D01*
X325239596Y-67035244D01*
X325143167Y-67332024D01*
X325084689Y-67638566D01*
X325065097Y-67949994D01*
X316969229Y-67949994D01*
X316968090Y-67948855D01*
X316968088Y-67948852D01*
X316849217Y-67829981D01*
X316849212Y-67829977D01*
X316781436Y-67790847D01*
X316733221Y-67740280D01*
X316719997Y-67671673D01*
X316745965Y-67606808D01*
X316778157Y-67578035D01*
X316791790Y-67569594D01*
X316943814Y-67431006D01*
X317014515Y-67337383D01*
X317020262Y-67329773D01*
X317076371Y-67288137D01*
X317119216Y-67280500D01*
X317660784Y-67280500D01*
X317727823Y-67300185D01*
X317759738Y-67329773D01*
X317767232Y-67339696D01*
X317834525Y-67428807D01*
X317836187Y-67431007D01*
X317876708Y-67467947D01*
X317961535Y-67545277D01*
X317988209Y-67569593D01*
X317988211Y-67569595D01*
X318163107Y-67677886D01*
X318163113Y-67677889D01*
X318168539Y-67679991D01*
X318354933Y-67752200D01*
X318557143Y-67790000D01*
X318557145Y-67790000D01*
X318762855Y-67790000D01*
X318762857Y-67790000D01*
X318965067Y-67752200D01*
X319156889Y-67677888D01*
X319331790Y-67569594D01*
X319460976Y-67451824D01*
X319483812Y-67431008D01*
X319483814Y-67431006D01*
X319607784Y-67266843D01*
X319699478Y-67082696D01*
X319699478Y-67082693D01*
X319699480Y-67082691D01*
X319740415Y-66938818D01*
X319755774Y-66884836D01*
X319774755Y-66680000D01*
X319774755Y-66679999D01*
X320085245Y-66679999D01*
X320085245Y-66680000D01*
X320104225Y-66884835D01*
X320104226Y-66884838D01*
X320160519Y-67082691D01*
X320160522Y-67082697D01*
X320252216Y-67266843D01*
X320376187Y-67431008D01*
X320528209Y-67569593D01*
X320528211Y-67569595D01*
X320703107Y-67677886D01*
X320703113Y-67677889D01*
X320708539Y-67679991D01*
X320894933Y-67752200D01*
X321097143Y-67790000D01*
X321097145Y-67790000D01*
X321302855Y-67790000D01*
X321302857Y-67790000D01*
X321505067Y-67752200D01*
X321696889Y-67677888D01*
X321871790Y-67569594D01*
X322023814Y-67431006D01*
X322094515Y-67337383D01*
X322100262Y-67329773D01*
X322156371Y-67288137D01*
X322199216Y-67280500D01*
X322512502Y-67280500D01*
X322579541Y-67300185D01*
X322625296Y-67352989D01*
X322635791Y-67391244D01*
X322636407Y-67396980D01*
X322686702Y-67531828D01*
X322686706Y-67531835D01*
X322772952Y-67647044D01*
X322772955Y-67647047D01*
X322888164Y-67733293D01*
X322888171Y-67733297D01*
X323023017Y-67783591D01*
X323023016Y-67783591D01*
X323029944Y-67784335D01*
X323082627Y-67790000D01*
X324397372Y-67789999D01*
X324456983Y-67783591D01*
X324591831Y-67733296D01*
X324707046Y-67647046D01*
X324793296Y-67531831D01*
X324843591Y-67396983D01*
X324850000Y-67337373D01*
X324849999Y-66022628D01*
X324843591Y-65963017D01*
X324830901Y-65928994D01*
X324793297Y-65828171D01*
X324793293Y-65828164D01*
X324707047Y-65712955D01*
X324707044Y-65712952D01*
X324591835Y-65626706D01*
X324591828Y-65626702D01*
X324456982Y-65576408D01*
X324456983Y-65576408D01*
X324397383Y-65570001D01*
X324397381Y-65570000D01*
X324397373Y-65570000D01*
X324397364Y-65570000D01*
X323082629Y-65570000D01*
X323082623Y-65570001D01*
X323023016Y-65576408D01*
X322888171Y-65626702D01*
X322888164Y-65626706D01*
X322772955Y-65712952D01*
X322772952Y-65712955D01*
X322686706Y-65828164D01*
X322686702Y-65828171D01*
X322636410Y-65963013D01*
X322636409Y-65963017D01*
X322635791Y-65968756D01*
X322609055Y-66033305D01*
X322551663Y-66073154D01*
X322512503Y-66079500D01*
X322199216Y-66079500D01*
X322132177Y-66059815D01*
X322100262Y-66030227D01*
X322064731Y-65983177D01*
X322023814Y-65928994D01*
X322009392Y-65915847D01*
X321871790Y-65790406D01*
X321871788Y-65790404D01*
X321696892Y-65682113D01*
X321696886Y-65682110D01*
X321545705Y-65623543D01*
X321505067Y-65607800D01*
X321302857Y-65570000D01*
X321097143Y-65570000D01*
X320894933Y-65607800D01*
X320894930Y-65607800D01*
X320894930Y-65607801D01*
X320703113Y-65682110D01*
X320703107Y-65682113D01*
X320528211Y-65790404D01*
X320528209Y-65790406D01*
X320376187Y-65928991D01*
X320252216Y-66093156D01*
X320160522Y-66277302D01*
X320160519Y-66277308D01*
X320104226Y-66475161D01*
X320104225Y-66475164D01*
X320085245Y-66679999D01*
X319774755Y-66679999D01*
X319771870Y-66648871D01*
X319755774Y-66475164D01*
X319755773Y-66475161D01*
X319753794Y-66468207D01*
X319744556Y-66435737D01*
X319699480Y-66277308D01*
X319699477Y-66277302D01*
X319681006Y-66240207D01*
X319607784Y-66093157D01*
X319524731Y-65983177D01*
X319483812Y-65928991D01*
X319331790Y-65790406D01*
X319331788Y-65790404D01*
X319156892Y-65682113D01*
X319156886Y-65682110D01*
X319005705Y-65623543D01*
X318965067Y-65607800D01*
X318762857Y-65570000D01*
X318557143Y-65570000D01*
X318354933Y-65607800D01*
X318354930Y-65607800D01*
X318354930Y-65607801D01*
X318163113Y-65682110D01*
X318163107Y-65682113D01*
X317988211Y-65790404D01*
X317988209Y-65790406D01*
X317836187Y-65928992D01*
X317759738Y-66030227D01*
X317703629Y-66071863D01*
X317660784Y-66079500D01*
X317119216Y-66079500D01*
X317052177Y-66059815D01*
X317020262Y-66030227D01*
X316984731Y-65983177D01*
X316943814Y-65928994D01*
X316929392Y-65915847D01*
X316791790Y-65790406D01*
X316791788Y-65790404D01*
X316616892Y-65682113D01*
X316616886Y-65682110D01*
X316465705Y-65623543D01*
X316425067Y-65607800D01*
X316222857Y-65570000D01*
X316017143Y-65570000D01*
X315814933Y-65607800D01*
X315814930Y-65607800D01*
X315814930Y-65607801D01*
X315623113Y-65682110D01*
X315623107Y-65682113D01*
X315448211Y-65790404D01*
X315448209Y-65790406D01*
X315296187Y-65928991D01*
X315172216Y-66093156D01*
X315080522Y-66277302D01*
X315080519Y-66277308D01*
X315024226Y-66475161D01*
X315024225Y-66475164D01*
X315005245Y-66679999D01*
X315005245Y-66680000D01*
X315024225Y-66884831D01*
X315024225Y-66884833D01*
X315024226Y-66884836D01*
X315048262Y-66969315D01*
X315048720Y-66970922D01*
X315048132Y-67040790D01*
X315009865Y-67099248D01*
X314946068Y-67127738D01*
X314876995Y-67117213D01*
X314841772Y-67092537D01*
X314713398Y-66964163D01*
X314679913Y-66902840D01*
X314677608Y-66865040D01*
X314681441Y-66823683D01*
X314694755Y-66680000D01*
X314691870Y-66648871D01*
X314675774Y-66475164D01*
X314675773Y-66475161D01*
X314673794Y-66468207D01*
X314664556Y-66435737D01*
X314619480Y-66277308D01*
X314619477Y-66277302D01*
X314601006Y-66240207D01*
X314527784Y-66093157D01*
X314444731Y-65983177D01*
X314403812Y-65928991D01*
X314251790Y-65790406D01*
X314251788Y-65790404D01*
X314076892Y-65682113D01*
X314076886Y-65682110D01*
X313925705Y-65623543D01*
X313885067Y-65607800D01*
X313682857Y-65570000D01*
X313477143Y-65570000D01*
X313274933Y-65607800D01*
X313274930Y-65607800D01*
X313274930Y-65607801D01*
X313083113Y-65682110D01*
X313083107Y-65682113D01*
X312908211Y-65790404D01*
X312908209Y-65790406D01*
X312756187Y-65928992D01*
X312679738Y-66030227D01*
X312623629Y-66071863D01*
X312580784Y-66079500D01*
X312039216Y-66079500D01*
X311972177Y-66059815D01*
X311940262Y-66030227D01*
X311904731Y-65983177D01*
X311863814Y-65928994D01*
X311849392Y-65915847D01*
X311711790Y-65790406D01*
X311711788Y-65790404D01*
X311536892Y-65682113D01*
X311536886Y-65682110D01*
X311385705Y-65623543D01*
X311345067Y-65607800D01*
X311142857Y-65570000D01*
X310937143Y-65570000D01*
X310734933Y-65607800D01*
X310734930Y-65607800D01*
X310734930Y-65607801D01*
X310543113Y-65682110D01*
X310543107Y-65682113D01*
X310368211Y-65790404D01*
X310368209Y-65790406D01*
X310216187Y-65928991D01*
X310092216Y-66093156D01*
X310000522Y-66277302D01*
X310000519Y-66277308D01*
X309944226Y-66475161D01*
X309944225Y-66475164D01*
X309925245Y-66679999D01*
X309614755Y-66679999D01*
X309611870Y-66648871D01*
X309595774Y-66475164D01*
X309595773Y-66475161D01*
X309593794Y-66468207D01*
X309584556Y-66435737D01*
X309539480Y-66277308D01*
X309539477Y-66277302D01*
X309521006Y-66240207D01*
X309447784Y-66093157D01*
X309364731Y-65983177D01*
X309323812Y-65928991D01*
X309171790Y-65790406D01*
X309171788Y-65790404D01*
X308996892Y-65682113D01*
X308996886Y-65682110D01*
X308845705Y-65623543D01*
X308805067Y-65607800D01*
X308602857Y-65570000D01*
X308397143Y-65570000D01*
X308194933Y-65607800D01*
X308194930Y-65607800D01*
X308194930Y-65607801D01*
X308003113Y-65682110D01*
X308003107Y-65682113D01*
X307828211Y-65790404D01*
X307828209Y-65790406D01*
X307676187Y-65928992D01*
X307599738Y-66030227D01*
X307543629Y-66071863D01*
X307500784Y-66079500D01*
X306959216Y-66079500D01*
X306892177Y-66059815D01*
X306860262Y-66030227D01*
X306824731Y-65983177D01*
X306783814Y-65928994D01*
X306769392Y-65915847D01*
X306631790Y-65790406D01*
X306631788Y-65790404D01*
X306456892Y-65682113D01*
X306456886Y-65682110D01*
X306305705Y-65623543D01*
X306265067Y-65607800D01*
X306062857Y-65570000D01*
X305857143Y-65570000D01*
X305654933Y-65607800D01*
X305654930Y-65607800D01*
X305654930Y-65607801D01*
X305463113Y-65682110D01*
X305463107Y-65682113D01*
X305288211Y-65790404D01*
X305288209Y-65790406D01*
X305136187Y-65928991D01*
X305012216Y-66093156D01*
X304920522Y-66277302D01*
X304920519Y-66277308D01*
X304864226Y-66475161D01*
X304864225Y-66475164D01*
X304845244Y-66679999D01*
X304856792Y-66804617D01*
X304857987Y-66817512D01*
X304861328Y-66853558D01*
X304847913Y-66922128D01*
X304799556Y-66972560D01*
X304737857Y-66989000D01*
X304642143Y-66989000D01*
X304575104Y-66969315D01*
X304529349Y-66916511D01*
X304518672Y-66853558D01*
X304521441Y-66823683D01*
X304534755Y-66680000D01*
X304531870Y-66648871D01*
X304515774Y-66475164D01*
X304515773Y-66475161D01*
X304513794Y-66468207D01*
X304504556Y-66435737D01*
X304459480Y-66277308D01*
X304459477Y-66277302D01*
X304441006Y-66240207D01*
X304367784Y-66093157D01*
X304284731Y-65983177D01*
X304243812Y-65928991D01*
X304091790Y-65790406D01*
X304091788Y-65790404D01*
X303916892Y-65682113D01*
X303916886Y-65682110D01*
X303765705Y-65623543D01*
X303725067Y-65607800D01*
X303522857Y-65570000D01*
X303317143Y-65570000D01*
X303114933Y-65607800D01*
X303114930Y-65607800D01*
X303114930Y-65607801D01*
X302923113Y-65682110D01*
X302923107Y-65682113D01*
X302748211Y-65790404D01*
X302748209Y-65790406D01*
X302596187Y-65928992D01*
X302519738Y-66030227D01*
X302463629Y-66071863D01*
X302420784Y-66079500D01*
X301879216Y-66079500D01*
X301812177Y-66059815D01*
X301780262Y-66030227D01*
X301744731Y-65983177D01*
X301703814Y-65928994D01*
X301689392Y-65915847D01*
X301551790Y-65790406D01*
X301551788Y-65790404D01*
X301376892Y-65682113D01*
X301376886Y-65682110D01*
X301225705Y-65623543D01*
X301185067Y-65607800D01*
X300982857Y-65570000D01*
X300777143Y-65570000D01*
X300574933Y-65607800D01*
X300574930Y-65607800D01*
X300574930Y-65607801D01*
X300383113Y-65682110D01*
X300383107Y-65682113D01*
X300208211Y-65790404D01*
X300208209Y-65790406D01*
X300056187Y-65928991D01*
X299932216Y-66093156D01*
X299840522Y-66277302D01*
X299840519Y-66277308D01*
X299784226Y-66475161D01*
X299784225Y-66475164D01*
X299765245Y-66679999D01*
X299454755Y-66679999D01*
X299451870Y-66648871D01*
X299435774Y-66475164D01*
X299435773Y-66475161D01*
X299433794Y-66468207D01*
X299424556Y-66435737D01*
X299379480Y-66277308D01*
X299379477Y-66277302D01*
X299361006Y-66240207D01*
X299287784Y-66093157D01*
X299204731Y-65983177D01*
X299163812Y-65928991D01*
X299011790Y-65790406D01*
X299011788Y-65790404D01*
X298836892Y-65682113D01*
X298836886Y-65682110D01*
X298685705Y-65623543D01*
X298645067Y-65607800D01*
X298442857Y-65570000D01*
X298237143Y-65570000D01*
X298034933Y-65607800D01*
X298034930Y-65607800D01*
X298034930Y-65607801D01*
X297843113Y-65682110D01*
X297843107Y-65682113D01*
X297668211Y-65790404D01*
X297668209Y-65790406D01*
X297516187Y-65928992D01*
X297439738Y-66030227D01*
X297383629Y-66071863D01*
X297340784Y-66079500D01*
X296799216Y-66079500D01*
X296732177Y-66059815D01*
X296700262Y-66030227D01*
X296664731Y-65983177D01*
X296623814Y-65928994D01*
X296609392Y-65915847D01*
X296471790Y-65790406D01*
X296471788Y-65790404D01*
X296296892Y-65682113D01*
X296296886Y-65682110D01*
X296145705Y-65623543D01*
X296105067Y-65607800D01*
X295902857Y-65570000D01*
X295697143Y-65570000D01*
X295494933Y-65607800D01*
X295494930Y-65607800D01*
X295494930Y-65607801D01*
X295303113Y-65682110D01*
X295303107Y-65682113D01*
X295128211Y-65790404D01*
X295128209Y-65790406D01*
X294976187Y-65928991D01*
X294852216Y-66093156D01*
X294760522Y-66277302D01*
X294760519Y-66277308D01*
X294704226Y-66475161D01*
X294704225Y-66475164D01*
X294685244Y-66679999D01*
X294696792Y-66804617D01*
X294697987Y-66817512D01*
X294701328Y-66853558D01*
X294687913Y-66922128D01*
X294639556Y-66972560D01*
X294577857Y-66989000D01*
X294482143Y-66989000D01*
X294415104Y-66969315D01*
X294369349Y-66916511D01*
X294358672Y-66853558D01*
X294361441Y-66823683D01*
X294374755Y-66680000D01*
X294371870Y-66648871D01*
X294355774Y-66475164D01*
X294355773Y-66475161D01*
X294353794Y-66468207D01*
X294344556Y-66435737D01*
X294299480Y-66277308D01*
X294299477Y-66277302D01*
X294281006Y-66240207D01*
X294207784Y-66093157D01*
X294124731Y-65983177D01*
X294083812Y-65928991D01*
X293931790Y-65790406D01*
X293931788Y-65790404D01*
X293756892Y-65682113D01*
X293756886Y-65682110D01*
X293605705Y-65623543D01*
X293565067Y-65607800D01*
X293362857Y-65570000D01*
X293157143Y-65570000D01*
X292954933Y-65607800D01*
X292954930Y-65607800D01*
X292954930Y-65607801D01*
X292763113Y-65682110D01*
X292763107Y-65682113D01*
X292588211Y-65790404D01*
X292588209Y-65790406D01*
X292436187Y-65928991D01*
X292312216Y-66093156D01*
X292220522Y-66277302D01*
X292220519Y-66277308D01*
X292164226Y-66475161D01*
X292164225Y-66475164D01*
X292145245Y-66679999D01*
X291581280Y-66679999D01*
X291460332Y-66489415D01*
X291371506Y-66382044D01*
X290543792Y-67209758D01*
X290456840Y-67090078D01*
X290309922Y-66943160D01*
X290190240Y-66856206D01*
X291020708Y-66025738D01*
X290781481Y-65851929D01*
X290781471Y-65851923D01*
X290508013Y-65701589D01*
X290508010Y-65701588D01*
X290217880Y-65586718D01*
X289915623Y-65509111D01*
X289915614Y-65509109D01*
X289606039Y-65470000D01*
X289293960Y-65470000D01*
X288984385Y-65509109D01*
X288984376Y-65509111D01*
X288682119Y-65586718D01*
X288391989Y-65701588D01*
X288391986Y-65701589D01*
X288118528Y-65851923D01*
X288118510Y-65851934D01*
X287879291Y-66025736D01*
X287879290Y-66025738D01*
X288709759Y-66856206D01*
X288590078Y-66943160D01*
X288443160Y-67090078D01*
X288356206Y-67209758D01*
X287528492Y-66382044D01*
X287439672Y-66489408D01*
X287439669Y-66489412D01*
X287272464Y-66752886D01*
X287272461Y-66752892D01*
X287139598Y-67035239D01*
X287139596Y-67035244D01*
X287043167Y-67332024D01*
X286984689Y-67638566D01*
X286965097Y-67949994D01*
X246826300Y-67949994D01*
X246809886Y-67730973D01*
X246809886Y-67730971D01*
X246749857Y-67467966D01*
X246749851Y-67467947D01*
X246651290Y-67216818D01*
X246651291Y-67216818D01*
X246516397Y-66983177D01*
X246462704Y-66915847D01*
X245961289Y-67417261D01*
X245864033Y-67283398D01*
X245741602Y-67160967D01*
X245607737Y-67063709D01*
X246110150Y-66561296D01*
X245927517Y-66436779D01*
X245927516Y-66436778D01*
X245684460Y-66319730D01*
X245684462Y-66319730D01*
X245426662Y-66240209D01*
X245426656Y-66240207D01*
X245159898Y-66200000D01*
X244890101Y-66200000D01*
X244623343Y-66240207D01*
X244623337Y-66240209D01*
X244365538Y-66319730D01*
X244122485Y-66436778D01*
X244122476Y-66436783D01*
X243939848Y-66561296D01*
X244442262Y-67063709D01*
X244308398Y-67160967D01*
X244185967Y-67283398D01*
X244088709Y-67417262D01*
X243587295Y-66915848D01*
X243533600Y-66983180D01*
X243398709Y-67216818D01*
X243300148Y-67467947D01*
X243300142Y-67467966D01*
X243240113Y-67730971D01*
X243240113Y-67730973D01*
X243219953Y-67999995D01*
X207813520Y-67999995D01*
X207774810Y-67942061D01*
X207559735Y-67679991D01*
X207559734Y-67679990D01*
X207559730Y-67679985D01*
X207320014Y-67440269D01*
X207057944Y-67225194D01*
X207057943Y-67225193D01*
X207057939Y-67225190D01*
X206776051Y-67036838D01*
X206776046Y-67036835D01*
X206776039Y-67036831D01*
X206477065Y-66877026D01*
X206477060Y-66877024D01*
X206471681Y-66874796D01*
X206316940Y-66810700D01*
X206163841Y-66747284D01*
X205913135Y-66671234D01*
X205839414Y-66648871D01*
X205839411Y-66648870D01*
X205839410Y-66648870D01*
X205506901Y-66582729D01*
X205261805Y-66558590D01*
X205169512Y-66549500D01*
X204830488Y-66549500D01*
X204739738Y-66558437D01*
X204493098Y-66582729D01*
X204160589Y-66648870D01*
X203836158Y-66747284D01*
X203522939Y-66877024D01*
X203522934Y-66877026D01*
X203223960Y-67036831D01*
X203223942Y-67036842D01*
X202942069Y-67225184D01*
X202942055Y-67225194D01*
X202679985Y-67440269D01*
X202440269Y-67679985D01*
X202225194Y-67942055D01*
X202225184Y-67942069D01*
X202036842Y-68223942D01*
X202036831Y-68223960D01*
X201877026Y-68522934D01*
X201877024Y-68522939D01*
X201747284Y-68836158D01*
X201648870Y-69160589D01*
X201582729Y-69493098D01*
X201569965Y-69622697D01*
X201549500Y-69830488D01*
X92882500Y-69830488D01*
X92882500Y-68965565D01*
X92902185Y-68898526D01*
X92953294Y-68853560D01*
X92974179Y-68843640D01*
X92983864Y-68838913D01*
X92984221Y-68838734D01*
X92992622Y-68834423D01*
X93032622Y-68813423D01*
X93044555Y-68806878D01*
X93048677Y-68804619D01*
X93049301Y-68804262D01*
X93065132Y-68794818D01*
X93065150Y-68794807D01*
X93102150Y-68771807D01*
X93114229Y-68764058D01*
X93114699Y-68763747D01*
X93126384Y-68755778D01*
X93163384Y-68729778D01*
X93169488Y-68725421D01*
X93169532Y-68725388D01*
X93169612Y-68725332D01*
X93169665Y-68725293D01*
X93169692Y-68725272D01*
X93169739Y-68725239D01*
X93176300Y-68720400D01*
X93212300Y-68693400D01*
X93227642Y-68681425D01*
X93228243Y-68680937D01*
X93243289Y-68668226D01*
X93276289Y-68639226D01*
X93280102Y-68635841D01*
X93280228Y-68635728D01*
X93282763Y-68633439D01*
X93315763Y-68603439D01*
X93333169Y-68586841D01*
X93333841Y-68586169D01*
X93350439Y-68568763D01*
X93380439Y-68535763D01*
X93382728Y-68533228D01*
X93382841Y-68533102D01*
X93386226Y-68529289D01*
X93415226Y-68496289D01*
X93427937Y-68481243D01*
X93428425Y-68480642D01*
X93440400Y-68465300D01*
X93467400Y-68429300D01*
X93472239Y-68422739D01*
X93472421Y-68422488D01*
X93476778Y-68416384D01*
X93502778Y-68379384D01*
X93510747Y-68367699D01*
X93511058Y-68367229D01*
X93518807Y-68355150D01*
X93541807Y-68318150D01*
X93551261Y-68302302D01*
X93551622Y-68301671D01*
X93560423Y-68285622D01*
X93581423Y-68245622D01*
X93585734Y-68237221D01*
X93585913Y-68236864D01*
X93590640Y-68227179D01*
X93609640Y-68187179D01*
X93615295Y-68174849D01*
X93615499Y-68174388D01*
X93620189Y-68163444D01*
X93637189Y-68122444D01*
X93641913Y-68110632D01*
X93642093Y-68110165D01*
X93646468Y-68098381D01*
X93661468Y-68056381D01*
X93665384Y-68044988D01*
X93665539Y-68044519D01*
X93669442Y-68032180D01*
X93679172Y-67999995D01*
X143219953Y-67999995D01*
X143219953Y-68000004D01*
X143240113Y-68269026D01*
X143240113Y-68269028D01*
X143300142Y-68532033D01*
X143300148Y-68532052D01*
X143398709Y-68783181D01*
X143398708Y-68783181D01*
X143533602Y-69016822D01*
X143587294Y-69084151D01*
X144088708Y-68582736D01*
X144185967Y-68716602D01*
X144308398Y-68839033D01*
X144442261Y-68936289D01*
X143939848Y-69438702D01*
X144122483Y-69563220D01*
X144122485Y-69563221D01*
X144365539Y-69680269D01*
X144365537Y-69680269D01*
X144623337Y-69759790D01*
X144623343Y-69759792D01*
X144890101Y-69799999D01*
X144890110Y-69800000D01*
X145159890Y-69800000D01*
X145159898Y-69799999D01*
X145426656Y-69759792D01*
X145426662Y-69759790D01*
X145684461Y-69680269D01*
X145927521Y-69563218D01*
X146110150Y-69438702D01*
X145607737Y-68936290D01*
X145741602Y-68839033D01*
X145864033Y-68716602D01*
X145961290Y-68582737D01*
X146462703Y-69084151D01*
X146462704Y-69084150D01*
X146516393Y-69016828D01*
X146516400Y-69016817D01*
X146651290Y-68783181D01*
X146749851Y-68532052D01*
X146749857Y-68532033D01*
X146809886Y-68269028D01*
X146809886Y-68269026D01*
X146830047Y-68000004D01*
X146830047Y-67999995D01*
X146809886Y-67730973D01*
X146809886Y-67730971D01*
X146749857Y-67467966D01*
X146749851Y-67467947D01*
X146651290Y-67216818D01*
X146651291Y-67216818D01*
X146516397Y-66983177D01*
X146462704Y-66915847D01*
X145961289Y-67417261D01*
X145864033Y-67283398D01*
X145741602Y-67160967D01*
X145607737Y-67063709D01*
X146110150Y-66561296D01*
X145927517Y-66436779D01*
X145927516Y-66436778D01*
X145684460Y-66319730D01*
X145684462Y-66319730D01*
X145426662Y-66240209D01*
X145426656Y-66240207D01*
X145159898Y-66200000D01*
X144890101Y-66200000D01*
X144623343Y-66240207D01*
X144623337Y-66240209D01*
X144365538Y-66319730D01*
X144122485Y-66436778D01*
X144122476Y-66436783D01*
X143939848Y-66561296D01*
X144442262Y-67063709D01*
X144308398Y-67160967D01*
X144185967Y-67283398D01*
X144088709Y-67417262D01*
X143587295Y-66915848D01*
X143533600Y-66983180D01*
X143398709Y-67216818D01*
X143300148Y-67467947D01*
X143300142Y-67467966D01*
X143240113Y-67730971D01*
X143240113Y-67730973D01*
X143219953Y-67999995D01*
X93679172Y-67999995D01*
X93682442Y-67989180D01*
X93686952Y-67973336D01*
X93687120Y-67972707D01*
X93689120Y-67964698D01*
X93691100Y-67956773D01*
X93701089Y-67913819D01*
X93701101Y-67913768D01*
X93702600Y-67907119D01*
X93702657Y-67906858D01*
X93704043Y-67900304D01*
X93713043Y-67856304D01*
X93717037Y-67834312D01*
X93717176Y-67833437D01*
X93720203Y-67811205D01*
X93725203Y-67767205D01*
X93725792Y-67761762D01*
X93725815Y-67761538D01*
X93726383Y-67755671D01*
X93730383Y-67711671D01*
X93731637Y-67694723D01*
X93731676Y-67694040D01*
X93732373Y-67676453D01*
X93733373Y-67631453D01*
X93733498Y-67620222D01*
X93733498Y-67619778D01*
X93733373Y-67608547D01*
X93732373Y-67563547D01*
X93731676Y-67545960D01*
X93731637Y-67545277D01*
X93730383Y-67528329D01*
X93726383Y-67484329D01*
X93725815Y-67478462D01*
X93725792Y-67478238D01*
X93725203Y-67472795D01*
X93720203Y-67428795D01*
X93717176Y-67406563D01*
X93717037Y-67405688D01*
X93713043Y-67383696D01*
X93704043Y-67339696D01*
X93702657Y-67333142D01*
X93702600Y-67332881D01*
X93701101Y-67326232D01*
X93691101Y-67283232D01*
X93687120Y-67267293D01*
X93686952Y-67266664D01*
X93682442Y-67250820D01*
X93669442Y-67207820D01*
X93665539Y-67195481D01*
X93665384Y-67195012D01*
X93661468Y-67183619D01*
X93646468Y-67141619D01*
X93642093Y-67129835D01*
X93641913Y-67129368D01*
X93637189Y-67117556D01*
X93620189Y-67076556D01*
X93615499Y-67065612D01*
X93615295Y-67065151D01*
X93609640Y-67052821D01*
X93590640Y-67012821D01*
X93584957Y-67001241D01*
X93584729Y-67000791D01*
X93578883Y-66989602D01*
X93557883Y-66950602D01*
X93551578Y-66939245D01*
X93551328Y-66938808D01*
X93545010Y-66928073D01*
X93536146Y-66913428D01*
X93522020Y-66890089D01*
X93522010Y-66890073D01*
X93512761Y-66875367D01*
X93512388Y-66874796D01*
X93502778Y-66860616D01*
X93476778Y-66823616D01*
X93472421Y-66817512D01*
X93472399Y-66817481D01*
X93472350Y-66817413D01*
X93472293Y-66817334D01*
X93471388Y-66816108D01*
X93467400Y-66810700D01*
X93440400Y-66774700D01*
X93428425Y-66759358D01*
X93427937Y-66758757D01*
X93415226Y-66743711D01*
X93386226Y-66710711D01*
X93382841Y-66706898D01*
X93382728Y-66706772D01*
X93382713Y-66706756D01*
X93382646Y-66706680D01*
X93380477Y-66704279D01*
X93350437Y-66671234D01*
X93333831Y-66653820D01*
X93333179Y-66653168D01*
X93315765Y-66636562D01*
X93282720Y-66606522D01*
X93280319Y-66604353D01*
X93280228Y-66604272D01*
X93280102Y-66604159D01*
X93276289Y-66600774D01*
X93243289Y-66571774D01*
X93243263Y-66571752D01*
X93228246Y-66559065D01*
X93227661Y-66558590D01*
X93212291Y-66546593D01*
X93203287Y-66539840D01*
X93176300Y-66519600D01*
X93172906Y-66517097D01*
X93169665Y-66514706D01*
X93169586Y-66514649D01*
X93169488Y-66514579D01*
X93163384Y-66510222D01*
X93149549Y-66500500D01*
X93126385Y-66484222D01*
X93114692Y-66476248D01*
X93114218Y-66475935D01*
X93102173Y-66468207D01*
X93065132Y-66445181D01*
X93049301Y-66435737D01*
X93048677Y-66435380D01*
X93032646Y-66426590D01*
X93032639Y-66426586D01*
X93032622Y-66426577D01*
X92992622Y-66405577D01*
X92991481Y-66404991D01*
X92984267Y-66401289D01*
X92984221Y-66401266D01*
X92983864Y-66401087D01*
X92974179Y-66396360D01*
X92953293Y-66386439D01*
X92901185Y-66339892D01*
X92882500Y-66274434D01*
X92882500Y-65329997D01*
X92880107Y-65285368D01*
X92879603Y-65275959D01*
X92844019Y-65136548D01*
X92841090Y-65129477D01*
X92836016Y-65120185D01*
X92789304Y-65034637D01*
X92691259Y-64929327D01*
X92691259Y-64929326D01*
X92567525Y-64855910D01*
X92560452Y-64852981D01*
X92560431Y-64852973D01*
X92509417Y-64834976D01*
X92461944Y-64828150D01*
X92367000Y-64814500D01*
X92237000Y-64814500D01*
X92236998Y-64814500D01*
X92182956Y-64817397D01*
X92043555Y-64852978D01*
X92043547Y-64852981D01*
X92036478Y-64855909D01*
X92036473Y-64855911D01*
X91941637Y-64907695D01*
X91836324Y-65005743D01*
X91831054Y-65012283D01*
X91773662Y-65052131D01*
X91703836Y-65054624D01*
X91684385Y-65047896D01*
X91612162Y-65015979D01*
X91612160Y-65015978D01*
X91612155Y-65015977D01*
X91608353Y-65015478D01*
X91604847Y-65013928D01*
X91603622Y-65013585D01*
X91603671Y-65013408D01*
X91544448Y-64987232D01*
X91505958Y-64928919D01*
X91500500Y-64892534D01*
X91500500Y-61999996D01*
X96069435Y-61999996D01*
X96069435Y-62000003D01*
X96089630Y-62179249D01*
X96089631Y-62179254D01*
X96149211Y-62349523D01*
X96245184Y-62502262D01*
X96280241Y-62537319D01*
X96313726Y-62598642D01*
X96308742Y-62668334D01*
X96280241Y-62712681D01*
X96245184Y-62747737D01*
X96149211Y-62900476D01*
X96089631Y-63070745D01*
X96089630Y-63070750D01*
X96069435Y-63249996D01*
X96069435Y-63250003D01*
X96089630Y-63429249D01*
X96089631Y-63429254D01*
X96149211Y-63599523D01*
X96245184Y-63752262D01*
X96280241Y-63787319D01*
X96313726Y-63848642D01*
X96308742Y-63918334D01*
X96280241Y-63962681D01*
X96245184Y-63997737D01*
X96149211Y-64150476D01*
X96089631Y-64320745D01*
X96089630Y-64320750D01*
X96069435Y-64499996D01*
X96069435Y-64500003D01*
X96089630Y-64679249D01*
X96089631Y-64679254D01*
X96149211Y-64849523D01*
X96199099Y-64928919D01*
X96245184Y-65002262D01*
X96372738Y-65129816D01*
X96525478Y-65225789D01*
X96668847Y-65275956D01*
X96695745Y-65285368D01*
X96695750Y-65285369D01*
X96874996Y-65305565D01*
X96875000Y-65305565D01*
X96875004Y-65305565D01*
X97054249Y-65285369D01*
X97054252Y-65285368D01*
X97054255Y-65285368D01*
X97224522Y-65225789D01*
X97377262Y-65129816D01*
X97377267Y-65129810D01*
X97380097Y-65127555D01*
X97382275Y-65126665D01*
X97383158Y-65126111D01*
X97383255Y-65126265D01*
X97444783Y-65101145D01*
X97457412Y-65100500D01*
X101542588Y-65100500D01*
X101609627Y-65120185D01*
X101619903Y-65127555D01*
X101622736Y-65129814D01*
X101622738Y-65129816D01*
X101775478Y-65225789D01*
X101918847Y-65275956D01*
X101945745Y-65285368D01*
X101945750Y-65285369D01*
X102124996Y-65305565D01*
X102125000Y-65305565D01*
X102125004Y-65305565D01*
X102304249Y-65285369D01*
X102304252Y-65285368D01*
X102304255Y-65285368D01*
X102474522Y-65225789D01*
X102627262Y-65129816D01*
X102754816Y-65002262D01*
X102850789Y-64849522D01*
X102910368Y-64679255D01*
X102930565Y-64500000D01*
X102910368Y-64320745D01*
X102850789Y-64150478D01*
X102754816Y-63997738D01*
X102627262Y-63870184D01*
X102530807Y-63809577D01*
X102474523Y-63774211D01*
X102304254Y-63714631D01*
X102304249Y-63714630D01*
X102125004Y-63694435D01*
X102124996Y-63694435D01*
X101945750Y-63714630D01*
X101945745Y-63714631D01*
X101775476Y-63774211D01*
X101622736Y-63870185D01*
X101619903Y-63872445D01*
X101617724Y-63873334D01*
X101616842Y-63873889D01*
X101616744Y-63873734D01*
X101555217Y-63898855D01*
X101542588Y-63899500D01*
X101005313Y-63899500D01*
X100938274Y-63879815D01*
X100892519Y-63827011D01*
X100882575Y-63757853D01*
X100911600Y-63694297D01*
X100917632Y-63687819D01*
X100986735Y-63618716D01*
X100986735Y-63618714D01*
X100996939Y-63608511D01*
X100996943Y-63608506D01*
X101199750Y-63405698D01*
X101261071Y-63372215D01*
X101273526Y-63370163D01*
X101360470Y-63360368D01*
X101530737Y-63300789D01*
X101683477Y-63204816D01*
X101811031Y-63077262D01*
X101907004Y-62924522D01*
X101966583Y-62754255D01*
X101966584Y-62754249D01*
X101986780Y-62575003D01*
X101986780Y-62574996D01*
X101966584Y-62395750D01*
X101966583Y-62395745D01*
X101907003Y-62225476D01*
X101811030Y-62072737D01*
X101683477Y-61945184D01*
X101530736Y-61849210D01*
X101461289Y-61824910D01*
X101404513Y-61784188D01*
X101385201Y-61748822D01*
X101350789Y-61650478D01*
X101254815Y-61497737D01*
X101127262Y-61370184D01*
X100974523Y-61274211D01*
X100804254Y-61214631D01*
X100804249Y-61214630D01*
X100625004Y-61194435D01*
X100624996Y-61194435D01*
X100445750Y-61214630D01*
X100445745Y-61214631D01*
X100275476Y-61274211D01*
X100122736Y-61370185D01*
X100119903Y-61372445D01*
X100117724Y-61373334D01*
X100116842Y-61373889D01*
X100116744Y-61373734D01*
X100055217Y-61398855D01*
X100042588Y-61399500D01*
X97457412Y-61399500D01*
X97390373Y-61379815D01*
X97380097Y-61372445D01*
X97377263Y-61370185D01*
X97377262Y-61370184D01*
X97320496Y-61334515D01*
X97224523Y-61274211D01*
X97054254Y-61214631D01*
X97054249Y-61214630D01*
X96875004Y-61194435D01*
X96874996Y-61194435D01*
X96695750Y-61214630D01*
X96695745Y-61214631D01*
X96525476Y-61274211D01*
X96372737Y-61370184D01*
X96245184Y-61497737D01*
X96149211Y-61650476D01*
X96089631Y-61820745D01*
X96089630Y-61820750D01*
X96069435Y-61999996D01*
X91500500Y-61999996D01*
X91500500Y-55524996D01*
X96069435Y-55524996D01*
X96069435Y-55525003D01*
X96089630Y-55704249D01*
X96089631Y-55704254D01*
X96149211Y-55874523D01*
X96245184Y-56027262D01*
X96280241Y-56062319D01*
X96313726Y-56123642D01*
X96308742Y-56193334D01*
X96280241Y-56237681D01*
X96245184Y-56272737D01*
X96149211Y-56425476D01*
X96089631Y-56595745D01*
X96089630Y-56595750D01*
X96069435Y-56774996D01*
X96069435Y-56775003D01*
X96089630Y-56954249D01*
X96089631Y-56954254D01*
X96149211Y-57124523D01*
X96245184Y-57277262D01*
X96280241Y-57312319D01*
X96313726Y-57373642D01*
X96308742Y-57443334D01*
X96280241Y-57487681D01*
X96245184Y-57522737D01*
X96149211Y-57675476D01*
X96089631Y-57845745D01*
X96089630Y-57845750D01*
X96069435Y-58024996D01*
X96069435Y-58025003D01*
X96089630Y-58204249D01*
X96089631Y-58204254D01*
X96149211Y-58374523D01*
X96245184Y-58527262D01*
X96372738Y-58654816D01*
X96525478Y-58750789D01*
X96695745Y-58810368D01*
X96695750Y-58810369D01*
X96874996Y-58830565D01*
X96875000Y-58830565D01*
X96875004Y-58830565D01*
X97054249Y-58810369D01*
X97054252Y-58810368D01*
X97054255Y-58810368D01*
X97224522Y-58750789D01*
X97377262Y-58654816D01*
X97377267Y-58654810D01*
X97380097Y-58652555D01*
X97382275Y-58651665D01*
X97383158Y-58651111D01*
X97383255Y-58651265D01*
X97444783Y-58626145D01*
X97457412Y-58625500D01*
X100042588Y-58625500D01*
X100109627Y-58645185D01*
X100119903Y-58652555D01*
X100122736Y-58654814D01*
X100122738Y-58654816D01*
X100275478Y-58750789D01*
X100445745Y-58810368D01*
X100445750Y-58810369D01*
X100624996Y-58830565D01*
X100625000Y-58830565D01*
X100625004Y-58830565D01*
X100804249Y-58810369D01*
X100804252Y-58810368D01*
X100804255Y-58810368D01*
X100974522Y-58750789D01*
X101127262Y-58654816D01*
X101254816Y-58527262D01*
X101350789Y-58374522D01*
X101385201Y-58276176D01*
X101425923Y-58219401D01*
X101461290Y-58200089D01*
X101530737Y-58175789D01*
X101683477Y-58079816D01*
X101811031Y-57952262D01*
X101907004Y-57799522D01*
X101966583Y-57629255D01*
X101966584Y-57629249D01*
X101986780Y-57450003D01*
X101986780Y-57449996D01*
X101966584Y-57270750D01*
X101966583Y-57270745D01*
X101907004Y-57100478D01*
X101811031Y-56947738D01*
X101683477Y-56820184D01*
X101611561Y-56774996D01*
X101530736Y-56724210D01*
X101360464Y-56664630D01*
X101273545Y-56654837D01*
X101209131Y-56627770D01*
X101199748Y-56619298D01*
X100993805Y-56413355D01*
X100993803Y-56413352D01*
X100917632Y-56337181D01*
X100884147Y-56275858D01*
X100889131Y-56206166D01*
X100931003Y-56150233D01*
X100996467Y-56125816D01*
X101005313Y-56125500D01*
X101542588Y-56125500D01*
X101609627Y-56145185D01*
X101619903Y-56152555D01*
X101622736Y-56154814D01*
X101622738Y-56154816D01*
X101775478Y-56250789D01*
X101900340Y-56294480D01*
X101945745Y-56310368D01*
X101945750Y-56310369D01*
X102124996Y-56330565D01*
X102125000Y-56330565D01*
X102125004Y-56330565D01*
X102304249Y-56310369D01*
X102304252Y-56310368D01*
X102304255Y-56310368D01*
X102474522Y-56250789D01*
X102627262Y-56154816D01*
X102754816Y-56027262D01*
X102850789Y-55874522D01*
X102910368Y-55704255D01*
X102930565Y-55525000D01*
X102910368Y-55345745D01*
X102850789Y-55175478D01*
X102754816Y-55022738D01*
X102627262Y-54895184D01*
X102474523Y-54799211D01*
X102304254Y-54739631D01*
X102304249Y-54739630D01*
X102125004Y-54719435D01*
X102124996Y-54719435D01*
X101945750Y-54739630D01*
X101945745Y-54739631D01*
X101775476Y-54799211D01*
X101622736Y-54895185D01*
X101619903Y-54897445D01*
X101617724Y-54898334D01*
X101616842Y-54898889D01*
X101616744Y-54898734D01*
X101555217Y-54923855D01*
X101542588Y-54924500D01*
X97457412Y-54924500D01*
X97390373Y-54904815D01*
X97380097Y-54897445D01*
X97377263Y-54895185D01*
X97377262Y-54895184D01*
X97320496Y-54859515D01*
X97224523Y-54799211D01*
X97054254Y-54739631D01*
X97054249Y-54739630D01*
X96875004Y-54719435D01*
X96874996Y-54719435D01*
X96695750Y-54739630D01*
X96695745Y-54739631D01*
X96525476Y-54799211D01*
X96372737Y-54895184D01*
X96245184Y-55022737D01*
X96149211Y-55175476D01*
X96089631Y-55345745D01*
X96089630Y-55345750D01*
X96069435Y-55524996D01*
X91500500Y-55524996D01*
X91500500Y-55107465D01*
X91520185Y-55040426D01*
X91572989Y-54994671D01*
X91582232Y-54990892D01*
X91637694Y-54970782D01*
X91707428Y-54966435D01*
X91768442Y-55000480D01*
X91788794Y-55027927D01*
X91814696Y-55075363D01*
X91912740Y-55180672D01*
X91912740Y-55180673D01*
X92036474Y-55254089D01*
X92038545Y-55254947D01*
X92043548Y-55257019D01*
X92094584Y-55275024D01*
X92237000Y-55295500D01*
X92237003Y-55295500D01*
X92367002Y-55295500D01*
X92372796Y-55295189D01*
X92421041Y-55292603D01*
X92560452Y-55257019D01*
X92567523Y-55254090D01*
X92662364Y-55202303D01*
X92767671Y-55104261D01*
X92767672Y-55104259D01*
X92767673Y-55104259D01*
X92841089Y-54980525D01*
X92841090Y-54980523D01*
X92844019Y-54973452D01*
X92862024Y-54922416D01*
X92882500Y-54780000D01*
X92882500Y-53725565D01*
X92902185Y-53658526D01*
X92953294Y-53613560D01*
X92974179Y-53603640D01*
X92983864Y-53598913D01*
X92984221Y-53598734D01*
X92992622Y-53594423D01*
X93032622Y-53573423D01*
X93044555Y-53566878D01*
X93048677Y-53564619D01*
X93049301Y-53564262D01*
X93065132Y-53554818D01*
X93065150Y-53554807D01*
X93102150Y-53531807D01*
X93114229Y-53524058D01*
X93114699Y-53523747D01*
X93126384Y-53515778D01*
X93163384Y-53489778D01*
X93169488Y-53485421D01*
X93169532Y-53485388D01*
X93169612Y-53485332D01*
X93169665Y-53485293D01*
X93169692Y-53485272D01*
X93169739Y-53485239D01*
X93176300Y-53480400D01*
X93212300Y-53453400D01*
X93227642Y-53441425D01*
X93228243Y-53440937D01*
X93243289Y-53428226D01*
X93276289Y-53399226D01*
X93280102Y-53395841D01*
X93280228Y-53395728D01*
X93282763Y-53393439D01*
X93315763Y-53363439D01*
X93333169Y-53346841D01*
X93333841Y-53346169D01*
X93350439Y-53328763D01*
X93380439Y-53295763D01*
X93382728Y-53293228D01*
X93382841Y-53293102D01*
X93386226Y-53289289D01*
X93415226Y-53256289D01*
X93427937Y-53241243D01*
X93428425Y-53240642D01*
X93440400Y-53225300D01*
X93467400Y-53189300D01*
X93472239Y-53182739D01*
X93472421Y-53182488D01*
X93476778Y-53176384D01*
X93502778Y-53139384D01*
X93510747Y-53127699D01*
X93511058Y-53127229D01*
X93518807Y-53115150D01*
X93541807Y-53078150D01*
X93541818Y-53078132D01*
X93551262Y-53062301D01*
X93551619Y-53061677D01*
X93553878Y-53057555D01*
X93560423Y-53045622D01*
X93581423Y-53005622D01*
X93585734Y-52997221D01*
X93585913Y-52996864D01*
X93590640Y-52987179D01*
X93609640Y-52947179D01*
X93615295Y-52934849D01*
X93615499Y-52934388D01*
X93620189Y-52923444D01*
X93637189Y-52882444D01*
X93641913Y-52870632D01*
X93642093Y-52870165D01*
X93646468Y-52858381D01*
X93661468Y-52816381D01*
X93665384Y-52804988D01*
X93665539Y-52804519D01*
X93669442Y-52792180D01*
X93682442Y-52749180D01*
X93686952Y-52733336D01*
X93687120Y-52732707D01*
X93691101Y-52716768D01*
X93701101Y-52673768D01*
X93702600Y-52667119D01*
X93702657Y-52666858D01*
X93704043Y-52660304D01*
X93713043Y-52616304D01*
X93717037Y-52594312D01*
X93717176Y-52593437D01*
X93720203Y-52571205D01*
X93725203Y-52527205D01*
X93725792Y-52521762D01*
X93725815Y-52521538D01*
X93726383Y-52515671D01*
X93730383Y-52471671D01*
X93731637Y-52454723D01*
X93731676Y-52454040D01*
X93732373Y-52436453D01*
X93733373Y-52391453D01*
X93733498Y-52380222D01*
X93733498Y-52379778D01*
X93733373Y-52368547D01*
X93732373Y-52323547D01*
X93731676Y-52305960D01*
X93731637Y-52305277D01*
X93730383Y-52288329D01*
X93726383Y-52244329D01*
X93725815Y-52238462D01*
X93725792Y-52238238D01*
X93725203Y-52232795D01*
X93720203Y-52188795D01*
X93717176Y-52166563D01*
X93717037Y-52165688D01*
X93713043Y-52143696D01*
X93704043Y-52099696D01*
X93702657Y-52093142D01*
X93702600Y-52092881D01*
X93701101Y-52086232D01*
X93694814Y-52059196D01*
X93691100Y-52043226D01*
X93687118Y-52027285D01*
X93686960Y-52026693D01*
X93682633Y-52011492D01*
X93682442Y-52010820D01*
X93669442Y-51967820D01*
X93665539Y-51955481D01*
X93665384Y-51955012D01*
X93661468Y-51943619D01*
X93651550Y-51915848D01*
X93646469Y-51901621D01*
X93645481Y-51898961D01*
X93642093Y-51889835D01*
X93641913Y-51889368D01*
X93637189Y-51877556D01*
X93620189Y-51836556D01*
X93615499Y-51825612D01*
X93615295Y-51825151D01*
X93609640Y-51812821D01*
X93590640Y-51772821D01*
X93585913Y-51763136D01*
X93585734Y-51762779D01*
X93581423Y-51754378D01*
X93560423Y-51714378D01*
X93558148Y-51710229D01*
X93551619Y-51698322D01*
X93551262Y-51697698D01*
X93541818Y-51681867D01*
X93518792Y-51644826D01*
X93511064Y-51632781D01*
X93511058Y-51632771D01*
X93510747Y-51632301D01*
X93502778Y-51620616D01*
X93476778Y-51583616D01*
X93472421Y-51577512D01*
X93472399Y-51577481D01*
X93472350Y-51577413D01*
X93472293Y-51577334D01*
X93471388Y-51576108D01*
X93467400Y-51570700D01*
X93440400Y-51534700D01*
X93428425Y-51519358D01*
X93427937Y-51518757D01*
X93415226Y-51503711D01*
X93386226Y-51470711D01*
X93382841Y-51466898D01*
X93382728Y-51466772D01*
X93382713Y-51466756D01*
X93382646Y-51466680D01*
X93380477Y-51464279D01*
X93350437Y-51431234D01*
X93333831Y-51413820D01*
X93333179Y-51413168D01*
X93315765Y-51396562D01*
X93282720Y-51366522D01*
X93280319Y-51364353D01*
X93280228Y-51364272D01*
X93280102Y-51364159D01*
X93276289Y-51360774D01*
X93243289Y-51331774D01*
X93229033Y-51319730D01*
X93228246Y-51319065D01*
X93227661Y-51318590D01*
X93212291Y-51306593D01*
X93203287Y-51299840D01*
X93176300Y-51279600D01*
X93172906Y-51277097D01*
X93169665Y-51274706D01*
X93169586Y-51274649D01*
X93169488Y-51274579D01*
X93163384Y-51270222D01*
X93163316Y-51270174D01*
X93126385Y-51244222D01*
X93114692Y-51236248D01*
X93114218Y-51235935D01*
X93102173Y-51228207D01*
X93065132Y-51205181D01*
X93049301Y-51195737D01*
X93048677Y-51195380D01*
X93032646Y-51186590D01*
X93032639Y-51186586D01*
X93032622Y-51186577D01*
X92992622Y-51165577D01*
X92989237Y-51163840D01*
X92984267Y-51161289D01*
X92984221Y-51161266D01*
X92983864Y-51161087D01*
X92974179Y-51156360D01*
X92953293Y-51146439D01*
X92901185Y-51099892D01*
X92882500Y-51034434D01*
X92882500Y-50089997D01*
X92882033Y-50081306D01*
X92879603Y-50035959D01*
X92844019Y-49896548D01*
X92841090Y-49889477D01*
X92836136Y-49880404D01*
X92808882Y-49830491D01*
X121549500Y-49830491D01*
X121549500Y-50169508D01*
X121582729Y-50506901D01*
X121644354Y-50816708D01*
X121648871Y-50839414D01*
X121670597Y-50911035D01*
X121747284Y-51163841D01*
X121830306Y-51364272D01*
X121872762Y-51466772D01*
X121877024Y-51477060D01*
X121877026Y-51477065D01*
X122036831Y-51776039D01*
X122036842Y-51776057D01*
X122225184Y-52057930D01*
X122225194Y-52057944D01*
X122440269Y-52320014D01*
X122679985Y-52559730D01*
X122679990Y-52559734D01*
X122679991Y-52559735D01*
X122942061Y-52774810D01*
X123223949Y-52963162D01*
X123223958Y-52963167D01*
X123223960Y-52963168D01*
X123522934Y-53122973D01*
X123522936Y-53122973D01*
X123522942Y-53122977D01*
X123836160Y-53252716D01*
X124160586Y-53351129D01*
X124493096Y-53417270D01*
X124830488Y-53450500D01*
X124830491Y-53450500D01*
X125169509Y-53450500D01*
X125169512Y-53450500D01*
X125506904Y-53417270D01*
X125839414Y-53351129D01*
X126163840Y-53252716D01*
X126477058Y-53122977D01*
X126776051Y-52963162D01*
X127057939Y-52774810D01*
X127320009Y-52559735D01*
X127559735Y-52320009D01*
X127774810Y-52057939D01*
X127813527Y-51999995D01*
X143219953Y-51999995D01*
X143219953Y-52000004D01*
X143240113Y-52269026D01*
X143240113Y-52269028D01*
X143300142Y-52532033D01*
X143300148Y-52532052D01*
X143398709Y-52783181D01*
X143398708Y-52783181D01*
X143533602Y-53016822D01*
X143587294Y-53084151D01*
X144088708Y-52582736D01*
X144185967Y-52716602D01*
X144308398Y-52839033D01*
X144442261Y-52936289D01*
X143939848Y-53438702D01*
X144122483Y-53563220D01*
X144122485Y-53563221D01*
X144365539Y-53680269D01*
X144365537Y-53680269D01*
X144623337Y-53759790D01*
X144623343Y-53759792D01*
X144890101Y-53799999D01*
X144890110Y-53800000D01*
X145159890Y-53800000D01*
X145159898Y-53799999D01*
X145426656Y-53759792D01*
X145426662Y-53759790D01*
X145684461Y-53680269D01*
X145927521Y-53563218D01*
X146110150Y-53438702D01*
X145607737Y-52936290D01*
X145741602Y-52839033D01*
X145864033Y-52716602D01*
X145961290Y-52582737D01*
X146462703Y-53084151D01*
X146462704Y-53084150D01*
X146516393Y-53016828D01*
X146516400Y-53016817D01*
X146651290Y-52783181D01*
X146749851Y-52532052D01*
X146749857Y-52532033D01*
X146809886Y-52269028D01*
X146809886Y-52269026D01*
X146830047Y-52000004D01*
X146830047Y-51999995D01*
X243219953Y-51999995D01*
X243219953Y-52000004D01*
X243240113Y-52269026D01*
X243240113Y-52269028D01*
X243300142Y-52532033D01*
X243300148Y-52532052D01*
X243398709Y-52783181D01*
X243398708Y-52783181D01*
X243533602Y-53016822D01*
X243587294Y-53084151D01*
X244088708Y-52582736D01*
X244185967Y-52716602D01*
X244308398Y-52839033D01*
X244442261Y-52936289D01*
X243939848Y-53438702D01*
X244122483Y-53563220D01*
X244122485Y-53563221D01*
X244365539Y-53680269D01*
X244365537Y-53680269D01*
X244623337Y-53759790D01*
X244623343Y-53759792D01*
X244890101Y-53799999D01*
X244890110Y-53800000D01*
X245159890Y-53800000D01*
X245159898Y-53799999D01*
X245426656Y-53759792D01*
X245426662Y-53759790D01*
X245684461Y-53680269D01*
X245927521Y-53563218D01*
X246110150Y-53438702D01*
X245607737Y-52936290D01*
X245741602Y-52839033D01*
X245864033Y-52716602D01*
X245961290Y-52582737D01*
X246462703Y-53084151D01*
X246462704Y-53084150D01*
X246516393Y-53016828D01*
X246516400Y-53016817D01*
X246651290Y-52783181D01*
X246749851Y-52532052D01*
X246749857Y-52532033D01*
X246809886Y-52269028D01*
X246809886Y-52269026D01*
X246827050Y-52039994D01*
X286965097Y-52039994D01*
X286965097Y-52040005D01*
X286984689Y-52351433D01*
X287043167Y-52657975D01*
X287139596Y-52954755D01*
X287139598Y-52954760D01*
X287272461Y-53237107D01*
X287272464Y-53237113D01*
X287439667Y-53500584D01*
X287528492Y-53607954D01*
X288356206Y-52780240D01*
X288443160Y-52899922D01*
X288590078Y-53046840D01*
X288709758Y-53133792D01*
X287879290Y-53964260D01*
X288118518Y-54138070D01*
X288118528Y-54138076D01*
X288391986Y-54288410D01*
X288391989Y-54288411D01*
X288682119Y-54403281D01*
X288984376Y-54480888D01*
X288984385Y-54480890D01*
X289293960Y-54519999D01*
X289293974Y-54520000D01*
X289606026Y-54520000D01*
X289606039Y-54519999D01*
X289915614Y-54480890D01*
X289915623Y-54480888D01*
X290217880Y-54403281D01*
X290508010Y-54288411D01*
X290508013Y-54288410D01*
X290781466Y-54138079D01*
X290781476Y-54138073D01*
X291020707Y-53964260D01*
X291020708Y-53964260D01*
X290190240Y-53133793D01*
X290309922Y-53046840D01*
X290456840Y-52899922D01*
X290543793Y-52780240D01*
X291371506Y-53607953D01*
X291460325Y-53500592D01*
X291627539Y-53237106D01*
X291760401Y-52954760D01*
X291760403Y-52954755D01*
X291856832Y-52657975D01*
X291857851Y-52652635D01*
X292150000Y-52652635D01*
X292150000Y-53967370D01*
X292150001Y-53967376D01*
X292156408Y-54026983D01*
X292206702Y-54161828D01*
X292206706Y-54161835D01*
X292292952Y-54277044D01*
X292292955Y-54277047D01*
X292408164Y-54363293D01*
X292408171Y-54363297D01*
X292543017Y-54413591D01*
X292543016Y-54413591D01*
X292549944Y-54414335D01*
X292602627Y-54420000D01*
X293917372Y-54419999D01*
X293976983Y-54413591D01*
X294111831Y-54363296D01*
X294227046Y-54277046D01*
X294313296Y-54161831D01*
X294363591Y-54026983D01*
X294364208Y-54021243D01*
X294390945Y-53956695D01*
X294448337Y-53916846D01*
X294487497Y-53910500D01*
X294800784Y-53910500D01*
X294867823Y-53930185D01*
X294899738Y-53959773D01*
X294976187Y-54061007D01*
X295128209Y-54199593D01*
X295128211Y-54199595D01*
X295303107Y-54307886D01*
X295303113Y-54307889D01*
X295343749Y-54323631D01*
X295494933Y-54382200D01*
X295697143Y-54420000D01*
X295697145Y-54420000D01*
X295902855Y-54420000D01*
X295902857Y-54420000D01*
X296105067Y-54382200D01*
X296296889Y-54307888D01*
X296471790Y-54199594D01*
X296623814Y-54061006D01*
X296747784Y-53896843D01*
X296839478Y-53712696D01*
X296839478Y-53712693D01*
X296839480Y-53712691D01*
X296879005Y-53573772D01*
X296895774Y-53514836D01*
X296914755Y-53310000D01*
X296914755Y-53309999D01*
X297225245Y-53309999D01*
X297225245Y-53310000D01*
X297244225Y-53514835D01*
X297244226Y-53514838D01*
X297300519Y-53712691D01*
X297300522Y-53712697D01*
X297392216Y-53896843D01*
X297516187Y-54061008D01*
X297668209Y-54199593D01*
X297668211Y-54199595D01*
X297843107Y-54307886D01*
X297843113Y-54307889D01*
X297883749Y-54323631D01*
X298034933Y-54382200D01*
X298237143Y-54420000D01*
X298237145Y-54420000D01*
X298442855Y-54420000D01*
X298442857Y-54420000D01*
X298645067Y-54382200D01*
X298836889Y-54307888D01*
X299011790Y-54199594D01*
X299163814Y-54061006D01*
X299234520Y-53967376D01*
X299240262Y-53959773D01*
X299296371Y-53918137D01*
X299339216Y-53910500D01*
X299880784Y-53910500D01*
X299947823Y-53930185D01*
X299979738Y-53959773D01*
X300056187Y-54061007D01*
X300208209Y-54199593D01*
X300208211Y-54199595D01*
X300383107Y-54307886D01*
X300383113Y-54307889D01*
X300423749Y-54323631D01*
X300574933Y-54382200D01*
X300777143Y-54420000D01*
X300777145Y-54420000D01*
X300982855Y-54420000D01*
X300982857Y-54420000D01*
X301185067Y-54382200D01*
X301376889Y-54307888D01*
X301551790Y-54199594D01*
X301703814Y-54061006D01*
X301827784Y-53896843D01*
X301919478Y-53712696D01*
X301919478Y-53712693D01*
X301919480Y-53712691D01*
X301959005Y-53573772D01*
X301975774Y-53514836D01*
X301994755Y-53310000D01*
X301989775Y-53256263D01*
X301975774Y-53105164D01*
X301966598Y-53072914D01*
X301951280Y-53019076D01*
X301951866Y-52949210D01*
X301990133Y-52890751D01*
X302053930Y-52862261D01*
X302123003Y-52872785D01*
X302158227Y-52897462D01*
X302286601Y-53025836D01*
X302320086Y-53087159D01*
X302322391Y-53124958D01*
X302305245Y-53309998D01*
X302305245Y-53310000D01*
X302324225Y-53514835D01*
X302324226Y-53514838D01*
X302380519Y-53712691D01*
X302380522Y-53712697D01*
X302472216Y-53896843D01*
X302596187Y-54061008D01*
X302748209Y-54199593D01*
X302748211Y-54199595D01*
X302923107Y-54307886D01*
X302923113Y-54307889D01*
X302963749Y-54323631D01*
X303114933Y-54382200D01*
X303317143Y-54420000D01*
X303317145Y-54420000D01*
X303522855Y-54420000D01*
X303522857Y-54420000D01*
X303725067Y-54382200D01*
X303916889Y-54307888D01*
X304091790Y-54199594D01*
X304243814Y-54061006D01*
X304314520Y-53967376D01*
X304320262Y-53959773D01*
X304376371Y-53918137D01*
X304419216Y-53910500D01*
X304960784Y-53910500D01*
X305027823Y-53930185D01*
X305059738Y-53959773D01*
X305136187Y-54061007D01*
X305288209Y-54199593D01*
X305288211Y-54199595D01*
X305463107Y-54307886D01*
X305463113Y-54307889D01*
X305503749Y-54323631D01*
X305654933Y-54382200D01*
X305857143Y-54420000D01*
X305857145Y-54420000D01*
X306062855Y-54420000D01*
X306062857Y-54420000D01*
X306265067Y-54382200D01*
X306456889Y-54307888D01*
X306631790Y-54199594D01*
X306783814Y-54061006D01*
X306907784Y-53896843D01*
X306999478Y-53712696D01*
X306999478Y-53712693D01*
X306999480Y-53712691D01*
X307039005Y-53573772D01*
X307055774Y-53514836D01*
X307074755Y-53310000D01*
X307074755Y-53309999D01*
X307385245Y-53309999D01*
X307385245Y-53310000D01*
X307404225Y-53514835D01*
X307404226Y-53514838D01*
X307460519Y-53712691D01*
X307460522Y-53712697D01*
X307552216Y-53896843D01*
X307676187Y-54061008D01*
X307828209Y-54199593D01*
X307828211Y-54199595D01*
X308003107Y-54307886D01*
X308003113Y-54307889D01*
X308043749Y-54323631D01*
X308194933Y-54382200D01*
X308397143Y-54420000D01*
X308397145Y-54420000D01*
X308602855Y-54420000D01*
X308602857Y-54420000D01*
X308805067Y-54382200D01*
X308996889Y-54307888D01*
X309171790Y-54199594D01*
X309323814Y-54061006D01*
X309394520Y-53967376D01*
X309400262Y-53959773D01*
X309456371Y-53918137D01*
X309499216Y-53910500D01*
X310040784Y-53910500D01*
X310107823Y-53930185D01*
X310139738Y-53959773D01*
X310216187Y-54061007D01*
X310368209Y-54199593D01*
X310368211Y-54199595D01*
X310543107Y-54307886D01*
X310543113Y-54307889D01*
X310583749Y-54323631D01*
X310734933Y-54382200D01*
X310937143Y-54420000D01*
X310937145Y-54420000D01*
X311142855Y-54420000D01*
X311142857Y-54420000D01*
X311345067Y-54382200D01*
X311536889Y-54307888D01*
X311711790Y-54199594D01*
X311863814Y-54061006D01*
X311987784Y-53896843D01*
X312079478Y-53712696D01*
X312079478Y-53712693D01*
X312079480Y-53712691D01*
X312119005Y-53573772D01*
X312135774Y-53514836D01*
X312154755Y-53310000D01*
X312149775Y-53256263D01*
X312135774Y-53105164D01*
X312126598Y-53072914D01*
X312111280Y-53019076D01*
X312111866Y-52949210D01*
X312150133Y-52890751D01*
X312213930Y-52862261D01*
X312283003Y-52872785D01*
X312318227Y-52897462D01*
X312446601Y-53025836D01*
X312480086Y-53087159D01*
X312482391Y-53124958D01*
X312465245Y-53309998D01*
X312465245Y-53310000D01*
X312484225Y-53514835D01*
X312484226Y-53514838D01*
X312540519Y-53712691D01*
X312540522Y-53712697D01*
X312632216Y-53896843D01*
X312756187Y-54061008D01*
X312908209Y-54199593D01*
X312908211Y-54199595D01*
X313083107Y-54307886D01*
X313083113Y-54307889D01*
X313123749Y-54323631D01*
X313274933Y-54382200D01*
X313477143Y-54420000D01*
X313477145Y-54420000D01*
X313682855Y-54420000D01*
X313682857Y-54420000D01*
X313885067Y-54382200D01*
X314076889Y-54307888D01*
X314251790Y-54199594D01*
X314403814Y-54061006D01*
X314474520Y-53967376D01*
X314480262Y-53959773D01*
X314536371Y-53918137D01*
X314579216Y-53910500D01*
X315120784Y-53910500D01*
X315187823Y-53930185D01*
X315219738Y-53959773D01*
X315296187Y-54061007D01*
X315448209Y-54199593D01*
X315448211Y-54199595D01*
X315623107Y-54307886D01*
X315623113Y-54307889D01*
X315663749Y-54323631D01*
X315814933Y-54382200D01*
X316017143Y-54420000D01*
X316017145Y-54420000D01*
X316222855Y-54420000D01*
X316222857Y-54420000D01*
X316425067Y-54382200D01*
X316616889Y-54307888D01*
X316791790Y-54199594D01*
X316943814Y-54061006D01*
X317067784Y-53896843D01*
X317159478Y-53712696D01*
X317159478Y-53712693D01*
X317159480Y-53712691D01*
X317199005Y-53573772D01*
X317215774Y-53514836D01*
X317234755Y-53310000D01*
X317234755Y-53309999D01*
X317545245Y-53309999D01*
X317545245Y-53310000D01*
X317564225Y-53514835D01*
X317564226Y-53514838D01*
X317620519Y-53712691D01*
X317620522Y-53712697D01*
X317712216Y-53896843D01*
X317836187Y-54061008D01*
X317988209Y-54199593D01*
X317988211Y-54199595D01*
X318163107Y-54307886D01*
X318163113Y-54307889D01*
X318203749Y-54323631D01*
X318354933Y-54382200D01*
X318557143Y-54420000D01*
X318557145Y-54420000D01*
X318762855Y-54420000D01*
X318762857Y-54420000D01*
X318965067Y-54382200D01*
X319156889Y-54307888D01*
X319331790Y-54199594D01*
X319483814Y-54061006D01*
X319554520Y-53967376D01*
X319560262Y-53959773D01*
X319616371Y-53918137D01*
X319659216Y-53910500D01*
X320200784Y-53910500D01*
X320267823Y-53930185D01*
X320299738Y-53959773D01*
X320376187Y-54061007D01*
X320528209Y-54199593D01*
X320528211Y-54199595D01*
X320703107Y-54307886D01*
X320703113Y-54307889D01*
X320743749Y-54323631D01*
X320894933Y-54382200D01*
X321097143Y-54420000D01*
X321097145Y-54420000D01*
X321302855Y-54420000D01*
X321302857Y-54420000D01*
X321505067Y-54382200D01*
X321696889Y-54307888D01*
X321871790Y-54199594D01*
X322023814Y-54061006D01*
X322147784Y-53896843D01*
X322239478Y-53712696D01*
X322239478Y-53712693D01*
X322239480Y-53712691D01*
X322279005Y-53573772D01*
X322295774Y-53514836D01*
X322314755Y-53310000D01*
X322309775Y-53256263D01*
X322295774Y-53105164D01*
X322286598Y-53072914D01*
X322271280Y-53019076D01*
X322271866Y-52949210D01*
X322310133Y-52890751D01*
X322373930Y-52862261D01*
X322443003Y-52872785D01*
X322478227Y-52897462D01*
X322606601Y-53025836D01*
X322640086Y-53087159D01*
X322642391Y-53124958D01*
X322625245Y-53309998D01*
X322625245Y-53310000D01*
X322644225Y-53514835D01*
X322644226Y-53514838D01*
X322700519Y-53712691D01*
X322700522Y-53712697D01*
X322792216Y-53896843D01*
X322916187Y-54061008D01*
X323068209Y-54199593D01*
X323068211Y-54199595D01*
X323243107Y-54307886D01*
X323243113Y-54307889D01*
X323283749Y-54323631D01*
X323434933Y-54382200D01*
X323637143Y-54420000D01*
X323637145Y-54420000D01*
X323842855Y-54420000D01*
X323842857Y-54420000D01*
X324045067Y-54382200D01*
X324236889Y-54307888D01*
X324411790Y-54199594D01*
X324563814Y-54061006D01*
X324687784Y-53896843D01*
X324779478Y-53712696D01*
X324779478Y-53712693D01*
X324779480Y-53712691D01*
X324819005Y-53573772D01*
X324835774Y-53514836D01*
X324854755Y-53310000D01*
X324849775Y-53256263D01*
X324835774Y-53105164D01*
X324835773Y-53105161D01*
X324779480Y-52907308D01*
X324779477Y-52907302D01*
X324761253Y-52870704D01*
X324687784Y-52723157D01*
X324622730Y-52637011D01*
X324563812Y-52558991D01*
X324411790Y-52420406D01*
X324411788Y-52420404D01*
X324236892Y-52312113D01*
X324236886Y-52312110D01*
X324061920Y-52244329D01*
X324045067Y-52237800D01*
X323842857Y-52200000D01*
X323637143Y-52200000D01*
X323598907Y-52207147D01*
X323568351Y-52212859D01*
X323498836Y-52205827D01*
X323457886Y-52178651D01*
X323319229Y-52039994D01*
X325065097Y-52039994D01*
X325065097Y-52040005D01*
X325084689Y-52351433D01*
X325143167Y-52657975D01*
X325239596Y-52954755D01*
X325239598Y-52954760D01*
X325372461Y-53237107D01*
X325372464Y-53237113D01*
X325539667Y-53500584D01*
X325628492Y-53607954D01*
X326456206Y-52780240D01*
X326543160Y-52899922D01*
X326690078Y-53046840D01*
X326809758Y-53133792D01*
X325979290Y-53964260D01*
X326218518Y-54138070D01*
X326218528Y-54138076D01*
X326491986Y-54288410D01*
X326491989Y-54288411D01*
X326782119Y-54403281D01*
X327084376Y-54480888D01*
X327084385Y-54480890D01*
X327393960Y-54519999D01*
X327393974Y-54520000D01*
X327706026Y-54520000D01*
X327706039Y-54519999D01*
X328015614Y-54480890D01*
X328015623Y-54480888D01*
X328317880Y-54403281D01*
X328608010Y-54288411D01*
X328608013Y-54288410D01*
X328881466Y-54138079D01*
X328881476Y-54138073D01*
X329120707Y-53964260D01*
X329120708Y-53964260D01*
X328290240Y-53133793D01*
X328409922Y-53046840D01*
X328556840Y-52899922D01*
X328643793Y-52780240D01*
X329471506Y-53607953D01*
X329560325Y-53500592D01*
X329727539Y-53237106D01*
X329860401Y-52954760D01*
X329860403Y-52954755D01*
X329956832Y-52657975D01*
X330015310Y-52351433D01*
X330034903Y-52040005D01*
X330034903Y-52039994D01*
X330015310Y-51728566D01*
X329956832Y-51422024D01*
X329860403Y-51125244D01*
X329860401Y-51125239D01*
X329727538Y-50842892D01*
X329727535Y-50842886D01*
X329560332Y-50579415D01*
X329471506Y-50472044D01*
X328643792Y-51299758D01*
X328556840Y-51180078D01*
X328409922Y-51033160D01*
X328290240Y-50946206D01*
X329120708Y-50115738D01*
X328881481Y-49941929D01*
X328881471Y-49941923D01*
X328608013Y-49791589D01*
X328608010Y-49791588D01*
X328317880Y-49676718D01*
X328015623Y-49599111D01*
X328015614Y-49599109D01*
X327706039Y-49560000D01*
X327393960Y-49560000D01*
X327084385Y-49599109D01*
X327084376Y-49599111D01*
X326782119Y-49676718D01*
X326491989Y-49791588D01*
X326491986Y-49791589D01*
X326218528Y-49941923D01*
X326218510Y-49941934D01*
X325979291Y-50115736D01*
X325979290Y-50115738D01*
X326809759Y-50946206D01*
X326690078Y-51033160D01*
X326543160Y-51180078D01*
X326456206Y-51299758D01*
X325628492Y-50472044D01*
X325539672Y-50579408D01*
X325539669Y-50579412D01*
X325372464Y-50842886D01*
X325372461Y-50842892D01*
X325239598Y-51125239D01*
X325239596Y-51125244D01*
X325143167Y-51422024D01*
X325084689Y-51728566D01*
X325065097Y-52039994D01*
X323319229Y-52039994D01*
X323126914Y-51847679D01*
X323093429Y-51786356D01*
X323098413Y-51716664D01*
X323137839Y-51663769D01*
X323137553Y-51663456D01*
X323139175Y-51661976D01*
X323139874Y-51661040D01*
X323141780Y-51659599D01*
X323141790Y-51659594D01*
X323293814Y-51521006D01*
X323417784Y-51356843D01*
X323509478Y-51172696D01*
X323509478Y-51172693D01*
X323509480Y-51172691D01*
X323549179Y-51033160D01*
X323565774Y-50974836D01*
X323584755Y-50770000D01*
X323565774Y-50565164D01*
X323539279Y-50472044D01*
X323509480Y-50367308D01*
X323509477Y-50367302D01*
X323446191Y-50240207D01*
X323417784Y-50183157D01*
X323347433Y-50089997D01*
X323293812Y-50018991D01*
X323141790Y-49880406D01*
X323141788Y-49880404D01*
X322966892Y-49772113D01*
X322966886Y-49772110D01*
X322815705Y-49713543D01*
X322775067Y-49697800D01*
X322572857Y-49660000D01*
X322367143Y-49660000D01*
X322164933Y-49697800D01*
X322164930Y-49697800D01*
X322164930Y-49697801D01*
X321973113Y-49772110D01*
X321973107Y-49772113D01*
X321798211Y-49880404D01*
X321798209Y-49880406D01*
X321646187Y-50018991D01*
X321522216Y-50183156D01*
X321430522Y-50367302D01*
X321430519Y-50367308D01*
X321374226Y-50565161D01*
X321374225Y-50565164D01*
X321372905Y-50579415D01*
X321355245Y-50770000D01*
X321369801Y-50927086D01*
X321371328Y-50943558D01*
X321357913Y-51012128D01*
X321309556Y-51062560D01*
X321247857Y-51079000D01*
X321152143Y-51079000D01*
X321085104Y-51059315D01*
X321039349Y-51006511D01*
X321028672Y-50943558D01*
X321030199Y-50927086D01*
X321044755Y-50770000D01*
X321025774Y-50565164D01*
X320999279Y-50472044D01*
X320969480Y-50367308D01*
X320969477Y-50367302D01*
X320906191Y-50240207D01*
X320877784Y-50183157D01*
X320807433Y-50089997D01*
X320753812Y-50018991D01*
X320601790Y-49880406D01*
X320601788Y-49880404D01*
X320426892Y-49772113D01*
X320426886Y-49772110D01*
X320275705Y-49713543D01*
X320235067Y-49697800D01*
X320032857Y-49660000D01*
X319827143Y-49660000D01*
X319624933Y-49697800D01*
X319624930Y-49697800D01*
X319624930Y-49697801D01*
X319433113Y-49772110D01*
X319433107Y-49772113D01*
X319258211Y-49880404D01*
X319258209Y-49880406D01*
X319106187Y-50018991D01*
X318982216Y-50183156D01*
X318890522Y-50367302D01*
X318890519Y-50367308D01*
X318834226Y-50565161D01*
X318834225Y-50565164D01*
X318815245Y-50769999D01*
X318815245Y-50770000D01*
X318834225Y-50974835D01*
X318834226Y-50974838D01*
X318890519Y-51172691D01*
X318890522Y-51172697D01*
X318982216Y-51356843D01*
X319106187Y-51521008D01*
X319258209Y-51659593D01*
X319258211Y-51659595D01*
X319433107Y-51767886D01*
X319433113Y-51767889D01*
X319473749Y-51783631D01*
X319624933Y-51842200D01*
X319827143Y-51880000D01*
X319827145Y-51880000D01*
X320032856Y-51880000D01*
X320032857Y-51880000D01*
X320064038Y-51874171D01*
X320101646Y-51867141D01*
X320171161Y-51874171D01*
X320212113Y-51901348D01*
X320354639Y-52043874D01*
X320354649Y-52043885D01*
X320358979Y-52048215D01*
X320358980Y-52048216D01*
X320470784Y-52160020D01*
X320538562Y-52199151D01*
X320586778Y-52249718D01*
X320600002Y-52318325D01*
X320574034Y-52383190D01*
X320541841Y-52411965D01*
X320528214Y-52420402D01*
X320528209Y-52420406D01*
X320376187Y-52558992D01*
X320299738Y-52660227D01*
X320243629Y-52701863D01*
X320200784Y-52709500D01*
X319659216Y-52709500D01*
X319592177Y-52689815D01*
X319560262Y-52660227D01*
X319509820Y-52593432D01*
X319483814Y-52558994D01*
X319470332Y-52546704D01*
X319331790Y-52420406D01*
X319331788Y-52420404D01*
X319156892Y-52312113D01*
X319156886Y-52312110D01*
X318981920Y-52244329D01*
X318965067Y-52237800D01*
X318762857Y-52200000D01*
X318557143Y-52200000D01*
X318354933Y-52237800D01*
X318354930Y-52237800D01*
X318354930Y-52237801D01*
X318163113Y-52312110D01*
X318163107Y-52312113D01*
X317988211Y-52420404D01*
X317988209Y-52420406D01*
X317836187Y-52558991D01*
X317712216Y-52723156D01*
X317620522Y-52907302D01*
X317620519Y-52907308D01*
X317564226Y-53105161D01*
X317564225Y-53105164D01*
X317545245Y-53309999D01*
X317234755Y-53309999D01*
X317229775Y-53256263D01*
X317215774Y-53105164D01*
X317215773Y-53105161D01*
X317159480Y-52907308D01*
X317159477Y-52907302D01*
X317141253Y-52870704D01*
X317067784Y-52723157D01*
X317002730Y-52637011D01*
X316943812Y-52558991D01*
X316791790Y-52420406D01*
X316791788Y-52420404D01*
X316616892Y-52312113D01*
X316616886Y-52312110D01*
X316441920Y-52244329D01*
X316425067Y-52237800D01*
X316222857Y-52200000D01*
X316017143Y-52200000D01*
X315814933Y-52237800D01*
X315814930Y-52237800D01*
X315814930Y-52237801D01*
X315623113Y-52312110D01*
X315623107Y-52312113D01*
X315448211Y-52420404D01*
X315448209Y-52420406D01*
X315296187Y-52558992D01*
X315219738Y-52660227D01*
X315163629Y-52701863D01*
X315120784Y-52709500D01*
X314579216Y-52709500D01*
X314512177Y-52689815D01*
X314480262Y-52660227D01*
X314429820Y-52593432D01*
X314403814Y-52558994D01*
X314390332Y-52546704D01*
X314251790Y-52420406D01*
X314251788Y-52420404D01*
X314076892Y-52312113D01*
X314076886Y-52312110D01*
X313901920Y-52244329D01*
X313885067Y-52237800D01*
X313682857Y-52200000D01*
X313477143Y-52200000D01*
X313438907Y-52207147D01*
X313408351Y-52212859D01*
X313338836Y-52205827D01*
X313297886Y-52178651D01*
X312966914Y-51847679D01*
X312933429Y-51786356D01*
X312938413Y-51716664D01*
X312977839Y-51663769D01*
X312977553Y-51663456D01*
X312979175Y-51661976D01*
X312979874Y-51661040D01*
X312981780Y-51659599D01*
X312981790Y-51659594D01*
X313133814Y-51521006D01*
X313257784Y-51356843D01*
X313349478Y-51172696D01*
X313349478Y-51172693D01*
X313349480Y-51172691D01*
X313389179Y-51033160D01*
X313405774Y-50974836D01*
X313424755Y-50770000D01*
X313424755Y-50769999D01*
X313735245Y-50769999D01*
X313735245Y-50770000D01*
X313754225Y-50974835D01*
X313754226Y-50974838D01*
X313810519Y-51172691D01*
X313810522Y-51172697D01*
X313902216Y-51356843D01*
X314026187Y-51521008D01*
X314178209Y-51659593D01*
X314178211Y-51659595D01*
X314353107Y-51767886D01*
X314353113Y-51767889D01*
X314393749Y-51783631D01*
X314544933Y-51842200D01*
X314747143Y-51880000D01*
X314747145Y-51880000D01*
X314952855Y-51880000D01*
X314952857Y-51880000D01*
X315155067Y-51842200D01*
X315346889Y-51767888D01*
X315521790Y-51659594D01*
X315658792Y-51534700D01*
X315673812Y-51521008D01*
X315673814Y-51521006D01*
X315797784Y-51356843D01*
X315889478Y-51172696D01*
X315889478Y-51172693D01*
X315889480Y-51172691D01*
X315929179Y-51033160D01*
X315945774Y-50974836D01*
X315964755Y-50770000D01*
X315964755Y-50769999D01*
X316275245Y-50769999D01*
X316275245Y-50770000D01*
X316294225Y-50974835D01*
X316294226Y-50974838D01*
X316350519Y-51172691D01*
X316350522Y-51172697D01*
X316442216Y-51356843D01*
X316566187Y-51521008D01*
X316718209Y-51659593D01*
X316718211Y-51659595D01*
X316893107Y-51767886D01*
X316893113Y-51767889D01*
X316933749Y-51783631D01*
X317084933Y-51842200D01*
X317287143Y-51880000D01*
X317287145Y-51880000D01*
X317492855Y-51880000D01*
X317492857Y-51880000D01*
X317695067Y-51842200D01*
X317886889Y-51767888D01*
X318061790Y-51659594D01*
X318198792Y-51534700D01*
X318213812Y-51521008D01*
X318213814Y-51521006D01*
X318337784Y-51356843D01*
X318429478Y-51172696D01*
X318429478Y-51172693D01*
X318429480Y-51172691D01*
X318469179Y-51033160D01*
X318485774Y-50974836D01*
X318504755Y-50770000D01*
X318485774Y-50565164D01*
X318459279Y-50472044D01*
X318429480Y-50367308D01*
X318429477Y-50367302D01*
X318366191Y-50240207D01*
X318337784Y-50183157D01*
X318267433Y-50089997D01*
X318213812Y-50018991D01*
X318061790Y-49880406D01*
X318061788Y-49880404D01*
X317886892Y-49772113D01*
X317886886Y-49772110D01*
X317735705Y-49713543D01*
X317695067Y-49697800D01*
X317492857Y-49660000D01*
X317287143Y-49660000D01*
X317084933Y-49697800D01*
X317084930Y-49697800D01*
X317084930Y-49697801D01*
X316893113Y-49772110D01*
X316893107Y-49772113D01*
X316718211Y-49880404D01*
X316718209Y-49880406D01*
X316566187Y-50018991D01*
X316442216Y-50183156D01*
X316350522Y-50367302D01*
X316350519Y-50367308D01*
X316294226Y-50565161D01*
X316294225Y-50565164D01*
X316275245Y-50769999D01*
X315964755Y-50769999D01*
X315945774Y-50565164D01*
X315919279Y-50472044D01*
X315889480Y-50367308D01*
X315889477Y-50367302D01*
X315826191Y-50240207D01*
X315797784Y-50183157D01*
X315727433Y-50089997D01*
X315673812Y-50018991D01*
X315521790Y-49880406D01*
X315521788Y-49880404D01*
X315346892Y-49772113D01*
X315346886Y-49772110D01*
X315195705Y-49713543D01*
X315155067Y-49697800D01*
X314952857Y-49660000D01*
X314747143Y-49660000D01*
X314544933Y-49697800D01*
X314544930Y-49697800D01*
X314544930Y-49697801D01*
X314353113Y-49772110D01*
X314353107Y-49772113D01*
X314178211Y-49880404D01*
X314178209Y-49880406D01*
X314026187Y-50018991D01*
X313902216Y-50183156D01*
X313810522Y-50367302D01*
X313810519Y-50367308D01*
X313754226Y-50565161D01*
X313754225Y-50565164D01*
X313735245Y-50769999D01*
X313424755Y-50769999D01*
X313405774Y-50565164D01*
X313379279Y-50472044D01*
X313349480Y-50367308D01*
X313349477Y-50367302D01*
X313286191Y-50240207D01*
X313257784Y-50183157D01*
X313187433Y-50089997D01*
X313133812Y-50018991D01*
X312981790Y-49880406D01*
X312981788Y-49880404D01*
X312806892Y-49772113D01*
X312806886Y-49772110D01*
X312655705Y-49713543D01*
X312615067Y-49697800D01*
X312412857Y-49660000D01*
X312207143Y-49660000D01*
X312004933Y-49697800D01*
X312004930Y-49697800D01*
X312004930Y-49697801D01*
X311813113Y-49772110D01*
X311813107Y-49772113D01*
X311638211Y-49880404D01*
X311638209Y-49880406D01*
X311486187Y-50018991D01*
X311362216Y-50183156D01*
X311270522Y-50367302D01*
X311270519Y-50367308D01*
X311214226Y-50565161D01*
X311214225Y-50565164D01*
X311195245Y-50769999D01*
X311195245Y-50770000D01*
X311214225Y-50974833D01*
X311238719Y-51060922D01*
X311238131Y-51130789D01*
X311199864Y-51189248D01*
X311136066Y-51217737D01*
X311066994Y-51207212D01*
X311031771Y-51182536D01*
X310903398Y-51054163D01*
X310869913Y-50992840D01*
X310867608Y-50955040D01*
X310870199Y-50927086D01*
X310884755Y-50770000D01*
X310865774Y-50565164D01*
X310839279Y-50472044D01*
X310809480Y-50367308D01*
X310809477Y-50367302D01*
X310746191Y-50240207D01*
X310717784Y-50183157D01*
X310647433Y-50089997D01*
X310593812Y-50018991D01*
X310441790Y-49880406D01*
X310441788Y-49880404D01*
X310266892Y-49772113D01*
X310266886Y-49772110D01*
X310115705Y-49713543D01*
X310075067Y-49697800D01*
X309872857Y-49660000D01*
X309667143Y-49660000D01*
X309464933Y-49697800D01*
X309464930Y-49697800D01*
X309464930Y-49697801D01*
X309273113Y-49772110D01*
X309273107Y-49772113D01*
X309098211Y-49880404D01*
X309098209Y-49880406D01*
X308946187Y-50018991D01*
X308822216Y-50183156D01*
X308730522Y-50367302D01*
X308730519Y-50367308D01*
X308674226Y-50565161D01*
X308674225Y-50565164D01*
X308655245Y-50769999D01*
X308655245Y-50770000D01*
X308674225Y-50974835D01*
X308674226Y-50974838D01*
X308730519Y-51172691D01*
X308730522Y-51172697D01*
X308822216Y-51356843D01*
X308946187Y-51521008D01*
X309098209Y-51659593D01*
X309098211Y-51659595D01*
X309273107Y-51767886D01*
X309273113Y-51767889D01*
X309313749Y-51783631D01*
X309464933Y-51842200D01*
X309667143Y-51880000D01*
X309667145Y-51880000D01*
X309872856Y-51880000D01*
X309872857Y-51880000D01*
X309904038Y-51874171D01*
X309941646Y-51867141D01*
X310011161Y-51874171D01*
X310052113Y-51901348D01*
X310383084Y-52232320D01*
X310416569Y-52293643D01*
X310411585Y-52363335D01*
X310372162Y-52416233D01*
X310372446Y-52416544D01*
X310370839Y-52418008D01*
X310370141Y-52418946D01*
X310368216Y-52420399D01*
X310216187Y-52558992D01*
X310139738Y-52660227D01*
X310083629Y-52701863D01*
X310040784Y-52709500D01*
X309499216Y-52709500D01*
X309432177Y-52689815D01*
X309400262Y-52660227D01*
X309349820Y-52593432D01*
X309323814Y-52558994D01*
X309310332Y-52546704D01*
X309171790Y-52420406D01*
X309171788Y-52420404D01*
X308996892Y-52312113D01*
X308996886Y-52312110D01*
X308821920Y-52244329D01*
X308805067Y-52237800D01*
X308602857Y-52200000D01*
X308397143Y-52200000D01*
X308194933Y-52237800D01*
X308194930Y-52237800D01*
X308194930Y-52237801D01*
X308003113Y-52312110D01*
X308003107Y-52312113D01*
X307828211Y-52420404D01*
X307828209Y-52420406D01*
X307676187Y-52558991D01*
X307552216Y-52723156D01*
X307460522Y-52907302D01*
X307460519Y-52907308D01*
X307404226Y-53105161D01*
X307404225Y-53105164D01*
X307385245Y-53309999D01*
X307074755Y-53309999D01*
X307069775Y-53256263D01*
X307055774Y-53105164D01*
X307055773Y-53105161D01*
X306999480Y-52907308D01*
X306999477Y-52907302D01*
X306981253Y-52870704D01*
X306907784Y-52723157D01*
X306842730Y-52637011D01*
X306783812Y-52558991D01*
X306631790Y-52420406D01*
X306631788Y-52420404D01*
X306456892Y-52312113D01*
X306456886Y-52312110D01*
X306281920Y-52244329D01*
X306265067Y-52237800D01*
X306062857Y-52200000D01*
X305857143Y-52200000D01*
X305654933Y-52237800D01*
X305654930Y-52237800D01*
X305654930Y-52237801D01*
X305463113Y-52312110D01*
X305463107Y-52312113D01*
X305288211Y-52420404D01*
X305288209Y-52420406D01*
X305136187Y-52558992D01*
X305059738Y-52660227D01*
X305003629Y-52701863D01*
X304960784Y-52709500D01*
X304419216Y-52709500D01*
X304352177Y-52689815D01*
X304320262Y-52660227D01*
X304269820Y-52593432D01*
X304243814Y-52558994D01*
X304230332Y-52546704D01*
X304091790Y-52420406D01*
X304091788Y-52420404D01*
X303916892Y-52312113D01*
X303916886Y-52312110D01*
X303741920Y-52244329D01*
X303725067Y-52237800D01*
X303522857Y-52200000D01*
X303317143Y-52200000D01*
X303278907Y-52207147D01*
X303248351Y-52212859D01*
X303178836Y-52205827D01*
X303137886Y-52178651D01*
X302806914Y-51847679D01*
X302773429Y-51786356D01*
X302778413Y-51716664D01*
X302817839Y-51663769D01*
X302817553Y-51663456D01*
X302819175Y-51661976D01*
X302819874Y-51661040D01*
X302821780Y-51659599D01*
X302821790Y-51659594D01*
X302973814Y-51521006D01*
X303097784Y-51356843D01*
X303189478Y-51172696D01*
X303189478Y-51172693D01*
X303189480Y-51172691D01*
X303229179Y-51033160D01*
X303245774Y-50974836D01*
X303264755Y-50770000D01*
X303264755Y-50769999D01*
X303575245Y-50769999D01*
X303575245Y-50770000D01*
X303594225Y-50974835D01*
X303594226Y-50974838D01*
X303650519Y-51172691D01*
X303650522Y-51172697D01*
X303742216Y-51356843D01*
X303866187Y-51521008D01*
X304018209Y-51659593D01*
X304018211Y-51659595D01*
X304193107Y-51767886D01*
X304193113Y-51767889D01*
X304233749Y-51783631D01*
X304384933Y-51842200D01*
X304587143Y-51880000D01*
X304587145Y-51880000D01*
X304792855Y-51880000D01*
X304792857Y-51880000D01*
X304995067Y-51842200D01*
X305186889Y-51767888D01*
X305361790Y-51659594D01*
X305498792Y-51534700D01*
X305513812Y-51521008D01*
X305513814Y-51521006D01*
X305637784Y-51356843D01*
X305729478Y-51172696D01*
X305729478Y-51172693D01*
X305729480Y-51172691D01*
X305769179Y-51033160D01*
X305785774Y-50974836D01*
X305804755Y-50770000D01*
X305804755Y-50769999D01*
X306115245Y-50769999D01*
X306115245Y-50770000D01*
X306134225Y-50974835D01*
X306134226Y-50974838D01*
X306190519Y-51172691D01*
X306190522Y-51172697D01*
X306282216Y-51356843D01*
X306406187Y-51521008D01*
X306558209Y-51659593D01*
X306558211Y-51659595D01*
X306733107Y-51767886D01*
X306733113Y-51767889D01*
X306773749Y-51783631D01*
X306924933Y-51842200D01*
X307127143Y-51880000D01*
X307127145Y-51880000D01*
X307332855Y-51880000D01*
X307332857Y-51880000D01*
X307535067Y-51842200D01*
X307726889Y-51767888D01*
X307901790Y-51659594D01*
X308038792Y-51534700D01*
X308053812Y-51521008D01*
X308053814Y-51521006D01*
X308177784Y-51356843D01*
X308269478Y-51172696D01*
X308269478Y-51172693D01*
X308269480Y-51172691D01*
X308309179Y-51033160D01*
X308325774Y-50974836D01*
X308344755Y-50770000D01*
X308325774Y-50565164D01*
X308299279Y-50472044D01*
X308269480Y-50367308D01*
X308269477Y-50367302D01*
X308206191Y-50240207D01*
X308177784Y-50183157D01*
X308107433Y-50089997D01*
X308053812Y-50018991D01*
X307901790Y-49880406D01*
X307901788Y-49880404D01*
X307726892Y-49772113D01*
X307726886Y-49772110D01*
X307575705Y-49713543D01*
X307535067Y-49697800D01*
X307332857Y-49660000D01*
X307127143Y-49660000D01*
X306924933Y-49697800D01*
X306924930Y-49697800D01*
X306924930Y-49697801D01*
X306733113Y-49772110D01*
X306733107Y-49772113D01*
X306558211Y-49880404D01*
X306558209Y-49880406D01*
X306406187Y-50018991D01*
X306282216Y-50183156D01*
X306190522Y-50367302D01*
X306190519Y-50367308D01*
X306134226Y-50565161D01*
X306134225Y-50565164D01*
X306115245Y-50769999D01*
X305804755Y-50769999D01*
X305785774Y-50565164D01*
X305759279Y-50472044D01*
X305729480Y-50367308D01*
X305729477Y-50367302D01*
X305666191Y-50240207D01*
X305637784Y-50183157D01*
X305567433Y-50089997D01*
X305513812Y-50018991D01*
X305361790Y-49880406D01*
X305361788Y-49880404D01*
X305186892Y-49772113D01*
X305186886Y-49772110D01*
X305035705Y-49713543D01*
X304995067Y-49697800D01*
X304792857Y-49660000D01*
X304587143Y-49660000D01*
X304384933Y-49697800D01*
X304384930Y-49697800D01*
X304384930Y-49697801D01*
X304193113Y-49772110D01*
X304193107Y-49772113D01*
X304018211Y-49880404D01*
X304018209Y-49880406D01*
X303866187Y-50018991D01*
X303742216Y-50183156D01*
X303650522Y-50367302D01*
X303650519Y-50367308D01*
X303594226Y-50565161D01*
X303594225Y-50565164D01*
X303575245Y-50769999D01*
X303264755Y-50769999D01*
X303245774Y-50565164D01*
X303219279Y-50472044D01*
X303189480Y-50367308D01*
X303189477Y-50367302D01*
X303126191Y-50240207D01*
X303097784Y-50183157D01*
X303027433Y-50089997D01*
X302973812Y-50018991D01*
X302821790Y-49880406D01*
X302821788Y-49880404D01*
X302646892Y-49772113D01*
X302646886Y-49772110D01*
X302495705Y-49713543D01*
X302455067Y-49697800D01*
X302252857Y-49660000D01*
X302047143Y-49660000D01*
X301844933Y-49697800D01*
X301844930Y-49697800D01*
X301844930Y-49697801D01*
X301653113Y-49772110D01*
X301653107Y-49772113D01*
X301478211Y-49880404D01*
X301478209Y-49880406D01*
X301326187Y-50018991D01*
X301202216Y-50183156D01*
X301110522Y-50367302D01*
X301110519Y-50367308D01*
X301054226Y-50565161D01*
X301054225Y-50565164D01*
X301035244Y-50769999D01*
X301041677Y-50839414D01*
X301049801Y-50927086D01*
X301051328Y-50943558D01*
X301037913Y-51012128D01*
X300989556Y-51062560D01*
X300927857Y-51079000D01*
X300832143Y-51079000D01*
X300765104Y-51059315D01*
X300719349Y-51006511D01*
X300708672Y-50943558D01*
X300710199Y-50927086D01*
X300724755Y-50770000D01*
X300705774Y-50565164D01*
X300679279Y-50472044D01*
X300649480Y-50367308D01*
X300649477Y-50367302D01*
X300586191Y-50240207D01*
X300557784Y-50183157D01*
X300487433Y-50089997D01*
X300433812Y-50018991D01*
X300281790Y-49880406D01*
X300281788Y-49880404D01*
X300106892Y-49772113D01*
X300106886Y-49772110D01*
X299955705Y-49713543D01*
X299915067Y-49697800D01*
X299712857Y-49660000D01*
X299507143Y-49660000D01*
X299304933Y-49697800D01*
X299304930Y-49697800D01*
X299304930Y-49697801D01*
X299113113Y-49772110D01*
X299113107Y-49772113D01*
X298938211Y-49880404D01*
X298938209Y-49880406D01*
X298786187Y-50018991D01*
X298662216Y-50183156D01*
X298570522Y-50367302D01*
X298570519Y-50367308D01*
X298514226Y-50565161D01*
X298514225Y-50565164D01*
X298495245Y-50769999D01*
X298495245Y-50770000D01*
X298514225Y-50974835D01*
X298514226Y-50974838D01*
X298570519Y-51172691D01*
X298570522Y-51172697D01*
X298662216Y-51356843D01*
X298786187Y-51521008D01*
X298938209Y-51659593D01*
X298938211Y-51659595D01*
X299113107Y-51767886D01*
X299113113Y-51767889D01*
X299153749Y-51783631D01*
X299304933Y-51842200D01*
X299507143Y-51880000D01*
X299507145Y-51880000D01*
X299712856Y-51880000D01*
X299712857Y-51880000D01*
X299744038Y-51874171D01*
X299781646Y-51867141D01*
X299851161Y-51874171D01*
X299892113Y-51901348D01*
X300034639Y-52043874D01*
X300034649Y-52043885D01*
X300038979Y-52048215D01*
X300038980Y-52048216D01*
X300150784Y-52160020D01*
X300218562Y-52199151D01*
X300266778Y-52249718D01*
X300280002Y-52318325D01*
X300254034Y-52383190D01*
X300221841Y-52411965D01*
X300208214Y-52420402D01*
X300208209Y-52420406D01*
X300056187Y-52558992D01*
X299979738Y-52660227D01*
X299923629Y-52701863D01*
X299880784Y-52709500D01*
X299339216Y-52709500D01*
X299272177Y-52689815D01*
X299240262Y-52660227D01*
X299189820Y-52593432D01*
X299163814Y-52558994D01*
X299150332Y-52546704D01*
X299011790Y-52420406D01*
X299011788Y-52420404D01*
X298836892Y-52312113D01*
X298836886Y-52312110D01*
X298661920Y-52244329D01*
X298645067Y-52237800D01*
X298442857Y-52200000D01*
X298237143Y-52200000D01*
X298034933Y-52237800D01*
X298034930Y-52237800D01*
X298034930Y-52237801D01*
X297843113Y-52312110D01*
X297843107Y-52312113D01*
X297668211Y-52420404D01*
X297668209Y-52420406D01*
X297516187Y-52558991D01*
X297392216Y-52723156D01*
X297300522Y-52907302D01*
X297300519Y-52907308D01*
X297244226Y-53105161D01*
X297244225Y-53105164D01*
X297225245Y-53309999D01*
X296914755Y-53309999D01*
X296909775Y-53256263D01*
X296895774Y-53105164D01*
X296895773Y-53105161D01*
X296839480Y-52907308D01*
X296839477Y-52907302D01*
X296821253Y-52870704D01*
X296747784Y-52723157D01*
X296682730Y-52637011D01*
X296623812Y-52558991D01*
X296471790Y-52420406D01*
X296471788Y-52420404D01*
X296296892Y-52312113D01*
X296296886Y-52312110D01*
X296121920Y-52244329D01*
X296105067Y-52237800D01*
X295902857Y-52200000D01*
X295697143Y-52200000D01*
X295494933Y-52237800D01*
X295494930Y-52237800D01*
X295494930Y-52237801D01*
X295303113Y-52312110D01*
X295303107Y-52312113D01*
X295128211Y-52420404D01*
X295128209Y-52420406D01*
X294976187Y-52558992D01*
X294899738Y-52660227D01*
X294843629Y-52701863D01*
X294800784Y-52709500D01*
X294487498Y-52709500D01*
X294420459Y-52689815D01*
X294374704Y-52637011D01*
X294364209Y-52598756D01*
X294363592Y-52593019D01*
X294313297Y-52458171D01*
X294313293Y-52458164D01*
X294227047Y-52342955D01*
X294227044Y-52342952D01*
X294111835Y-52256706D01*
X294111828Y-52256702D01*
X293976982Y-52206408D01*
X293976983Y-52206408D01*
X293917383Y-52200001D01*
X293917381Y-52200000D01*
X293917373Y-52200000D01*
X293917364Y-52200000D01*
X292602629Y-52200000D01*
X292602623Y-52200001D01*
X292543016Y-52206408D01*
X292408171Y-52256702D01*
X292408164Y-52256706D01*
X292292955Y-52342952D01*
X292292952Y-52342955D01*
X292206706Y-52458164D01*
X292206702Y-52458171D01*
X292156408Y-52593017D01*
X292150001Y-52652616D01*
X292150000Y-52652635D01*
X291857851Y-52652635D01*
X291915310Y-52351433D01*
X291934903Y-52040005D01*
X291934903Y-52039994D01*
X291915310Y-51728566D01*
X291856832Y-51422024D01*
X291760403Y-51125244D01*
X291760401Y-51125239D01*
X291627538Y-50842892D01*
X291627535Y-50842886D01*
X291581280Y-50769999D01*
X293415245Y-50769999D01*
X293415245Y-50770000D01*
X293434225Y-50974835D01*
X293434226Y-50974838D01*
X293490519Y-51172691D01*
X293490522Y-51172697D01*
X293582216Y-51356843D01*
X293706187Y-51521008D01*
X293858209Y-51659593D01*
X293858211Y-51659595D01*
X294033107Y-51767886D01*
X294033113Y-51767889D01*
X294073749Y-51783631D01*
X294224933Y-51842200D01*
X294427143Y-51880000D01*
X294427145Y-51880000D01*
X294632855Y-51880000D01*
X294632857Y-51880000D01*
X294835067Y-51842200D01*
X295026889Y-51767888D01*
X295201790Y-51659594D01*
X295353814Y-51521006D01*
X295417420Y-51436778D01*
X295430262Y-51419773D01*
X295486371Y-51378137D01*
X295529216Y-51370500D01*
X296070784Y-51370500D01*
X296137823Y-51390185D01*
X296169738Y-51419773D01*
X296203316Y-51464237D01*
X296244941Y-51519358D01*
X296246187Y-51521007D01*
X296398209Y-51659593D01*
X296398211Y-51659595D01*
X296573107Y-51767886D01*
X296573113Y-51767889D01*
X296613749Y-51783631D01*
X296764933Y-51842200D01*
X296967143Y-51880000D01*
X296967145Y-51880000D01*
X297172855Y-51880000D01*
X297172857Y-51880000D01*
X297375067Y-51842200D01*
X297566889Y-51767888D01*
X297741790Y-51659594D01*
X297878792Y-51534700D01*
X297893812Y-51521008D01*
X297893814Y-51521006D01*
X298017784Y-51356843D01*
X298109478Y-51172696D01*
X298109478Y-51172693D01*
X298109480Y-51172691D01*
X298149179Y-51033160D01*
X298165774Y-50974836D01*
X298184755Y-50770000D01*
X298165774Y-50565164D01*
X298139279Y-50472044D01*
X298109480Y-50367308D01*
X298109477Y-50367302D01*
X298046191Y-50240207D01*
X298017784Y-50183157D01*
X297947433Y-50089997D01*
X297893812Y-50018991D01*
X297741790Y-49880406D01*
X297741788Y-49880404D01*
X297566892Y-49772113D01*
X297566886Y-49772110D01*
X297415705Y-49713543D01*
X297375067Y-49697800D01*
X297172857Y-49660000D01*
X296967143Y-49660000D01*
X296764933Y-49697800D01*
X296764930Y-49697800D01*
X296764930Y-49697801D01*
X296573113Y-49772110D01*
X296573107Y-49772113D01*
X296398211Y-49880404D01*
X296398209Y-49880406D01*
X296246187Y-50018992D01*
X296169738Y-50120227D01*
X296113629Y-50161863D01*
X296070784Y-50169500D01*
X295529216Y-50169500D01*
X295462177Y-50149815D01*
X295430262Y-50120227D01*
X295353812Y-50018992D01*
X295201790Y-49880406D01*
X295201788Y-49880404D01*
X295026892Y-49772113D01*
X295026886Y-49772110D01*
X294875705Y-49713543D01*
X294835067Y-49697800D01*
X294632857Y-49660000D01*
X294427143Y-49660000D01*
X294224933Y-49697800D01*
X294224930Y-49697800D01*
X294224930Y-49697801D01*
X294033113Y-49772110D01*
X294033107Y-49772113D01*
X293858211Y-49880404D01*
X293858209Y-49880406D01*
X293706187Y-50018991D01*
X293582216Y-50183156D01*
X293490522Y-50367302D01*
X293490519Y-50367308D01*
X293434226Y-50565161D01*
X293434225Y-50565164D01*
X293415245Y-50769999D01*
X291581280Y-50769999D01*
X291460332Y-50579415D01*
X291371506Y-50472044D01*
X290543792Y-51299758D01*
X290456840Y-51180078D01*
X290309922Y-51033160D01*
X290190240Y-50946206D01*
X291020708Y-50115738D01*
X290781481Y-49941929D01*
X290781471Y-49941923D01*
X290508013Y-49791589D01*
X290508010Y-49791588D01*
X290217880Y-49676718D01*
X289915623Y-49599111D01*
X289915614Y-49599109D01*
X289606039Y-49560000D01*
X289293960Y-49560000D01*
X288984385Y-49599109D01*
X288984376Y-49599111D01*
X288682119Y-49676718D01*
X288391989Y-49791588D01*
X288391986Y-49791589D01*
X288118528Y-49941923D01*
X288118510Y-49941934D01*
X287879291Y-50115736D01*
X287879290Y-50115738D01*
X288709759Y-50946206D01*
X288590078Y-51033160D01*
X288443160Y-51180078D01*
X288356206Y-51299758D01*
X287528492Y-50472044D01*
X287439672Y-50579408D01*
X287439669Y-50579412D01*
X287272464Y-50842886D01*
X287272461Y-50842892D01*
X287139598Y-51125239D01*
X287139596Y-51125244D01*
X287043167Y-51422024D01*
X286984689Y-51728566D01*
X286965097Y-52039994D01*
X246827050Y-52039994D01*
X246830047Y-52000004D01*
X246830047Y-51999995D01*
X246809886Y-51730973D01*
X246809886Y-51730971D01*
X246749857Y-51467966D01*
X246749851Y-51467947D01*
X246651290Y-51216818D01*
X246651291Y-51216818D01*
X246516397Y-50983177D01*
X246462704Y-50915847D01*
X245961289Y-51417261D01*
X245864033Y-51283398D01*
X245741602Y-51160967D01*
X245607737Y-51063709D01*
X246110150Y-50561296D01*
X245927517Y-50436779D01*
X245927516Y-50436778D01*
X245684460Y-50319730D01*
X245684462Y-50319730D01*
X245426662Y-50240209D01*
X245426656Y-50240207D01*
X245159898Y-50200000D01*
X244890101Y-50200000D01*
X244623343Y-50240207D01*
X244623337Y-50240209D01*
X244365538Y-50319730D01*
X244122485Y-50436778D01*
X244122476Y-50436783D01*
X243939848Y-50561296D01*
X244442262Y-51063709D01*
X244308398Y-51160967D01*
X244185967Y-51283398D01*
X244088709Y-51417262D01*
X243587295Y-50915848D01*
X243533600Y-50983180D01*
X243398709Y-51216818D01*
X243300148Y-51467947D01*
X243300142Y-51467966D01*
X243240113Y-51730971D01*
X243240113Y-51730973D01*
X243219953Y-51999995D01*
X146830047Y-51999995D01*
X146809886Y-51730973D01*
X146809886Y-51730971D01*
X146749857Y-51467966D01*
X146749851Y-51467947D01*
X146651290Y-51216818D01*
X146651291Y-51216818D01*
X146516397Y-50983177D01*
X146462704Y-50915847D01*
X145961289Y-51417261D01*
X145864033Y-51283398D01*
X145741602Y-51160967D01*
X145607737Y-51063709D01*
X146110150Y-50561296D01*
X145927517Y-50436779D01*
X145927516Y-50436778D01*
X145684460Y-50319730D01*
X145684462Y-50319730D01*
X145426662Y-50240209D01*
X145426656Y-50240207D01*
X145159898Y-50200000D01*
X144890101Y-50200000D01*
X144623343Y-50240207D01*
X144623337Y-50240209D01*
X144365538Y-50319730D01*
X144122485Y-50436778D01*
X144122476Y-50436783D01*
X143939848Y-50561296D01*
X144442262Y-51063709D01*
X144308398Y-51160967D01*
X144185967Y-51283398D01*
X144088709Y-51417262D01*
X143587295Y-50915848D01*
X143533600Y-50983180D01*
X143398709Y-51216818D01*
X143300148Y-51467947D01*
X143300142Y-51467966D01*
X143240113Y-51730971D01*
X143240113Y-51730973D01*
X143219953Y-51999995D01*
X127813527Y-51999995D01*
X127963162Y-51776051D01*
X128122977Y-51477058D01*
X128252716Y-51163840D01*
X128351129Y-50839414D01*
X128417270Y-50506904D01*
X128450500Y-50169512D01*
X128450500Y-49830488D01*
X128417270Y-49493096D01*
X128351129Y-49160586D01*
X128252716Y-48836160D01*
X128122977Y-48522942D01*
X127963162Y-48223949D01*
X127774810Y-47942061D01*
X127559735Y-47679991D01*
X127559734Y-47679990D01*
X127559730Y-47679985D01*
X127320014Y-47440269D01*
X127057944Y-47225194D01*
X127057943Y-47225193D01*
X127057939Y-47225190D01*
X126776051Y-47036838D01*
X126776046Y-47036835D01*
X126776039Y-47036831D01*
X126477065Y-46877026D01*
X126477060Y-46877024D01*
X126163841Y-46747284D01*
X125973382Y-46689509D01*
X125839414Y-46648871D01*
X125839411Y-46648870D01*
X125839410Y-46648870D01*
X125506901Y-46582729D01*
X125269199Y-46559318D01*
X125169512Y-46549500D01*
X124830488Y-46549500D01*
X124739738Y-46558437D01*
X124493098Y-46582729D01*
X124160589Y-46648870D01*
X123836158Y-46747284D01*
X123522939Y-46877024D01*
X123522934Y-46877026D01*
X123223960Y-47036831D01*
X123223942Y-47036842D01*
X122942069Y-47225184D01*
X122942055Y-47225194D01*
X122679985Y-47440269D01*
X122440269Y-47679985D01*
X122225194Y-47942055D01*
X122225184Y-47942069D01*
X122036842Y-48223942D01*
X122036831Y-48223960D01*
X121877026Y-48522934D01*
X121877024Y-48522939D01*
X121747284Y-48836158D01*
X121648870Y-49160589D01*
X121582729Y-49493098D01*
X121562568Y-49697801D01*
X121551063Y-49814624D01*
X121549500Y-49830491D01*
X92808882Y-49830491D01*
X92789304Y-49794637D01*
X92745169Y-49747232D01*
X92691261Y-49689329D01*
X92691260Y-49689328D01*
X92691259Y-49689327D01*
X92691259Y-49689326D01*
X92567525Y-49615910D01*
X92560452Y-49612981D01*
X92560431Y-49612973D01*
X92509417Y-49594976D01*
X92461944Y-49588150D01*
X92367000Y-49574500D01*
X92237000Y-49574500D01*
X92236998Y-49574500D01*
X92182956Y-49577397D01*
X92043555Y-49612978D01*
X92043547Y-49612981D01*
X92036478Y-49615909D01*
X92036473Y-49615911D01*
X91941637Y-49667695D01*
X91836324Y-49765743D01*
X91831054Y-49772283D01*
X91773662Y-49812131D01*
X91703836Y-49814624D01*
X91684385Y-49807896D01*
X91612162Y-49775979D01*
X91612160Y-49775978D01*
X91612155Y-49775977D01*
X91608353Y-49775478D01*
X91604847Y-49773928D01*
X91603622Y-49773585D01*
X91603671Y-49773408D01*
X91544448Y-49747232D01*
X91505958Y-49688919D01*
X91500500Y-49652534D01*
X91500500Y-49157292D01*
X91500500Y-49157290D01*
X91466429Y-48975027D01*
X91399448Y-48802128D01*
X91306948Y-48652736D01*
X91288393Y-48585377D01*
X91292601Y-48555370D01*
X91300500Y-48525892D01*
X91300500Y-48394108D01*
X91266392Y-48266814D01*
X91208763Y-48166998D01*
X91192291Y-48099101D01*
X91208764Y-48043000D01*
X91266392Y-47943186D01*
X91300500Y-47815892D01*
X91300500Y-47684108D01*
X91266392Y-47556814D01*
X91211650Y-47461999D01*
X91195178Y-47394100D01*
X91211650Y-47338000D01*
X91266392Y-47243186D01*
X91300500Y-47115892D01*
X91300500Y-46984108D01*
X91290731Y-46947649D01*
X91292394Y-46877803D01*
X91305075Y-46850288D01*
X91399448Y-46697872D01*
X91466429Y-46524973D01*
X91500500Y-46342710D01*
X91500500Y-46250000D01*
X91500500Y-46184108D01*
X91500500Y-45874000D01*
X91520185Y-45806961D01*
X91572989Y-45761206D01*
X91624500Y-45750000D01*
X332126000Y-45750000D01*
X332193039Y-45769685D01*
G37*
%TD.AperFunction*%
%TD*%
M02*
