M48
INCH
T1C0.0118
T2C0.0280
T3C0.0571
T4C0.0866
T5C0.1039
%
G90
G05
T1
X3.814Y-2.186
X3.814Y-2.2352
X3.814Y-2.2844
X3.814Y-2.4409
X3.814Y-2.4902
X3.814Y-2.5394
X3.9616Y-2.2844
X3.9616Y-2.4409
X3.9835Y-2.2618
X3.9835Y-2.4636
X4.0207Y-2.186
X4.0207Y-2.5394
T2
X11.5457Y-2.0988
X11.5457Y-2.6252
X11.5957Y-1.9988
X11.5957Y-2.7252
X11.6457Y-2.0988
X11.6457Y-2.6252
X11.6957Y-1.9988
X11.6957Y-2.7252
X11.7457Y-2.0988
X11.7457Y-2.6252
X11.7957Y-1.9988
X11.7957Y-2.7252
X11.8457Y-2.0988
X11.8457Y-2.6252
X11.8957Y-1.9988
X11.8957Y-2.7252
X11.9457Y-2.0988
X11.9457Y-2.6252
X11.9957Y-1.9988
X11.9957Y-2.7252
X12.0457Y-2.0988
X12.0457Y-2.6252
X12.0957Y-1.9988
X12.0957Y-2.7252
X12.1457Y-2.0988
X12.1457Y-2.6252
X12.1957Y-1.9988
X12.1957Y-2.7252
X12.2457Y-2.0988
X12.2457Y-2.6252
X12.2957Y-1.9988
X12.2957Y-2.7252
X12.3457Y-2.0988
X12.3457Y-2.6252
X12.3957Y-1.9988
X12.3957Y-2.7252
X12.4457Y-2.0988
X12.4457Y-2.6252
X12.4957Y-1.9988
X12.4957Y-2.7252
X12.5457Y-2.0988
X12.5457Y-2.6252
X12.5957Y-1.9988
X12.5957Y-2.7252
X12.6457Y-2.0988
X12.6457Y-2.6252
X12.6957Y-1.9988
X12.6957Y-2.7252
X12.7457Y-2.0988
X12.7457Y-2.6252
T3
X3.6365Y-2.0622
X3.6365Y-2.6622
T4
X1.939Y-2.0866
X1.939Y-2.6378
X2.7844Y-2.0866
X2.7844Y-2.6378
X5.7096Y-2.0472
X5.7096Y-2.6772
X9.6467Y-2.0472
X9.6467Y-2.6772
T5
X11.3957Y-2.0488
X11.3957Y-2.6752
X12.8957Y-2.0488
X12.8957Y-2.6752
M30
