%TF.GenerationSoftware,KiCad,Pcbnew,8.0.4*%
%TF.CreationDate,2026-09-30T11:27:11-07:00*%
%TF.ProjectId,kamioka_short_pcb,6b616d69-6f6b-4615-9f73-686f72745f70,rev?*%
%TF.SameCoordinates,Original*%
%TF.FileFunction,Other,Comment*%
%FSLAX46Y46*%
G04 Gerber Fmt 4.6, Leading zero omitted, Abs format (unit mm)*
G04 Created by KiCad (PCBNEW 8.0.4) date 2026-09-30 11:27:11*
%MOMM*%
%LPD*%
G01*
G04 APERTURE LIST*
%ADD10C,0.150000*%
G04 APERTURE END LIST*
D10*
%TO.C,H7*%
X146775000Y-52000000D02*
G75*
G02*
X143275000Y-52000000I-1750000J0D01*
G01*
X143275000Y-52000000D02*
G75*
G02*
X146775000Y-52000000I1750000J0D01*
G01*
%TO.C,H10*%
X210500000Y-70000000D02*
G75*
G02*
X199500000Y-70000000I-5500000J0D01*
G01*
X199500000Y-70000000D02*
G75*
G02*
X210500000Y-70000000I5500000J0D01*
G01*
%TO.C,H1*%
X72475000Y-53000000D02*
G75*
G02*
X68975000Y-53000000I-1750000J0D01*
G01*
X68975000Y-53000000D02*
G75*
G02*
X72475000Y-53000000I1750000J0D01*
G01*
%TO.C,H4*%
X72475000Y-67000000D02*
G75*
G02*
X68975000Y-67000000I-1750000J0D01*
G01*
X68975000Y-67000000D02*
G75*
G02*
X72475000Y-67000000I1750000J0D01*
G01*
%TO.C,H3*%
X51000000Y-67000000D02*
G75*
G02*
X47500000Y-67000000I-1750000J0D01*
G01*
X47500000Y-67000000D02*
G75*
G02*
X51000000Y-67000000I1750000J0D01*
G01*
%TO.C,H6*%
X246775000Y-68000000D02*
G75*
G02*
X243275000Y-68000000I-1750000J0D01*
G01*
X243275000Y-68000000D02*
G75*
G02*
X246775000Y-68000000I1750000J0D01*
G01*
%TO.C,H9*%
X130500000Y-50000000D02*
G75*
G02*
X119500000Y-50000000I-5500000J0D01*
G01*
X119500000Y-50000000D02*
G75*
G02*
X130500000Y-50000000I5500000J0D01*
G01*
%TO.C,H5*%
X146775000Y-68000000D02*
G75*
G02*
X143275000Y-68000000I-1750000J0D01*
G01*
X143275000Y-68000000D02*
G75*
G02*
X146775000Y-68000000I1750000J0D01*
G01*
%TO.C,H8*%
X246775000Y-52000000D02*
G75*
G02*
X243275000Y-52000000I-1750000J0D01*
G01*
X243275000Y-52000000D02*
G75*
G02*
X246775000Y-52000000I1750000J0D01*
G01*
%TO.C,H2*%
X51000000Y-53000000D02*
G75*
G02*
X47500000Y-53000000I-1750000J0D01*
G01*
X47500000Y-53000000D02*
G75*
G02*
X51000000Y-53000000I1750000J0D01*
G01*
%TD*%
M02*
