%TF.GenerationSoftware,KiCad,Pcbnew,8.0.4*%
%TF.CreationDate,2026-09-30T11:27:11-07:00*%
%TF.ProjectId,kamioka_short_pcb,6b616d69-6f6b-4615-9f73-686f72745f70,rev?*%
%TF.SameCoordinates,Original*%
%TF.FileFunction,Soldermask,Top*%
%TF.FilePolarity,Negative*%
%FSLAX46Y46*%
G04 Gerber Fmt 4.6, Leading zero omitted, Abs format (unit mm)*
G04 Created by KiCad (PCBNEW 8.0.4) date 2026-09-30 11:27:11*
%MOMM*%
%LPD*%
G01*
G04 APERTURE LIST*
G04 Aperture macros list*
%AMRoundRect*
0 Rectangle with rounded corners*
0 $1 Rounding radius*
0 $2 $3 $4 $5 $6 $7 $8 $9 X,Y pos of 4 corners*
0 Add a 4 corners polygon primitive as box body*
4,1,4,$2,$3,$4,$5,$6,$7,$8,$9,$2,$3,0*
0 Add four circle primitives for the rounded corners*
1,1,$1+$1,$2,$3*
1,1,$1+$1,$4,$5*
1,1,$1+$1,$6,$7*
1,1,$1+$1,$8,$9*
0 Add four rect primitives between the rounded corners*
20,1,$1+$1,$2,$3,$4,$5,0*
20,1,$1+$1,$4,$5,$6,$7,0*
20,1,$1+$1,$6,$7,$8,$9,0*
20,1,$1+$1,$8,$9,$2,$3,0*%
G04 Aperture macros list end*
%ADD10C,0.010000*%
%ADD11RoundRect,0.200000X-0.200000X-0.800000X0.200000X-0.800000X0.200000X0.800000X-0.200000X0.800000X0*%
%ADD12C,2.600000*%
%ADD13C,3.500000*%
%ADD14C,6.400000*%
%ADD15RoundRect,0.200000X0.200000X0.800000X-0.200000X0.800000X-0.200000X-0.800000X0.200000X-0.800000X0*%
%ADD16C,0.500000*%
%ADD17C,1.190000*%
%ADD18RoundRect,0.102000X0.760000X-0.190000X0.760000X0.190000X-0.760000X0.190000X-0.760000X-0.190000X0*%
%ADD19RoundRect,0.102000X-0.610000X0.330000X-0.610000X-0.330000X0.610000X-0.330000X0.610000X0.330000X0*%
%ADD20RoundRect,0.102000X-0.700000X0.330000X-0.700000X-0.330000X0.700000X-0.330000X0.700000X0.330000X0*%
%ADD21R,1.219000X1.219000*%
%ADD22C,1.219000*%
%ADD23C,3.960000*%
G04 APERTURE END LIST*
D10*
%TO.C,J3*%
X92467000Y-51435000D02*
X92512000Y-51441000D01*
X92557000Y-51449000D01*
X92603000Y-51460000D01*
X92647000Y-51472000D01*
X92692000Y-51487000D01*
X92735000Y-51504000D01*
X92777000Y-51523000D01*
X92819000Y-51544000D01*
X92859000Y-51567000D01*
X92898000Y-51592000D01*
X92936000Y-51619000D01*
X92973000Y-51648000D01*
X93008000Y-51679000D01*
X93041000Y-51711000D01*
X93073000Y-51745000D01*
X93104000Y-51780000D01*
X93132000Y-51817000D01*
X93159000Y-51855000D01*
X93184000Y-51894000D01*
X93207000Y-51935000D01*
X93227000Y-51976000D01*
X93246000Y-52019000D01*
X93263000Y-52062000D01*
X93277000Y-52107000D01*
X93290000Y-52151000D01*
X93300000Y-52197000D01*
X93308000Y-52243000D01*
X93313000Y-52289000D01*
X93317000Y-52335000D01*
X93318000Y-52380000D01*
X93317000Y-52425000D01*
X93313000Y-52471000D01*
X93308000Y-52517000D01*
X93300000Y-52563000D01*
X93290000Y-52609000D01*
X93277000Y-52653000D01*
X93263000Y-52698000D01*
X93246000Y-52741000D01*
X93227000Y-52784000D01*
X93207000Y-52825000D01*
X93184000Y-52866000D01*
X93159000Y-52905000D01*
X93132000Y-52943000D01*
X93104000Y-52980000D01*
X93073000Y-53015000D01*
X93041000Y-53049000D01*
X93008000Y-53081000D01*
X92973000Y-53112000D01*
X92936000Y-53141000D01*
X92898000Y-53168000D01*
X92859000Y-53193000D01*
X92819000Y-53216000D01*
X92777000Y-53237000D01*
X92735000Y-53256000D01*
X92692000Y-53273000D01*
X92647000Y-53288000D01*
X92603000Y-53300000D01*
X92557000Y-53311000D01*
X92512000Y-53319000D01*
X92467000Y-53325000D01*
X92467000Y-54880000D01*
X92137000Y-54880000D01*
X92137000Y-53472000D01*
X92025000Y-53442000D01*
X91525000Y-54619000D01*
X91221000Y-54490000D01*
X91728000Y-53296000D01*
X91637000Y-53224000D01*
X91027000Y-53813000D01*
X91027000Y-53354000D01*
X91421000Y-52973000D01*
X91410000Y-52955000D01*
X91400000Y-52937000D01*
X91390000Y-52919000D01*
X91380000Y-52901000D01*
X91370000Y-52882000D01*
X91361000Y-52864000D01*
X91352000Y-52845000D01*
X91344000Y-52826000D01*
X91336000Y-52806000D01*
X91328000Y-52787000D01*
X91320000Y-52768000D01*
X91313000Y-52748000D01*
X91307000Y-52728000D01*
X91300000Y-52708000D01*
X91294000Y-52688000D01*
X91289000Y-52668000D01*
X91284000Y-52648000D01*
X91279000Y-52628000D01*
X91274000Y-52607000D01*
X91270000Y-52587000D01*
X91267000Y-52566000D01*
X91263000Y-52546000D01*
X91260000Y-52525000D01*
X91258000Y-52505000D01*
X91256000Y-52484000D01*
X91254000Y-52463000D01*
X91253000Y-52442000D01*
X91252000Y-52421000D01*
X91251000Y-52401000D01*
X91251000Y-52380000D01*
X91251000Y-52359000D01*
X91252000Y-52339000D01*
X91253000Y-52318000D01*
X91254000Y-52297000D01*
X91256000Y-52276000D01*
X91258000Y-52255000D01*
X91260000Y-52235000D01*
X91263000Y-52214000D01*
X91267000Y-52194000D01*
X91270000Y-52173000D01*
X91274000Y-52153000D01*
X91279000Y-52132000D01*
X91284000Y-52112000D01*
X91289000Y-52092000D01*
X91294000Y-52072000D01*
X91300000Y-52052000D01*
X91307000Y-52032000D01*
X91313000Y-52012000D01*
X91320000Y-51992000D01*
X91328000Y-51973000D01*
X91336000Y-51954000D01*
X91344000Y-51934000D01*
X91352000Y-51915000D01*
X91361000Y-51896000D01*
X91370000Y-51878000D01*
X91380000Y-51859000D01*
X91390000Y-51841000D01*
X91400000Y-51823000D01*
X91410000Y-51805000D01*
X91421000Y-51787000D01*
X91027000Y-51406000D01*
X91027000Y-50947000D01*
X91637000Y-51536000D01*
X91728000Y-51464000D01*
X91221000Y-50270000D01*
X91525000Y-50141000D01*
X92025000Y-51318000D01*
X92137000Y-51288000D01*
X92137000Y-49990000D01*
X92467000Y-49990000D01*
X92467000Y-51435000D01*
G36*
X92467000Y-51435000D02*
G01*
X92512000Y-51441000D01*
X92557000Y-51449000D01*
X92603000Y-51460000D01*
X92647000Y-51472000D01*
X92692000Y-51487000D01*
X92735000Y-51504000D01*
X92777000Y-51523000D01*
X92819000Y-51544000D01*
X92859000Y-51567000D01*
X92898000Y-51592000D01*
X92936000Y-51619000D01*
X92973000Y-51648000D01*
X93008000Y-51679000D01*
X93041000Y-51711000D01*
X93073000Y-51745000D01*
X93104000Y-51780000D01*
X93132000Y-51817000D01*
X93159000Y-51855000D01*
X93184000Y-51894000D01*
X93207000Y-51935000D01*
X93227000Y-51976000D01*
X93246000Y-52019000D01*
X93263000Y-52062000D01*
X93277000Y-52107000D01*
X93290000Y-52151000D01*
X93300000Y-52197000D01*
X93308000Y-52243000D01*
X93313000Y-52289000D01*
X93317000Y-52335000D01*
X93318000Y-52380000D01*
X93317000Y-52425000D01*
X93313000Y-52471000D01*
X93308000Y-52517000D01*
X93300000Y-52563000D01*
X93290000Y-52609000D01*
X93277000Y-52653000D01*
X93263000Y-52698000D01*
X93246000Y-52741000D01*
X93227000Y-52784000D01*
X93207000Y-52825000D01*
X93184000Y-52866000D01*
X93159000Y-52905000D01*
X93132000Y-52943000D01*
X93104000Y-52980000D01*
X93073000Y-53015000D01*
X93041000Y-53049000D01*
X93008000Y-53081000D01*
X92973000Y-53112000D01*
X92936000Y-53141000D01*
X92898000Y-53168000D01*
X92859000Y-53193000D01*
X92819000Y-53216000D01*
X92777000Y-53237000D01*
X92735000Y-53256000D01*
X92692000Y-53273000D01*
X92647000Y-53288000D01*
X92603000Y-53300000D01*
X92557000Y-53311000D01*
X92512000Y-53319000D01*
X92467000Y-53325000D01*
X92467000Y-54880000D01*
X92137000Y-54880000D01*
X92137000Y-53472000D01*
X92025000Y-53442000D01*
X91525000Y-54619000D01*
X91221000Y-54490000D01*
X91728000Y-53296000D01*
X91637000Y-53224000D01*
X91027000Y-53813000D01*
X91027000Y-53354000D01*
X91421000Y-52973000D01*
X91410000Y-52955000D01*
X91400000Y-52937000D01*
X91390000Y-52919000D01*
X91380000Y-52901000D01*
X91370000Y-52882000D01*
X91361000Y-52864000D01*
X91352000Y-52845000D01*
X91344000Y-52826000D01*
X91336000Y-52806000D01*
X91328000Y-52787000D01*
X91320000Y-52768000D01*
X91313000Y-52748000D01*
X91307000Y-52728000D01*
X91300000Y-52708000D01*
X91294000Y-52688000D01*
X91289000Y-52668000D01*
X91284000Y-52648000D01*
X91279000Y-52628000D01*
X91274000Y-52607000D01*
X91270000Y-52587000D01*
X91267000Y-52566000D01*
X91263000Y-52546000D01*
X91260000Y-52525000D01*
X91258000Y-52505000D01*
X91256000Y-52484000D01*
X91254000Y-52463000D01*
X91253000Y-52442000D01*
X91252000Y-52421000D01*
X91251000Y-52401000D01*
X91251000Y-52380000D01*
X91251000Y-52359000D01*
X91252000Y-52339000D01*
X91253000Y-52318000D01*
X91254000Y-52297000D01*
X91256000Y-52276000D01*
X91258000Y-52255000D01*
X91260000Y-52235000D01*
X91263000Y-52214000D01*
X91267000Y-52194000D01*
X91270000Y-52173000D01*
X91274000Y-52153000D01*
X91279000Y-52132000D01*
X91284000Y-52112000D01*
X91289000Y-52092000D01*
X91294000Y-52072000D01*
X91300000Y-52052000D01*
X91307000Y-52032000D01*
X91313000Y-52012000D01*
X91320000Y-51992000D01*
X91328000Y-51973000D01*
X91336000Y-51954000D01*
X91344000Y-51934000D01*
X91352000Y-51915000D01*
X91361000Y-51896000D01*
X91370000Y-51878000D01*
X91380000Y-51859000D01*
X91390000Y-51841000D01*
X91400000Y-51823000D01*
X91410000Y-51805000D01*
X91421000Y-51787000D01*
X91027000Y-51406000D01*
X91027000Y-50947000D01*
X91637000Y-51536000D01*
X91728000Y-51464000D01*
X91221000Y-50270000D01*
X91525000Y-50141000D01*
X92025000Y-51318000D01*
X92137000Y-51288000D01*
X92137000Y-49990000D01*
X92467000Y-49990000D01*
X92467000Y-51435000D01*
G37*
X92467000Y-66675000D02*
X92512000Y-66681000D01*
X92557000Y-66689000D01*
X92603000Y-66700000D01*
X92647000Y-66712000D01*
X92692000Y-66727000D01*
X92735000Y-66744000D01*
X92777000Y-66763000D01*
X92819000Y-66784000D01*
X92859000Y-66807000D01*
X92898000Y-66832000D01*
X92936000Y-66859000D01*
X92973000Y-66888000D01*
X93008000Y-66919000D01*
X93041000Y-66951000D01*
X93073000Y-66985000D01*
X93104000Y-67020000D01*
X93132000Y-67057000D01*
X93159000Y-67095000D01*
X93184000Y-67134000D01*
X93207000Y-67175000D01*
X93227000Y-67216000D01*
X93246000Y-67259000D01*
X93263000Y-67302000D01*
X93277000Y-67347000D01*
X93290000Y-67391000D01*
X93300000Y-67437000D01*
X93308000Y-67483000D01*
X93313000Y-67529000D01*
X93317000Y-67575000D01*
X93318000Y-67620000D01*
X93317000Y-67665000D01*
X93313000Y-67711000D01*
X93308000Y-67757000D01*
X93300000Y-67803000D01*
X93290000Y-67849000D01*
X93277000Y-67893000D01*
X93263000Y-67938000D01*
X93246000Y-67981000D01*
X93227000Y-68024000D01*
X93207000Y-68065000D01*
X93184000Y-68106000D01*
X93159000Y-68145000D01*
X93132000Y-68183000D01*
X93104000Y-68220000D01*
X93073000Y-68255000D01*
X93041000Y-68289000D01*
X93008000Y-68321000D01*
X92973000Y-68352000D01*
X92936000Y-68381000D01*
X92898000Y-68408000D01*
X92859000Y-68433000D01*
X92819000Y-68456000D01*
X92777000Y-68477000D01*
X92735000Y-68496000D01*
X92692000Y-68513000D01*
X92647000Y-68528000D01*
X92603000Y-68540000D01*
X92557000Y-68551000D01*
X92512000Y-68559000D01*
X92467000Y-68565000D01*
X92467000Y-70120000D01*
X92137000Y-70120000D01*
X92137000Y-68712000D01*
X92025000Y-68682000D01*
X91525000Y-69859000D01*
X91221000Y-69730000D01*
X91728000Y-68536000D01*
X91637000Y-68464000D01*
X91027000Y-69053000D01*
X91027000Y-68594000D01*
X91421000Y-68213000D01*
X91410000Y-68195000D01*
X91400000Y-68177000D01*
X91390000Y-68159000D01*
X91380000Y-68141000D01*
X91370000Y-68122000D01*
X91361000Y-68104000D01*
X91352000Y-68085000D01*
X91344000Y-68066000D01*
X91336000Y-68046000D01*
X91328000Y-68027000D01*
X91320000Y-68008000D01*
X91313000Y-67988000D01*
X91307000Y-67968000D01*
X91300000Y-67948000D01*
X91294000Y-67928000D01*
X91289000Y-67908000D01*
X91284000Y-67888000D01*
X91279000Y-67868000D01*
X91274000Y-67847000D01*
X91270000Y-67827000D01*
X91267000Y-67806000D01*
X91263000Y-67786000D01*
X91260000Y-67765000D01*
X91258000Y-67745000D01*
X91256000Y-67724000D01*
X91254000Y-67703000D01*
X91253000Y-67682000D01*
X91252000Y-67661000D01*
X91251000Y-67641000D01*
X91251000Y-67620000D01*
X91251000Y-67599000D01*
X91252000Y-67579000D01*
X91253000Y-67558000D01*
X91254000Y-67537000D01*
X91256000Y-67516000D01*
X91258000Y-67495000D01*
X91260000Y-67475000D01*
X91263000Y-67454000D01*
X91267000Y-67434000D01*
X91270000Y-67413000D01*
X91274000Y-67393000D01*
X91279000Y-67372000D01*
X91284000Y-67352000D01*
X91289000Y-67332000D01*
X91294000Y-67312000D01*
X91300000Y-67292000D01*
X91307000Y-67272000D01*
X91313000Y-67252000D01*
X91320000Y-67232000D01*
X91328000Y-67213000D01*
X91336000Y-67194000D01*
X91344000Y-67174000D01*
X91352000Y-67155000D01*
X91361000Y-67136000D01*
X91370000Y-67118000D01*
X91380000Y-67099000D01*
X91390000Y-67081000D01*
X91400000Y-67063000D01*
X91410000Y-67045000D01*
X91421000Y-67027000D01*
X91027000Y-66646000D01*
X91027000Y-66187000D01*
X91637000Y-66776000D01*
X91728000Y-66704000D01*
X91221000Y-65510000D01*
X91525000Y-65381000D01*
X92025000Y-66558000D01*
X92137000Y-66528000D01*
X92137000Y-65230000D01*
X92467000Y-65230000D01*
X92467000Y-66675000D01*
G36*
X92467000Y-66675000D02*
G01*
X92512000Y-66681000D01*
X92557000Y-66689000D01*
X92603000Y-66700000D01*
X92647000Y-66712000D01*
X92692000Y-66727000D01*
X92735000Y-66744000D01*
X92777000Y-66763000D01*
X92819000Y-66784000D01*
X92859000Y-66807000D01*
X92898000Y-66832000D01*
X92936000Y-66859000D01*
X92973000Y-66888000D01*
X93008000Y-66919000D01*
X93041000Y-66951000D01*
X93073000Y-66985000D01*
X93104000Y-67020000D01*
X93132000Y-67057000D01*
X93159000Y-67095000D01*
X93184000Y-67134000D01*
X93207000Y-67175000D01*
X93227000Y-67216000D01*
X93246000Y-67259000D01*
X93263000Y-67302000D01*
X93277000Y-67347000D01*
X93290000Y-67391000D01*
X93300000Y-67437000D01*
X93308000Y-67483000D01*
X93313000Y-67529000D01*
X93317000Y-67575000D01*
X93318000Y-67620000D01*
X93317000Y-67665000D01*
X93313000Y-67711000D01*
X93308000Y-67757000D01*
X93300000Y-67803000D01*
X93290000Y-67849000D01*
X93277000Y-67893000D01*
X93263000Y-67938000D01*
X93246000Y-67981000D01*
X93227000Y-68024000D01*
X93207000Y-68065000D01*
X93184000Y-68106000D01*
X93159000Y-68145000D01*
X93132000Y-68183000D01*
X93104000Y-68220000D01*
X93073000Y-68255000D01*
X93041000Y-68289000D01*
X93008000Y-68321000D01*
X92973000Y-68352000D01*
X92936000Y-68381000D01*
X92898000Y-68408000D01*
X92859000Y-68433000D01*
X92819000Y-68456000D01*
X92777000Y-68477000D01*
X92735000Y-68496000D01*
X92692000Y-68513000D01*
X92647000Y-68528000D01*
X92603000Y-68540000D01*
X92557000Y-68551000D01*
X92512000Y-68559000D01*
X92467000Y-68565000D01*
X92467000Y-70120000D01*
X92137000Y-70120000D01*
X92137000Y-68712000D01*
X92025000Y-68682000D01*
X91525000Y-69859000D01*
X91221000Y-69730000D01*
X91728000Y-68536000D01*
X91637000Y-68464000D01*
X91027000Y-69053000D01*
X91027000Y-68594000D01*
X91421000Y-68213000D01*
X91410000Y-68195000D01*
X91400000Y-68177000D01*
X91390000Y-68159000D01*
X91380000Y-68141000D01*
X91370000Y-68122000D01*
X91361000Y-68104000D01*
X91352000Y-68085000D01*
X91344000Y-68066000D01*
X91336000Y-68046000D01*
X91328000Y-68027000D01*
X91320000Y-68008000D01*
X91313000Y-67988000D01*
X91307000Y-67968000D01*
X91300000Y-67948000D01*
X91294000Y-67928000D01*
X91289000Y-67908000D01*
X91284000Y-67888000D01*
X91279000Y-67868000D01*
X91274000Y-67847000D01*
X91270000Y-67827000D01*
X91267000Y-67806000D01*
X91263000Y-67786000D01*
X91260000Y-67765000D01*
X91258000Y-67745000D01*
X91256000Y-67724000D01*
X91254000Y-67703000D01*
X91253000Y-67682000D01*
X91252000Y-67661000D01*
X91251000Y-67641000D01*
X91251000Y-67620000D01*
X91251000Y-67599000D01*
X91252000Y-67579000D01*
X91253000Y-67558000D01*
X91254000Y-67537000D01*
X91256000Y-67516000D01*
X91258000Y-67495000D01*
X91260000Y-67475000D01*
X91263000Y-67454000D01*
X91267000Y-67434000D01*
X91270000Y-67413000D01*
X91274000Y-67393000D01*
X91279000Y-67372000D01*
X91284000Y-67352000D01*
X91289000Y-67332000D01*
X91294000Y-67312000D01*
X91300000Y-67292000D01*
X91307000Y-67272000D01*
X91313000Y-67252000D01*
X91320000Y-67232000D01*
X91328000Y-67213000D01*
X91336000Y-67194000D01*
X91344000Y-67174000D01*
X91352000Y-67155000D01*
X91361000Y-67136000D01*
X91370000Y-67118000D01*
X91380000Y-67099000D01*
X91390000Y-67081000D01*
X91400000Y-67063000D01*
X91410000Y-67045000D01*
X91421000Y-67027000D01*
X91027000Y-66646000D01*
X91027000Y-66187000D01*
X91637000Y-66776000D01*
X91728000Y-66704000D01*
X91221000Y-65510000D01*
X91525000Y-65381000D01*
X92025000Y-66558000D01*
X92137000Y-66528000D01*
X92137000Y-65230000D01*
X92467000Y-65230000D01*
X92467000Y-66675000D01*
G37*
%TD*%
D11*
%TO.C,B6*%
X56071428Y-52500000D03*
%TD*%
%TO.C,R8*%
X65500000Y-52500000D03*
%TD*%
%TO.C,R5*%
X57642856Y-52500000D03*
%TD*%
%TO.C,R4*%
X57642856Y-67500000D03*
%TD*%
D12*
%TO.C,H7*%
X145025000Y-52000000D03*
D13*
X145025000Y-52000000D03*
%TD*%
D14*
%TO.C,H10*%
X205000000Y-70000000D03*
%TD*%
D11*
%TO.C,R6*%
X54500000Y-52500000D03*
%TD*%
D15*
%TO.C,B1*%
X63928568Y-67500000D03*
%TD*%
D11*
%TO.C,B8*%
X63928568Y-52500000D03*
%TD*%
%TO.C,B7*%
X60785712Y-52500000D03*
%TD*%
%TO.C,B4*%
X59214284Y-67500000D03*
%TD*%
D12*
%TO.C,H1*%
X70725000Y-53000000D03*
D13*
X70725000Y-53000000D03*
%TD*%
D15*
%TO.C,R1*%
X65500000Y-67500000D03*
%TD*%
D12*
%TO.C,H4*%
X70725000Y-67000000D03*
D13*
X70725000Y-67000000D03*
%TD*%
D12*
%TO.C,H3*%
X49250000Y-67000000D03*
D13*
X49250000Y-67000000D03*
%TD*%
D15*
%TO.C,R3*%
X54500000Y-67500000D03*
%TD*%
%TO.C,B2*%
X60785712Y-67500000D03*
%TD*%
D11*
%TO.C,R7*%
X62357140Y-52500000D03*
%TD*%
D12*
%TO.C,H6*%
X245025000Y-68000000D03*
D13*
X245025000Y-68000000D03*
%TD*%
D15*
%TO.C,R2*%
X62357140Y-67500000D03*
%TD*%
D14*
%TO.C,H9*%
X125000000Y-50000000D03*
%TD*%
D12*
%TO.C,H5*%
X145025000Y-68000000D03*
D13*
X145025000Y-68000000D03*
%TD*%
D11*
%TO.C,B5*%
X59214284Y-52500000D03*
%TD*%
D16*
%TO.C,mouse-bite-1mm-3mm*%
X90200000Y-48460000D03*
X90800000Y-48460000D03*
X90200000Y-47750000D03*
X90800000Y-47750000D03*
X90800000Y-47050000D03*
X90200000Y-47040000D03*
%TD*%
D11*
%TO.C,B3*%
X56071428Y-67500000D03*
%TD*%
D16*
%TO.C,mouse-bite-1mm-3mm*%
X90200000Y-72960000D03*
X90800000Y-72960000D03*
X90200000Y-72250000D03*
X90800000Y-72250000D03*
X90800000Y-71550000D03*
X90200000Y-71540000D03*
%TD*%
D17*
%TO.C,J4*%
X87955000Y-67175500D03*
X87955000Y-52824500D03*
D18*
X84525000Y-54602500D03*
X84525000Y-53967500D03*
X84525000Y-55872500D03*
X84525000Y-55237500D03*
X84525000Y-57142500D03*
X84525000Y-56507500D03*
X84525000Y-58412500D03*
X84525000Y-57777500D03*
X84525000Y-59682500D03*
X84525000Y-59047500D03*
X84525000Y-60952500D03*
X84525000Y-60317500D03*
X84525000Y-62222500D03*
X84525000Y-61587500D03*
X84525000Y-63492500D03*
X84525000Y-62857500D03*
X84525000Y-64762500D03*
X84525000Y-64127500D03*
X84525000Y-66032500D03*
X84525000Y-65397500D03*
%TD*%
D19*
%TO.C,J3*%
X95440000Y-54285000D03*
D20*
X98400000Y-54285000D03*
D19*
X95440000Y-55555000D03*
D20*
X98400000Y-55555000D03*
D19*
X95440000Y-56825000D03*
D20*
X98400000Y-56825000D03*
D19*
X95440000Y-58095000D03*
D20*
X98400000Y-58095000D03*
D19*
X95440000Y-59365000D03*
D20*
X98400000Y-59365000D03*
D19*
X95440000Y-60635000D03*
D20*
X98400000Y-60635000D03*
D19*
X95440000Y-61905000D03*
D20*
X98400000Y-61905000D03*
D19*
X95440000Y-63175000D03*
D20*
X98400000Y-63175000D03*
D19*
X95440000Y-64445000D03*
D20*
X98400000Y-64445000D03*
D19*
X95440000Y-65715000D03*
D20*
X98400000Y-65715000D03*
%TD*%
D12*
%TO.C,H8*%
X245025000Y-52000000D03*
D13*
X245025000Y-52000000D03*
%TD*%
D12*
%TO.C,H2*%
X49250000Y-53000000D03*
D13*
X49250000Y-53000000D03*
%TD*%
D21*
%TO.C,J1*%
X323740000Y-66680000D03*
D22*
X321200000Y-66680000D03*
X318660000Y-66680000D03*
X316120000Y-66680000D03*
X313580000Y-66680000D03*
X311040000Y-66680000D03*
X308500000Y-66680000D03*
X305960000Y-66680000D03*
X303420000Y-66680000D03*
X300880000Y-66680000D03*
X298340000Y-66680000D03*
X295800000Y-66680000D03*
X293260000Y-66680000D03*
X322470000Y-69220000D03*
X319930000Y-69220000D03*
X317390000Y-69220000D03*
X314850000Y-69220000D03*
X312310000Y-69220000D03*
X309770000Y-69220000D03*
X307230000Y-69220000D03*
X304690000Y-69220000D03*
X302150000Y-69220000D03*
X299610000Y-69220000D03*
X297070000Y-69220000D03*
X294530000Y-69220000D03*
D23*
X327550000Y-67950000D03*
X289450000Y-67950000D03*
%TD*%
D21*
%TO.C,J2*%
X293260000Y-53310000D03*
D22*
X295800000Y-53310000D03*
X298340000Y-53310000D03*
X300880000Y-53310000D03*
X303420000Y-53310000D03*
X305960000Y-53310000D03*
X308500000Y-53310000D03*
X311040000Y-53310000D03*
X313580000Y-53310000D03*
X316120000Y-53310000D03*
X318660000Y-53310000D03*
X321200000Y-53310000D03*
X323740000Y-53310000D03*
X294530000Y-50770000D03*
X297070000Y-50770000D03*
X299610000Y-50770000D03*
X302150000Y-50770000D03*
X304690000Y-50770000D03*
X307230000Y-50770000D03*
X309770000Y-50770000D03*
X312310000Y-50770000D03*
X314850000Y-50770000D03*
X317390000Y-50770000D03*
X319930000Y-50770000D03*
X322470000Y-50770000D03*
D23*
X289450000Y-52040000D03*
X327550000Y-52040000D03*
%TD*%
G36*
X332193039Y-45769685D02*
G01*
X332238794Y-45822489D01*
X332250000Y-45874000D01*
X332250000Y-74126000D01*
X332230315Y-74193039D01*
X332177511Y-74238794D01*
X332126000Y-74250000D01*
X277624000Y-74250000D01*
X277556961Y-74230315D01*
X277511206Y-74177511D01*
X277500000Y-74126000D01*
X277500000Y-63500000D01*
X277374000Y-63500000D01*
X277306961Y-63480315D01*
X277261206Y-63427511D01*
X277250000Y-63376000D01*
X277250000Y-56624000D01*
X277269685Y-56556961D01*
X277322489Y-56511206D01*
X277374000Y-56500000D01*
X277500000Y-56500000D01*
X277500000Y-45874000D01*
X277519685Y-45806961D01*
X277572489Y-45761206D01*
X277624000Y-45750000D01*
X332126000Y-45750000D01*
X332193039Y-45769685D01*
G37*
G36*
X106193039Y-52769685D02*
G01*
X106238794Y-52822489D01*
X106250000Y-52874000D01*
X106250000Y-56500000D01*
X106376000Y-56500000D01*
X106443039Y-56519685D01*
X106488794Y-56572489D01*
X106500000Y-56624000D01*
X106500000Y-63376000D01*
X106480315Y-63443039D01*
X106427511Y-63488794D01*
X106376000Y-63500000D01*
X106250000Y-63500000D01*
X106250000Y-67126000D01*
X106230315Y-67193039D01*
X106177511Y-67238794D01*
X106126000Y-67250000D01*
X99874000Y-67250000D01*
X99806961Y-67230315D01*
X99761206Y-67177511D01*
X99750000Y-67126000D01*
X99750000Y-52874000D01*
X99769685Y-52806961D01*
X99822489Y-52761206D01*
X99874000Y-52750000D01*
X106126000Y-52750000D01*
X106193039Y-52769685D01*
G37*
G36*
X53443039Y-50519685D02*
G01*
X53488794Y-50572489D01*
X53500000Y-50624000D01*
X53500000Y-51500000D01*
X53626000Y-51500000D01*
X53693039Y-51519685D01*
X53738794Y-51572489D01*
X53750000Y-51624000D01*
X53750000Y-53376000D01*
X53730315Y-53443039D01*
X53677511Y-53488794D01*
X53626000Y-53500000D01*
X53500000Y-53500000D01*
X53500000Y-57376000D01*
X53480315Y-57443039D01*
X53427511Y-57488794D01*
X53376000Y-57500000D01*
X46874000Y-57500000D01*
X46806961Y-57480315D01*
X46761206Y-57427511D01*
X46750000Y-57376000D01*
X46750000Y-50624000D01*
X46769685Y-50556961D01*
X46822489Y-50511206D01*
X46874000Y-50500000D01*
X53376000Y-50500000D01*
X53443039Y-50519685D01*
G37*
G36*
X66693039Y-45769685D02*
G01*
X66738794Y-45822489D01*
X66750000Y-45874000D01*
X66750000Y-49626000D01*
X66730315Y-49693039D01*
X66677511Y-49738794D01*
X66626000Y-49750000D01*
X66500000Y-49750000D01*
X66500000Y-50376000D01*
X66480315Y-50443039D01*
X66427511Y-50488794D01*
X66376000Y-50500000D01*
X53624000Y-50500000D01*
X53556961Y-50480315D01*
X53511206Y-50427511D01*
X53500000Y-50376000D01*
X53500000Y-45874000D01*
X53519685Y-45806961D01*
X53572489Y-45761206D01*
X53624000Y-45750000D01*
X66626000Y-45750000D01*
X66693039Y-45769685D01*
G37*
G36*
X82943039Y-49519685D02*
G01*
X82988794Y-49572489D01*
X83000000Y-49624000D01*
X83000000Y-70376000D01*
X82980315Y-70443039D01*
X82927511Y-70488794D01*
X82876000Y-70500000D01*
X76762211Y-70500000D01*
X76738021Y-70497618D01*
X76727966Y-70495618D01*
X76666054Y-70463233D01*
X76631480Y-70402517D01*
X76635219Y-70332748D01*
X76676085Y-70276076D01*
X76741103Y-70250494D01*
X76749899Y-70250100D01*
X76750000Y-70250000D01*
X76750000Y-49750000D01*
X76749103Y-49749103D01*
X76685117Y-49730315D01*
X76639362Y-49677511D01*
X76629418Y-49608353D01*
X76658443Y-49544797D01*
X76717221Y-49507023D01*
X76727966Y-49504382D01*
X76738021Y-49502382D01*
X76762211Y-49500000D01*
X82876000Y-49500000D01*
X82943039Y-49519685D01*
G37*
G36*
X277705203Y-56408443D02*
G01*
X277742977Y-56467221D01*
X277745617Y-56477963D01*
X277747617Y-56488017D01*
X277750000Y-56512210D01*
X277750000Y-63487789D01*
X277747617Y-63511982D01*
X277745617Y-63522036D01*
X277713231Y-63583946D01*
X277652515Y-63618520D01*
X277582746Y-63614779D01*
X277526074Y-63573912D01*
X277500493Y-63508894D01*
X277500100Y-63500100D01*
X277500000Y-63500000D01*
X106250000Y-63500000D01*
X106249103Y-63500896D01*
X106230315Y-63564882D01*
X106177511Y-63610637D01*
X106108353Y-63620581D01*
X106044797Y-63591556D01*
X106007023Y-63532778D01*
X106004383Y-63522036D01*
X106002383Y-63511982D01*
X106000000Y-63487789D01*
X106000000Y-56512210D01*
X106002383Y-56488017D01*
X106004383Y-56477963D01*
X106036769Y-56416053D01*
X106097485Y-56381479D01*
X106167254Y-56385220D01*
X106223926Y-56426087D01*
X106249507Y-56491105D01*
X106249899Y-56499899D01*
X106250000Y-56500000D01*
X277500000Y-56500000D01*
X277500896Y-56499103D01*
X277519685Y-56435117D01*
X277572489Y-56389362D01*
X277641647Y-56379418D01*
X277705203Y-56408443D01*
G37*
G36*
X73193039Y-62519685D02*
G01*
X73238794Y-62572489D01*
X73250000Y-62624000D01*
X73250000Y-69376000D01*
X73230315Y-69443039D01*
X73177511Y-69488794D01*
X73126000Y-69500000D01*
X66624000Y-69500000D01*
X66556961Y-69480315D01*
X66511206Y-69427511D01*
X66500000Y-69376000D01*
X66500000Y-68500000D01*
X66374000Y-68500000D01*
X66306961Y-68480315D01*
X66261206Y-68427511D01*
X66250000Y-68376000D01*
X66250000Y-66624000D01*
X66269685Y-66556961D01*
X66322489Y-66511206D01*
X66374000Y-66500000D01*
X66500000Y-66500000D01*
X66500000Y-62624000D01*
X66519685Y-62556961D01*
X66572489Y-62511206D01*
X66624000Y-62500000D01*
X73126000Y-62500000D01*
X73193039Y-62519685D01*
G37*
G36*
X82943039Y-45769685D02*
G01*
X82988794Y-45822489D01*
X83000000Y-45874000D01*
X83000000Y-49876000D01*
X82980315Y-49943039D01*
X82927511Y-49988794D01*
X82876000Y-50000000D01*
X76874000Y-50000000D01*
X76806961Y-49980315D01*
X76761206Y-49927511D01*
X76750000Y-49876000D01*
X76750000Y-49750000D01*
X66500000Y-49750000D01*
X66499103Y-49750896D01*
X66480315Y-49814882D01*
X66427511Y-49860637D01*
X66358353Y-49870581D01*
X66294797Y-49841556D01*
X66257023Y-49782778D01*
X66254383Y-49772036D01*
X66252383Y-49761982D01*
X66250000Y-49737789D01*
X66250000Y-45874000D01*
X66269685Y-45806961D01*
X66322489Y-45761206D01*
X66374000Y-45750000D01*
X82876000Y-45750000D01*
X82943039Y-45769685D01*
G37*
G36*
X66705203Y-51408443D02*
G01*
X66742977Y-51467221D01*
X66745617Y-51477963D01*
X66747617Y-51488017D01*
X66750000Y-51512210D01*
X66750000Y-53487789D01*
X66747617Y-53511982D01*
X66745617Y-53522036D01*
X66713231Y-53583946D01*
X66652515Y-53618520D01*
X66582746Y-53614779D01*
X66526074Y-53573912D01*
X66500493Y-53508894D01*
X66500100Y-53500100D01*
X66500000Y-53500000D01*
X53500000Y-53500000D01*
X53499103Y-53500896D01*
X53480315Y-53564882D01*
X53427511Y-53610637D01*
X53358353Y-53620581D01*
X53294797Y-53591556D01*
X53257023Y-53532778D01*
X53254383Y-53522036D01*
X53252383Y-53511982D01*
X53250000Y-53487789D01*
X53250000Y-51512210D01*
X53252383Y-51488017D01*
X53254383Y-51477963D01*
X53286769Y-51416053D01*
X53347485Y-51381479D01*
X53417254Y-51385220D01*
X53473926Y-51426087D01*
X53499507Y-51491105D01*
X53499899Y-51499899D01*
X53500000Y-51500000D01*
X66500000Y-51500000D01*
X66500896Y-51499103D01*
X66519685Y-51435117D01*
X66572489Y-51389362D01*
X66641647Y-51379418D01*
X66705203Y-51408443D01*
G37*
G36*
X53443039Y-62519685D02*
G01*
X53488794Y-62572489D01*
X53500000Y-62624000D01*
X53500000Y-66500000D01*
X53626000Y-66500000D01*
X53693039Y-66519685D01*
X53738794Y-66572489D01*
X53750000Y-66624000D01*
X53750000Y-68376000D01*
X53730315Y-68443039D01*
X53677511Y-68488794D01*
X53626000Y-68500000D01*
X53500000Y-68500000D01*
X53500000Y-69376000D01*
X53480315Y-69443039D01*
X53427511Y-69488794D01*
X53376000Y-69500000D01*
X46874000Y-69500000D01*
X46806961Y-69480315D01*
X46761206Y-69427511D01*
X46750000Y-69376000D01*
X46750000Y-62624000D01*
X46769685Y-62556961D01*
X46822489Y-62511206D01*
X46874000Y-62500000D01*
X53376000Y-62500000D01*
X53443039Y-62519685D01*
G37*
G36*
X66705203Y-66408443D02*
G01*
X66742977Y-66467221D01*
X66745617Y-66477963D01*
X66747617Y-66488017D01*
X66750000Y-66512210D01*
X66750000Y-68487789D01*
X66747617Y-68511982D01*
X66745617Y-68522036D01*
X66713231Y-68583946D01*
X66652515Y-68618520D01*
X66582746Y-68614779D01*
X66526074Y-68573912D01*
X66500493Y-68508894D01*
X66500100Y-68500100D01*
X66500000Y-68500000D01*
X53500000Y-68500000D01*
X53499103Y-68500896D01*
X53480315Y-68564882D01*
X53427511Y-68610637D01*
X53358353Y-68620581D01*
X53294797Y-68591556D01*
X53257023Y-68532778D01*
X53254383Y-68522036D01*
X53252383Y-68511982D01*
X53250000Y-68487789D01*
X53250000Y-66512210D01*
X53252383Y-66488017D01*
X53254383Y-66477963D01*
X53286769Y-66416053D01*
X53347485Y-66381479D01*
X53417254Y-66385220D01*
X53473926Y-66426087D01*
X53499507Y-66491105D01*
X53499899Y-66499899D01*
X53500000Y-66500000D01*
X66500000Y-66500000D01*
X66500896Y-66499103D01*
X66519685Y-66435117D01*
X66572489Y-66389362D01*
X66641647Y-66379418D01*
X66705203Y-66408443D01*
G37*
G36*
X66443039Y-69519685D02*
G01*
X66488794Y-69572489D01*
X66500000Y-69624000D01*
X66500000Y-70250000D01*
X66626000Y-70250000D01*
X66693039Y-70269685D01*
X66738794Y-70322489D01*
X66750000Y-70374000D01*
X66750000Y-74126000D01*
X66730315Y-74193039D01*
X66677511Y-74238794D01*
X66626000Y-74250000D01*
X53624000Y-74250000D01*
X53556961Y-74230315D01*
X53511206Y-74177511D01*
X53500000Y-74126000D01*
X53500000Y-69624000D01*
X53519685Y-69556961D01*
X53572489Y-69511206D01*
X53624000Y-69500000D01*
X66376000Y-69500000D01*
X66443039Y-69519685D01*
G37*
G36*
X82943039Y-70019685D02*
G01*
X82988794Y-70072489D01*
X83000000Y-70124000D01*
X83000000Y-74126000D01*
X82980315Y-74193039D01*
X82927511Y-74238794D01*
X82876000Y-74250000D01*
X66374000Y-74250000D01*
X66306961Y-74230315D01*
X66261206Y-74177511D01*
X66250000Y-74126000D01*
X66250000Y-70262210D01*
X66252383Y-70238017D01*
X66254383Y-70227963D01*
X66286769Y-70166053D01*
X66347485Y-70131479D01*
X66417254Y-70135220D01*
X66473926Y-70176087D01*
X66499507Y-70241105D01*
X66499899Y-70249899D01*
X66500000Y-70250000D01*
X76750000Y-70250000D01*
X76750000Y-70124000D01*
X76769685Y-70056961D01*
X76822489Y-70011206D01*
X76874000Y-70000000D01*
X82876000Y-70000000D01*
X82943039Y-70019685D01*
G37*
G36*
X73193039Y-50519685D02*
G01*
X73238794Y-50572489D01*
X73250000Y-50624000D01*
X73250000Y-57376000D01*
X73230315Y-57443039D01*
X73177511Y-57488794D01*
X73126000Y-57500000D01*
X66624000Y-57500000D01*
X66556961Y-57480315D01*
X66511206Y-57427511D01*
X66500000Y-57376000D01*
X66500000Y-53500000D01*
X66374000Y-53500000D01*
X66306961Y-53480315D01*
X66261206Y-53427511D01*
X66250000Y-53376000D01*
X66250000Y-51624000D01*
X66269685Y-51556961D01*
X66322489Y-51511206D01*
X66374000Y-51500000D01*
X66500000Y-51500000D01*
X66500000Y-50624000D01*
X66519685Y-50556961D01*
X66572489Y-50511206D01*
X66624000Y-50500000D01*
X73126000Y-50500000D01*
X73193039Y-50519685D01*
G37*
M02*
