%TF.GenerationSoftware,KiCad,Pcbnew,8.0.4*%
%TF.CreationDate,2026-09-28T14:44:31-07:00*%
%TF.ProjectId,kamioka_short_pcb,6b616d69-6f6b-4615-9f73-686f72745f70,rev?*%
%TF.SameCoordinates,Original*%
%TF.FileFunction,Legend,Bot*%
%TF.FilePolarity,Positive*%
%FSLAX46Y46*%
G04 Gerber Fmt 4.6, Leading zero omitted, Abs format (unit mm)*
G04 Created by KiCad (PCBNEW 8.0.4) date 2026-09-28 14:44:31*
%MOMM*%
%LPD*%
G01*
G04 APERTURE LIST*
%ADD10C,0.254000*%
%ADD11C,0.200000*%
%ADD12C,0.100000*%
G04 APERTURE END LIST*
D10*
X308923332Y-67254318D02*
X308923332Y-68161461D01*
X308923332Y-68161461D02*
X308983809Y-68342889D01*
X308983809Y-68342889D02*
X309104761Y-68463842D01*
X309104761Y-68463842D02*
X309286190Y-68524318D01*
X309286190Y-68524318D02*
X309407142Y-68524318D01*
X307653332Y-68524318D02*
X308379047Y-68524318D01*
X308016190Y-68524318D02*
X308016190Y-67254318D01*
X308016190Y-67254318D02*
X308137142Y-67435746D01*
X308137142Y-67435746D02*
X308258094Y-67556699D01*
X308258094Y-67556699D02*
X308379047Y-67617175D01*
X308923332Y-51344318D02*
X308923332Y-52251461D01*
X308923332Y-52251461D02*
X308983809Y-52432889D01*
X308983809Y-52432889D02*
X309104761Y-52553842D01*
X309104761Y-52553842D02*
X309286190Y-52614318D01*
X309286190Y-52614318D02*
X309407142Y-52614318D01*
X308379047Y-51465270D02*
X308318571Y-51404794D01*
X308318571Y-51404794D02*
X308197618Y-51344318D01*
X308197618Y-51344318D02*
X307895237Y-51344318D01*
X307895237Y-51344318D02*
X307774285Y-51404794D01*
X307774285Y-51404794D02*
X307713809Y-51465270D01*
X307713809Y-51465270D02*
X307653332Y-51586222D01*
X307653332Y-51586222D02*
X307653332Y-51707175D01*
X307653332Y-51707175D02*
X307713809Y-51888603D01*
X307713809Y-51888603D02*
X308439523Y-52614318D01*
X308439523Y-52614318D02*
X307653332Y-52614318D01*
D11*
%TO.C,J1*%
X286400000Y-64040000D02*
X286400000Y-71860000D01*
X286400000Y-71860000D02*
X330600000Y-71860000D01*
D12*
X323740000Y-63480000D02*
X323740000Y-63480000D01*
X323740000Y-63580000D02*
X323740000Y-63580000D01*
D11*
X330600000Y-64040000D02*
X286400000Y-64040000D01*
X330600000Y-71860000D02*
X330600000Y-64040000D01*
D12*
X323740000Y-63480000D02*
G75*
G02*
X323740000Y-63580000I0J-50000D01*
G01*
X323740000Y-63580000D02*
G75*
G02*
X323740000Y-63480000I0J50000D01*
G01*
D11*
%TO.C,J2*%
X286400000Y-48130000D02*
X286400000Y-55950000D01*
X286400000Y-55950000D02*
X330600000Y-55950000D01*
D12*
X293260000Y-56410000D02*
X293260000Y-56410000D01*
X293260000Y-56510000D02*
X293260000Y-56510000D01*
D11*
X330600000Y-48130000D02*
X286400000Y-48130000D01*
X330600000Y-55950000D02*
X330600000Y-48130000D01*
D12*
X293260000Y-56410000D02*
G75*
G02*
X293260000Y-56510000I0J-50000D01*
G01*
X293260000Y-56510000D02*
G75*
G02*
X293260000Y-56410000I0J50000D01*
G01*
%TD*%
M02*
