%TF.GenerationSoftware,KiCad,Pcbnew,8.0.4*%
%TF.CreationDate,2026-09-28T14:44:31-07:00*%
%TF.ProjectId,kamioka_short_pcb,6b616d69-6f6b-4615-9f73-686f72745f70,rev?*%
%TF.SameCoordinates,Original*%
%TF.FileFunction,Legend,Top*%
%TF.FilePolarity,Positive*%
%FSLAX46Y46*%
G04 Gerber Fmt 4.6, Leading zero omitted, Abs format (unit mm)*
G04 Created by KiCad (PCBNEW 8.0.4) date 2026-09-28 14:44:31*
%MOMM*%
%LPD*%
G01*
G04 APERTURE LIST*
%ADD10C,0.250000*%
%ADD11C,0.150000*%
%ADD12C,0.010000*%
%ADD13C,0.100000*%
%ADD14C,0.200000*%
G04 APERTURE END LIST*
D10*
X262481139Y-46974489D02*
X262347806Y-46907822D01*
X262347806Y-46907822D02*
X262147806Y-46907822D01*
X262147806Y-46907822D02*
X261947806Y-46974489D01*
X261947806Y-46974489D02*
X261814473Y-47107822D01*
X261814473Y-47107822D02*
X261747806Y-47241156D01*
X261747806Y-47241156D02*
X261681139Y-47507822D01*
X261681139Y-47507822D02*
X261681139Y-47707822D01*
X261681139Y-47707822D02*
X261747806Y-47974489D01*
X261747806Y-47974489D02*
X261814473Y-48107822D01*
X261814473Y-48107822D02*
X261947806Y-48241156D01*
X261947806Y-48241156D02*
X262147806Y-48307822D01*
X262147806Y-48307822D02*
X262281139Y-48307822D01*
X262281139Y-48307822D02*
X262481139Y-48241156D01*
X262481139Y-48241156D02*
X262547806Y-48174489D01*
X262547806Y-48174489D02*
X262547806Y-47707822D01*
X262547806Y-47707822D02*
X262281139Y-47707822D01*
X263747806Y-48307822D02*
X263747806Y-47574489D01*
X263747806Y-47574489D02*
X263681139Y-47441156D01*
X263681139Y-47441156D02*
X263547806Y-47374489D01*
X263547806Y-47374489D02*
X263281139Y-47374489D01*
X263281139Y-47374489D02*
X263147806Y-47441156D01*
X263747806Y-48241156D02*
X263614473Y-48307822D01*
X263614473Y-48307822D02*
X263281139Y-48307822D01*
X263281139Y-48307822D02*
X263147806Y-48241156D01*
X263147806Y-48241156D02*
X263081139Y-48107822D01*
X263081139Y-48107822D02*
X263081139Y-47974489D01*
X263081139Y-47974489D02*
X263147806Y-47841156D01*
X263147806Y-47841156D02*
X263281139Y-47774489D01*
X263281139Y-47774489D02*
X263614473Y-47774489D01*
X263614473Y-47774489D02*
X263747806Y-47707822D01*
X264347806Y-47907822D02*
X265014473Y-47907822D01*
X264214473Y-48307822D02*
X264681140Y-46907822D01*
X264681140Y-46907822D02*
X265147806Y-48307822D01*
X265547806Y-48241156D02*
X265681140Y-48307822D01*
X265681140Y-48307822D02*
X265947806Y-48307822D01*
X265947806Y-48307822D02*
X266081140Y-48241156D01*
X266081140Y-48241156D02*
X266147806Y-48107822D01*
X266147806Y-48107822D02*
X266147806Y-48041156D01*
X266147806Y-48041156D02*
X266081140Y-47907822D01*
X266081140Y-47907822D02*
X265947806Y-47841156D01*
X265947806Y-47841156D02*
X265747806Y-47841156D01*
X265747806Y-47841156D02*
X265614473Y-47774489D01*
X265614473Y-47774489D02*
X265547806Y-47641156D01*
X265547806Y-47641156D02*
X265547806Y-47574489D01*
X265547806Y-47574489D02*
X265614473Y-47441156D01*
X265614473Y-47441156D02*
X265747806Y-47374489D01*
X265747806Y-47374489D02*
X265947806Y-47374489D01*
X265947806Y-47374489D02*
X266081140Y-47441156D01*
X267614473Y-46907822D02*
X268414473Y-46907822D01*
X268014473Y-48307822D02*
X268014473Y-46907822D01*
X268881140Y-47574489D02*
X269347807Y-47574489D01*
X269547807Y-48307822D02*
X268881140Y-48307822D01*
X268881140Y-48307822D02*
X268881140Y-46907822D01*
X268881140Y-46907822D02*
X269547807Y-46907822D01*
X270081140Y-48241156D02*
X270281140Y-48307822D01*
X270281140Y-48307822D02*
X270614474Y-48307822D01*
X270614474Y-48307822D02*
X270747807Y-48241156D01*
X270747807Y-48241156D02*
X270814474Y-48174489D01*
X270814474Y-48174489D02*
X270881140Y-48041156D01*
X270881140Y-48041156D02*
X270881140Y-47907822D01*
X270881140Y-47907822D02*
X270814474Y-47774489D01*
X270814474Y-47774489D02*
X270747807Y-47707822D01*
X270747807Y-47707822D02*
X270614474Y-47641156D01*
X270614474Y-47641156D02*
X270347807Y-47574489D01*
X270347807Y-47574489D02*
X270214474Y-47507822D01*
X270214474Y-47507822D02*
X270147807Y-47441156D01*
X270147807Y-47441156D02*
X270081140Y-47307822D01*
X270081140Y-47307822D02*
X270081140Y-47174489D01*
X270081140Y-47174489D02*
X270147807Y-47041156D01*
X270147807Y-47041156D02*
X270214474Y-46974489D01*
X270214474Y-46974489D02*
X270347807Y-46907822D01*
X270347807Y-46907822D02*
X270681140Y-46907822D01*
X270681140Y-46907822D02*
X270881140Y-46974489D01*
X273014474Y-47574489D02*
X273214474Y-47641156D01*
X273214474Y-47641156D02*
X273281140Y-47707822D01*
X273281140Y-47707822D02*
X273347807Y-47841156D01*
X273347807Y-47841156D02*
X273347807Y-48041156D01*
X273347807Y-48041156D02*
X273281140Y-48174489D01*
X273281140Y-48174489D02*
X273214474Y-48241156D01*
X273214474Y-48241156D02*
X273081140Y-48307822D01*
X273081140Y-48307822D02*
X272547807Y-48307822D01*
X272547807Y-48307822D02*
X272547807Y-46907822D01*
X272547807Y-46907822D02*
X273014474Y-46907822D01*
X273014474Y-46907822D02*
X273147807Y-46974489D01*
X273147807Y-46974489D02*
X273214474Y-47041156D01*
X273214474Y-47041156D02*
X273281140Y-47174489D01*
X273281140Y-47174489D02*
X273281140Y-47307822D01*
X273281140Y-47307822D02*
X273214474Y-47441156D01*
X273214474Y-47441156D02*
X273147807Y-47507822D01*
X273147807Y-47507822D02*
X273014474Y-47574489D01*
X273014474Y-47574489D02*
X272547807Y-47574489D01*
X274147807Y-48307822D02*
X274014474Y-48241156D01*
X274014474Y-48241156D02*
X273947807Y-48174489D01*
X273947807Y-48174489D02*
X273881140Y-48041156D01*
X273881140Y-48041156D02*
X273881140Y-47641156D01*
X273881140Y-47641156D02*
X273947807Y-47507822D01*
X273947807Y-47507822D02*
X274014474Y-47441156D01*
X274014474Y-47441156D02*
X274147807Y-47374489D01*
X274147807Y-47374489D02*
X274347807Y-47374489D01*
X274347807Y-47374489D02*
X274481140Y-47441156D01*
X274481140Y-47441156D02*
X274547807Y-47507822D01*
X274547807Y-47507822D02*
X274614474Y-47641156D01*
X274614474Y-47641156D02*
X274614474Y-48041156D01*
X274614474Y-48041156D02*
X274547807Y-48174489D01*
X274547807Y-48174489D02*
X274481140Y-48241156D01*
X274481140Y-48241156D02*
X274347807Y-48307822D01*
X274347807Y-48307822D02*
X274147807Y-48307822D01*
X275814474Y-48307822D02*
X275814474Y-47574489D01*
X275814474Y-47574489D02*
X275747807Y-47441156D01*
X275747807Y-47441156D02*
X275614474Y-47374489D01*
X275614474Y-47374489D02*
X275347807Y-47374489D01*
X275347807Y-47374489D02*
X275214474Y-47441156D01*
X275814474Y-48241156D02*
X275681141Y-48307822D01*
X275681141Y-48307822D02*
X275347807Y-48307822D01*
X275347807Y-48307822D02*
X275214474Y-48241156D01*
X275214474Y-48241156D02*
X275147807Y-48107822D01*
X275147807Y-48107822D02*
X275147807Y-47974489D01*
X275147807Y-47974489D02*
X275214474Y-47841156D01*
X275214474Y-47841156D02*
X275347807Y-47774489D01*
X275347807Y-47774489D02*
X275681141Y-47774489D01*
X275681141Y-47774489D02*
X275814474Y-47707822D01*
X276481141Y-48307822D02*
X276481141Y-47374489D01*
X276481141Y-47641156D02*
X276547808Y-47507822D01*
X276547808Y-47507822D02*
X276614474Y-47441156D01*
X276614474Y-47441156D02*
X276747808Y-47374489D01*
X276747808Y-47374489D02*
X276881141Y-47374489D01*
X277947808Y-48307822D02*
X277947808Y-46907822D01*
X277947808Y-48241156D02*
X277814475Y-48307822D01*
X277814475Y-48307822D02*
X277547808Y-48307822D01*
X277547808Y-48307822D02*
X277414475Y-48241156D01*
X277414475Y-48241156D02*
X277347808Y-48174489D01*
X277347808Y-48174489D02*
X277281141Y-48041156D01*
X277281141Y-48041156D02*
X277281141Y-47641156D01*
X277281141Y-47641156D02*
X277347808Y-47507822D01*
X277347808Y-47507822D02*
X277414475Y-47441156D01*
X277414475Y-47441156D02*
X277547808Y-47374489D01*
X277547808Y-47374489D02*
X277814475Y-47374489D01*
X277814475Y-47374489D02*
X277947808Y-47441156D01*
X279547809Y-47374489D02*
X279881142Y-48307822D01*
X279881142Y-48307822D02*
X280214475Y-47374489D01*
X281481142Y-48307822D02*
X280681142Y-48307822D01*
X281081142Y-48307822D02*
X281081142Y-46907822D01*
X281081142Y-46907822D02*
X280947809Y-47107822D01*
X280947809Y-47107822D02*
X280814476Y-47241156D01*
X280814476Y-47241156D02*
X280681142Y-47307822D01*
X282081142Y-48174489D02*
X282147809Y-48241156D01*
X282147809Y-48241156D02*
X282081142Y-48307822D01*
X282081142Y-48307822D02*
X282014475Y-48241156D01*
X282014475Y-48241156D02*
X282081142Y-48174489D01*
X282081142Y-48174489D02*
X282081142Y-48307822D01*
X283014476Y-46907822D02*
X283147809Y-46907822D01*
X283147809Y-46907822D02*
X283281142Y-46974489D01*
X283281142Y-46974489D02*
X283347809Y-47041156D01*
X283347809Y-47041156D02*
X283414476Y-47174489D01*
X283414476Y-47174489D02*
X283481142Y-47441156D01*
X283481142Y-47441156D02*
X283481142Y-47774489D01*
X283481142Y-47774489D02*
X283414476Y-48041156D01*
X283414476Y-48041156D02*
X283347809Y-48174489D01*
X283347809Y-48174489D02*
X283281142Y-48241156D01*
X283281142Y-48241156D02*
X283147809Y-48307822D01*
X283147809Y-48307822D02*
X283014476Y-48307822D01*
X283014476Y-48307822D02*
X282881142Y-48241156D01*
X282881142Y-48241156D02*
X282814476Y-48174489D01*
X282814476Y-48174489D02*
X282747809Y-48041156D01*
X282747809Y-48041156D02*
X282681142Y-47774489D01*
X282681142Y-47774489D02*
X282681142Y-47441156D01*
X282681142Y-47441156D02*
X282747809Y-47174489D01*
X282747809Y-47174489D02*
X282814476Y-47041156D01*
X282814476Y-47041156D02*
X282881142Y-46974489D01*
X282881142Y-46974489D02*
X283014476Y-46907822D01*
X262414473Y-50561744D02*
X261747806Y-50561744D01*
X261747806Y-50561744D02*
X261747806Y-49161744D01*
X262881139Y-50428411D02*
X262947806Y-50495078D01*
X262947806Y-50495078D02*
X262881139Y-50561744D01*
X262881139Y-50561744D02*
X262814472Y-50495078D01*
X262814472Y-50495078D02*
X262881139Y-50428411D01*
X262881139Y-50428411D02*
X262881139Y-50561744D01*
X265281140Y-50561744D02*
X264614473Y-50561744D01*
X264614473Y-50561744D02*
X264614473Y-49161744D01*
X266281139Y-50495078D02*
X266147806Y-50561744D01*
X266147806Y-50561744D02*
X265881139Y-50561744D01*
X265881139Y-50561744D02*
X265747806Y-50495078D01*
X265747806Y-50495078D02*
X265681139Y-50361744D01*
X265681139Y-50361744D02*
X265681139Y-49828411D01*
X265681139Y-49828411D02*
X265747806Y-49695078D01*
X265747806Y-49695078D02*
X265881139Y-49628411D01*
X265881139Y-49628411D02*
X266147806Y-49628411D01*
X266147806Y-49628411D02*
X266281139Y-49695078D01*
X266281139Y-49695078D02*
X266347806Y-49828411D01*
X266347806Y-49828411D02*
X266347806Y-49961744D01*
X266347806Y-49961744D02*
X265681139Y-50095078D01*
X268014473Y-50561744D02*
X268014473Y-49161744D01*
X268014473Y-49161744D02*
X268547806Y-49161744D01*
X268547806Y-49161744D02*
X268681140Y-49228411D01*
X268681140Y-49228411D02*
X268747806Y-49295078D01*
X268747806Y-49295078D02*
X268814473Y-49428411D01*
X268814473Y-49428411D02*
X268814473Y-49628411D01*
X268814473Y-49628411D02*
X268747806Y-49761744D01*
X268747806Y-49761744D02*
X268681140Y-49828411D01*
X268681140Y-49828411D02*
X268547806Y-49895078D01*
X268547806Y-49895078D02*
X268014473Y-49895078D01*
X269614473Y-50561744D02*
X269481140Y-50495078D01*
X269481140Y-50495078D02*
X269414473Y-50428411D01*
X269414473Y-50428411D02*
X269347806Y-50295078D01*
X269347806Y-50295078D02*
X269347806Y-49895078D01*
X269347806Y-49895078D02*
X269414473Y-49761744D01*
X269414473Y-49761744D02*
X269481140Y-49695078D01*
X269481140Y-49695078D02*
X269614473Y-49628411D01*
X269614473Y-49628411D02*
X269814473Y-49628411D01*
X269814473Y-49628411D02*
X269947806Y-49695078D01*
X269947806Y-49695078D02*
X270014473Y-49761744D01*
X270014473Y-49761744D02*
X270081140Y-49895078D01*
X270081140Y-49895078D02*
X270081140Y-50295078D01*
X270081140Y-50295078D02*
X270014473Y-50428411D01*
X270014473Y-50428411D02*
X269947806Y-50495078D01*
X269947806Y-50495078D02*
X269814473Y-50561744D01*
X269814473Y-50561744D02*
X269614473Y-50561744D01*
X270481140Y-49628411D02*
X271014473Y-49628411D01*
X270681140Y-49161744D02*
X270681140Y-50361744D01*
X270681140Y-50361744D02*
X270747807Y-50495078D01*
X270747807Y-50495078D02*
X270881140Y-50561744D01*
X270881140Y-50561744D02*
X271014473Y-50561744D01*
X271281140Y-49628411D02*
X271814473Y-49628411D01*
X271481140Y-49161744D02*
X271481140Y-50361744D01*
X271481140Y-50361744D02*
X271547807Y-50495078D01*
X271547807Y-50495078D02*
X271681140Y-50561744D01*
X271681140Y-50561744D02*
X271814473Y-50561744D01*
X272281140Y-50561744D02*
X272281140Y-49628411D01*
X272281140Y-49161744D02*
X272214473Y-49228411D01*
X272214473Y-49228411D02*
X272281140Y-49295078D01*
X272281140Y-49295078D02*
X272347807Y-49228411D01*
X272347807Y-49228411D02*
X272281140Y-49161744D01*
X272281140Y-49161744D02*
X272281140Y-49295078D01*
X273481140Y-50495078D02*
X273347807Y-50561744D01*
X273347807Y-50561744D02*
X273081140Y-50561744D01*
X273081140Y-50561744D02*
X272947807Y-50495078D01*
X272947807Y-50495078D02*
X272881140Y-50361744D01*
X272881140Y-50361744D02*
X272881140Y-49828411D01*
X272881140Y-49828411D02*
X272947807Y-49695078D01*
X272947807Y-49695078D02*
X273081140Y-49628411D01*
X273081140Y-49628411D02*
X273347807Y-49628411D01*
X273347807Y-49628411D02*
X273481140Y-49695078D01*
X273481140Y-49695078D02*
X273547807Y-49828411D01*
X273547807Y-49828411D02*
X273547807Y-49961744D01*
X273547807Y-49961744D02*
X272881140Y-50095078D01*
X274147807Y-50561744D02*
X274147807Y-49628411D01*
X274147807Y-49895078D02*
X274214474Y-49761744D01*
X274214474Y-49761744D02*
X274281140Y-49695078D01*
X274281140Y-49695078D02*
X274414474Y-49628411D01*
X274414474Y-49628411D02*
X274547807Y-49628411D01*
X262414473Y-52815666D02*
X261747806Y-52815666D01*
X261747806Y-52815666D02*
X261747806Y-51415666D01*
X263347806Y-52082333D02*
X263547806Y-52149000D01*
X263547806Y-52149000D02*
X263614472Y-52215666D01*
X263614472Y-52215666D02*
X263681139Y-52349000D01*
X263681139Y-52349000D02*
X263681139Y-52549000D01*
X263681139Y-52549000D02*
X263614472Y-52682333D01*
X263614472Y-52682333D02*
X263547806Y-52749000D01*
X263547806Y-52749000D02*
X263414472Y-52815666D01*
X263414472Y-52815666D02*
X262881139Y-52815666D01*
X262881139Y-52815666D02*
X262881139Y-51415666D01*
X262881139Y-51415666D02*
X263347806Y-51415666D01*
X263347806Y-51415666D02*
X263481139Y-51482333D01*
X263481139Y-51482333D02*
X263547806Y-51549000D01*
X263547806Y-51549000D02*
X263614472Y-51682333D01*
X263614472Y-51682333D02*
X263614472Y-51815666D01*
X263614472Y-51815666D02*
X263547806Y-51949000D01*
X263547806Y-51949000D02*
X263481139Y-52015666D01*
X263481139Y-52015666D02*
X263347806Y-52082333D01*
X263347806Y-52082333D02*
X262881139Y-52082333D01*
X264281139Y-52815666D02*
X264281139Y-51415666D01*
X264281139Y-51415666D02*
X265081139Y-52815666D01*
X265081139Y-52815666D02*
X265081139Y-51415666D01*
X266414473Y-52815666D02*
X265747806Y-52815666D01*
X265747806Y-52815666D02*
X265747806Y-51415666D01*
D11*
X55322060Y-50640160D02*
X55369679Y-50497303D01*
X55369679Y-50497303D02*
X55417298Y-50449684D01*
X55417298Y-50449684D02*
X55512536Y-50402065D01*
X55512536Y-50402065D02*
X55655393Y-50402065D01*
X55655393Y-50402065D02*
X55750631Y-50449684D01*
X55750631Y-50449684D02*
X55798251Y-50497303D01*
X55798251Y-50497303D02*
X55845870Y-50592541D01*
X55845870Y-50592541D02*
X55845870Y-50973493D01*
X55845870Y-50973493D02*
X54845870Y-50973493D01*
X54845870Y-50973493D02*
X54845870Y-50640160D01*
X54845870Y-50640160D02*
X54893489Y-50544922D01*
X54893489Y-50544922D02*
X54941108Y-50497303D01*
X54941108Y-50497303D02*
X55036346Y-50449684D01*
X55036346Y-50449684D02*
X55131584Y-50449684D01*
X55131584Y-50449684D02*
X55226822Y-50497303D01*
X55226822Y-50497303D02*
X55274441Y-50544922D01*
X55274441Y-50544922D02*
X55322060Y-50640160D01*
X55322060Y-50640160D02*
X55322060Y-50973493D01*
X54845870Y-49544922D02*
X54845870Y-49735398D01*
X54845870Y-49735398D02*
X54893489Y-49830636D01*
X54893489Y-49830636D02*
X54941108Y-49878255D01*
X54941108Y-49878255D02*
X55083965Y-49973493D01*
X55083965Y-49973493D02*
X55274441Y-50021112D01*
X55274441Y-50021112D02*
X55655393Y-50021112D01*
X55655393Y-50021112D02*
X55750631Y-49973493D01*
X55750631Y-49973493D02*
X55798251Y-49925874D01*
X55798251Y-49925874D02*
X55845870Y-49830636D01*
X55845870Y-49830636D02*
X55845870Y-49640160D01*
X55845870Y-49640160D02*
X55798251Y-49544922D01*
X55798251Y-49544922D02*
X55750631Y-49497303D01*
X55750631Y-49497303D02*
X55655393Y-49449684D01*
X55655393Y-49449684D02*
X55417298Y-49449684D01*
X55417298Y-49449684D02*
X55322060Y-49497303D01*
X55322060Y-49497303D02*
X55274441Y-49544922D01*
X55274441Y-49544922D02*
X55226822Y-49640160D01*
X55226822Y-49640160D02*
X55226822Y-49830636D01*
X55226822Y-49830636D02*
X55274441Y-49925874D01*
X55274441Y-49925874D02*
X55322060Y-49973493D01*
X55322060Y-49973493D02*
X55417298Y-50021112D01*
X65233753Y-50430196D02*
X64757562Y-50763529D01*
X65233753Y-51001624D02*
X64233753Y-51001624D01*
X64233753Y-51001624D02*
X64233753Y-50620672D01*
X64233753Y-50620672D02*
X64281372Y-50525434D01*
X64281372Y-50525434D02*
X64328991Y-50477815D01*
X64328991Y-50477815D02*
X64424229Y-50430196D01*
X64424229Y-50430196D02*
X64567086Y-50430196D01*
X64567086Y-50430196D02*
X64662324Y-50477815D01*
X64662324Y-50477815D02*
X64709943Y-50525434D01*
X64709943Y-50525434D02*
X64757562Y-50620672D01*
X64757562Y-50620672D02*
X64757562Y-51001624D01*
X64662324Y-49858767D02*
X64614705Y-49954005D01*
X64614705Y-49954005D02*
X64567086Y-50001624D01*
X64567086Y-50001624D02*
X64471848Y-50049243D01*
X64471848Y-50049243D02*
X64424229Y-50049243D01*
X64424229Y-50049243D02*
X64328991Y-50001624D01*
X64328991Y-50001624D02*
X64281372Y-49954005D01*
X64281372Y-49954005D02*
X64233753Y-49858767D01*
X64233753Y-49858767D02*
X64233753Y-49668291D01*
X64233753Y-49668291D02*
X64281372Y-49573053D01*
X64281372Y-49573053D02*
X64328991Y-49525434D01*
X64328991Y-49525434D02*
X64424229Y-49477815D01*
X64424229Y-49477815D02*
X64471848Y-49477815D01*
X64471848Y-49477815D02*
X64567086Y-49525434D01*
X64567086Y-49525434D02*
X64614705Y-49573053D01*
X64614705Y-49573053D02*
X64662324Y-49668291D01*
X64662324Y-49668291D02*
X64662324Y-49858767D01*
X64662324Y-49858767D02*
X64709943Y-49954005D01*
X64709943Y-49954005D02*
X64757562Y-50001624D01*
X64757562Y-50001624D02*
X64852800Y-50049243D01*
X64852800Y-50049243D02*
X65043276Y-50049243D01*
X65043276Y-50049243D02*
X65138514Y-50001624D01*
X65138514Y-50001624D02*
X65186134Y-49954005D01*
X65186134Y-49954005D02*
X65233753Y-49858767D01*
X65233753Y-49858767D02*
X65233753Y-49668291D01*
X65233753Y-49668291D02*
X65186134Y-49573053D01*
X65186134Y-49573053D02*
X65138514Y-49525434D01*
X65138514Y-49525434D02*
X65043276Y-49477815D01*
X65043276Y-49477815D02*
X64852800Y-49477815D01*
X64852800Y-49477815D02*
X64757562Y-49525434D01*
X64757562Y-49525434D02*
X64709943Y-49573053D01*
X64709943Y-49573053D02*
X64662324Y-49668291D01*
X57417298Y-50402065D02*
X56941107Y-50735398D01*
X57417298Y-50973493D02*
X56417298Y-50973493D01*
X56417298Y-50973493D02*
X56417298Y-50592541D01*
X56417298Y-50592541D02*
X56464917Y-50497303D01*
X56464917Y-50497303D02*
X56512536Y-50449684D01*
X56512536Y-50449684D02*
X56607774Y-50402065D01*
X56607774Y-50402065D02*
X56750631Y-50402065D01*
X56750631Y-50402065D02*
X56845869Y-50449684D01*
X56845869Y-50449684D02*
X56893488Y-50497303D01*
X56893488Y-50497303D02*
X56941107Y-50592541D01*
X56941107Y-50592541D02*
X56941107Y-50973493D01*
X56417298Y-49497303D02*
X56417298Y-49973493D01*
X56417298Y-49973493D02*
X56893488Y-50021112D01*
X56893488Y-50021112D02*
X56845869Y-49973493D01*
X56845869Y-49973493D02*
X56798250Y-49878255D01*
X56798250Y-49878255D02*
X56798250Y-49640160D01*
X56798250Y-49640160D02*
X56845869Y-49544922D01*
X56845869Y-49544922D02*
X56893488Y-49497303D01*
X56893488Y-49497303D02*
X56988726Y-49449684D01*
X56988726Y-49449684D02*
X57226821Y-49449684D01*
X57226821Y-49449684D02*
X57322059Y-49497303D01*
X57322059Y-49497303D02*
X57369679Y-49544922D01*
X57369679Y-49544922D02*
X57417298Y-49640160D01*
X57417298Y-49640160D02*
X57417298Y-49878255D01*
X57417298Y-49878255D02*
X57369679Y-49973493D01*
X57369679Y-49973493D02*
X57322059Y-50021112D01*
X57335920Y-69958327D02*
X56859729Y-70291660D01*
X57335920Y-70529755D02*
X56335920Y-70529755D01*
X56335920Y-70529755D02*
X56335920Y-70148803D01*
X56335920Y-70148803D02*
X56383539Y-70053565D01*
X56383539Y-70053565D02*
X56431158Y-70005946D01*
X56431158Y-70005946D02*
X56526396Y-69958327D01*
X56526396Y-69958327D02*
X56669253Y-69958327D01*
X56669253Y-69958327D02*
X56764491Y-70005946D01*
X56764491Y-70005946D02*
X56812110Y-70053565D01*
X56812110Y-70053565D02*
X56859729Y-70148803D01*
X56859729Y-70148803D02*
X56859729Y-70529755D01*
X56669253Y-69101184D02*
X57335920Y-69101184D01*
X56288301Y-69339279D02*
X57002586Y-69577374D01*
X57002586Y-69577374D02*
X57002586Y-68958327D01*
X144263095Y-49704819D02*
X144263095Y-48704819D01*
X144263095Y-49181009D02*
X144834523Y-49181009D01*
X144834523Y-49704819D02*
X144834523Y-48704819D01*
X145215476Y-48704819D02*
X145882142Y-48704819D01*
X145882142Y-48704819D02*
X145453571Y-49704819D01*
X203761905Y-62954819D02*
X203761905Y-61954819D01*
X203761905Y-62431009D02*
X204333333Y-62431009D01*
X204333333Y-62954819D02*
X204333333Y-61954819D01*
X205333333Y-62954819D02*
X204761905Y-62954819D01*
X205047619Y-62954819D02*
X205047619Y-61954819D01*
X205047619Y-61954819D02*
X204952381Y-62097676D01*
X204952381Y-62097676D02*
X204857143Y-62192914D01*
X204857143Y-62192914D02*
X204761905Y-62240533D01*
X205952381Y-61954819D02*
X206047619Y-61954819D01*
X206047619Y-61954819D02*
X206142857Y-62002438D01*
X206142857Y-62002438D02*
X206190476Y-62050057D01*
X206190476Y-62050057D02*
X206238095Y-62145295D01*
X206238095Y-62145295D02*
X206285714Y-62335771D01*
X206285714Y-62335771D02*
X206285714Y-62573866D01*
X206285714Y-62573866D02*
X206238095Y-62764342D01*
X206238095Y-62764342D02*
X206190476Y-62859580D01*
X206190476Y-62859580D02*
X206142857Y-62907200D01*
X206142857Y-62907200D02*
X206047619Y-62954819D01*
X206047619Y-62954819D02*
X205952381Y-62954819D01*
X205952381Y-62954819D02*
X205857143Y-62907200D01*
X205857143Y-62907200D02*
X205809524Y-62859580D01*
X205809524Y-62859580D02*
X205761905Y-62764342D01*
X205761905Y-62764342D02*
X205714286Y-62573866D01*
X205714286Y-62573866D02*
X205714286Y-62335771D01*
X205714286Y-62335771D02*
X205761905Y-62145295D01*
X205761905Y-62145295D02*
X205809524Y-62050057D01*
X205809524Y-62050057D02*
X205857143Y-62002438D01*
X205857143Y-62002438D02*
X205952381Y-61954819D01*
X54274442Y-50402065D02*
X53798251Y-50735398D01*
X54274442Y-50973493D02*
X53274442Y-50973493D01*
X53274442Y-50973493D02*
X53274442Y-50592541D01*
X53274442Y-50592541D02*
X53322061Y-50497303D01*
X53322061Y-50497303D02*
X53369680Y-50449684D01*
X53369680Y-50449684D02*
X53464918Y-50402065D01*
X53464918Y-50402065D02*
X53607775Y-50402065D01*
X53607775Y-50402065D02*
X53703013Y-50449684D01*
X53703013Y-50449684D02*
X53750632Y-50497303D01*
X53750632Y-50497303D02*
X53798251Y-50592541D01*
X53798251Y-50592541D02*
X53798251Y-50973493D01*
X53274442Y-49544922D02*
X53274442Y-49735398D01*
X53274442Y-49735398D02*
X53322061Y-49830636D01*
X53322061Y-49830636D02*
X53369680Y-49878255D01*
X53369680Y-49878255D02*
X53512537Y-49973493D01*
X53512537Y-49973493D02*
X53703013Y-50021112D01*
X53703013Y-50021112D02*
X54083965Y-50021112D01*
X54083965Y-50021112D02*
X54179203Y-49973493D01*
X54179203Y-49973493D02*
X54226823Y-49925874D01*
X54226823Y-49925874D02*
X54274442Y-49830636D01*
X54274442Y-49830636D02*
X54274442Y-49640160D01*
X54274442Y-49640160D02*
X54226823Y-49544922D01*
X54226823Y-49544922D02*
X54179203Y-49497303D01*
X54179203Y-49497303D02*
X54083965Y-49449684D01*
X54083965Y-49449684D02*
X53845870Y-49449684D01*
X53845870Y-49449684D02*
X53750632Y-49497303D01*
X53750632Y-49497303D02*
X53703013Y-49544922D01*
X53703013Y-49544922D02*
X53655394Y-49640160D01*
X53655394Y-49640160D02*
X53655394Y-49830636D01*
X53655394Y-49830636D02*
X53703013Y-49925874D01*
X53703013Y-49925874D02*
X53750632Y-49973493D01*
X53750632Y-49973493D02*
X53845870Y-50021112D01*
X63080643Y-70141231D02*
X63128262Y-69998374D01*
X63128262Y-69998374D02*
X63175881Y-69950755D01*
X63175881Y-69950755D02*
X63271119Y-69903136D01*
X63271119Y-69903136D02*
X63413976Y-69903136D01*
X63413976Y-69903136D02*
X63509214Y-69950755D01*
X63509214Y-69950755D02*
X63556834Y-69998374D01*
X63556834Y-69998374D02*
X63604453Y-70093612D01*
X63604453Y-70093612D02*
X63604453Y-70474564D01*
X63604453Y-70474564D02*
X62604453Y-70474564D01*
X62604453Y-70474564D02*
X62604453Y-70141231D01*
X62604453Y-70141231D02*
X62652072Y-70045993D01*
X62652072Y-70045993D02*
X62699691Y-69998374D01*
X62699691Y-69998374D02*
X62794929Y-69950755D01*
X62794929Y-69950755D02*
X62890167Y-69950755D01*
X62890167Y-69950755D02*
X62985405Y-69998374D01*
X62985405Y-69998374D02*
X63033024Y-70045993D01*
X63033024Y-70045993D02*
X63080643Y-70141231D01*
X63080643Y-70141231D02*
X63080643Y-70474564D01*
X63604453Y-68950755D02*
X63604453Y-69522183D01*
X63604453Y-69236469D02*
X62604453Y-69236469D01*
X62604453Y-69236469D02*
X62747310Y-69331707D01*
X62747310Y-69331707D02*
X62842548Y-69426945D01*
X62842548Y-69426945D02*
X62890167Y-69522183D01*
X63138511Y-50668291D02*
X63186130Y-50525434D01*
X63186130Y-50525434D02*
X63233749Y-50477815D01*
X63233749Y-50477815D02*
X63328987Y-50430196D01*
X63328987Y-50430196D02*
X63471844Y-50430196D01*
X63471844Y-50430196D02*
X63567082Y-50477815D01*
X63567082Y-50477815D02*
X63614702Y-50525434D01*
X63614702Y-50525434D02*
X63662321Y-50620672D01*
X63662321Y-50620672D02*
X63662321Y-51001624D01*
X63662321Y-51001624D02*
X62662321Y-51001624D01*
X62662321Y-51001624D02*
X62662321Y-50668291D01*
X62662321Y-50668291D02*
X62709940Y-50573053D01*
X62709940Y-50573053D02*
X62757559Y-50525434D01*
X62757559Y-50525434D02*
X62852797Y-50477815D01*
X62852797Y-50477815D02*
X62948035Y-50477815D01*
X62948035Y-50477815D02*
X63043273Y-50525434D01*
X63043273Y-50525434D02*
X63090892Y-50573053D01*
X63090892Y-50573053D02*
X63138511Y-50668291D01*
X63138511Y-50668291D02*
X63138511Y-51001624D01*
X63090892Y-49858767D02*
X63043273Y-49954005D01*
X63043273Y-49954005D02*
X62995654Y-50001624D01*
X62995654Y-50001624D02*
X62900416Y-50049243D01*
X62900416Y-50049243D02*
X62852797Y-50049243D01*
X62852797Y-50049243D02*
X62757559Y-50001624D01*
X62757559Y-50001624D02*
X62709940Y-49954005D01*
X62709940Y-49954005D02*
X62662321Y-49858767D01*
X62662321Y-49858767D02*
X62662321Y-49668291D01*
X62662321Y-49668291D02*
X62709940Y-49573053D01*
X62709940Y-49573053D02*
X62757559Y-49525434D01*
X62757559Y-49525434D02*
X62852797Y-49477815D01*
X62852797Y-49477815D02*
X62900416Y-49477815D01*
X62900416Y-49477815D02*
X62995654Y-49525434D01*
X62995654Y-49525434D02*
X63043273Y-49573053D01*
X63043273Y-49573053D02*
X63090892Y-49668291D01*
X63090892Y-49668291D02*
X63090892Y-49858767D01*
X63090892Y-49858767D02*
X63138511Y-49954005D01*
X63138511Y-49954005D02*
X63186130Y-50001624D01*
X63186130Y-50001624D02*
X63281368Y-50049243D01*
X63281368Y-50049243D02*
X63471844Y-50049243D01*
X63471844Y-50049243D02*
X63567082Y-50001624D01*
X63567082Y-50001624D02*
X63614702Y-49954005D01*
X63614702Y-49954005D02*
X63662321Y-49858767D01*
X63662321Y-49858767D02*
X63662321Y-49668291D01*
X63662321Y-49668291D02*
X63614702Y-49573053D01*
X63614702Y-49573053D02*
X63567082Y-49525434D01*
X63567082Y-49525434D02*
X63471844Y-49477815D01*
X63471844Y-49477815D02*
X63281368Y-49477815D01*
X63281368Y-49477815D02*
X63186130Y-49525434D01*
X63186130Y-49525434D02*
X63138511Y-49573053D01*
X63138511Y-49573053D02*
X63090892Y-49668291D01*
X59995655Y-50668291D02*
X60043274Y-50525434D01*
X60043274Y-50525434D02*
X60090893Y-50477815D01*
X60090893Y-50477815D02*
X60186131Y-50430196D01*
X60186131Y-50430196D02*
X60328988Y-50430196D01*
X60328988Y-50430196D02*
X60424226Y-50477815D01*
X60424226Y-50477815D02*
X60471846Y-50525434D01*
X60471846Y-50525434D02*
X60519465Y-50620672D01*
X60519465Y-50620672D02*
X60519465Y-51001624D01*
X60519465Y-51001624D02*
X59519465Y-51001624D01*
X59519465Y-51001624D02*
X59519465Y-50668291D01*
X59519465Y-50668291D02*
X59567084Y-50573053D01*
X59567084Y-50573053D02*
X59614703Y-50525434D01*
X59614703Y-50525434D02*
X59709941Y-50477815D01*
X59709941Y-50477815D02*
X59805179Y-50477815D01*
X59805179Y-50477815D02*
X59900417Y-50525434D01*
X59900417Y-50525434D02*
X59948036Y-50573053D01*
X59948036Y-50573053D02*
X59995655Y-50668291D01*
X59995655Y-50668291D02*
X59995655Y-51001624D01*
X59519465Y-50096862D02*
X59519465Y-49430196D01*
X59519465Y-49430196D02*
X60519465Y-49858767D01*
X58383538Y-70196422D02*
X58431157Y-70053565D01*
X58431157Y-70053565D02*
X58478776Y-70005946D01*
X58478776Y-70005946D02*
X58574014Y-69958327D01*
X58574014Y-69958327D02*
X58716871Y-69958327D01*
X58716871Y-69958327D02*
X58812109Y-70005946D01*
X58812109Y-70005946D02*
X58859729Y-70053565D01*
X58859729Y-70053565D02*
X58907348Y-70148803D01*
X58907348Y-70148803D02*
X58907348Y-70529755D01*
X58907348Y-70529755D02*
X57907348Y-70529755D01*
X57907348Y-70529755D02*
X57907348Y-70196422D01*
X57907348Y-70196422D02*
X57954967Y-70101184D01*
X57954967Y-70101184D02*
X58002586Y-70053565D01*
X58002586Y-70053565D02*
X58097824Y-70005946D01*
X58097824Y-70005946D02*
X58193062Y-70005946D01*
X58193062Y-70005946D02*
X58288300Y-70053565D01*
X58288300Y-70053565D02*
X58335919Y-70101184D01*
X58335919Y-70101184D02*
X58383538Y-70196422D01*
X58383538Y-70196422D02*
X58383538Y-70529755D01*
X58240681Y-69101184D02*
X58907348Y-69101184D01*
X57859729Y-69339279D02*
X58574014Y-69577374D01*
X58574014Y-69577374D02*
X58574014Y-68958327D01*
X65175885Y-69903136D02*
X64699694Y-70236469D01*
X65175885Y-70474564D02*
X64175885Y-70474564D01*
X64175885Y-70474564D02*
X64175885Y-70093612D01*
X64175885Y-70093612D02*
X64223504Y-69998374D01*
X64223504Y-69998374D02*
X64271123Y-69950755D01*
X64271123Y-69950755D02*
X64366361Y-69903136D01*
X64366361Y-69903136D02*
X64509218Y-69903136D01*
X64509218Y-69903136D02*
X64604456Y-69950755D01*
X64604456Y-69950755D02*
X64652075Y-69998374D01*
X64652075Y-69998374D02*
X64699694Y-70093612D01*
X64699694Y-70093612D02*
X64699694Y-70474564D01*
X65175885Y-68950755D02*
X65175885Y-69522183D01*
X65175885Y-69236469D02*
X64175885Y-69236469D01*
X64175885Y-69236469D02*
X64318742Y-69331707D01*
X64318742Y-69331707D02*
X64413980Y-69426945D01*
X64413980Y-69426945D02*
X64461599Y-69522183D01*
X54216574Y-69875005D02*
X53740383Y-70208338D01*
X54216574Y-70446433D02*
X53216574Y-70446433D01*
X53216574Y-70446433D02*
X53216574Y-70065481D01*
X53216574Y-70065481D02*
X53264193Y-69970243D01*
X53264193Y-69970243D02*
X53311812Y-69922624D01*
X53311812Y-69922624D02*
X53407050Y-69875005D01*
X53407050Y-69875005D02*
X53549907Y-69875005D01*
X53549907Y-69875005D02*
X53645145Y-69922624D01*
X53645145Y-69922624D02*
X53692764Y-69970243D01*
X53692764Y-69970243D02*
X53740383Y-70065481D01*
X53740383Y-70065481D02*
X53740383Y-70446433D01*
X53216574Y-69541671D02*
X53216574Y-68922624D01*
X53216574Y-68922624D02*
X53597526Y-69255957D01*
X53597526Y-69255957D02*
X53597526Y-69113100D01*
X53597526Y-69113100D02*
X53645145Y-69017862D01*
X53645145Y-69017862D02*
X53692764Y-68970243D01*
X53692764Y-68970243D02*
X53788002Y-68922624D01*
X53788002Y-68922624D02*
X54026097Y-68922624D01*
X54026097Y-68922624D02*
X54121335Y-68970243D01*
X54121335Y-68970243D02*
X54168955Y-69017862D01*
X54168955Y-69017862D02*
X54216574Y-69113100D01*
X54216574Y-69113100D02*
X54216574Y-69398814D01*
X54216574Y-69398814D02*
X54168955Y-69494052D01*
X54168955Y-69494052D02*
X54121335Y-69541671D01*
X59937787Y-70141231D02*
X59985406Y-69998374D01*
X59985406Y-69998374D02*
X60033025Y-69950755D01*
X60033025Y-69950755D02*
X60128263Y-69903136D01*
X60128263Y-69903136D02*
X60271120Y-69903136D01*
X60271120Y-69903136D02*
X60366358Y-69950755D01*
X60366358Y-69950755D02*
X60413978Y-69998374D01*
X60413978Y-69998374D02*
X60461597Y-70093612D01*
X60461597Y-70093612D02*
X60461597Y-70474564D01*
X60461597Y-70474564D02*
X59461597Y-70474564D01*
X59461597Y-70474564D02*
X59461597Y-70141231D01*
X59461597Y-70141231D02*
X59509216Y-70045993D01*
X59509216Y-70045993D02*
X59556835Y-69998374D01*
X59556835Y-69998374D02*
X59652073Y-69950755D01*
X59652073Y-69950755D02*
X59747311Y-69950755D01*
X59747311Y-69950755D02*
X59842549Y-69998374D01*
X59842549Y-69998374D02*
X59890168Y-70045993D01*
X59890168Y-70045993D02*
X59937787Y-70141231D01*
X59937787Y-70141231D02*
X59937787Y-70474564D01*
X59556835Y-69522183D02*
X59509216Y-69474564D01*
X59509216Y-69474564D02*
X59461597Y-69379326D01*
X59461597Y-69379326D02*
X59461597Y-69141231D01*
X59461597Y-69141231D02*
X59509216Y-69045993D01*
X59509216Y-69045993D02*
X59556835Y-68998374D01*
X59556835Y-68998374D02*
X59652073Y-68950755D01*
X59652073Y-68950755D02*
X59747311Y-68950755D01*
X59747311Y-68950755D02*
X59890168Y-68998374D01*
X59890168Y-68998374D02*
X60461597Y-69569802D01*
X60461597Y-69569802D02*
X60461597Y-68950755D01*
X62090893Y-50430196D02*
X61614702Y-50763529D01*
X62090893Y-51001624D02*
X61090893Y-51001624D01*
X61090893Y-51001624D02*
X61090893Y-50620672D01*
X61090893Y-50620672D02*
X61138512Y-50525434D01*
X61138512Y-50525434D02*
X61186131Y-50477815D01*
X61186131Y-50477815D02*
X61281369Y-50430196D01*
X61281369Y-50430196D02*
X61424226Y-50430196D01*
X61424226Y-50430196D02*
X61519464Y-50477815D01*
X61519464Y-50477815D02*
X61567083Y-50525434D01*
X61567083Y-50525434D02*
X61614702Y-50620672D01*
X61614702Y-50620672D02*
X61614702Y-51001624D01*
X61090893Y-50096862D02*
X61090893Y-49430196D01*
X61090893Y-49430196D02*
X62090893Y-49858767D01*
X244263095Y-65704819D02*
X244263095Y-64704819D01*
X244263095Y-65181009D02*
X244834523Y-65181009D01*
X244834523Y-65704819D02*
X244834523Y-64704819D01*
X245739285Y-64704819D02*
X245548809Y-64704819D01*
X245548809Y-64704819D02*
X245453571Y-64752438D01*
X245453571Y-64752438D02*
X245405952Y-64800057D01*
X245405952Y-64800057D02*
X245310714Y-64942914D01*
X245310714Y-64942914D02*
X245263095Y-65133390D01*
X245263095Y-65133390D02*
X245263095Y-65514342D01*
X245263095Y-65514342D02*
X245310714Y-65609580D01*
X245310714Y-65609580D02*
X245358333Y-65657200D01*
X245358333Y-65657200D02*
X245453571Y-65704819D01*
X245453571Y-65704819D02*
X245644047Y-65704819D01*
X245644047Y-65704819D02*
X245739285Y-65657200D01*
X245739285Y-65657200D02*
X245786904Y-65609580D01*
X245786904Y-65609580D02*
X245834523Y-65514342D01*
X245834523Y-65514342D02*
X245834523Y-65276247D01*
X245834523Y-65276247D02*
X245786904Y-65181009D01*
X245786904Y-65181009D02*
X245739285Y-65133390D01*
X245739285Y-65133390D02*
X245644047Y-65085771D01*
X245644047Y-65085771D02*
X245453571Y-65085771D01*
X245453571Y-65085771D02*
X245358333Y-65133390D01*
X245358333Y-65133390D02*
X245310714Y-65181009D01*
X245310714Y-65181009D02*
X245263095Y-65276247D01*
X62033025Y-69903136D02*
X61556834Y-70236469D01*
X62033025Y-70474564D02*
X61033025Y-70474564D01*
X61033025Y-70474564D02*
X61033025Y-70093612D01*
X61033025Y-70093612D02*
X61080644Y-69998374D01*
X61080644Y-69998374D02*
X61128263Y-69950755D01*
X61128263Y-69950755D02*
X61223501Y-69903136D01*
X61223501Y-69903136D02*
X61366358Y-69903136D01*
X61366358Y-69903136D02*
X61461596Y-69950755D01*
X61461596Y-69950755D02*
X61509215Y-69998374D01*
X61509215Y-69998374D02*
X61556834Y-70093612D01*
X61556834Y-70093612D02*
X61556834Y-70474564D01*
X61128263Y-69522183D02*
X61080644Y-69474564D01*
X61080644Y-69474564D02*
X61033025Y-69379326D01*
X61033025Y-69379326D02*
X61033025Y-69141231D01*
X61033025Y-69141231D02*
X61080644Y-69045993D01*
X61080644Y-69045993D02*
X61128263Y-68998374D01*
X61128263Y-68998374D02*
X61223501Y-68950755D01*
X61223501Y-68950755D02*
X61318739Y-68950755D01*
X61318739Y-68950755D02*
X61461596Y-68998374D01*
X61461596Y-68998374D02*
X62033025Y-69569802D01*
X62033025Y-69569802D02*
X62033025Y-68950755D01*
X124238095Y-44954819D02*
X124238095Y-43954819D01*
X124238095Y-44431009D02*
X124809523Y-44431009D01*
X124809523Y-44954819D02*
X124809523Y-43954819D01*
X125333333Y-44954819D02*
X125523809Y-44954819D01*
X125523809Y-44954819D02*
X125619047Y-44907200D01*
X125619047Y-44907200D02*
X125666666Y-44859580D01*
X125666666Y-44859580D02*
X125761904Y-44716723D01*
X125761904Y-44716723D02*
X125809523Y-44526247D01*
X125809523Y-44526247D02*
X125809523Y-44145295D01*
X125809523Y-44145295D02*
X125761904Y-44050057D01*
X125761904Y-44050057D02*
X125714285Y-44002438D01*
X125714285Y-44002438D02*
X125619047Y-43954819D01*
X125619047Y-43954819D02*
X125428571Y-43954819D01*
X125428571Y-43954819D02*
X125333333Y-44002438D01*
X125333333Y-44002438D02*
X125285714Y-44050057D01*
X125285714Y-44050057D02*
X125238095Y-44145295D01*
X125238095Y-44145295D02*
X125238095Y-44383390D01*
X125238095Y-44383390D02*
X125285714Y-44478628D01*
X125285714Y-44478628D02*
X125333333Y-44526247D01*
X125333333Y-44526247D02*
X125428571Y-44573866D01*
X125428571Y-44573866D02*
X125619047Y-44573866D01*
X125619047Y-44573866D02*
X125714285Y-44526247D01*
X125714285Y-44526247D02*
X125761904Y-44478628D01*
X125761904Y-44478628D02*
X125809523Y-44383390D01*
X144263095Y-65704819D02*
X144263095Y-64704819D01*
X144263095Y-65181009D02*
X144834523Y-65181009D01*
X144834523Y-65704819D02*
X144834523Y-64704819D01*
X145786904Y-64704819D02*
X145310714Y-64704819D01*
X145310714Y-64704819D02*
X145263095Y-65181009D01*
X145263095Y-65181009D02*
X145310714Y-65133390D01*
X145310714Y-65133390D02*
X145405952Y-65085771D01*
X145405952Y-65085771D02*
X145644047Y-65085771D01*
X145644047Y-65085771D02*
X145739285Y-65133390D01*
X145739285Y-65133390D02*
X145786904Y-65181009D01*
X145786904Y-65181009D02*
X145834523Y-65276247D01*
X145834523Y-65276247D02*
X145834523Y-65514342D01*
X145834523Y-65514342D02*
X145786904Y-65609580D01*
X145786904Y-65609580D02*
X145739285Y-65657200D01*
X145739285Y-65657200D02*
X145644047Y-65704819D01*
X145644047Y-65704819D02*
X145405952Y-65704819D01*
X145405952Y-65704819D02*
X145310714Y-65657200D01*
X145310714Y-65657200D02*
X145263095Y-65609580D01*
X58464916Y-50640160D02*
X58512535Y-50497303D01*
X58512535Y-50497303D02*
X58560154Y-50449684D01*
X58560154Y-50449684D02*
X58655392Y-50402065D01*
X58655392Y-50402065D02*
X58798249Y-50402065D01*
X58798249Y-50402065D02*
X58893487Y-50449684D01*
X58893487Y-50449684D02*
X58941107Y-50497303D01*
X58941107Y-50497303D02*
X58988726Y-50592541D01*
X58988726Y-50592541D02*
X58988726Y-50973493D01*
X58988726Y-50973493D02*
X57988726Y-50973493D01*
X57988726Y-50973493D02*
X57988726Y-50640160D01*
X57988726Y-50640160D02*
X58036345Y-50544922D01*
X58036345Y-50544922D02*
X58083964Y-50497303D01*
X58083964Y-50497303D02*
X58179202Y-50449684D01*
X58179202Y-50449684D02*
X58274440Y-50449684D01*
X58274440Y-50449684D02*
X58369678Y-50497303D01*
X58369678Y-50497303D02*
X58417297Y-50544922D01*
X58417297Y-50544922D02*
X58464916Y-50640160D01*
X58464916Y-50640160D02*
X58464916Y-50973493D01*
X57988726Y-49497303D02*
X57988726Y-49973493D01*
X57988726Y-49973493D02*
X58464916Y-50021112D01*
X58464916Y-50021112D02*
X58417297Y-49973493D01*
X58417297Y-49973493D02*
X58369678Y-49878255D01*
X58369678Y-49878255D02*
X58369678Y-49640160D01*
X58369678Y-49640160D02*
X58417297Y-49544922D01*
X58417297Y-49544922D02*
X58464916Y-49497303D01*
X58464916Y-49497303D02*
X58560154Y-49449684D01*
X58560154Y-49449684D02*
X58798249Y-49449684D01*
X58798249Y-49449684D02*
X58893487Y-49497303D01*
X58893487Y-49497303D02*
X58941107Y-49544922D01*
X58941107Y-49544922D02*
X58988726Y-49640160D01*
X58988726Y-49640160D02*
X58988726Y-49878255D01*
X58988726Y-49878255D02*
X58941107Y-49973493D01*
X58941107Y-49973493D02*
X58893487Y-50021112D01*
X55240682Y-70196422D02*
X55288301Y-70053565D01*
X55288301Y-70053565D02*
X55335920Y-70005946D01*
X55335920Y-70005946D02*
X55431158Y-69958327D01*
X55431158Y-69958327D02*
X55574015Y-69958327D01*
X55574015Y-69958327D02*
X55669253Y-70005946D01*
X55669253Y-70005946D02*
X55716873Y-70053565D01*
X55716873Y-70053565D02*
X55764492Y-70148803D01*
X55764492Y-70148803D02*
X55764492Y-70529755D01*
X55764492Y-70529755D02*
X54764492Y-70529755D01*
X54764492Y-70529755D02*
X54764492Y-70196422D01*
X54764492Y-70196422D02*
X54812111Y-70101184D01*
X54812111Y-70101184D02*
X54859730Y-70053565D01*
X54859730Y-70053565D02*
X54954968Y-70005946D01*
X54954968Y-70005946D02*
X55050206Y-70005946D01*
X55050206Y-70005946D02*
X55145444Y-70053565D01*
X55145444Y-70053565D02*
X55193063Y-70101184D01*
X55193063Y-70101184D02*
X55240682Y-70196422D01*
X55240682Y-70196422D02*
X55240682Y-70529755D01*
X54764492Y-69624993D02*
X54764492Y-69005946D01*
X54764492Y-69005946D02*
X55145444Y-69339279D01*
X55145444Y-69339279D02*
X55145444Y-69196422D01*
X55145444Y-69196422D02*
X55193063Y-69101184D01*
X55193063Y-69101184D02*
X55240682Y-69053565D01*
X55240682Y-69053565D02*
X55335920Y-69005946D01*
X55335920Y-69005946D02*
X55574015Y-69005946D01*
X55574015Y-69005946D02*
X55669253Y-69053565D01*
X55669253Y-69053565D02*
X55716873Y-69101184D01*
X55716873Y-69101184D02*
X55764492Y-69196422D01*
X55764492Y-69196422D02*
X55764492Y-69482136D01*
X55764492Y-69482136D02*
X55716873Y-69577374D01*
X55716873Y-69577374D02*
X55669253Y-69624993D01*
X83834819Y-68448333D02*
X84549104Y-68448333D01*
X84549104Y-68448333D02*
X84691961Y-68495952D01*
X84691961Y-68495952D02*
X84787200Y-68591190D01*
X84787200Y-68591190D02*
X84834819Y-68734047D01*
X84834819Y-68734047D02*
X84834819Y-68829285D01*
X84168152Y-67543571D02*
X84834819Y-67543571D01*
X83787200Y-67781666D02*
X84501485Y-68019761D01*
X84501485Y-68019761D02*
X84501485Y-67400714D01*
X94279819Y-68258333D02*
X94994104Y-68258333D01*
X94994104Y-68258333D02*
X95136961Y-68305952D01*
X95136961Y-68305952D02*
X95232200Y-68401190D01*
X95232200Y-68401190D02*
X95279819Y-68544047D01*
X95279819Y-68544047D02*
X95279819Y-68639285D01*
X94279819Y-67877380D02*
X94279819Y-67258333D01*
X94279819Y-67258333D02*
X94660771Y-67591666D01*
X94660771Y-67591666D02*
X94660771Y-67448809D01*
X94660771Y-67448809D02*
X94708390Y-67353571D01*
X94708390Y-67353571D02*
X94756009Y-67305952D01*
X94756009Y-67305952D02*
X94851247Y-67258333D01*
X94851247Y-67258333D02*
X95089342Y-67258333D01*
X95089342Y-67258333D02*
X95184580Y-67305952D01*
X95184580Y-67305952D02*
X95232200Y-67353571D01*
X95232200Y-67353571D02*
X95279819Y-67448809D01*
X95279819Y-67448809D02*
X95279819Y-67734523D01*
X95279819Y-67734523D02*
X95232200Y-67829761D01*
X95232200Y-67829761D02*
X95184580Y-67877380D01*
X244263095Y-49704819D02*
X244263095Y-48704819D01*
X244263095Y-49181009D02*
X244834523Y-49181009D01*
X244834523Y-49704819D02*
X244834523Y-48704819D01*
X245453571Y-49133390D02*
X245358333Y-49085771D01*
X245358333Y-49085771D02*
X245310714Y-49038152D01*
X245310714Y-49038152D02*
X245263095Y-48942914D01*
X245263095Y-48942914D02*
X245263095Y-48895295D01*
X245263095Y-48895295D02*
X245310714Y-48800057D01*
X245310714Y-48800057D02*
X245358333Y-48752438D01*
X245358333Y-48752438D02*
X245453571Y-48704819D01*
X245453571Y-48704819D02*
X245644047Y-48704819D01*
X245644047Y-48704819D02*
X245739285Y-48752438D01*
X245739285Y-48752438D02*
X245786904Y-48800057D01*
X245786904Y-48800057D02*
X245834523Y-48895295D01*
X245834523Y-48895295D02*
X245834523Y-48942914D01*
X245834523Y-48942914D02*
X245786904Y-49038152D01*
X245786904Y-49038152D02*
X245739285Y-49085771D01*
X245739285Y-49085771D02*
X245644047Y-49133390D01*
X245644047Y-49133390D02*
X245453571Y-49133390D01*
X245453571Y-49133390D02*
X245358333Y-49181009D01*
X245358333Y-49181009D02*
X245310714Y-49228628D01*
X245310714Y-49228628D02*
X245263095Y-49323866D01*
X245263095Y-49323866D02*
X245263095Y-49514342D01*
X245263095Y-49514342D02*
X245310714Y-49609580D01*
X245310714Y-49609580D02*
X245358333Y-49657200D01*
X245358333Y-49657200D02*
X245453571Y-49704819D01*
X245453571Y-49704819D02*
X245644047Y-49704819D01*
X245644047Y-49704819D02*
X245739285Y-49657200D01*
X245739285Y-49657200D02*
X245786904Y-49609580D01*
X245786904Y-49609580D02*
X245834523Y-49514342D01*
X245834523Y-49514342D02*
X245834523Y-49323866D01*
X245834523Y-49323866D02*
X245786904Y-49228628D01*
X245786904Y-49228628D02*
X245739285Y-49181009D01*
X245739285Y-49181009D02*
X245644047Y-49133390D01*
D12*
%TO.C,G\u002A\u002A\u002A*%
X260625400Y-55851400D02*
X247900000Y-55851400D01*
X247900000Y-50876372D01*
X248125838Y-50876372D01*
X248125882Y-51294934D01*
X248126175Y-51711398D01*
X248126718Y-52122652D01*
X248127510Y-52525584D01*
X248128551Y-52917083D01*
X248129843Y-53294037D01*
X248131383Y-53653334D01*
X248133174Y-53991862D01*
X248135213Y-54306511D01*
X248137503Y-54594169D01*
X248140042Y-54851723D01*
X248142830Y-55076062D01*
X248145868Y-55264075D01*
X248149156Y-55412650D01*
X248152693Y-55518674D01*
X248156479Y-55579038D01*
X248159079Y-55592320D01*
X248173429Y-55595769D01*
X248210331Y-55598971D01*
X248271292Y-55601932D01*
X248357819Y-55604660D01*
X248471419Y-55607164D01*
X248613598Y-55609449D01*
X248785863Y-55611525D01*
X248989722Y-55613397D01*
X249226681Y-55615075D01*
X249498247Y-55616565D01*
X249805926Y-55617874D01*
X250151226Y-55619011D01*
X250535653Y-55619983D01*
X250960715Y-55620798D01*
X251427917Y-55621462D01*
X251938768Y-55621984D01*
X252494773Y-55622371D01*
X253097440Y-55622630D01*
X253748275Y-55622769D01*
X254266339Y-55622800D01*
X260343119Y-55622800D01*
X260382659Y-55566348D01*
X260387620Y-55555564D01*
X260392153Y-55536551D01*
X260396277Y-55507128D01*
X260400012Y-55465112D01*
X260403376Y-55408323D01*
X260406387Y-55334579D01*
X260409067Y-55241699D01*
X260411431Y-55127501D01*
X260413501Y-54989805D01*
X260415295Y-54826427D01*
X260416831Y-54635188D01*
X260418128Y-54413906D01*
X260419206Y-54160399D01*
X260420084Y-53872486D01*
X260420779Y-53547986D01*
X260421312Y-53184717D01*
X260421700Y-52780498D01*
X260421964Y-52333147D01*
X260422121Y-51840483D01*
X260422191Y-51300324D01*
X260422200Y-51002698D01*
X260422174Y-50439335D01*
X260422086Y-49924572D01*
X260421913Y-49456206D01*
X260421635Y-49032037D01*
X260421233Y-48649863D01*
X260420686Y-48307484D01*
X260419974Y-48002698D01*
X260419076Y-47733304D01*
X260417972Y-47497101D01*
X260416642Y-47291888D01*
X260415065Y-47115464D01*
X260413221Y-46965628D01*
X260411090Y-46840178D01*
X260408651Y-46736913D01*
X260405884Y-46653633D01*
X260402769Y-46588136D01*
X260399286Y-46538221D01*
X260395414Y-46501688D01*
X260391132Y-46476334D01*
X260386421Y-46459958D01*
X260381261Y-46450360D01*
X260380163Y-46449050D01*
X260374308Y-46444034D01*
X260364895Y-46439393D01*
X260350020Y-46435112D01*
X260327776Y-46431176D01*
X260296256Y-46427570D01*
X260253555Y-46424281D01*
X260197766Y-46421293D01*
X260126984Y-46418593D01*
X260039302Y-46416165D01*
X259932813Y-46413996D01*
X259805612Y-46412070D01*
X259655793Y-46410374D01*
X259481450Y-46408892D01*
X259280675Y-46407611D01*
X259051564Y-46406516D01*
X258792210Y-46405593D01*
X258500707Y-46404826D01*
X258175148Y-46404202D01*
X257813628Y-46403705D01*
X257414240Y-46403323D01*
X256975079Y-46403039D01*
X256494237Y-46402840D01*
X255969810Y-46402711D01*
X255399890Y-46402638D01*
X254782572Y-46402605D01*
X254263843Y-46402600D01*
X253576219Y-46402654D01*
X252937887Y-46402823D01*
X252347342Y-46403114D01*
X251803075Y-46403535D01*
X251303579Y-46404092D01*
X250847347Y-46404794D01*
X250432873Y-46405648D01*
X250058648Y-46406662D01*
X249723166Y-46407843D01*
X249424920Y-46409198D01*
X249162403Y-46410735D01*
X248934106Y-46412462D01*
X248738525Y-46414387D01*
X248574150Y-46416516D01*
X248439475Y-46418857D01*
X248332993Y-46421418D01*
X248253197Y-46424206D01*
X248198580Y-46427229D01*
X248167634Y-46430495D01*
X248159079Y-46433080D01*
X248155130Y-46462034D01*
X248151431Y-46538677D01*
X248147981Y-46659896D01*
X248144780Y-46822579D01*
X248141829Y-47023615D01*
X248139128Y-47259893D01*
X248136676Y-47528300D01*
X248134474Y-47825725D01*
X248132521Y-48149056D01*
X248130818Y-48495181D01*
X248129364Y-48860990D01*
X248128160Y-49243370D01*
X248127205Y-49639210D01*
X248126500Y-50045398D01*
X248126044Y-50458822D01*
X248125838Y-50876372D01*
X247900000Y-50876372D01*
X247900000Y-46174000D01*
X260625400Y-46174000D01*
X260625400Y-55851400D01*
G36*
X260625400Y-55851400D02*
G01*
X247900000Y-55851400D01*
X247900000Y-50876372D01*
X248125838Y-50876372D01*
X248125882Y-51294934D01*
X248126175Y-51711398D01*
X248126718Y-52122652D01*
X248127510Y-52525584D01*
X248128551Y-52917083D01*
X248129843Y-53294037D01*
X248131383Y-53653334D01*
X248133174Y-53991862D01*
X248135213Y-54306511D01*
X248137503Y-54594169D01*
X248140042Y-54851723D01*
X248142830Y-55076062D01*
X248145868Y-55264075D01*
X248149156Y-55412650D01*
X248152693Y-55518674D01*
X248156479Y-55579038D01*
X248159079Y-55592320D01*
X248173429Y-55595769D01*
X248210331Y-55598971D01*
X248271292Y-55601932D01*
X248357819Y-55604660D01*
X248471419Y-55607164D01*
X248613598Y-55609449D01*
X248785863Y-55611525D01*
X248989722Y-55613397D01*
X249226681Y-55615075D01*
X249498247Y-55616565D01*
X249805926Y-55617874D01*
X250151226Y-55619011D01*
X250535653Y-55619983D01*
X250960715Y-55620798D01*
X251427917Y-55621462D01*
X251938768Y-55621984D01*
X252494773Y-55622371D01*
X253097440Y-55622630D01*
X253748275Y-55622769D01*
X254266339Y-55622800D01*
X260343119Y-55622800D01*
X260382659Y-55566348D01*
X260387620Y-55555564D01*
X260392153Y-55536551D01*
X260396277Y-55507128D01*
X260400012Y-55465112D01*
X260403376Y-55408323D01*
X260406387Y-55334579D01*
X260409067Y-55241699D01*
X260411431Y-55127501D01*
X260413501Y-54989805D01*
X260415295Y-54826427D01*
X260416831Y-54635188D01*
X260418128Y-54413906D01*
X260419206Y-54160399D01*
X260420084Y-53872486D01*
X260420779Y-53547986D01*
X260421312Y-53184717D01*
X260421700Y-52780498D01*
X260421964Y-52333147D01*
X260422121Y-51840483D01*
X260422191Y-51300324D01*
X260422200Y-51002698D01*
X260422174Y-50439335D01*
X260422086Y-49924572D01*
X260421913Y-49456206D01*
X260421635Y-49032037D01*
X260421233Y-48649863D01*
X260420686Y-48307484D01*
X260419974Y-48002698D01*
X260419076Y-47733304D01*
X260417972Y-47497101D01*
X260416642Y-47291888D01*
X260415065Y-47115464D01*
X260413221Y-46965628D01*
X260411090Y-46840178D01*
X260408651Y-46736913D01*
X260405884Y-46653633D01*
X260402769Y-46588136D01*
X260399286Y-46538221D01*
X260395414Y-46501688D01*
X260391132Y-46476334D01*
X260386421Y-46459958D01*
X260381261Y-46450360D01*
X260380163Y-46449050D01*
X260374308Y-46444034D01*
X260364895Y-46439393D01*
X260350020Y-46435112D01*
X260327776Y-46431176D01*
X260296256Y-46427570D01*
X260253555Y-46424281D01*
X260197766Y-46421293D01*
X260126984Y-46418593D01*
X260039302Y-46416165D01*
X259932813Y-46413996D01*
X259805612Y-46412070D01*
X259655793Y-46410374D01*
X259481450Y-46408892D01*
X259280675Y-46407611D01*
X259051564Y-46406516D01*
X258792210Y-46405593D01*
X258500707Y-46404826D01*
X258175148Y-46404202D01*
X257813628Y-46403705D01*
X257414240Y-46403323D01*
X256975079Y-46403039D01*
X256494237Y-46402840D01*
X255969810Y-46402711D01*
X255399890Y-46402638D01*
X254782572Y-46402605D01*
X254263843Y-46402600D01*
X253576219Y-46402654D01*
X252937887Y-46402823D01*
X252347342Y-46403114D01*
X251803075Y-46403535D01*
X251303579Y-46404092D01*
X250847347Y-46404794D01*
X250432873Y-46405648D01*
X250058648Y-46406662D01*
X249723166Y-46407843D01*
X249424920Y-46409198D01*
X249162403Y-46410735D01*
X248934106Y-46412462D01*
X248738525Y-46414387D01*
X248574150Y-46416516D01*
X248439475Y-46418857D01*
X248332993Y-46421418D01*
X248253197Y-46424206D01*
X248198580Y-46427229D01*
X248167634Y-46430495D01*
X248159079Y-46433080D01*
X248155130Y-46462034D01*
X248151431Y-46538677D01*
X248147981Y-46659896D01*
X248144780Y-46822579D01*
X248141829Y-47023615D01*
X248139128Y-47259893D01*
X248136676Y-47528300D01*
X248134474Y-47825725D01*
X248132521Y-48149056D01*
X248130818Y-48495181D01*
X248129364Y-48860990D01*
X248128160Y-49243370D01*
X248127205Y-49639210D01*
X248126500Y-50045398D01*
X248126044Y-50458822D01*
X248125838Y-50876372D01*
X247900000Y-50876372D01*
X247900000Y-46174000D01*
X260625400Y-46174000D01*
X260625400Y-55851400D01*
G37*
X249303350Y-53545449D02*
X249475911Y-53556652D01*
X249605313Y-53575764D01*
X249698929Y-53605480D01*
X249764129Y-53648495D01*
X249808288Y-53707504D01*
X249821103Y-53734727D01*
X249847891Y-53851157D01*
X249834843Y-53963422D01*
X249783909Y-54056010D01*
X249780211Y-54060048D01*
X249728011Y-54115613D01*
X249779312Y-54162040D01*
X249838065Y-54246738D01*
X249863875Y-54353807D01*
X249856954Y-54467123D01*
X249817509Y-54570567D01*
X249773288Y-54626044D01*
X249714733Y-54671503D01*
X249646128Y-54702662D01*
X249557077Y-54721863D01*
X249437183Y-54731452D01*
X249295346Y-54733800D01*
X249017600Y-54733800D01*
X249017600Y-54530600D01*
X249271600Y-54530600D01*
X249380248Y-54530600D01*
X249462933Y-54521384D01*
X249532778Y-54498502D01*
X249545348Y-54491059D01*
X249591133Y-54431541D01*
X249598999Y-54355553D01*
X249567717Y-54281764D01*
X249559763Y-54272250D01*
X249505698Y-54238836D01*
X249417154Y-54226133D01*
X249394663Y-54225800D01*
X249271600Y-54225800D01*
X249271600Y-54530600D01*
X249017600Y-54530600D01*
X249017600Y-54225800D01*
X249017600Y-54022600D01*
X249271600Y-54022600D01*
X249367548Y-54022600D01*
X249447506Y-54012095D01*
X249514735Y-53986462D01*
X249519948Y-53983059D01*
X249564855Y-53926778D01*
X249574321Y-53858277D01*
X249545920Y-53799080D01*
X249503766Y-53780962D01*
X249431983Y-53770044D01*
X249393520Y-53768600D01*
X249271600Y-53768600D01*
X249271600Y-54022600D01*
X249017600Y-54022600D01*
X249017600Y-53768600D01*
X249017600Y-53533607D01*
X249303350Y-53545449D01*
G36*
X249303350Y-53545449D02*
G01*
X249475911Y-53556652D01*
X249605313Y-53575764D01*
X249698929Y-53605480D01*
X249764129Y-53648495D01*
X249808288Y-53707504D01*
X249821103Y-53734727D01*
X249847891Y-53851157D01*
X249834843Y-53963422D01*
X249783909Y-54056010D01*
X249780211Y-54060048D01*
X249728011Y-54115613D01*
X249779312Y-54162040D01*
X249838065Y-54246738D01*
X249863875Y-54353807D01*
X249856954Y-54467123D01*
X249817509Y-54570567D01*
X249773288Y-54626044D01*
X249714733Y-54671503D01*
X249646128Y-54702662D01*
X249557077Y-54721863D01*
X249437183Y-54731452D01*
X249295346Y-54733800D01*
X249017600Y-54733800D01*
X249017600Y-54530600D01*
X249271600Y-54530600D01*
X249380248Y-54530600D01*
X249462933Y-54521384D01*
X249532778Y-54498502D01*
X249545348Y-54491059D01*
X249591133Y-54431541D01*
X249598999Y-54355553D01*
X249567717Y-54281764D01*
X249559763Y-54272250D01*
X249505698Y-54238836D01*
X249417154Y-54226133D01*
X249394663Y-54225800D01*
X249271600Y-54225800D01*
X249271600Y-54530600D01*
X249017600Y-54530600D01*
X249017600Y-54225800D01*
X249017600Y-54022600D01*
X249271600Y-54022600D01*
X249367548Y-54022600D01*
X249447506Y-54012095D01*
X249514735Y-53986462D01*
X249519948Y-53983059D01*
X249564855Y-53926778D01*
X249574321Y-53858277D01*
X249545920Y-53799080D01*
X249503766Y-53780962D01*
X249431983Y-53770044D01*
X249393520Y-53768600D01*
X249271600Y-53768600D01*
X249271600Y-54022600D01*
X249017600Y-54022600D01*
X249017600Y-53768600D01*
X249017600Y-53533607D01*
X249303350Y-53545449D01*
G37*
X250668600Y-53768600D02*
X250186000Y-53768600D01*
X250186000Y-54022600D01*
X250592400Y-54022600D01*
X250592400Y-54251200D01*
X250186000Y-54251200D01*
X250186000Y-54505200D01*
X250694000Y-54505200D01*
X250694000Y-54733800D01*
X249932000Y-54733800D01*
X249932000Y-53540000D01*
X250668600Y-53540000D01*
X250668600Y-53768600D01*
G36*
X250668600Y-53768600D02*
G01*
X250186000Y-53768600D01*
X250186000Y-54022600D01*
X250592400Y-54022600D01*
X250592400Y-54251200D01*
X250186000Y-54251200D01*
X250186000Y-54505200D01*
X250694000Y-54505200D01*
X250694000Y-54733800D01*
X249932000Y-54733800D01*
X249932000Y-53540000D01*
X250668600Y-53540000D01*
X250668600Y-53768600D01*
G37*
X251005150Y-53540141D02*
X251169742Y-53543699D01*
X251293724Y-53555797D01*
X251386920Y-53578881D01*
X251459154Y-53615394D01*
X251520248Y-53667782D01*
X251520943Y-53668507D01*
X251564531Y-53720828D01*
X251587016Y-53773614D01*
X251595037Y-53847057D01*
X251595700Y-53895857D01*
X251592549Y-53985327D01*
X251578223Y-54044876D01*
X251545412Y-54095236D01*
X251512922Y-54130583D01*
X251430144Y-54215988D01*
X251531972Y-54450764D01*
X251574972Y-54552303D01*
X251608992Y-54637195D01*
X251629636Y-54694206D01*
X251633800Y-54710997D01*
X251610650Y-54724603D01*
X251549353Y-54730020D01*
X251501397Y-54728777D01*
X251368995Y-54721100D01*
X251268702Y-54486150D01*
X251221888Y-54378974D01*
X251187691Y-54310426D01*
X251159848Y-54271971D01*
X251132096Y-54255075D01*
X251098174Y-54251204D01*
X251096304Y-54251200D01*
X251024200Y-54251200D01*
X251024200Y-54733800D01*
X250744800Y-54733800D01*
X250744800Y-54022600D01*
X251024200Y-54022600D01*
X251149759Y-54022600D01*
X251233295Y-54017567D01*
X251284041Y-53998510D01*
X251314859Y-53966148D01*
X251347855Y-53910233D01*
X251345789Y-53869987D01*
X251306921Y-53822734D01*
X251303600Y-53819400D01*
X251239028Y-53780974D01*
X251142161Y-53768610D01*
X251138500Y-53768600D01*
X251024200Y-53768600D01*
X251024200Y-54022600D01*
X250744800Y-54022600D01*
X250744800Y-53768600D01*
X250744800Y-53540000D01*
X251005150Y-53540141D01*
G36*
X251005150Y-53540141D02*
G01*
X251169742Y-53543699D01*
X251293724Y-53555797D01*
X251386920Y-53578881D01*
X251459154Y-53615394D01*
X251520248Y-53667782D01*
X251520943Y-53668507D01*
X251564531Y-53720828D01*
X251587016Y-53773614D01*
X251595037Y-53847057D01*
X251595700Y-53895857D01*
X251592549Y-53985327D01*
X251578223Y-54044876D01*
X251545412Y-54095236D01*
X251512922Y-54130583D01*
X251430144Y-54215988D01*
X251531972Y-54450764D01*
X251574972Y-54552303D01*
X251608992Y-54637195D01*
X251629636Y-54694206D01*
X251633800Y-54710997D01*
X251610650Y-54724603D01*
X251549353Y-54730020D01*
X251501397Y-54728777D01*
X251368995Y-54721100D01*
X251268702Y-54486150D01*
X251221888Y-54378974D01*
X251187691Y-54310426D01*
X251159848Y-54271971D01*
X251132096Y-54255075D01*
X251098174Y-54251204D01*
X251096304Y-54251200D01*
X251024200Y-54251200D01*
X251024200Y-54733800D01*
X250744800Y-54733800D01*
X250744800Y-54022600D01*
X251024200Y-54022600D01*
X251149759Y-54022600D01*
X251233295Y-54017567D01*
X251284041Y-53998510D01*
X251314859Y-53966148D01*
X251347855Y-53910233D01*
X251345789Y-53869987D01*
X251306921Y-53822734D01*
X251303600Y-53819400D01*
X251239028Y-53780974D01*
X251142161Y-53768610D01*
X251138500Y-53768600D01*
X251024200Y-53768600D01*
X251024200Y-54022600D01*
X250744800Y-54022600D01*
X250744800Y-53768600D01*
X250744800Y-53540000D01*
X251005150Y-53540141D01*
G37*
X252560706Y-53543544D02*
X252577732Y-53558012D01*
X252568372Y-53589865D01*
X252531735Y-53645794D01*
X252466929Y-53732492D01*
X252416584Y-53798850D01*
X252352953Y-53885567D01*
X252303066Y-53958514D01*
X252273725Y-54007477D01*
X252268800Y-54020783D01*
X252280525Y-54051468D01*
X252312756Y-54117767D01*
X252361077Y-54211028D01*
X252421070Y-54322601D01*
X252446600Y-54369067D01*
X252509879Y-54485061D01*
X252563228Y-54585711D01*
X252602243Y-54662483D01*
X252622521Y-54706848D01*
X252624400Y-54713552D01*
X252601447Y-54724583D01*
X252541995Y-54729748D01*
X252478536Y-54728717D01*
X252332672Y-54721100D01*
X252202414Y-54484326D01*
X252072155Y-54247552D01*
X252018077Y-54316301D01*
X251986988Y-54367500D01*
X251970265Y-54431631D01*
X251964258Y-54525110D01*
X251964000Y-54559425D01*
X251964000Y-54733800D01*
X251710000Y-54733800D01*
X251710000Y-53540000D01*
X251962022Y-53540000D01*
X251976700Y-53984500D01*
X252138411Y-53762250D01*
X252300123Y-53540000D01*
X252451060Y-53540000D01*
X252518185Y-53539770D01*
X252560706Y-53543544D01*
G36*
X252560706Y-53543544D02*
G01*
X252577732Y-53558012D01*
X252568372Y-53589865D01*
X252531735Y-53645794D01*
X252466929Y-53732492D01*
X252416584Y-53798850D01*
X252352953Y-53885567D01*
X252303066Y-53958514D01*
X252273725Y-54007477D01*
X252268800Y-54020783D01*
X252280525Y-54051468D01*
X252312756Y-54117767D01*
X252361077Y-54211028D01*
X252421070Y-54322601D01*
X252446600Y-54369067D01*
X252509879Y-54485061D01*
X252563228Y-54585711D01*
X252602243Y-54662483D01*
X252622521Y-54706848D01*
X252624400Y-54713552D01*
X252601447Y-54724583D01*
X252541995Y-54729748D01*
X252478536Y-54728717D01*
X252332672Y-54721100D01*
X252202414Y-54484326D01*
X252072155Y-54247552D01*
X252018077Y-54316301D01*
X251986988Y-54367500D01*
X251970265Y-54431631D01*
X251964258Y-54525110D01*
X251964000Y-54559425D01*
X251964000Y-54733800D01*
X251710000Y-54733800D01*
X251710000Y-53540000D01*
X251962022Y-53540000D01*
X251976700Y-53984500D01*
X252138411Y-53762250D01*
X252300123Y-53540000D01*
X252451060Y-53540000D01*
X252518185Y-53539770D01*
X252560706Y-53543544D01*
G37*
X253411800Y-53768600D02*
X252929200Y-53768600D01*
X252929200Y-54022600D01*
X253335600Y-54022600D01*
X253335600Y-54251200D01*
X252929200Y-54251200D01*
X252929200Y-54505200D01*
X253437200Y-54505200D01*
X253437200Y-54733800D01*
X252675200Y-54733800D01*
X252675200Y-53540000D01*
X253411800Y-53540000D01*
X253411800Y-53768600D01*
G36*
X253411800Y-53768600D02*
G01*
X252929200Y-53768600D01*
X252929200Y-54022600D01*
X253335600Y-54022600D01*
X253335600Y-54251200D01*
X252929200Y-54251200D01*
X252929200Y-54505200D01*
X253437200Y-54505200D01*
X253437200Y-54733800D01*
X252675200Y-54733800D01*
X252675200Y-53540000D01*
X253411800Y-53540000D01*
X253411800Y-53768600D01*
G37*
X253792800Y-54505200D02*
X254275400Y-54505200D01*
X254275400Y-54733800D01*
X253538800Y-54733800D01*
X253538800Y-53540000D01*
X253792800Y-53540000D01*
X253792800Y-54505200D01*
G36*
X253792800Y-54505200D02*
G01*
X254275400Y-54505200D01*
X254275400Y-54733800D01*
X253538800Y-54733800D01*
X253538800Y-53540000D01*
X253792800Y-53540000D01*
X253792800Y-54505200D01*
G37*
X255113600Y-53768600D02*
X254631000Y-53768600D01*
X254631000Y-54022600D01*
X255037400Y-54022600D01*
X255037400Y-54251200D01*
X254631000Y-54251200D01*
X254631000Y-54505200D01*
X255139000Y-54505200D01*
X255139000Y-54733800D01*
X254377000Y-54733800D01*
X254377000Y-53540000D01*
X255113600Y-53540000D01*
X255113600Y-53768600D01*
G36*
X255113600Y-53768600D02*
G01*
X254631000Y-53768600D01*
X254631000Y-54022600D01*
X255037400Y-54022600D01*
X255037400Y-54251200D01*
X254631000Y-54251200D01*
X254631000Y-54505200D01*
X255139000Y-54505200D01*
X255139000Y-54733800D01*
X254377000Y-54733800D01*
X254377000Y-53540000D01*
X255113600Y-53540000D01*
X255113600Y-53768600D01*
G37*
X255678311Y-54035172D02*
X255802602Y-53787586D01*
X255926894Y-53540000D01*
X256053647Y-53540000D01*
X256126012Y-53544560D01*
X256171900Y-53556219D01*
X256180400Y-53565308D01*
X256168563Y-53595233D01*
X256135929Y-53661028D01*
X256086815Y-53754401D01*
X256025536Y-53867064D01*
X255989900Y-53931229D01*
X255799400Y-54271841D01*
X255799400Y-54733800D01*
X255545400Y-54733800D01*
X255545400Y-54265700D01*
X255354900Y-53917736D01*
X255289621Y-53797593D01*
X255233981Y-53693463D01*
X255192158Y-53613302D01*
X255168329Y-53565069D01*
X255164400Y-53554886D01*
X255187325Y-53546583D01*
X255246235Y-53541180D01*
X255298367Y-53540000D01*
X255432335Y-53540000D01*
X255678311Y-54035172D01*
G36*
X255678311Y-54035172D02*
G01*
X255802602Y-53787586D01*
X255926894Y-53540000D01*
X256053647Y-53540000D01*
X256126012Y-53544560D01*
X256171900Y-53556219D01*
X256180400Y-53565308D01*
X256168563Y-53595233D01*
X256135929Y-53661028D01*
X256086815Y-53754401D01*
X256025536Y-53867064D01*
X255989900Y-53931229D01*
X255799400Y-54271841D01*
X255799400Y-54733800D01*
X255545400Y-54733800D01*
X255545400Y-54265700D01*
X255354900Y-53917736D01*
X255289621Y-53797593D01*
X255233981Y-53693463D01*
X255192158Y-53613302D01*
X255168329Y-53565069D01*
X255164400Y-53554886D01*
X255187325Y-53546583D01*
X255246235Y-53541180D01*
X255298367Y-53540000D01*
X255432335Y-53540000D01*
X255678311Y-54035172D01*
G37*
X256942400Y-54505200D02*
X257425000Y-54505200D01*
X257425000Y-54733800D01*
X256688400Y-54733800D01*
X256688400Y-53540000D01*
X256942400Y-53540000D01*
X256942400Y-54505200D01*
G36*
X256942400Y-54505200D02*
G01*
X257425000Y-54505200D01*
X257425000Y-54733800D01*
X256688400Y-54733800D01*
X256688400Y-53540000D01*
X256942400Y-53540000D01*
X256942400Y-54505200D01*
G37*
X258311442Y-54092450D02*
X258357513Y-54254123D01*
X258399444Y-54401109D01*
X258435053Y-54525772D01*
X258462158Y-54620477D01*
X258478578Y-54677589D01*
X258482006Y-54689350D01*
X258483143Y-54715109D01*
X258459769Y-54728528D01*
X258401311Y-54733392D01*
X258357853Y-54733800D01*
X258220483Y-54733800D01*
X258189220Y-54594100D01*
X258157956Y-54454400D01*
X257832819Y-54454400D01*
X257751595Y-54733800D01*
X257626397Y-54733800D01*
X257554262Y-54730318D01*
X257508460Y-54721432D01*
X257500066Y-54714750D01*
X257506251Y-54685871D01*
X257524221Y-54615101D01*
X257552105Y-54509480D01*
X257588032Y-54376046D01*
X257629047Y-54225800D01*
X257886294Y-54225800D01*
X257985847Y-54225800D01*
X258048562Y-54221496D01*
X258082698Y-54210768D01*
X258084819Y-54206750D01*
X258078511Y-54174373D01*
X258062441Y-54106929D01*
X258039959Y-54018427D01*
X258037734Y-54009900D01*
X257991228Y-53832100D01*
X257960488Y-53946400D01*
X257936126Y-54037384D01*
X257913225Y-54123532D01*
X257908021Y-54143250D01*
X257886294Y-54225800D01*
X257629047Y-54225800D01*
X257630129Y-54221837D01*
X257658793Y-54117850D01*
X257818654Y-53540000D01*
X258154095Y-53540000D01*
X258311442Y-54092450D01*
G36*
X258311442Y-54092450D02*
G01*
X258357513Y-54254123D01*
X258399444Y-54401109D01*
X258435053Y-54525772D01*
X258462158Y-54620477D01*
X258478578Y-54677589D01*
X258482006Y-54689350D01*
X258483143Y-54715109D01*
X258459769Y-54728528D01*
X258401311Y-54733392D01*
X258357853Y-54733800D01*
X258220483Y-54733800D01*
X258189220Y-54594100D01*
X258157956Y-54454400D01*
X257832819Y-54454400D01*
X257751595Y-54733800D01*
X257626397Y-54733800D01*
X257554262Y-54730318D01*
X257508460Y-54721432D01*
X257500066Y-54714750D01*
X257506251Y-54685871D01*
X257524221Y-54615101D01*
X257552105Y-54509480D01*
X257588032Y-54376046D01*
X257629047Y-54225800D01*
X257886294Y-54225800D01*
X257985847Y-54225800D01*
X258048562Y-54221496D01*
X258082698Y-54210768D01*
X258084819Y-54206750D01*
X258078511Y-54174373D01*
X258062441Y-54106929D01*
X258039959Y-54018427D01*
X258037734Y-54009900D01*
X257991228Y-53832100D01*
X257960488Y-53946400D01*
X257936126Y-54037384D01*
X257913225Y-54123532D01*
X257908021Y-54143250D01*
X257886294Y-54225800D01*
X257629047Y-54225800D01*
X257630129Y-54221837D01*
X257658793Y-54117850D01*
X257818654Y-53540000D01*
X258154095Y-53540000D01*
X258311442Y-54092450D01*
G37*
X258970546Y-53547554D02*
X259128280Y-53571508D01*
X259244554Y-53613796D01*
X259322985Y-53676352D01*
X259367193Y-53761111D01*
X259380800Y-53867786D01*
X259366130Y-53985631D01*
X259333784Y-54049634D01*
X259305758Y-54088713D01*
X259302610Y-54120626D01*
X259326061Y-54165171D01*
X259346484Y-54195692D01*
X259395232Y-54306698D01*
X259403349Y-54424742D01*
X259374060Y-54537427D01*
X259310592Y-54632358D01*
X259216171Y-54697139D01*
X259215959Y-54697228D01*
X259128488Y-54718713D01*
X258991506Y-54730849D01*
X258848215Y-54733800D01*
X258568000Y-54733800D01*
X258568000Y-54530600D01*
X258822000Y-54530600D01*
X258936300Y-54530600D01*
X259034377Y-54518979D01*
X259099753Y-54481422D01*
X259101400Y-54479800D01*
X259146253Y-54408802D01*
X259146100Y-54339628D01*
X259106324Y-54280560D01*
X259032306Y-54239878D01*
X258936300Y-54225800D01*
X258822000Y-54225800D01*
X258822000Y-54530600D01*
X258568000Y-54530600D01*
X258568000Y-54225800D01*
X258568000Y-54022600D01*
X258822000Y-54022600D01*
X258917948Y-54022600D01*
X258997906Y-54012095D01*
X259065135Y-53986462D01*
X259070348Y-53983059D01*
X259120611Y-53927288D01*
X259126447Y-53869575D01*
X259093166Y-53818303D01*
X259026080Y-53781857D01*
X258934485Y-53768600D01*
X258822000Y-53768600D01*
X258822000Y-54022600D01*
X258568000Y-54022600D01*
X258568000Y-53768600D01*
X258568000Y-53540000D01*
X258767733Y-53540000D01*
X258970546Y-53547554D01*
G36*
X258970546Y-53547554D02*
G01*
X259128280Y-53571508D01*
X259244554Y-53613796D01*
X259322985Y-53676352D01*
X259367193Y-53761111D01*
X259380800Y-53867786D01*
X259366130Y-53985631D01*
X259333784Y-54049634D01*
X259305758Y-54088713D01*
X259302610Y-54120626D01*
X259326061Y-54165171D01*
X259346484Y-54195692D01*
X259395232Y-54306698D01*
X259403349Y-54424742D01*
X259374060Y-54537427D01*
X259310592Y-54632358D01*
X259216171Y-54697139D01*
X259215959Y-54697228D01*
X259128488Y-54718713D01*
X258991506Y-54730849D01*
X258848215Y-54733800D01*
X258568000Y-54733800D01*
X258568000Y-54530600D01*
X258822000Y-54530600D01*
X258936300Y-54530600D01*
X259034377Y-54518979D01*
X259099753Y-54481422D01*
X259101400Y-54479800D01*
X259146253Y-54408802D01*
X259146100Y-54339628D01*
X259106324Y-54280560D01*
X259032306Y-54239878D01*
X258936300Y-54225800D01*
X258822000Y-54225800D01*
X258822000Y-54530600D01*
X258568000Y-54530600D01*
X258568000Y-54225800D01*
X258568000Y-54022600D01*
X258822000Y-54022600D01*
X258917948Y-54022600D01*
X258997906Y-54012095D01*
X259065135Y-53986462D01*
X259070348Y-53983059D01*
X259120611Y-53927288D01*
X259126447Y-53869575D01*
X259093166Y-53818303D01*
X259026080Y-53781857D01*
X258934485Y-53768600D01*
X258822000Y-53768600D01*
X258822000Y-54022600D01*
X258568000Y-54022600D01*
X258568000Y-53768600D01*
X258568000Y-53540000D01*
X258767733Y-53540000D01*
X258970546Y-53547554D01*
G37*
X253155359Y-48142077D02*
X253623804Y-48211113D01*
X253740207Y-48234748D01*
X254129178Y-48336079D01*
X254524618Y-48472100D01*
X254917956Y-48638283D01*
X255300621Y-48830103D01*
X255664043Y-49043031D01*
X255999652Y-49272542D01*
X256298876Y-49514109D01*
X256471818Y-49677490D01*
X256648937Y-49857000D01*
X257221800Y-49857000D01*
X257221800Y-53032000D01*
X256967800Y-53032000D01*
X256967800Y-50085600D01*
X256454697Y-50085600D01*
X256273098Y-49924976D01*
X255873082Y-49595735D01*
X255455534Y-49298826D01*
X255026384Y-49037533D01*
X254591560Y-48815142D01*
X254156992Y-48634936D01*
X253728609Y-48500200D01*
X253677418Y-48487123D01*
X253163407Y-48383419D01*
X252644070Y-48327273D01*
X252116931Y-48318736D01*
X251579514Y-48357855D01*
X251029343Y-48444681D01*
X250578089Y-48548593D01*
X250281534Y-48632756D01*
X249988186Y-48728603D01*
X249714187Y-48830532D01*
X249489824Y-48926360D01*
X249398417Y-48966598D01*
X249325573Y-48994887D01*
X249282526Y-49007028D01*
X249276040Y-49006307D01*
X249269996Y-48998719D01*
X249272403Y-48989944D01*
X249289478Y-48976365D01*
X249327434Y-48954364D01*
X249392486Y-48920324D01*
X249490848Y-48870629D01*
X249621060Y-48805496D01*
X249942286Y-48653876D01*
X250268419Y-48516625D01*
X250588652Y-48397704D01*
X250892180Y-48301079D01*
X251168196Y-48230711D01*
X251214700Y-48221024D01*
X251683512Y-48147881D01*
X252172021Y-48110390D01*
X252667034Y-48108479D01*
X253155359Y-48142077D01*
G36*
X253155359Y-48142077D02*
G01*
X253623804Y-48211113D01*
X253740207Y-48234748D01*
X254129178Y-48336079D01*
X254524618Y-48472100D01*
X254917956Y-48638283D01*
X255300621Y-48830103D01*
X255664043Y-49043031D01*
X255999652Y-49272542D01*
X256298876Y-49514109D01*
X256471818Y-49677490D01*
X256648937Y-49857000D01*
X257221800Y-49857000D01*
X257221800Y-53032000D01*
X256967800Y-53032000D01*
X256967800Y-50085600D01*
X256454697Y-50085600D01*
X256273098Y-49924976D01*
X255873082Y-49595735D01*
X255455534Y-49298826D01*
X255026384Y-49037533D01*
X254591560Y-48815142D01*
X254156992Y-48634936D01*
X253728609Y-48500200D01*
X253677418Y-48487123D01*
X253163407Y-48383419D01*
X252644070Y-48327273D01*
X252116931Y-48318736D01*
X251579514Y-48357855D01*
X251029343Y-48444681D01*
X250578089Y-48548593D01*
X250281534Y-48632756D01*
X249988186Y-48728603D01*
X249714187Y-48830532D01*
X249489824Y-48926360D01*
X249398417Y-48966598D01*
X249325573Y-48994887D01*
X249282526Y-49007028D01*
X249276040Y-49006307D01*
X249269996Y-48998719D01*
X249272403Y-48989944D01*
X249289478Y-48976365D01*
X249327434Y-48954364D01*
X249392486Y-48920324D01*
X249490848Y-48870629D01*
X249621060Y-48805496D01*
X249942286Y-48653876D01*
X250268419Y-48516625D01*
X250588652Y-48397704D01*
X250892180Y-48301079D01*
X251168196Y-48230711D01*
X251214700Y-48221024D01*
X251683512Y-48147881D01*
X252172021Y-48110390D01*
X252667034Y-48108479D01*
X253155359Y-48142077D01*
G37*
X258009742Y-49186464D02*
X258023472Y-49234700D01*
X258030217Y-49275821D01*
X258036087Y-49343263D01*
X258041133Y-49439795D01*
X258045405Y-49568191D01*
X258048956Y-49731223D01*
X258051835Y-49931663D01*
X258054092Y-50172283D01*
X258055780Y-50455856D01*
X258056949Y-50785153D01*
X258057561Y-51095250D01*
X258060000Y-52828800D01*
X257907600Y-52828800D01*
X257907600Y-51140950D01*
X257907803Y-50785312D01*
X257908500Y-50476751D01*
X257909819Y-50211543D01*
X257911890Y-49985965D01*
X257914842Y-49796295D01*
X257918803Y-49638810D01*
X257923903Y-49509788D01*
X257930270Y-49405506D01*
X257938035Y-49322240D01*
X257947326Y-49256269D01*
X257958272Y-49203869D01*
X257971003Y-49161318D01*
X257976790Y-49145800D01*
X257990632Y-49144114D01*
X258009742Y-49186464D01*
G36*
X258009742Y-49186464D02*
G01*
X258023472Y-49234700D01*
X258030217Y-49275821D01*
X258036087Y-49343263D01*
X258041133Y-49439795D01*
X258045405Y-49568191D01*
X258048956Y-49731223D01*
X258051835Y-49931663D01*
X258054092Y-50172283D01*
X258055780Y-50455856D01*
X258056949Y-50785153D01*
X258057561Y-51095250D01*
X258060000Y-52828800D01*
X257907600Y-52828800D01*
X257907600Y-51140950D01*
X257907803Y-50785312D01*
X257908500Y-50476751D01*
X257909819Y-50211543D01*
X257911890Y-49985965D01*
X257914842Y-49796295D01*
X257918803Y-49638810D01*
X257923903Y-49509788D01*
X257930270Y-49405506D01*
X257938035Y-49322240D01*
X257947326Y-49256269D01*
X257958272Y-49203869D01*
X257971003Y-49161318D01*
X257976790Y-49145800D01*
X257990632Y-49144114D01*
X258009742Y-49186464D01*
G37*
X259189621Y-49160688D02*
X259217735Y-49225592D01*
X259237723Y-49283674D01*
X259245993Y-49313043D01*
X259253103Y-49350080D01*
X259259137Y-49398566D01*
X259264183Y-49462283D01*
X259268324Y-49545012D01*
X259271647Y-49650533D01*
X259274237Y-49782629D01*
X259276180Y-49945080D01*
X259277560Y-50141667D01*
X259278464Y-50376172D01*
X259278976Y-50652376D01*
X259279183Y-50974060D01*
X259279200Y-51118824D01*
X259279200Y-52828800D01*
X259076000Y-52828800D01*
X259076000Y-51093424D01*
X259076106Y-50749415D01*
X259076479Y-50452471D01*
X259077203Y-50198857D01*
X259078361Y-49984838D01*
X259080034Y-49806680D01*
X259082306Y-49660647D01*
X259085260Y-49543005D01*
X259088979Y-49450019D01*
X259093545Y-49377955D01*
X259099041Y-49323076D01*
X259105550Y-49281650D01*
X259113156Y-49249940D01*
X259117171Y-49237216D01*
X259144033Y-49168309D01*
X259166618Y-49142197D01*
X259189621Y-49160688D01*
G36*
X259189621Y-49160688D02*
G01*
X259217735Y-49225592D01*
X259237723Y-49283674D01*
X259245993Y-49313043D01*
X259253103Y-49350080D01*
X259259137Y-49398566D01*
X259264183Y-49462283D01*
X259268324Y-49545012D01*
X259271647Y-49650533D01*
X259274237Y-49782629D01*
X259276180Y-49945080D01*
X259277560Y-50141667D01*
X259278464Y-50376172D01*
X259278976Y-50652376D01*
X259279183Y-50974060D01*
X259279200Y-51118824D01*
X259279200Y-52828800D01*
X259076000Y-52828800D01*
X259076000Y-51093424D01*
X259076106Y-50749415D01*
X259076479Y-50452471D01*
X259077203Y-50198857D01*
X259078361Y-49984838D01*
X259080034Y-49806680D01*
X259082306Y-49660647D01*
X259085260Y-49543005D01*
X259088979Y-49450019D01*
X259093545Y-49377955D01*
X259099041Y-49323076D01*
X259105550Y-49281650D01*
X259113156Y-49249940D01*
X259117171Y-49237216D01*
X259144033Y-49168309D01*
X259166618Y-49142197D01*
X259189621Y-49160688D01*
G37*
X249637504Y-50347377D02*
X249743058Y-50357663D01*
X249821820Y-50374678D01*
X249842561Y-50383496D01*
X249861716Y-50399654D01*
X249848139Y-50413313D01*
X249795115Y-50428127D01*
X249739763Y-50439441D01*
X249648912Y-50457173D01*
X249571680Y-50472505D01*
X249535537Y-50479883D01*
X249501936Y-50496473D01*
X249481205Y-50537021D01*
X249467220Y-50614285D01*
X249465908Y-50624933D01*
X249456707Y-50729404D01*
X249450788Y-50849955D01*
X249449620Y-50915649D01*
X249449400Y-51072598D01*
X249303350Y-51100799D01*
X249212553Y-51118530D01*
X249134404Y-51134134D01*
X249099592Y-51141323D01*
X249048099Y-51138620D01*
X249029216Y-51120636D01*
X249026169Y-51083030D01*
X249027715Y-51006738D01*
X249033416Y-50903625D01*
X249040742Y-50809003D01*
X249052197Y-50685720D01*
X249063247Y-50601925D01*
X249077145Y-50546440D01*
X249097148Y-50508084D01*
X249126509Y-50475679D01*
X249141873Y-50461637D01*
X249218167Y-50409855D01*
X249309110Y-50369105D01*
X249327755Y-50363432D01*
X249413087Y-50349608D01*
X249521925Y-50344474D01*
X249637504Y-50347377D01*
G36*
X249637504Y-50347377D02*
G01*
X249743058Y-50357663D01*
X249821820Y-50374678D01*
X249842561Y-50383496D01*
X249861716Y-50399654D01*
X249848139Y-50413313D01*
X249795115Y-50428127D01*
X249739763Y-50439441D01*
X249648912Y-50457173D01*
X249571680Y-50472505D01*
X249535537Y-50479883D01*
X249501936Y-50496473D01*
X249481205Y-50537021D01*
X249467220Y-50614285D01*
X249465908Y-50624933D01*
X249456707Y-50729404D01*
X249450788Y-50849955D01*
X249449620Y-50915649D01*
X249449400Y-51072598D01*
X249303350Y-51100799D01*
X249212553Y-51118530D01*
X249134404Y-51134134D01*
X249099592Y-51141323D01*
X249048099Y-51138620D01*
X249029216Y-51120636D01*
X249026169Y-51083030D01*
X249027715Y-51006738D01*
X249033416Y-50903625D01*
X249040742Y-50809003D01*
X249052197Y-50685720D01*
X249063247Y-50601925D01*
X249077145Y-50546440D01*
X249097148Y-50508084D01*
X249126509Y-50475679D01*
X249141873Y-50461637D01*
X249218167Y-50409855D01*
X249309110Y-50369105D01*
X249327755Y-50363432D01*
X249413087Y-50349608D01*
X249521925Y-50344474D01*
X249637504Y-50347377D01*
G37*
X251850139Y-50356956D02*
X251954427Y-50366873D01*
X252035737Y-50382107D01*
X252083223Y-50400889D01*
X252091000Y-50412397D01*
X252067840Y-50425276D01*
X252006432Y-50441749D01*
X251918887Y-50458712D01*
X251895887Y-50462425D01*
X251802939Y-50477552D01*
X251732129Y-50490355D01*
X251696087Y-50498514D01*
X251694057Y-50499475D01*
X251689989Y-50525934D01*
X251683965Y-50592821D01*
X251676817Y-50689841D01*
X251669816Y-50799317D01*
X251652292Y-51092444D01*
X251477474Y-51122422D01*
X251385903Y-51137454D01*
X251312911Y-51148212D01*
X251274097Y-51152398D01*
X251273850Y-51152400D01*
X251261466Y-51135561D01*
X251255234Y-51081992D01*
X251254956Y-50987116D01*
X251260432Y-50846353D01*
X251260489Y-50845217D01*
X251268764Y-50722962D01*
X251279850Y-50617726D01*
X251292290Y-50540797D01*
X251304522Y-50503588D01*
X251377597Y-50445972D01*
X251485566Y-50398202D01*
X251612712Y-50365751D01*
X251733718Y-50354124D01*
X251850139Y-50356956D01*
G36*
X251850139Y-50356956D02*
G01*
X251954427Y-50366873D01*
X252035737Y-50382107D01*
X252083223Y-50400889D01*
X252091000Y-50412397D01*
X252067840Y-50425276D01*
X252006432Y-50441749D01*
X251918887Y-50458712D01*
X251895887Y-50462425D01*
X251802939Y-50477552D01*
X251732129Y-50490355D01*
X251696087Y-50498514D01*
X251694057Y-50499475D01*
X251689989Y-50525934D01*
X251683965Y-50592821D01*
X251676817Y-50689841D01*
X251669816Y-50799317D01*
X251652292Y-51092444D01*
X251477474Y-51122422D01*
X251385903Y-51137454D01*
X251312911Y-51148212D01*
X251274097Y-51152398D01*
X251273850Y-51152400D01*
X251261466Y-51135561D01*
X251255234Y-51081992D01*
X251254956Y-50987116D01*
X251260432Y-50846353D01*
X251260489Y-50845217D01*
X251268764Y-50722962D01*
X251279850Y-50617726D01*
X251292290Y-50540797D01*
X251304522Y-50503588D01*
X251377597Y-50445972D01*
X251485566Y-50398202D01*
X251612712Y-50365751D01*
X251733718Y-50354124D01*
X251850139Y-50356956D01*
G37*
X256397295Y-50351635D02*
X256458711Y-50364567D01*
X256523697Y-50387206D01*
X256540516Y-50407551D01*
X256508418Y-50426327D01*
X256426649Y-50444254D01*
X256366514Y-50453178D01*
X256281010Y-50466894D01*
X256222306Y-50486928D01*
X256184576Y-50522246D01*
X256161989Y-50581816D01*
X256148718Y-50674605D01*
X256139370Y-50802614D01*
X256130003Y-50928384D01*
X256119671Y-51011607D01*
X256106695Y-51060531D01*
X256089393Y-51083403D01*
X256081443Y-51086948D01*
X256039682Y-51096515D01*
X255968312Y-51110765D01*
X255884302Y-51126562D01*
X255804621Y-51140770D01*
X255746237Y-51150252D01*
X255727357Y-51152400D01*
X255723971Y-51128669D01*
X255723460Y-51063979D01*
X255725712Y-50968084D01*
X255730614Y-50850736D01*
X255730889Y-50845217D01*
X255740239Y-50708060D01*
X255752616Y-50598712D01*
X255766875Y-50525656D01*
X255777518Y-50500460D01*
X255857317Y-50437438D01*
X255972936Y-50388302D01*
X256110634Y-50355796D01*
X256256667Y-50342660D01*
X256397295Y-50351635D01*
G36*
X256397295Y-50351635D02*
G01*
X256458711Y-50364567D01*
X256523697Y-50387206D01*
X256540516Y-50407551D01*
X256508418Y-50426327D01*
X256426649Y-50444254D01*
X256366514Y-50453178D01*
X256281010Y-50466894D01*
X256222306Y-50486928D01*
X256184576Y-50522246D01*
X256161989Y-50581816D01*
X256148718Y-50674605D01*
X256139370Y-50802614D01*
X256130003Y-50928384D01*
X256119671Y-51011607D01*
X256106695Y-51060531D01*
X256089393Y-51083403D01*
X256081443Y-51086948D01*
X256039682Y-51096515D01*
X255968312Y-51110765D01*
X255884302Y-51126562D01*
X255804621Y-51140770D01*
X255746237Y-51150252D01*
X255727357Y-51152400D01*
X255723971Y-51128669D01*
X255723460Y-51063979D01*
X255725712Y-50968084D01*
X255730614Y-50850736D01*
X255730889Y-50845217D01*
X255740239Y-50708060D01*
X255752616Y-50598712D01*
X255766875Y-50525656D01*
X255777518Y-50500460D01*
X255857317Y-50437438D01*
X255972936Y-50388302D01*
X256110634Y-50355796D01*
X256256667Y-50342660D01*
X256397295Y-50351635D01*
G37*
X250703445Y-50343261D02*
X250832905Y-50352332D01*
X250916107Y-50366083D01*
X250952118Y-50383380D01*
X250940009Y-50403090D01*
X250878849Y-50424078D01*
X250784957Y-50442506D01*
X250691658Y-50459362D01*
X250619957Y-50475710D01*
X250582841Y-50488502D01*
X250580663Y-50490440D01*
X250575014Y-50521094D01*
X250567563Y-50591483D01*
X250559343Y-50690622D01*
X250552502Y-50789638D01*
X250534622Y-51072200D01*
X250377280Y-51099600D01*
X250271882Y-51118389D01*
X250201172Y-51126444D01*
X250158839Y-51116520D01*
X250138574Y-51081371D01*
X250134066Y-51013754D01*
X250139004Y-50906422D01*
X250143294Y-50830953D01*
X250151427Y-50699773D01*
X250160620Y-50608987D01*
X250172959Y-50548198D01*
X250190530Y-50507010D01*
X250214507Y-50475992D01*
X250311141Y-50403379D01*
X250440244Y-50359165D01*
X250606475Y-50342085D01*
X250703445Y-50343261D01*
G36*
X250703445Y-50343261D02*
G01*
X250832905Y-50352332D01*
X250916107Y-50366083D01*
X250952118Y-50383380D01*
X250940009Y-50403090D01*
X250878849Y-50424078D01*
X250784957Y-50442506D01*
X250691658Y-50459362D01*
X250619957Y-50475710D01*
X250582841Y-50488502D01*
X250580663Y-50490440D01*
X250575014Y-50521094D01*
X250567563Y-50591483D01*
X250559343Y-50690622D01*
X250552502Y-50789638D01*
X250534622Y-51072200D01*
X250377280Y-51099600D01*
X250271882Y-51118389D01*
X250201172Y-51126444D01*
X250158839Y-51116520D01*
X250138574Y-51081371D01*
X250134066Y-51013754D01*
X250139004Y-50906422D01*
X250143294Y-50830953D01*
X250151427Y-50699773D01*
X250160620Y-50608987D01*
X250172959Y-50548198D01*
X250190530Y-50507010D01*
X250214507Y-50475992D01*
X250311141Y-50403379D01*
X250440244Y-50359165D01*
X250606475Y-50342085D01*
X250703445Y-50343261D01*
G37*
X252941844Y-50344558D02*
X253069518Y-50354748D01*
X253151507Y-50368914D01*
X253186703Y-50386096D01*
X253173996Y-50405332D01*
X253112279Y-50425661D01*
X253049875Y-50438225D01*
X252959311Y-50453004D01*
X252885520Y-50463267D01*
X252848242Y-50466600D01*
X252824584Y-50490868D01*
X252804644Y-50559291D01*
X252789411Y-50665299D01*
X252779874Y-50802320D01*
X252776980Y-50940242D01*
X252776800Y-51070985D01*
X252615969Y-51098992D01*
X252509023Y-51118058D01*
X252437328Y-51126291D01*
X252394406Y-51116446D01*
X252373778Y-51081284D01*
X252368965Y-51013561D01*
X252373488Y-50906035D01*
X252377366Y-50832272D01*
X252384829Y-50701973D01*
X252393459Y-50611953D01*
X252405362Y-50551699D01*
X252422644Y-50510700D01*
X252447410Y-50478442D01*
X252448467Y-50477311D01*
X252545422Y-50403655D01*
X252673061Y-50359181D01*
X252836568Y-50342494D01*
X252941844Y-50344558D01*
G36*
X252941844Y-50344558D02*
G01*
X253069518Y-50354748D01*
X253151507Y-50368914D01*
X253186703Y-50386096D01*
X253173996Y-50405332D01*
X253112279Y-50425661D01*
X253049875Y-50438225D01*
X252959311Y-50453004D01*
X252885520Y-50463267D01*
X252848242Y-50466600D01*
X252824584Y-50490868D01*
X252804644Y-50559291D01*
X252789411Y-50665299D01*
X252779874Y-50802320D01*
X252776980Y-50940242D01*
X252776800Y-51070985D01*
X252615969Y-51098992D01*
X252509023Y-51118058D01*
X252437328Y-51126291D01*
X252394406Y-51116446D01*
X252373778Y-51081284D01*
X252368965Y-51013561D01*
X252373488Y-50906035D01*
X252377366Y-50832272D01*
X252384829Y-50701973D01*
X252393459Y-50611953D01*
X252405362Y-50551699D01*
X252422644Y-50510700D01*
X252447410Y-50478442D01*
X252448467Y-50477311D01*
X252545422Y-50403655D01*
X252673061Y-50359181D01*
X252836568Y-50342494D01*
X252941844Y-50344558D01*
G37*
X254065749Y-50344785D02*
X254198060Y-50353702D01*
X254285882Y-50366873D01*
X254327896Y-50383329D01*
X254322782Y-50402099D01*
X254269220Y-50422213D01*
X254192875Y-50438225D01*
X254102300Y-50453004D01*
X254028487Y-50463267D01*
X253991187Y-50466600D01*
X253966103Y-50490962D01*
X253945549Y-50560159D01*
X253930435Y-50668355D01*
X253921671Y-50809712D01*
X253919800Y-50924918D01*
X253919800Y-51070985D01*
X253758969Y-51098992D01*
X253645836Y-51117388D01*
X253573454Y-51124641D01*
X253532882Y-51120159D01*
X253515179Y-51103346D01*
X253511541Y-51082550D01*
X253510569Y-50988421D01*
X253513444Y-50871488D01*
X253519274Y-50750838D01*
X253527171Y-50645561D01*
X253534895Y-50582105D01*
X253549478Y-50523070D01*
X253576909Y-50481096D01*
X253629505Y-50442508D01*
X253691434Y-50408321D01*
X253761752Y-50373413D01*
X253820810Y-50352484D01*
X253884878Y-50342772D01*
X253970226Y-50341516D01*
X254065749Y-50344785D01*
G36*
X254065749Y-50344785D02*
G01*
X254198060Y-50353702D01*
X254285882Y-50366873D01*
X254327896Y-50383329D01*
X254322782Y-50402099D01*
X254269220Y-50422213D01*
X254192875Y-50438225D01*
X254102300Y-50453004D01*
X254028487Y-50463267D01*
X253991187Y-50466600D01*
X253966103Y-50490962D01*
X253945549Y-50560159D01*
X253930435Y-50668355D01*
X253921671Y-50809712D01*
X253919800Y-50924918D01*
X253919800Y-51070985D01*
X253758969Y-51098992D01*
X253645836Y-51117388D01*
X253573454Y-51124641D01*
X253532882Y-51120159D01*
X253515179Y-51103346D01*
X253511541Y-51082550D01*
X253510569Y-50988421D01*
X253513444Y-50871488D01*
X253519274Y-50750838D01*
X253527171Y-50645561D01*
X253534895Y-50582105D01*
X253549478Y-50523070D01*
X253576909Y-50481096D01*
X253629505Y-50442508D01*
X253691434Y-50408321D01*
X253761752Y-50373413D01*
X253820810Y-50352484D01*
X253884878Y-50342772D01*
X253970226Y-50341516D01*
X254065749Y-50344785D01*
G37*
X255297750Y-50337802D02*
X255375683Y-50357201D01*
X255428670Y-50376063D01*
X255443800Y-50387689D01*
X255420717Y-50400585D01*
X255359880Y-50416801D01*
X255273898Y-50433046D01*
X255263819Y-50434635D01*
X255173142Y-50450395D01*
X255103508Y-50465712D01*
X255069009Y-50477452D01*
X255068211Y-50478121D01*
X255055378Y-50513390D01*
X255042033Y-50586437D01*
X255029745Y-50684282D01*
X255020086Y-50793948D01*
X255014626Y-50902453D01*
X255014143Y-50924979D01*
X255012000Y-51065859D01*
X254833728Y-51096429D01*
X254741296Y-51111622D01*
X254667395Y-51122566D01*
X254627413Y-51126990D01*
X254626643Y-51127000D01*
X254613923Y-51109930D01*
X254607801Y-51055638D01*
X254608059Y-50959496D01*
X254613202Y-50840136D01*
X254620600Y-50721623D01*
X254628890Y-50619901D01*
X254636981Y-50546884D01*
X254642885Y-50516286D01*
X254692477Y-50452158D01*
X254781147Y-50397725D01*
X254897609Y-50356063D01*
X255030573Y-50330248D01*
X255168753Y-50323357D01*
X255297750Y-50337802D01*
G36*
X255297750Y-50337802D02*
G01*
X255375683Y-50357201D01*
X255428670Y-50376063D01*
X255443800Y-50387689D01*
X255420717Y-50400585D01*
X255359880Y-50416801D01*
X255273898Y-50433046D01*
X255263819Y-50434635D01*
X255173142Y-50450395D01*
X255103508Y-50465712D01*
X255069009Y-50477452D01*
X255068211Y-50478121D01*
X255055378Y-50513390D01*
X255042033Y-50586437D01*
X255029745Y-50684282D01*
X255020086Y-50793948D01*
X255014626Y-50902453D01*
X255014143Y-50924979D01*
X255012000Y-51065859D01*
X254833728Y-51096429D01*
X254741296Y-51111622D01*
X254667395Y-51122566D01*
X254627413Y-51126990D01*
X254626643Y-51127000D01*
X254613923Y-51109930D01*
X254607801Y-51055638D01*
X254608059Y-50959496D01*
X254613202Y-50840136D01*
X254620600Y-50721623D01*
X254628890Y-50619901D01*
X254636981Y-50546884D01*
X254642885Y-50516286D01*
X254692477Y-50452158D01*
X254781147Y-50397725D01*
X254897609Y-50356063D01*
X255030573Y-50330248D01*
X255168753Y-50323357D01*
X255297750Y-50337802D01*
G37*
X258292756Y-49515419D02*
X258309882Y-49523868D01*
X258322163Y-49541462D01*
X258330232Y-49575380D01*
X258334720Y-49632806D01*
X258336261Y-49720918D01*
X258335486Y-49846900D01*
X258333628Y-49979545D01*
X258326700Y-50428500D01*
X258262249Y-50436016D01*
X258206766Y-50435338D01*
X258179699Y-50425432D01*
X258173771Y-50395254D01*
X258168657Y-50322928D01*
X258164702Y-50217106D01*
X258162249Y-50086438D01*
X258161600Y-49969784D01*
X258162121Y-49808893D01*
X258164119Y-49691692D01*
X258168247Y-49611075D01*
X258175159Y-49559939D01*
X258185506Y-49531180D01*
X258199942Y-49517693D01*
X258203278Y-49516241D01*
X258262581Y-49509938D01*
X258292756Y-49515419D01*
G36*
X258292756Y-49515419D02*
G01*
X258309882Y-49523868D01*
X258322163Y-49541462D01*
X258330232Y-49575380D01*
X258334720Y-49632806D01*
X258336261Y-49720918D01*
X258335486Y-49846900D01*
X258333628Y-49979545D01*
X258326700Y-50428500D01*
X258262249Y-50436016D01*
X258206766Y-50435338D01*
X258179699Y-50425432D01*
X258173771Y-50395254D01*
X258168657Y-50322928D01*
X258164702Y-50217106D01*
X258162249Y-50086438D01*
X258161600Y-49969784D01*
X258162121Y-49808893D01*
X258164119Y-49691692D01*
X258168247Y-49611075D01*
X258175159Y-49559939D01*
X258185506Y-49531180D01*
X258199942Y-49517693D01*
X258203278Y-49516241D01*
X258262581Y-49509938D01*
X258292756Y-49515419D01*
G37*
X258612450Y-49516964D02*
X258629310Y-49533033D01*
X258641673Y-49561853D01*
X258650424Y-49611024D01*
X258656449Y-49688143D01*
X258660636Y-49800809D01*
X258663870Y-49956620D01*
X258663893Y-49957956D01*
X258665690Y-50127154D01*
X258663667Y-50252111D01*
X258656537Y-50339325D01*
X258643009Y-50395293D01*
X258621795Y-50426512D01*
X258591605Y-50439478D01*
X258568000Y-50441200D01*
X258513689Y-50422882D01*
X258494266Y-50406072D01*
X258481954Y-50367224D01*
X258474172Y-50284457D01*
X258470815Y-50155606D01*
X258471775Y-49978510D01*
X258472106Y-49957956D01*
X258475337Y-49801797D01*
X258479513Y-49688839D01*
X258485522Y-49611484D01*
X258494249Y-49562134D01*
X258506582Y-49533190D01*
X258523406Y-49517055D01*
X258523550Y-49516964D01*
X258578209Y-49502542D01*
X258612450Y-49516964D01*
G36*
X258612450Y-49516964D02*
G01*
X258629310Y-49533033D01*
X258641673Y-49561853D01*
X258650424Y-49611024D01*
X258656449Y-49688143D01*
X258660636Y-49800809D01*
X258663870Y-49956620D01*
X258663893Y-49957956D01*
X258665690Y-50127154D01*
X258663667Y-50252111D01*
X258656537Y-50339325D01*
X258643009Y-50395293D01*
X258621795Y-50426512D01*
X258591605Y-50439478D01*
X258568000Y-50441200D01*
X258513689Y-50422882D01*
X258494266Y-50406072D01*
X258481954Y-50367224D01*
X258474172Y-50284457D01*
X258470815Y-50155606D01*
X258471775Y-49978510D01*
X258472106Y-49957956D01*
X258475337Y-49801797D01*
X258479513Y-49688839D01*
X258485522Y-49611484D01*
X258494249Y-49562134D01*
X258506582Y-49533190D01*
X258523406Y-49517055D01*
X258523550Y-49516964D01*
X258578209Y-49502542D01*
X258612450Y-49516964D01*
G37*
X258915987Y-49524896D02*
X258934485Y-49541314D01*
X258950438Y-49565799D01*
X258961654Y-49607353D01*
X258968877Y-49673836D01*
X258972855Y-49773108D01*
X258974332Y-49913029D01*
X258974400Y-49962084D01*
X258972680Y-50103679D01*
X258967921Y-50227409D01*
X258960722Y-50323470D01*
X258951683Y-50382061D01*
X258948106Y-50392069D01*
X258906278Y-50427816D01*
X258846213Y-50441998D01*
X258794160Y-50429332D01*
X258788133Y-50424266D01*
X258779663Y-50390787D01*
X258773868Y-50317037D01*
X258770589Y-50213464D01*
X258769668Y-50090517D01*
X258770946Y-49958646D01*
X258774263Y-49828300D01*
X258779462Y-49709927D01*
X258786385Y-49613978D01*
X258794871Y-49550901D01*
X258801679Y-49531880D01*
X258857104Y-49503132D01*
X258915987Y-49524896D01*
G36*
X258915987Y-49524896D02*
G01*
X258934485Y-49541314D01*
X258950438Y-49565799D01*
X258961654Y-49607353D01*
X258968877Y-49673836D01*
X258972855Y-49773108D01*
X258974332Y-49913029D01*
X258974400Y-49962084D01*
X258972680Y-50103679D01*
X258967921Y-50227409D01*
X258960722Y-50323470D01*
X258951683Y-50382061D01*
X258948106Y-50392069D01*
X258906278Y-50427816D01*
X258846213Y-50441998D01*
X258794160Y-50429332D01*
X258788133Y-50424266D01*
X258779663Y-50390787D01*
X258773868Y-50317037D01*
X258770589Y-50213464D01*
X258769668Y-50090517D01*
X258770946Y-49958646D01*
X258774263Y-49828300D01*
X258779462Y-49709927D01*
X258786385Y-49613978D01*
X258794871Y-49550901D01*
X258801679Y-49531880D01*
X258857104Y-49503132D01*
X258915987Y-49524896D01*
G37*
X258579284Y-48039539D02*
X258609504Y-48097650D01*
X258653183Y-48190560D01*
X258707497Y-48312134D01*
X258769625Y-48456237D01*
X258818345Y-48572263D01*
X258892705Y-48752108D01*
X258949305Y-48891918D01*
X258990285Y-48998397D01*
X259017782Y-49078249D01*
X259033936Y-49138180D01*
X259040885Y-49184894D01*
X259040768Y-49225095D01*
X259036954Y-49257549D01*
X259022258Y-49326462D01*
X259004899Y-49368431D01*
X258996915Y-49374400D01*
X258974672Y-49356168D01*
X258974400Y-49352817D01*
X258965099Y-49323974D01*
X258939070Y-49255323D01*
X258899118Y-49153949D01*
X258848048Y-49026937D01*
X258788669Y-48881372D01*
X258762288Y-48817284D01*
X258550177Y-48303333D01*
X258374938Y-48699116D01*
X258302472Y-48860151D01*
X258247033Y-48976819D01*
X258206923Y-49051979D01*
X258180446Y-49088486D01*
X258165905Y-49089198D01*
X258161600Y-49058364D01*
X258170601Y-49025218D01*
X258195341Y-48953723D01*
X258232426Y-48852589D01*
X258278462Y-48730526D01*
X258330055Y-48596242D01*
X258383809Y-48458449D01*
X258436330Y-48325856D01*
X258484225Y-48207173D01*
X258524098Y-48111109D01*
X258552556Y-48046375D01*
X258565346Y-48022363D01*
X258579284Y-48039539D01*
G36*
X258579284Y-48039539D02*
G01*
X258609504Y-48097650D01*
X258653183Y-48190560D01*
X258707497Y-48312134D01*
X258769625Y-48456237D01*
X258818345Y-48572263D01*
X258892705Y-48752108D01*
X258949305Y-48891918D01*
X258990285Y-48998397D01*
X259017782Y-49078249D01*
X259033936Y-49138180D01*
X259040885Y-49184894D01*
X259040768Y-49225095D01*
X259036954Y-49257549D01*
X259022258Y-49326462D01*
X259004899Y-49368431D01*
X258996915Y-49374400D01*
X258974672Y-49356168D01*
X258974400Y-49352817D01*
X258965099Y-49323974D01*
X258939070Y-49255323D01*
X258899118Y-49153949D01*
X258848048Y-49026937D01*
X258788669Y-48881372D01*
X258762288Y-48817284D01*
X258550177Y-48303333D01*
X258374938Y-48699116D01*
X258302472Y-48860151D01*
X258247033Y-48976819D01*
X258206923Y-49051979D01*
X258180446Y-49088486D01*
X258165905Y-49089198D01*
X258161600Y-49058364D01*
X258170601Y-49025218D01*
X258195341Y-48953723D01*
X258232426Y-48852589D01*
X258278462Y-48730526D01*
X258330055Y-48596242D01*
X258383809Y-48458449D01*
X258436330Y-48325856D01*
X258484225Y-48207173D01*
X258524098Y-48111109D01*
X258552556Y-48046375D01*
X258565346Y-48022363D01*
X258579284Y-48039539D01*
G37*
X252611748Y-47405022D02*
X252677755Y-47437554D01*
X252770909Y-47486395D01*
X252882703Y-47547143D01*
X252935259Y-47576316D01*
X253263058Y-47759432D01*
X253246423Y-47848105D01*
X253229780Y-47907822D01*
X253198778Y-47953817D01*
X253141894Y-47999101D01*
X253076977Y-48039439D01*
X253029393Y-48064641D01*
X253009239Y-48057774D01*
X253000777Y-48013693D01*
X252991673Y-47984558D01*
X252967353Y-47954276D01*
X252921260Y-47918123D01*
X252846838Y-47871375D01*
X252737532Y-47809306D01*
X252652792Y-47762917D01*
X252312885Y-47578278D01*
X251955031Y-47738361D01*
X251831267Y-47792721D01*
X251724560Y-47837684D01*
X251643100Y-47869950D01*
X251595078Y-47886219D01*
X251585855Y-47887122D01*
X251585116Y-47866829D01*
X251614256Y-47850323D01*
X251680490Y-47816713D01*
X251775547Y-47769931D01*
X251891160Y-47713907D01*
X252019057Y-47652572D01*
X252150970Y-47589859D01*
X252278629Y-47529697D01*
X252393765Y-47476019D01*
X252488108Y-47432757D01*
X252553389Y-47403840D01*
X252581338Y-47393200D01*
X252581393Y-47393200D01*
X252611748Y-47405022D01*
G36*
X252611748Y-47405022D02*
G01*
X252677755Y-47437554D01*
X252770909Y-47486395D01*
X252882703Y-47547143D01*
X252935259Y-47576316D01*
X253263058Y-47759432D01*
X253246423Y-47848105D01*
X253229780Y-47907822D01*
X253198778Y-47953817D01*
X253141894Y-47999101D01*
X253076977Y-48039439D01*
X253029393Y-48064641D01*
X253009239Y-48057774D01*
X253000777Y-48013693D01*
X252991673Y-47984558D01*
X252967353Y-47954276D01*
X252921260Y-47918123D01*
X252846838Y-47871375D01*
X252737532Y-47809306D01*
X252652792Y-47762917D01*
X252312885Y-47578278D01*
X251955031Y-47738361D01*
X251831267Y-47792721D01*
X251724560Y-47837684D01*
X251643100Y-47869950D01*
X251595078Y-47886219D01*
X251585855Y-47887122D01*
X251585116Y-47866829D01*
X251614256Y-47850323D01*
X251680490Y-47816713D01*
X251775547Y-47769931D01*
X251891160Y-47713907D01*
X252019057Y-47652572D01*
X252150970Y-47589859D01*
X252278629Y-47529697D01*
X252393765Y-47476019D01*
X252488108Y-47432757D01*
X252553389Y-47403840D01*
X252581338Y-47393200D01*
X252581393Y-47393200D01*
X252611748Y-47405022D01*
G37*
D13*
%TO.C,mouse-bite-1mm-3mm*%
X90000000Y-49250000D02*
G75*
G02*
X91000000Y-49250000I500000J0D01*
G01*
X91000000Y-46250000D02*
G75*
G02*
X90000000Y-46250000I-500000J0D01*
G01*
X90000000Y-73750000D02*
G75*
G02*
X91000000Y-73750000I500000J0D01*
G01*
X91000000Y-70750000D02*
G75*
G02*
X90000000Y-70750000I-500000J0D01*
G01*
D14*
%TO.C,J4*%
X89985000Y-53460000D02*
X89405000Y-53460000D01*
X89985000Y-67810000D02*
X89405000Y-67810000D01*
X89985000Y-67810000D02*
X89985000Y-53460000D01*
X83265000Y-54602500D02*
G75*
G02*
X83065000Y-54602500I-100000J0D01*
G01*
X83065000Y-54602500D02*
G75*
G02*
X83265000Y-54602500I100000J0D01*
G01*
%TO.C,J3*%
X91130000Y-64870000D02*
X91130000Y-55130000D01*
X93640000Y-51110000D02*
X92867000Y-51110000D01*
X93640000Y-51110000D02*
X93640000Y-68890000D01*
X93640000Y-68890000D02*
X92867000Y-68890000D01*
X95540000Y-53000000D02*
G75*
G02*
X95340000Y-53000000I-100000J0D01*
G01*
X95340000Y-53000000D02*
G75*
G02*
X95540000Y-53000000I100000J0D01*
G01*
%TD*%
M02*
