%TF.GenerationSoftware,KiCad,Pcbnew,8.0.4*%
%TF.CreationDate,2026-09-28T14:44:31-07:00*%
%TF.ProjectId,kamioka_short_pcb,6b616d69-6f6b-4615-9f73-686f72745f70,rev?*%
%TF.SameCoordinates,Original*%
%TF.FileFunction,Paste,Top*%
%TF.FilePolarity,Positive*%
%FSLAX46Y46*%
G04 Gerber Fmt 4.6, Leading zero omitted, Abs format (unit mm)*
G04 Created by KiCad (PCBNEW 8.0.4) date 2026-09-28 14:44:31*
%MOMM*%
%LPD*%
G01*
G04 APERTURE LIST*
G04 Aperture macros list*
%AMRoundRect*
0 Rectangle with rounded corners*
0 $1 Rounding radius*
0 $2 $3 $4 $5 $6 $7 $8 $9 X,Y pos of 4 corners*
0 Add a 4 corners polygon primitive as box body*
4,1,4,$2,$3,$4,$5,$6,$7,$8,$9,$2,$3,0*
0 Add four circle primitives for the rounded corners*
1,1,$1+$1,$2,$3*
1,1,$1+$1,$4,$5*
1,1,$1+$1,$6,$7*
1,1,$1+$1,$8,$9*
0 Add four rect primitives between the rounded corners*
20,1,$1+$1,$2,$3,$4,$5,0*
20,1,$1+$1,$4,$5,$6,$7,0*
20,1,$1+$1,$6,$7,$8,$9,0*
20,1,$1+$1,$8,$9,$2,$3,0*%
G04 Aperture macros list end*
%ADD10C,0.010000*%
%ADD11RoundRect,0.200000X-0.200000X-0.800000X0.200000X-0.800000X0.200000X0.800000X-0.200000X0.800000X0*%
%ADD12RoundRect,0.200000X0.200000X0.800000X-0.200000X0.800000X-0.200000X-0.800000X0.200000X-0.800000X0*%
%ADD13R,1.520000X0.380000*%
%ADD14R,1.220000X0.660000*%
%ADD15R,1.400000X0.660000*%
G04 APERTURE END LIST*
D10*
%TO.C,J3*%
X91778000Y-52130000D02*
X91775000Y-52138000D01*
X91771000Y-52146000D01*
X91768000Y-52154000D01*
X91765000Y-52162000D01*
X91762000Y-52170000D01*
X91760000Y-52178000D01*
X91757000Y-52186000D01*
X91755000Y-52194000D01*
X91752000Y-52203000D01*
X91750000Y-52211000D01*
X91748000Y-52219000D01*
X91745000Y-52227000D01*
X91743000Y-52236000D01*
X91742000Y-52244000D01*
X91740000Y-52252000D01*
X91738000Y-52261000D01*
X91737000Y-52269000D01*
X91735000Y-52278000D01*
X91734000Y-52286000D01*
X91733000Y-52295000D01*
X91732000Y-52303000D01*
X91731000Y-52312000D01*
X91730000Y-52320000D01*
X91729000Y-52329000D01*
X91728000Y-52337000D01*
X91728000Y-52346000D01*
X91728000Y-52354000D01*
X91727000Y-52363000D01*
X91727000Y-52371000D01*
X91727000Y-52380000D01*
X91127000Y-52380000D01*
X91127000Y-51800000D01*
X91778000Y-52130000D01*
G36*
X91778000Y-52130000D02*
G01*
X91775000Y-52138000D01*
X91771000Y-52146000D01*
X91768000Y-52154000D01*
X91765000Y-52162000D01*
X91762000Y-52170000D01*
X91760000Y-52178000D01*
X91757000Y-52186000D01*
X91755000Y-52194000D01*
X91752000Y-52203000D01*
X91750000Y-52211000D01*
X91748000Y-52219000D01*
X91745000Y-52227000D01*
X91743000Y-52236000D01*
X91742000Y-52244000D01*
X91740000Y-52252000D01*
X91738000Y-52261000D01*
X91737000Y-52269000D01*
X91735000Y-52278000D01*
X91734000Y-52286000D01*
X91733000Y-52295000D01*
X91732000Y-52303000D01*
X91731000Y-52312000D01*
X91730000Y-52320000D01*
X91729000Y-52329000D01*
X91728000Y-52337000D01*
X91728000Y-52346000D01*
X91728000Y-52354000D01*
X91727000Y-52363000D01*
X91727000Y-52371000D01*
X91727000Y-52380000D01*
X91127000Y-52380000D01*
X91127000Y-51800000D01*
X91778000Y-52130000D01*
G37*
X91727000Y-52389000D02*
X91727000Y-52397000D01*
X91728000Y-52406000D01*
X91728000Y-52414000D01*
X91728000Y-52423000D01*
X91729000Y-52431000D01*
X91730000Y-52440000D01*
X91731000Y-52448000D01*
X91732000Y-52457000D01*
X91733000Y-52465000D01*
X91734000Y-52474000D01*
X91735000Y-52482000D01*
X91737000Y-52491000D01*
X91738000Y-52499000D01*
X91740000Y-52508000D01*
X91742000Y-52516000D01*
X91743000Y-52524000D01*
X91745000Y-52533000D01*
X91748000Y-52541000D01*
X91750000Y-52549000D01*
X91752000Y-52557000D01*
X91755000Y-52566000D01*
X91757000Y-52574000D01*
X91760000Y-52582000D01*
X91762000Y-52590000D01*
X91765000Y-52598000D01*
X91768000Y-52606000D01*
X91771000Y-52614000D01*
X91775000Y-52622000D01*
X91778000Y-52630000D01*
X91127000Y-52960000D01*
X91127000Y-52380000D01*
X91727000Y-52380000D01*
X91727000Y-52389000D01*
G36*
X91727000Y-52389000D02*
G01*
X91727000Y-52397000D01*
X91728000Y-52406000D01*
X91728000Y-52414000D01*
X91728000Y-52423000D01*
X91729000Y-52431000D01*
X91730000Y-52440000D01*
X91731000Y-52448000D01*
X91732000Y-52457000D01*
X91733000Y-52465000D01*
X91734000Y-52474000D01*
X91735000Y-52482000D01*
X91737000Y-52491000D01*
X91738000Y-52499000D01*
X91740000Y-52508000D01*
X91742000Y-52516000D01*
X91743000Y-52524000D01*
X91745000Y-52533000D01*
X91748000Y-52541000D01*
X91750000Y-52549000D01*
X91752000Y-52557000D01*
X91755000Y-52566000D01*
X91757000Y-52574000D01*
X91760000Y-52582000D01*
X91762000Y-52590000D01*
X91765000Y-52598000D01*
X91768000Y-52606000D01*
X91771000Y-52614000D01*
X91775000Y-52622000D01*
X91778000Y-52630000D01*
X91127000Y-52960000D01*
X91127000Y-52380000D01*
X91727000Y-52380000D01*
X91727000Y-52389000D01*
G37*
X91778000Y-67370000D02*
X91775000Y-67378000D01*
X91771000Y-67386000D01*
X91768000Y-67394000D01*
X91765000Y-67402000D01*
X91762000Y-67410000D01*
X91760000Y-67418000D01*
X91757000Y-67426000D01*
X91755000Y-67434000D01*
X91752000Y-67443000D01*
X91750000Y-67451000D01*
X91748000Y-67459000D01*
X91745000Y-67467000D01*
X91743000Y-67476000D01*
X91742000Y-67484000D01*
X91740000Y-67492000D01*
X91738000Y-67501000D01*
X91737000Y-67509000D01*
X91735000Y-67518000D01*
X91734000Y-67526000D01*
X91733000Y-67535000D01*
X91732000Y-67543000D01*
X91731000Y-67552000D01*
X91730000Y-67560000D01*
X91729000Y-67569000D01*
X91728000Y-67577000D01*
X91728000Y-67586000D01*
X91728000Y-67594000D01*
X91727000Y-67603000D01*
X91727000Y-67611000D01*
X91727000Y-67620000D01*
X91127000Y-67620000D01*
X91127000Y-67040000D01*
X91778000Y-67370000D01*
G36*
X91778000Y-67370000D02*
G01*
X91775000Y-67378000D01*
X91771000Y-67386000D01*
X91768000Y-67394000D01*
X91765000Y-67402000D01*
X91762000Y-67410000D01*
X91760000Y-67418000D01*
X91757000Y-67426000D01*
X91755000Y-67434000D01*
X91752000Y-67443000D01*
X91750000Y-67451000D01*
X91748000Y-67459000D01*
X91745000Y-67467000D01*
X91743000Y-67476000D01*
X91742000Y-67484000D01*
X91740000Y-67492000D01*
X91738000Y-67501000D01*
X91737000Y-67509000D01*
X91735000Y-67518000D01*
X91734000Y-67526000D01*
X91733000Y-67535000D01*
X91732000Y-67543000D01*
X91731000Y-67552000D01*
X91730000Y-67560000D01*
X91729000Y-67569000D01*
X91728000Y-67577000D01*
X91728000Y-67586000D01*
X91728000Y-67594000D01*
X91727000Y-67603000D01*
X91727000Y-67611000D01*
X91727000Y-67620000D01*
X91127000Y-67620000D01*
X91127000Y-67040000D01*
X91778000Y-67370000D01*
G37*
X91727000Y-67629000D02*
X91727000Y-67637000D01*
X91728000Y-67646000D01*
X91728000Y-67654000D01*
X91728000Y-67663000D01*
X91729000Y-67671000D01*
X91730000Y-67680000D01*
X91731000Y-67688000D01*
X91732000Y-67697000D01*
X91733000Y-67705000D01*
X91734000Y-67714000D01*
X91735000Y-67722000D01*
X91737000Y-67731000D01*
X91738000Y-67739000D01*
X91740000Y-67748000D01*
X91742000Y-67756000D01*
X91743000Y-67764000D01*
X91745000Y-67773000D01*
X91748000Y-67781000D01*
X91750000Y-67789000D01*
X91752000Y-67797000D01*
X91755000Y-67806000D01*
X91757000Y-67814000D01*
X91760000Y-67822000D01*
X91762000Y-67830000D01*
X91765000Y-67838000D01*
X91768000Y-67846000D01*
X91771000Y-67854000D01*
X91775000Y-67862000D01*
X91778000Y-67870000D01*
X91127000Y-68200000D01*
X91127000Y-67620000D01*
X91727000Y-67620000D01*
X91727000Y-67629000D01*
G36*
X91727000Y-67629000D02*
G01*
X91727000Y-67637000D01*
X91728000Y-67646000D01*
X91728000Y-67654000D01*
X91728000Y-67663000D01*
X91729000Y-67671000D01*
X91730000Y-67680000D01*
X91731000Y-67688000D01*
X91732000Y-67697000D01*
X91733000Y-67705000D01*
X91734000Y-67714000D01*
X91735000Y-67722000D01*
X91737000Y-67731000D01*
X91738000Y-67739000D01*
X91740000Y-67748000D01*
X91742000Y-67756000D01*
X91743000Y-67764000D01*
X91745000Y-67773000D01*
X91748000Y-67781000D01*
X91750000Y-67789000D01*
X91752000Y-67797000D01*
X91755000Y-67806000D01*
X91757000Y-67814000D01*
X91760000Y-67822000D01*
X91762000Y-67830000D01*
X91765000Y-67838000D01*
X91768000Y-67846000D01*
X91771000Y-67854000D01*
X91775000Y-67862000D01*
X91778000Y-67870000D01*
X91127000Y-68200000D01*
X91127000Y-67620000D01*
X91727000Y-67620000D01*
X91727000Y-67629000D01*
G37*
X92367000Y-51740000D02*
X92358000Y-51740000D01*
X92350000Y-51740000D01*
X92341000Y-51741000D01*
X92333000Y-51741000D01*
X92324000Y-51741000D01*
X92316000Y-51742000D01*
X92307000Y-51743000D01*
X92299000Y-51744000D01*
X92290000Y-51745000D01*
X92282000Y-51746000D01*
X92273000Y-51747000D01*
X92265000Y-51748000D01*
X92256000Y-51750000D01*
X92248000Y-51751000D01*
X92239000Y-51753000D01*
X92231000Y-51755000D01*
X92223000Y-51756000D01*
X92214000Y-51758000D01*
X92206000Y-51761000D01*
X92198000Y-51763000D01*
X92190000Y-51765000D01*
X92181000Y-51768000D01*
X92173000Y-51770000D01*
X92165000Y-51773000D01*
X92157000Y-51775000D01*
X92149000Y-51778000D01*
X92141000Y-51781000D01*
X92133000Y-51784000D01*
X92125000Y-51788000D01*
X92117000Y-51791000D01*
X91350000Y-49983000D01*
X91382000Y-49970000D01*
X91414000Y-49957000D01*
X91447000Y-49945000D01*
X91479000Y-49932000D01*
X91512000Y-49921000D01*
X91545000Y-49910000D01*
X91578000Y-49899000D01*
X91612000Y-49888000D01*
X91645000Y-49879000D01*
X91679000Y-49869000D01*
X91712000Y-49860000D01*
X91746000Y-49852000D01*
X91780000Y-49844000D01*
X91814000Y-49836000D01*
X91848000Y-49829000D01*
X91882000Y-49822000D01*
X91916000Y-49816000D01*
X91951000Y-49810000D01*
X91985000Y-49805000D01*
X92020000Y-49800000D01*
X92054000Y-49795000D01*
X92089000Y-49791000D01*
X92124000Y-49788000D01*
X92158000Y-49785000D01*
X92193000Y-49782000D01*
X92228000Y-49780000D01*
X92263000Y-49779000D01*
X92297000Y-49777000D01*
X92332000Y-49777000D01*
X92367000Y-49777000D01*
X92367000Y-51740000D01*
G36*
X92367000Y-51740000D02*
G01*
X92358000Y-51740000D01*
X92350000Y-51740000D01*
X92341000Y-51741000D01*
X92333000Y-51741000D01*
X92324000Y-51741000D01*
X92316000Y-51742000D01*
X92307000Y-51743000D01*
X92299000Y-51744000D01*
X92290000Y-51745000D01*
X92282000Y-51746000D01*
X92273000Y-51747000D01*
X92265000Y-51748000D01*
X92256000Y-51750000D01*
X92248000Y-51751000D01*
X92239000Y-51753000D01*
X92231000Y-51755000D01*
X92223000Y-51756000D01*
X92214000Y-51758000D01*
X92206000Y-51761000D01*
X92198000Y-51763000D01*
X92190000Y-51765000D01*
X92181000Y-51768000D01*
X92173000Y-51770000D01*
X92165000Y-51773000D01*
X92157000Y-51775000D01*
X92149000Y-51778000D01*
X92141000Y-51781000D01*
X92133000Y-51784000D01*
X92125000Y-51788000D01*
X92117000Y-51791000D01*
X91350000Y-49983000D01*
X91382000Y-49970000D01*
X91414000Y-49957000D01*
X91447000Y-49945000D01*
X91479000Y-49932000D01*
X91512000Y-49921000D01*
X91545000Y-49910000D01*
X91578000Y-49899000D01*
X91612000Y-49888000D01*
X91645000Y-49879000D01*
X91679000Y-49869000D01*
X91712000Y-49860000D01*
X91746000Y-49852000D01*
X91780000Y-49844000D01*
X91814000Y-49836000D01*
X91848000Y-49829000D01*
X91882000Y-49822000D01*
X91916000Y-49816000D01*
X91951000Y-49810000D01*
X91985000Y-49805000D01*
X92020000Y-49800000D01*
X92054000Y-49795000D01*
X92089000Y-49791000D01*
X92124000Y-49788000D01*
X92158000Y-49785000D01*
X92193000Y-49782000D01*
X92228000Y-49780000D01*
X92263000Y-49779000D01*
X92297000Y-49777000D01*
X92332000Y-49777000D01*
X92367000Y-49777000D01*
X92367000Y-51740000D01*
G37*
X92125000Y-52972000D02*
X92133000Y-52976000D01*
X92141000Y-52979000D01*
X92149000Y-52982000D01*
X92157000Y-52985000D01*
X92165000Y-52987000D01*
X92173000Y-52990000D01*
X92181000Y-52992000D01*
X92190000Y-52995000D01*
X92198000Y-52997000D01*
X92206000Y-52999000D01*
X92214000Y-53002000D01*
X92223000Y-53004000D01*
X92231000Y-53005000D01*
X92239000Y-53007000D01*
X92248000Y-53009000D01*
X92256000Y-53010000D01*
X92265000Y-53012000D01*
X92273000Y-53013000D01*
X92282000Y-53014000D01*
X92290000Y-53015000D01*
X92299000Y-53016000D01*
X92307000Y-53017000D01*
X92316000Y-53018000D01*
X92324000Y-53019000D01*
X92333000Y-53019000D01*
X92341000Y-53019000D01*
X92350000Y-53020000D01*
X92358000Y-53020000D01*
X92367000Y-53020000D01*
X92367000Y-54984000D01*
X92332000Y-54983000D01*
X92297000Y-54983000D01*
X92263000Y-54981000D01*
X92228000Y-54980000D01*
X92193000Y-54978000D01*
X92158000Y-54975000D01*
X92124000Y-54972000D01*
X92089000Y-54969000D01*
X92054000Y-54965000D01*
X92020000Y-54960000D01*
X91985000Y-54955000D01*
X91951000Y-54950000D01*
X91916000Y-54944000D01*
X91882000Y-54938000D01*
X91848000Y-54931000D01*
X91814000Y-54924000D01*
X91780000Y-54916000D01*
X91746000Y-54908000D01*
X91712000Y-54900000D01*
X91679000Y-54891000D01*
X91645000Y-54881000D01*
X91612000Y-54872000D01*
X91578000Y-54861000D01*
X91545000Y-54850000D01*
X91512000Y-54839000D01*
X91479000Y-54828000D01*
X91447000Y-54815000D01*
X91414000Y-54803000D01*
X91382000Y-54790000D01*
X91350000Y-54777000D01*
X92117000Y-52969000D01*
X92125000Y-52972000D01*
G36*
X92125000Y-52972000D02*
G01*
X92133000Y-52976000D01*
X92141000Y-52979000D01*
X92149000Y-52982000D01*
X92157000Y-52985000D01*
X92165000Y-52987000D01*
X92173000Y-52990000D01*
X92181000Y-52992000D01*
X92190000Y-52995000D01*
X92198000Y-52997000D01*
X92206000Y-52999000D01*
X92214000Y-53002000D01*
X92223000Y-53004000D01*
X92231000Y-53005000D01*
X92239000Y-53007000D01*
X92248000Y-53009000D01*
X92256000Y-53010000D01*
X92265000Y-53012000D01*
X92273000Y-53013000D01*
X92282000Y-53014000D01*
X92290000Y-53015000D01*
X92299000Y-53016000D01*
X92307000Y-53017000D01*
X92316000Y-53018000D01*
X92324000Y-53019000D01*
X92333000Y-53019000D01*
X92341000Y-53019000D01*
X92350000Y-53020000D01*
X92358000Y-53020000D01*
X92367000Y-53020000D01*
X92367000Y-54984000D01*
X92332000Y-54983000D01*
X92297000Y-54983000D01*
X92263000Y-54981000D01*
X92228000Y-54980000D01*
X92193000Y-54978000D01*
X92158000Y-54975000D01*
X92124000Y-54972000D01*
X92089000Y-54969000D01*
X92054000Y-54965000D01*
X92020000Y-54960000D01*
X91985000Y-54955000D01*
X91951000Y-54950000D01*
X91916000Y-54944000D01*
X91882000Y-54938000D01*
X91848000Y-54931000D01*
X91814000Y-54924000D01*
X91780000Y-54916000D01*
X91746000Y-54908000D01*
X91712000Y-54900000D01*
X91679000Y-54891000D01*
X91645000Y-54881000D01*
X91612000Y-54872000D01*
X91578000Y-54861000D01*
X91545000Y-54850000D01*
X91512000Y-54839000D01*
X91479000Y-54828000D01*
X91447000Y-54815000D01*
X91414000Y-54803000D01*
X91382000Y-54790000D01*
X91350000Y-54777000D01*
X92117000Y-52969000D01*
X92125000Y-52972000D01*
G37*
X92367000Y-66980000D02*
X92358000Y-66980000D01*
X92350000Y-66980000D01*
X92341000Y-66981000D01*
X92333000Y-66981000D01*
X92324000Y-66981000D01*
X92316000Y-66982000D01*
X92307000Y-66983000D01*
X92299000Y-66984000D01*
X92290000Y-66985000D01*
X92282000Y-66986000D01*
X92273000Y-66987000D01*
X92265000Y-66988000D01*
X92256000Y-66990000D01*
X92248000Y-66991000D01*
X92239000Y-66993000D01*
X92231000Y-66995000D01*
X92223000Y-66996000D01*
X92214000Y-66998000D01*
X92206000Y-67001000D01*
X92198000Y-67003000D01*
X92190000Y-67005000D01*
X92181000Y-67008000D01*
X92173000Y-67010000D01*
X92165000Y-67013000D01*
X92157000Y-67015000D01*
X92149000Y-67018000D01*
X92141000Y-67021000D01*
X92133000Y-67024000D01*
X92125000Y-67028000D01*
X92117000Y-67031000D01*
X91350000Y-65223000D01*
X91382000Y-65210000D01*
X91414000Y-65197000D01*
X91447000Y-65185000D01*
X91479000Y-65172000D01*
X91512000Y-65161000D01*
X91545000Y-65150000D01*
X91578000Y-65139000D01*
X91612000Y-65128000D01*
X91645000Y-65119000D01*
X91679000Y-65109000D01*
X91712000Y-65100000D01*
X91746000Y-65092000D01*
X91780000Y-65084000D01*
X91814000Y-65076000D01*
X91848000Y-65069000D01*
X91882000Y-65062000D01*
X91916000Y-65056000D01*
X91951000Y-65050000D01*
X91985000Y-65045000D01*
X92020000Y-65040000D01*
X92054000Y-65035000D01*
X92089000Y-65031000D01*
X92124000Y-65028000D01*
X92158000Y-65025000D01*
X92193000Y-65022000D01*
X92228000Y-65020000D01*
X92263000Y-65019000D01*
X92297000Y-65017000D01*
X92332000Y-65017000D01*
X92367000Y-65016000D01*
X92367000Y-66980000D01*
G36*
X92367000Y-66980000D02*
G01*
X92358000Y-66980000D01*
X92350000Y-66980000D01*
X92341000Y-66981000D01*
X92333000Y-66981000D01*
X92324000Y-66981000D01*
X92316000Y-66982000D01*
X92307000Y-66983000D01*
X92299000Y-66984000D01*
X92290000Y-66985000D01*
X92282000Y-66986000D01*
X92273000Y-66987000D01*
X92265000Y-66988000D01*
X92256000Y-66990000D01*
X92248000Y-66991000D01*
X92239000Y-66993000D01*
X92231000Y-66995000D01*
X92223000Y-66996000D01*
X92214000Y-66998000D01*
X92206000Y-67001000D01*
X92198000Y-67003000D01*
X92190000Y-67005000D01*
X92181000Y-67008000D01*
X92173000Y-67010000D01*
X92165000Y-67013000D01*
X92157000Y-67015000D01*
X92149000Y-67018000D01*
X92141000Y-67021000D01*
X92133000Y-67024000D01*
X92125000Y-67028000D01*
X92117000Y-67031000D01*
X91350000Y-65223000D01*
X91382000Y-65210000D01*
X91414000Y-65197000D01*
X91447000Y-65185000D01*
X91479000Y-65172000D01*
X91512000Y-65161000D01*
X91545000Y-65150000D01*
X91578000Y-65139000D01*
X91612000Y-65128000D01*
X91645000Y-65119000D01*
X91679000Y-65109000D01*
X91712000Y-65100000D01*
X91746000Y-65092000D01*
X91780000Y-65084000D01*
X91814000Y-65076000D01*
X91848000Y-65069000D01*
X91882000Y-65062000D01*
X91916000Y-65056000D01*
X91951000Y-65050000D01*
X91985000Y-65045000D01*
X92020000Y-65040000D01*
X92054000Y-65035000D01*
X92089000Y-65031000D01*
X92124000Y-65028000D01*
X92158000Y-65025000D01*
X92193000Y-65022000D01*
X92228000Y-65020000D01*
X92263000Y-65019000D01*
X92297000Y-65017000D01*
X92332000Y-65017000D01*
X92367000Y-65016000D01*
X92367000Y-66980000D01*
G37*
X92125000Y-68212000D02*
X92133000Y-68216000D01*
X92141000Y-68219000D01*
X92149000Y-68222000D01*
X92157000Y-68225000D01*
X92165000Y-68227000D01*
X92173000Y-68230000D01*
X92181000Y-68232000D01*
X92190000Y-68235000D01*
X92198000Y-68237000D01*
X92206000Y-68239000D01*
X92214000Y-68242000D01*
X92223000Y-68244000D01*
X92231000Y-68245000D01*
X92239000Y-68247000D01*
X92248000Y-68249000D01*
X92256000Y-68250000D01*
X92265000Y-68252000D01*
X92273000Y-68253000D01*
X92282000Y-68254000D01*
X92290000Y-68255000D01*
X92299000Y-68256000D01*
X92307000Y-68257000D01*
X92316000Y-68258000D01*
X92324000Y-68259000D01*
X92333000Y-68259000D01*
X92341000Y-68259000D01*
X92350000Y-68260000D01*
X92358000Y-68260000D01*
X92367000Y-68260000D01*
X92367000Y-70223000D01*
X92332000Y-70223000D01*
X92297000Y-70223000D01*
X92263000Y-70221000D01*
X92228000Y-70220000D01*
X92193000Y-70218000D01*
X92158000Y-70215000D01*
X92124000Y-70212000D01*
X92089000Y-70209000D01*
X92054000Y-70205000D01*
X92020000Y-70200000D01*
X91985000Y-70195000D01*
X91951000Y-70190000D01*
X91916000Y-70184000D01*
X91882000Y-70178000D01*
X91848000Y-70171000D01*
X91814000Y-70164000D01*
X91780000Y-70156000D01*
X91746000Y-70148000D01*
X91712000Y-70140000D01*
X91679000Y-70131000D01*
X91645000Y-70121000D01*
X91612000Y-70112000D01*
X91578000Y-70101000D01*
X91545000Y-70090000D01*
X91512000Y-70079000D01*
X91479000Y-70068000D01*
X91447000Y-70055000D01*
X91414000Y-70043000D01*
X91382000Y-70030000D01*
X91350000Y-70017000D01*
X92117000Y-68209000D01*
X92125000Y-68212000D01*
G36*
X92125000Y-68212000D02*
G01*
X92133000Y-68216000D01*
X92141000Y-68219000D01*
X92149000Y-68222000D01*
X92157000Y-68225000D01*
X92165000Y-68227000D01*
X92173000Y-68230000D01*
X92181000Y-68232000D01*
X92190000Y-68235000D01*
X92198000Y-68237000D01*
X92206000Y-68239000D01*
X92214000Y-68242000D01*
X92223000Y-68244000D01*
X92231000Y-68245000D01*
X92239000Y-68247000D01*
X92248000Y-68249000D01*
X92256000Y-68250000D01*
X92265000Y-68252000D01*
X92273000Y-68253000D01*
X92282000Y-68254000D01*
X92290000Y-68255000D01*
X92299000Y-68256000D01*
X92307000Y-68257000D01*
X92316000Y-68258000D01*
X92324000Y-68259000D01*
X92333000Y-68259000D01*
X92341000Y-68259000D01*
X92350000Y-68260000D01*
X92358000Y-68260000D01*
X92367000Y-68260000D01*
X92367000Y-70223000D01*
X92332000Y-70223000D01*
X92297000Y-70223000D01*
X92263000Y-70221000D01*
X92228000Y-70220000D01*
X92193000Y-70218000D01*
X92158000Y-70215000D01*
X92124000Y-70212000D01*
X92089000Y-70209000D01*
X92054000Y-70205000D01*
X92020000Y-70200000D01*
X91985000Y-70195000D01*
X91951000Y-70190000D01*
X91916000Y-70184000D01*
X91882000Y-70178000D01*
X91848000Y-70171000D01*
X91814000Y-70164000D01*
X91780000Y-70156000D01*
X91746000Y-70148000D01*
X91712000Y-70140000D01*
X91679000Y-70131000D01*
X91645000Y-70121000D01*
X91612000Y-70112000D01*
X91578000Y-70101000D01*
X91545000Y-70090000D01*
X91512000Y-70079000D01*
X91479000Y-70068000D01*
X91447000Y-70055000D01*
X91414000Y-70043000D01*
X91382000Y-70030000D01*
X91350000Y-70017000D01*
X92117000Y-68209000D01*
X92125000Y-68212000D01*
G37*
X92000000Y-51841000D02*
X91996000Y-51843000D01*
X91989000Y-51848000D01*
X91983000Y-51852000D01*
X91977000Y-51857000D01*
X91971000Y-51862000D01*
X91965000Y-51866000D01*
X91959000Y-51871000D01*
X91953000Y-51876000D01*
X91947000Y-51881000D01*
X91941000Y-51886000D01*
X91936000Y-51892000D01*
X91930000Y-51897000D01*
X91924000Y-51902000D01*
X91919000Y-51907000D01*
X91913000Y-51913000D01*
X91908000Y-51918000D01*
X91903000Y-51924000D01*
X91897000Y-51930000D01*
X91892000Y-51935000D01*
X91887000Y-51941000D01*
X91882000Y-51947000D01*
X91877000Y-51953000D01*
X91873000Y-51959000D01*
X91868000Y-51965000D01*
X91863000Y-51971000D01*
X91859000Y-51978000D01*
X91854000Y-51984000D01*
X91850000Y-51990000D01*
X91845000Y-51997000D01*
X91840000Y-52005000D01*
X91127000Y-51650000D01*
X91127000Y-50090000D01*
X91129000Y-50088000D01*
X91132000Y-50086000D01*
X91135000Y-50083000D01*
X91139000Y-50081000D01*
X91142000Y-50078000D01*
X91145000Y-50076000D01*
X91149000Y-50074000D01*
X91152000Y-50071000D01*
X91155000Y-50069000D01*
X91159000Y-50067000D01*
X91162000Y-50065000D01*
X91165000Y-50063000D01*
X91169000Y-50061000D01*
X91172000Y-50059000D01*
X91176000Y-50057000D01*
X91180000Y-50055000D01*
X91183000Y-50053000D01*
X91187000Y-50051000D01*
X91190000Y-50049000D01*
X91194000Y-50048000D01*
X91198000Y-50046000D01*
X91201000Y-50045000D01*
X91205000Y-50043000D01*
X91209000Y-50041000D01*
X91213000Y-50040000D01*
X91216000Y-50039000D01*
X91220000Y-50037000D01*
X91224000Y-50036000D01*
X91228000Y-50035000D01*
X91233000Y-50033000D01*
X92000000Y-51841000D01*
G36*
X92000000Y-51841000D02*
G01*
X91996000Y-51843000D01*
X91989000Y-51848000D01*
X91983000Y-51852000D01*
X91977000Y-51857000D01*
X91971000Y-51862000D01*
X91965000Y-51866000D01*
X91959000Y-51871000D01*
X91953000Y-51876000D01*
X91947000Y-51881000D01*
X91941000Y-51886000D01*
X91936000Y-51892000D01*
X91930000Y-51897000D01*
X91924000Y-51902000D01*
X91919000Y-51907000D01*
X91913000Y-51913000D01*
X91908000Y-51918000D01*
X91903000Y-51924000D01*
X91897000Y-51930000D01*
X91892000Y-51935000D01*
X91887000Y-51941000D01*
X91882000Y-51947000D01*
X91877000Y-51953000D01*
X91873000Y-51959000D01*
X91868000Y-51965000D01*
X91863000Y-51971000D01*
X91859000Y-51978000D01*
X91854000Y-51984000D01*
X91850000Y-51990000D01*
X91845000Y-51997000D01*
X91840000Y-52005000D01*
X91127000Y-51650000D01*
X91127000Y-50090000D01*
X91129000Y-50088000D01*
X91132000Y-50086000D01*
X91135000Y-50083000D01*
X91139000Y-50081000D01*
X91142000Y-50078000D01*
X91145000Y-50076000D01*
X91149000Y-50074000D01*
X91152000Y-50071000D01*
X91155000Y-50069000D01*
X91159000Y-50067000D01*
X91162000Y-50065000D01*
X91165000Y-50063000D01*
X91169000Y-50061000D01*
X91172000Y-50059000D01*
X91176000Y-50057000D01*
X91180000Y-50055000D01*
X91183000Y-50053000D01*
X91187000Y-50051000D01*
X91190000Y-50049000D01*
X91194000Y-50048000D01*
X91198000Y-50046000D01*
X91201000Y-50045000D01*
X91205000Y-50043000D01*
X91209000Y-50041000D01*
X91213000Y-50040000D01*
X91216000Y-50039000D01*
X91220000Y-50037000D01*
X91224000Y-50036000D01*
X91228000Y-50035000D01*
X91233000Y-50033000D01*
X92000000Y-51841000D01*
G37*
X91845000Y-52763000D02*
X91850000Y-52770000D01*
X91854000Y-52776000D01*
X91859000Y-52782000D01*
X91863000Y-52789000D01*
X91868000Y-52795000D01*
X91873000Y-52801000D01*
X91877000Y-52807000D01*
X91882000Y-52813000D01*
X91887000Y-52819000D01*
X91892000Y-52825000D01*
X91897000Y-52830000D01*
X91903000Y-52836000D01*
X91908000Y-52842000D01*
X91913000Y-52847000D01*
X91919000Y-52853000D01*
X91924000Y-52858000D01*
X91930000Y-52863000D01*
X91936000Y-52868000D01*
X91941000Y-52874000D01*
X91947000Y-52879000D01*
X91953000Y-52884000D01*
X91959000Y-52889000D01*
X91965000Y-52894000D01*
X91971000Y-52898000D01*
X91977000Y-52903000D01*
X91983000Y-52908000D01*
X91989000Y-52912000D01*
X91996000Y-52917000D01*
X92000000Y-52920000D01*
X91233000Y-54727000D01*
X91228000Y-54725000D01*
X91224000Y-54724000D01*
X91220000Y-54723000D01*
X91216000Y-54721000D01*
X91213000Y-54720000D01*
X91209000Y-54719000D01*
X91205000Y-54717000D01*
X91201000Y-54715000D01*
X91198000Y-54714000D01*
X91194000Y-54712000D01*
X91190000Y-54711000D01*
X91187000Y-54709000D01*
X91183000Y-54707000D01*
X91180000Y-54705000D01*
X91176000Y-54703000D01*
X91172000Y-54701000D01*
X91169000Y-54699000D01*
X91165000Y-54697000D01*
X91162000Y-54695000D01*
X91159000Y-54693000D01*
X91155000Y-54691000D01*
X91152000Y-54689000D01*
X91149000Y-54686000D01*
X91145000Y-54684000D01*
X91142000Y-54682000D01*
X91139000Y-54679000D01*
X91135000Y-54677000D01*
X91132000Y-54674000D01*
X91129000Y-54672000D01*
X91127000Y-54670000D01*
X91127000Y-53110000D01*
X91840000Y-52755000D01*
X91845000Y-52763000D01*
G36*
X91845000Y-52763000D02*
G01*
X91850000Y-52770000D01*
X91854000Y-52776000D01*
X91859000Y-52782000D01*
X91863000Y-52789000D01*
X91868000Y-52795000D01*
X91873000Y-52801000D01*
X91877000Y-52807000D01*
X91882000Y-52813000D01*
X91887000Y-52819000D01*
X91892000Y-52825000D01*
X91897000Y-52830000D01*
X91903000Y-52836000D01*
X91908000Y-52842000D01*
X91913000Y-52847000D01*
X91919000Y-52853000D01*
X91924000Y-52858000D01*
X91930000Y-52863000D01*
X91936000Y-52868000D01*
X91941000Y-52874000D01*
X91947000Y-52879000D01*
X91953000Y-52884000D01*
X91959000Y-52889000D01*
X91965000Y-52894000D01*
X91971000Y-52898000D01*
X91977000Y-52903000D01*
X91983000Y-52908000D01*
X91989000Y-52912000D01*
X91996000Y-52917000D01*
X92000000Y-52920000D01*
X91233000Y-54727000D01*
X91228000Y-54725000D01*
X91224000Y-54724000D01*
X91220000Y-54723000D01*
X91216000Y-54721000D01*
X91213000Y-54720000D01*
X91209000Y-54719000D01*
X91205000Y-54717000D01*
X91201000Y-54715000D01*
X91198000Y-54714000D01*
X91194000Y-54712000D01*
X91190000Y-54711000D01*
X91187000Y-54709000D01*
X91183000Y-54707000D01*
X91180000Y-54705000D01*
X91176000Y-54703000D01*
X91172000Y-54701000D01*
X91169000Y-54699000D01*
X91165000Y-54697000D01*
X91162000Y-54695000D01*
X91159000Y-54693000D01*
X91155000Y-54691000D01*
X91152000Y-54689000D01*
X91149000Y-54686000D01*
X91145000Y-54684000D01*
X91142000Y-54682000D01*
X91139000Y-54679000D01*
X91135000Y-54677000D01*
X91132000Y-54674000D01*
X91129000Y-54672000D01*
X91127000Y-54670000D01*
X91127000Y-53110000D01*
X91840000Y-52755000D01*
X91845000Y-52763000D01*
G37*
X92000000Y-67080000D02*
X91996000Y-67083000D01*
X91989000Y-67088000D01*
X91983000Y-67092000D01*
X91977000Y-67097000D01*
X91971000Y-67102000D01*
X91965000Y-67106000D01*
X91959000Y-67111000D01*
X91953000Y-67116000D01*
X91947000Y-67121000D01*
X91941000Y-67126000D01*
X91936000Y-67132000D01*
X91930000Y-67137000D01*
X91924000Y-67142000D01*
X91919000Y-67147000D01*
X91913000Y-67153000D01*
X91908000Y-67158000D01*
X91903000Y-67164000D01*
X91897000Y-67170000D01*
X91892000Y-67175000D01*
X91887000Y-67181000D01*
X91882000Y-67187000D01*
X91877000Y-67193000D01*
X91873000Y-67199000D01*
X91868000Y-67205000D01*
X91863000Y-67211000D01*
X91859000Y-67218000D01*
X91854000Y-67224000D01*
X91850000Y-67230000D01*
X91845000Y-67237000D01*
X91840000Y-67245000D01*
X91127000Y-66890000D01*
X91127000Y-65330000D01*
X91129000Y-65328000D01*
X91132000Y-65326000D01*
X91135000Y-65323000D01*
X91139000Y-65321000D01*
X91142000Y-65318000D01*
X91145000Y-65316000D01*
X91149000Y-65314000D01*
X91152000Y-65311000D01*
X91155000Y-65309000D01*
X91159000Y-65307000D01*
X91162000Y-65305000D01*
X91165000Y-65303000D01*
X91169000Y-65301000D01*
X91172000Y-65299000D01*
X91176000Y-65297000D01*
X91180000Y-65295000D01*
X91183000Y-65293000D01*
X91187000Y-65291000D01*
X91190000Y-65289000D01*
X91194000Y-65288000D01*
X91198000Y-65286000D01*
X91201000Y-65285000D01*
X91205000Y-65283000D01*
X91209000Y-65281000D01*
X91213000Y-65280000D01*
X91216000Y-65279000D01*
X91220000Y-65277000D01*
X91224000Y-65276000D01*
X91228000Y-65275000D01*
X91233000Y-65273000D01*
X92000000Y-67080000D01*
G36*
X92000000Y-67080000D02*
G01*
X91996000Y-67083000D01*
X91989000Y-67088000D01*
X91983000Y-67092000D01*
X91977000Y-67097000D01*
X91971000Y-67102000D01*
X91965000Y-67106000D01*
X91959000Y-67111000D01*
X91953000Y-67116000D01*
X91947000Y-67121000D01*
X91941000Y-67126000D01*
X91936000Y-67132000D01*
X91930000Y-67137000D01*
X91924000Y-67142000D01*
X91919000Y-67147000D01*
X91913000Y-67153000D01*
X91908000Y-67158000D01*
X91903000Y-67164000D01*
X91897000Y-67170000D01*
X91892000Y-67175000D01*
X91887000Y-67181000D01*
X91882000Y-67187000D01*
X91877000Y-67193000D01*
X91873000Y-67199000D01*
X91868000Y-67205000D01*
X91863000Y-67211000D01*
X91859000Y-67218000D01*
X91854000Y-67224000D01*
X91850000Y-67230000D01*
X91845000Y-67237000D01*
X91840000Y-67245000D01*
X91127000Y-66890000D01*
X91127000Y-65330000D01*
X91129000Y-65328000D01*
X91132000Y-65326000D01*
X91135000Y-65323000D01*
X91139000Y-65321000D01*
X91142000Y-65318000D01*
X91145000Y-65316000D01*
X91149000Y-65314000D01*
X91152000Y-65311000D01*
X91155000Y-65309000D01*
X91159000Y-65307000D01*
X91162000Y-65305000D01*
X91165000Y-65303000D01*
X91169000Y-65301000D01*
X91172000Y-65299000D01*
X91176000Y-65297000D01*
X91180000Y-65295000D01*
X91183000Y-65293000D01*
X91187000Y-65291000D01*
X91190000Y-65289000D01*
X91194000Y-65288000D01*
X91198000Y-65286000D01*
X91201000Y-65285000D01*
X91205000Y-65283000D01*
X91209000Y-65281000D01*
X91213000Y-65280000D01*
X91216000Y-65279000D01*
X91220000Y-65277000D01*
X91224000Y-65276000D01*
X91228000Y-65275000D01*
X91233000Y-65273000D01*
X92000000Y-67080000D01*
G37*
X91845000Y-68003000D02*
X91850000Y-68010000D01*
X91854000Y-68016000D01*
X91859000Y-68022000D01*
X91863000Y-68029000D01*
X91868000Y-68035000D01*
X91873000Y-68041000D01*
X91877000Y-68047000D01*
X91882000Y-68053000D01*
X91887000Y-68059000D01*
X91892000Y-68065000D01*
X91897000Y-68070000D01*
X91903000Y-68076000D01*
X91908000Y-68082000D01*
X91913000Y-68087000D01*
X91919000Y-68093000D01*
X91924000Y-68098000D01*
X91930000Y-68103000D01*
X91936000Y-68108000D01*
X91941000Y-68114000D01*
X91947000Y-68119000D01*
X91953000Y-68124000D01*
X91959000Y-68129000D01*
X91965000Y-68134000D01*
X91971000Y-68138000D01*
X91977000Y-68143000D01*
X91983000Y-68148000D01*
X91989000Y-68152000D01*
X91996000Y-68157000D01*
X92000000Y-68159000D01*
X91233000Y-69967000D01*
X91228000Y-69965000D01*
X91224000Y-69964000D01*
X91220000Y-69963000D01*
X91216000Y-69961000D01*
X91213000Y-69960000D01*
X91209000Y-69959000D01*
X91205000Y-69957000D01*
X91201000Y-69955000D01*
X91198000Y-69954000D01*
X91194000Y-69952000D01*
X91190000Y-69951000D01*
X91187000Y-69949000D01*
X91183000Y-69947000D01*
X91180000Y-69945000D01*
X91176000Y-69943000D01*
X91172000Y-69941000D01*
X91169000Y-69939000D01*
X91165000Y-69937000D01*
X91162000Y-69935000D01*
X91159000Y-69933000D01*
X91155000Y-69931000D01*
X91152000Y-69929000D01*
X91149000Y-69926000D01*
X91145000Y-69924000D01*
X91142000Y-69922000D01*
X91139000Y-69919000D01*
X91135000Y-69917000D01*
X91132000Y-69914000D01*
X91129000Y-69912000D01*
X91127000Y-69910000D01*
X91127000Y-68350000D01*
X91840000Y-67995000D01*
X91845000Y-68003000D01*
G36*
X91845000Y-68003000D02*
G01*
X91850000Y-68010000D01*
X91854000Y-68016000D01*
X91859000Y-68022000D01*
X91863000Y-68029000D01*
X91868000Y-68035000D01*
X91873000Y-68041000D01*
X91877000Y-68047000D01*
X91882000Y-68053000D01*
X91887000Y-68059000D01*
X91892000Y-68065000D01*
X91897000Y-68070000D01*
X91903000Y-68076000D01*
X91908000Y-68082000D01*
X91913000Y-68087000D01*
X91919000Y-68093000D01*
X91924000Y-68098000D01*
X91930000Y-68103000D01*
X91936000Y-68108000D01*
X91941000Y-68114000D01*
X91947000Y-68119000D01*
X91953000Y-68124000D01*
X91959000Y-68129000D01*
X91965000Y-68134000D01*
X91971000Y-68138000D01*
X91977000Y-68143000D01*
X91983000Y-68148000D01*
X91989000Y-68152000D01*
X91996000Y-68157000D01*
X92000000Y-68159000D01*
X91233000Y-69967000D01*
X91228000Y-69965000D01*
X91224000Y-69964000D01*
X91220000Y-69963000D01*
X91216000Y-69961000D01*
X91213000Y-69960000D01*
X91209000Y-69959000D01*
X91205000Y-69957000D01*
X91201000Y-69955000D01*
X91198000Y-69954000D01*
X91194000Y-69952000D01*
X91190000Y-69951000D01*
X91187000Y-69949000D01*
X91183000Y-69947000D01*
X91180000Y-69945000D01*
X91176000Y-69943000D01*
X91172000Y-69941000D01*
X91169000Y-69939000D01*
X91165000Y-69937000D01*
X91162000Y-69935000D01*
X91159000Y-69933000D01*
X91155000Y-69931000D01*
X91152000Y-69929000D01*
X91149000Y-69926000D01*
X91145000Y-69924000D01*
X91142000Y-69922000D01*
X91139000Y-69919000D01*
X91135000Y-69917000D01*
X91132000Y-69914000D01*
X91129000Y-69912000D01*
X91127000Y-69910000D01*
X91127000Y-68350000D01*
X91840000Y-67995000D01*
X91845000Y-68003000D01*
G37*
X92584000Y-51515000D02*
X92624000Y-51526000D01*
X92662000Y-51539000D01*
X92700000Y-51554000D01*
X92738000Y-51570000D01*
X92774000Y-51588000D01*
X92810000Y-51608000D01*
X92845000Y-51629000D01*
X92879000Y-51652000D01*
X92911000Y-51677000D01*
X92943000Y-51702000D01*
X92973000Y-51730000D01*
X93002000Y-51758000D01*
X93030000Y-51788000D01*
X93057000Y-51819000D01*
X93082000Y-51852000D01*
X93105000Y-51885000D01*
X93127000Y-51919000D01*
X93147000Y-51955000D01*
X93166000Y-51991000D01*
X93183000Y-52028000D01*
X93198000Y-52066000D01*
X93212000Y-52104000D01*
X93224000Y-52143000D01*
X93234000Y-52183000D01*
X93242000Y-52223000D01*
X93249000Y-52263000D01*
X93253000Y-52304000D01*
X93256000Y-52344000D01*
X93257000Y-52380000D01*
X93256000Y-52417000D01*
X93253000Y-52458000D01*
X93249000Y-52499000D01*
X93242000Y-52539000D01*
X93233000Y-52580000D01*
X93223000Y-52619000D01*
X93211000Y-52659000D01*
X93197000Y-52697000D01*
X93181000Y-52736000D01*
X93164000Y-52773000D01*
X93145000Y-52809000D01*
X93124000Y-52845000D01*
X93102000Y-52879000D01*
X93078000Y-52913000D01*
X93052000Y-52945000D01*
X93025000Y-52977000D01*
X92997000Y-53006000D01*
X92967000Y-53035000D01*
X92937000Y-53062000D01*
X92904000Y-53088000D01*
X92871000Y-53112000D01*
X92837000Y-53135000D01*
X92801000Y-53156000D01*
X92765000Y-53175000D01*
X92728000Y-53193000D01*
X92690000Y-53209000D01*
X92651000Y-53223000D01*
X92612000Y-53236000D01*
X92572000Y-53246000D01*
X92532000Y-53255000D01*
X92522000Y-53255000D01*
X92477000Y-53005000D01*
X92512000Y-53000000D01*
X92542000Y-52992000D01*
X92569000Y-52984000D01*
X92595000Y-52975000D01*
X92621000Y-52965000D01*
X92646000Y-52953000D01*
X92671000Y-52941000D01*
X92695000Y-52927000D01*
X92718000Y-52912000D01*
X92741000Y-52897000D01*
X92764000Y-52880000D01*
X92785000Y-52862000D01*
X92805000Y-52844000D01*
X92825000Y-52824000D01*
X92844000Y-52804000D01*
X92862000Y-52783000D01*
X92879000Y-52761000D01*
X92895000Y-52738000D01*
X92910000Y-52714000D01*
X92924000Y-52690000D01*
X92937000Y-52666000D01*
X92949000Y-52641000D01*
X92959000Y-52615000D01*
X92969000Y-52589000D01*
X92977000Y-52562000D01*
X92984000Y-52536000D01*
X92990000Y-52509000D01*
X92995000Y-52481000D01*
X92999000Y-52454000D01*
X93001000Y-52426000D01*
X93002000Y-52395000D01*
X93003000Y-52371000D01*
X93002000Y-52342000D01*
X93000000Y-52313000D01*
X92997000Y-52284000D01*
X92993000Y-52256000D01*
X92987000Y-52228000D01*
X92980000Y-52200000D01*
X92971000Y-52172000D01*
X92962000Y-52145000D01*
X92951000Y-52119000D01*
X92938000Y-52093000D01*
X92925000Y-52067000D01*
X92910000Y-52042000D01*
X92895000Y-52018000D01*
X92878000Y-51995000D01*
X92860000Y-51972000D01*
X92841000Y-51950000D01*
X92821000Y-51929000D01*
X92801000Y-51910000D01*
X92779000Y-51891000D01*
X92756000Y-51873000D01*
X92733000Y-51856000D01*
X92709000Y-51840000D01*
X92684000Y-51826000D01*
X92658000Y-51812000D01*
X92632000Y-51800000D01*
X92606000Y-51789000D01*
X92578000Y-51780000D01*
X92551000Y-51771000D01*
X92527000Y-51765000D01*
X92472000Y-51755000D01*
X92517000Y-51505000D01*
X92542000Y-51505000D01*
X92584000Y-51515000D01*
G36*
X92584000Y-51515000D02*
G01*
X92624000Y-51526000D01*
X92662000Y-51539000D01*
X92700000Y-51554000D01*
X92738000Y-51570000D01*
X92774000Y-51588000D01*
X92810000Y-51608000D01*
X92845000Y-51629000D01*
X92879000Y-51652000D01*
X92911000Y-51677000D01*
X92943000Y-51702000D01*
X92973000Y-51730000D01*
X93002000Y-51758000D01*
X93030000Y-51788000D01*
X93057000Y-51819000D01*
X93082000Y-51852000D01*
X93105000Y-51885000D01*
X93127000Y-51919000D01*
X93147000Y-51955000D01*
X93166000Y-51991000D01*
X93183000Y-52028000D01*
X93198000Y-52066000D01*
X93212000Y-52104000D01*
X93224000Y-52143000D01*
X93234000Y-52183000D01*
X93242000Y-52223000D01*
X93249000Y-52263000D01*
X93253000Y-52304000D01*
X93256000Y-52344000D01*
X93257000Y-52380000D01*
X93256000Y-52417000D01*
X93253000Y-52458000D01*
X93249000Y-52499000D01*
X93242000Y-52539000D01*
X93233000Y-52580000D01*
X93223000Y-52619000D01*
X93211000Y-52659000D01*
X93197000Y-52697000D01*
X93181000Y-52736000D01*
X93164000Y-52773000D01*
X93145000Y-52809000D01*
X93124000Y-52845000D01*
X93102000Y-52879000D01*
X93078000Y-52913000D01*
X93052000Y-52945000D01*
X93025000Y-52977000D01*
X92997000Y-53006000D01*
X92967000Y-53035000D01*
X92937000Y-53062000D01*
X92904000Y-53088000D01*
X92871000Y-53112000D01*
X92837000Y-53135000D01*
X92801000Y-53156000D01*
X92765000Y-53175000D01*
X92728000Y-53193000D01*
X92690000Y-53209000D01*
X92651000Y-53223000D01*
X92612000Y-53236000D01*
X92572000Y-53246000D01*
X92532000Y-53255000D01*
X92522000Y-53255000D01*
X92477000Y-53005000D01*
X92512000Y-53000000D01*
X92542000Y-52992000D01*
X92569000Y-52984000D01*
X92595000Y-52975000D01*
X92621000Y-52965000D01*
X92646000Y-52953000D01*
X92671000Y-52941000D01*
X92695000Y-52927000D01*
X92718000Y-52912000D01*
X92741000Y-52897000D01*
X92764000Y-52880000D01*
X92785000Y-52862000D01*
X92805000Y-52844000D01*
X92825000Y-52824000D01*
X92844000Y-52804000D01*
X92862000Y-52783000D01*
X92879000Y-52761000D01*
X92895000Y-52738000D01*
X92910000Y-52714000D01*
X92924000Y-52690000D01*
X92937000Y-52666000D01*
X92949000Y-52641000D01*
X92959000Y-52615000D01*
X92969000Y-52589000D01*
X92977000Y-52562000D01*
X92984000Y-52536000D01*
X92990000Y-52509000D01*
X92995000Y-52481000D01*
X92999000Y-52454000D01*
X93001000Y-52426000D01*
X93002000Y-52395000D01*
X93003000Y-52371000D01*
X93002000Y-52342000D01*
X93000000Y-52313000D01*
X92997000Y-52284000D01*
X92993000Y-52256000D01*
X92987000Y-52228000D01*
X92980000Y-52200000D01*
X92971000Y-52172000D01*
X92962000Y-52145000D01*
X92951000Y-52119000D01*
X92938000Y-52093000D01*
X92925000Y-52067000D01*
X92910000Y-52042000D01*
X92895000Y-52018000D01*
X92878000Y-51995000D01*
X92860000Y-51972000D01*
X92841000Y-51950000D01*
X92821000Y-51929000D01*
X92801000Y-51910000D01*
X92779000Y-51891000D01*
X92756000Y-51873000D01*
X92733000Y-51856000D01*
X92709000Y-51840000D01*
X92684000Y-51826000D01*
X92658000Y-51812000D01*
X92632000Y-51800000D01*
X92606000Y-51789000D01*
X92578000Y-51780000D01*
X92551000Y-51771000D01*
X92527000Y-51765000D01*
X92472000Y-51755000D01*
X92517000Y-51505000D01*
X92542000Y-51505000D01*
X92584000Y-51515000D01*
G37*
X92584000Y-66755000D02*
X92624000Y-66766000D01*
X92662000Y-66779000D01*
X92700000Y-66794000D01*
X92738000Y-66810000D01*
X92774000Y-66828000D01*
X92810000Y-66848000D01*
X92845000Y-66869000D01*
X92879000Y-66892000D01*
X92911000Y-66917000D01*
X92943000Y-66942000D01*
X92973000Y-66970000D01*
X93002000Y-66998000D01*
X93030000Y-67028000D01*
X93057000Y-67059000D01*
X93082000Y-67092000D01*
X93105000Y-67125000D01*
X93127000Y-67159000D01*
X93147000Y-67195000D01*
X93166000Y-67231000D01*
X93183000Y-67268000D01*
X93198000Y-67306000D01*
X93212000Y-67344000D01*
X93224000Y-67383000D01*
X93234000Y-67423000D01*
X93242000Y-67463000D01*
X93249000Y-67503000D01*
X93253000Y-67544000D01*
X93256000Y-67584000D01*
X93257000Y-67620000D01*
X93256000Y-67657000D01*
X93253000Y-67698000D01*
X93249000Y-67739000D01*
X93242000Y-67779000D01*
X93233000Y-67820000D01*
X93223000Y-67859000D01*
X93211000Y-67899000D01*
X93197000Y-67937000D01*
X93181000Y-67976000D01*
X93164000Y-68013000D01*
X93145000Y-68049000D01*
X93124000Y-68085000D01*
X93102000Y-68119000D01*
X93078000Y-68153000D01*
X93052000Y-68185000D01*
X93025000Y-68217000D01*
X92997000Y-68246000D01*
X92967000Y-68275000D01*
X92937000Y-68302000D01*
X92904000Y-68328000D01*
X92871000Y-68352000D01*
X92837000Y-68375000D01*
X92801000Y-68396000D01*
X92765000Y-68415000D01*
X92728000Y-68433000D01*
X92690000Y-68449000D01*
X92651000Y-68463000D01*
X92612000Y-68476000D01*
X92572000Y-68486000D01*
X92532000Y-68495000D01*
X92522000Y-68495000D01*
X92477000Y-68245000D01*
X92512000Y-68240000D01*
X92542000Y-68232000D01*
X92569000Y-68224000D01*
X92595000Y-68215000D01*
X92621000Y-68205000D01*
X92646000Y-68193000D01*
X92671000Y-68181000D01*
X92695000Y-68167000D01*
X92718000Y-68152000D01*
X92741000Y-68137000D01*
X92764000Y-68120000D01*
X92785000Y-68102000D01*
X92805000Y-68084000D01*
X92825000Y-68064000D01*
X92844000Y-68044000D01*
X92862000Y-68023000D01*
X92879000Y-68001000D01*
X92895000Y-67978000D01*
X92910000Y-67954000D01*
X92924000Y-67930000D01*
X92937000Y-67906000D01*
X92949000Y-67881000D01*
X92959000Y-67855000D01*
X92969000Y-67829000D01*
X92977000Y-67802000D01*
X92984000Y-67776000D01*
X92990000Y-67749000D01*
X92995000Y-67721000D01*
X92999000Y-67694000D01*
X93001000Y-67666000D01*
X93002000Y-67635000D01*
X93003000Y-67611000D01*
X93002000Y-67582000D01*
X93000000Y-67553000D01*
X92997000Y-67524000D01*
X92993000Y-67496000D01*
X92987000Y-67468000D01*
X92980000Y-67440000D01*
X92971000Y-67412000D01*
X92962000Y-67385000D01*
X92951000Y-67359000D01*
X92938000Y-67333000D01*
X92925000Y-67307000D01*
X92910000Y-67282000D01*
X92895000Y-67258000D01*
X92878000Y-67235000D01*
X92860000Y-67212000D01*
X92841000Y-67190000D01*
X92821000Y-67169000D01*
X92801000Y-67150000D01*
X92779000Y-67131000D01*
X92756000Y-67113000D01*
X92733000Y-67096000D01*
X92709000Y-67080000D01*
X92684000Y-67066000D01*
X92658000Y-67052000D01*
X92632000Y-67040000D01*
X92606000Y-67029000D01*
X92578000Y-67020000D01*
X92551000Y-67011000D01*
X92527000Y-67005000D01*
X92472000Y-66995000D01*
X92517000Y-66745000D01*
X92542000Y-66745000D01*
X92584000Y-66755000D01*
G36*
X92584000Y-66755000D02*
G01*
X92624000Y-66766000D01*
X92662000Y-66779000D01*
X92700000Y-66794000D01*
X92738000Y-66810000D01*
X92774000Y-66828000D01*
X92810000Y-66848000D01*
X92845000Y-66869000D01*
X92879000Y-66892000D01*
X92911000Y-66917000D01*
X92943000Y-66942000D01*
X92973000Y-66970000D01*
X93002000Y-66998000D01*
X93030000Y-67028000D01*
X93057000Y-67059000D01*
X93082000Y-67092000D01*
X93105000Y-67125000D01*
X93127000Y-67159000D01*
X93147000Y-67195000D01*
X93166000Y-67231000D01*
X93183000Y-67268000D01*
X93198000Y-67306000D01*
X93212000Y-67344000D01*
X93224000Y-67383000D01*
X93234000Y-67423000D01*
X93242000Y-67463000D01*
X93249000Y-67503000D01*
X93253000Y-67544000D01*
X93256000Y-67584000D01*
X93257000Y-67620000D01*
X93256000Y-67657000D01*
X93253000Y-67698000D01*
X93249000Y-67739000D01*
X93242000Y-67779000D01*
X93233000Y-67820000D01*
X93223000Y-67859000D01*
X93211000Y-67899000D01*
X93197000Y-67937000D01*
X93181000Y-67976000D01*
X93164000Y-68013000D01*
X93145000Y-68049000D01*
X93124000Y-68085000D01*
X93102000Y-68119000D01*
X93078000Y-68153000D01*
X93052000Y-68185000D01*
X93025000Y-68217000D01*
X92997000Y-68246000D01*
X92967000Y-68275000D01*
X92937000Y-68302000D01*
X92904000Y-68328000D01*
X92871000Y-68352000D01*
X92837000Y-68375000D01*
X92801000Y-68396000D01*
X92765000Y-68415000D01*
X92728000Y-68433000D01*
X92690000Y-68449000D01*
X92651000Y-68463000D01*
X92612000Y-68476000D01*
X92572000Y-68486000D01*
X92532000Y-68495000D01*
X92522000Y-68495000D01*
X92477000Y-68245000D01*
X92512000Y-68240000D01*
X92542000Y-68232000D01*
X92569000Y-68224000D01*
X92595000Y-68215000D01*
X92621000Y-68205000D01*
X92646000Y-68193000D01*
X92671000Y-68181000D01*
X92695000Y-68167000D01*
X92718000Y-68152000D01*
X92741000Y-68137000D01*
X92764000Y-68120000D01*
X92785000Y-68102000D01*
X92805000Y-68084000D01*
X92825000Y-68064000D01*
X92844000Y-68044000D01*
X92862000Y-68023000D01*
X92879000Y-68001000D01*
X92895000Y-67978000D01*
X92910000Y-67954000D01*
X92924000Y-67930000D01*
X92937000Y-67906000D01*
X92949000Y-67881000D01*
X92959000Y-67855000D01*
X92969000Y-67829000D01*
X92977000Y-67802000D01*
X92984000Y-67776000D01*
X92990000Y-67749000D01*
X92995000Y-67721000D01*
X92999000Y-67694000D01*
X93001000Y-67666000D01*
X93002000Y-67635000D01*
X93003000Y-67611000D01*
X93002000Y-67582000D01*
X93000000Y-67553000D01*
X92997000Y-67524000D01*
X92993000Y-67496000D01*
X92987000Y-67468000D01*
X92980000Y-67440000D01*
X92971000Y-67412000D01*
X92962000Y-67385000D01*
X92951000Y-67359000D01*
X92938000Y-67333000D01*
X92925000Y-67307000D01*
X92910000Y-67282000D01*
X92895000Y-67258000D01*
X92878000Y-67235000D01*
X92860000Y-67212000D01*
X92841000Y-67190000D01*
X92821000Y-67169000D01*
X92801000Y-67150000D01*
X92779000Y-67131000D01*
X92756000Y-67113000D01*
X92733000Y-67096000D01*
X92709000Y-67080000D01*
X92684000Y-67066000D01*
X92658000Y-67052000D01*
X92632000Y-67040000D01*
X92606000Y-67029000D01*
X92578000Y-67020000D01*
X92551000Y-67011000D01*
X92527000Y-67005000D01*
X92472000Y-66995000D01*
X92517000Y-66745000D01*
X92542000Y-66745000D01*
X92584000Y-66755000D01*
G37*
%TD*%
D11*
%TO.C,B6*%
X56071428Y-52500000D03*
%TD*%
%TO.C,R8*%
X65500000Y-52500000D03*
%TD*%
%TO.C,R5*%
X57642856Y-52500000D03*
%TD*%
%TO.C,R4*%
X57642856Y-67500000D03*
%TD*%
%TO.C,R6*%
X54500000Y-52500000D03*
%TD*%
D12*
%TO.C,B1*%
X63928568Y-67500000D03*
%TD*%
D11*
%TO.C,B8*%
X63928568Y-52500000D03*
%TD*%
%TO.C,B7*%
X60785712Y-52500000D03*
%TD*%
%TO.C,B4*%
X59214284Y-67500000D03*
%TD*%
D12*
%TO.C,R1*%
X65500000Y-67500000D03*
%TD*%
%TO.C,R3*%
X54500000Y-67500000D03*
%TD*%
%TO.C,B2*%
X60785712Y-67500000D03*
%TD*%
D11*
%TO.C,R7*%
X62357140Y-52500000D03*
%TD*%
D12*
%TO.C,R2*%
X62357140Y-67500000D03*
%TD*%
D11*
%TO.C,B5*%
X59214284Y-52500000D03*
%TD*%
%TO.C,B3*%
X56071428Y-67500000D03*
%TD*%
D13*
%TO.C,J4*%
X84525000Y-54602500D03*
X84525000Y-53967500D03*
X84525000Y-55872500D03*
X84525000Y-55237500D03*
X84525000Y-57142500D03*
X84525000Y-56507500D03*
X84525000Y-58412500D03*
X84525000Y-57777500D03*
X84525000Y-59682500D03*
X84525000Y-59047500D03*
X84525000Y-60952500D03*
X84525000Y-60317500D03*
X84525000Y-62222500D03*
X84525000Y-61587500D03*
X84525000Y-63492500D03*
X84525000Y-62857500D03*
X84525000Y-64762500D03*
X84525000Y-64127500D03*
X84525000Y-66032500D03*
X84525000Y-65397500D03*
%TD*%
D14*
%TO.C,J3*%
X95440000Y-54285000D03*
D15*
X98400000Y-54285000D03*
D14*
X95440000Y-55555000D03*
D15*
X98400000Y-55555000D03*
D14*
X95440000Y-56825000D03*
D15*
X98400000Y-56825000D03*
D14*
X95440000Y-58095000D03*
D15*
X98400000Y-58095000D03*
D14*
X95440000Y-59365000D03*
D15*
X98400000Y-59365000D03*
D14*
X95440000Y-60635000D03*
D15*
X98400000Y-60635000D03*
D14*
X95440000Y-61905000D03*
D15*
X98400000Y-61905000D03*
D14*
X95440000Y-63175000D03*
D15*
X98400000Y-63175000D03*
D14*
X95440000Y-64445000D03*
D15*
X98400000Y-64445000D03*
D14*
X95440000Y-65715000D03*
D15*
X98400000Y-65715000D03*
%TD*%
M02*
